<svg xmlns="http://www.w3.org/2000/svg" width="14" height="14" viewBox="0 0 14 14" fill="none">
    <path d="M6.50503 4.5357C6.70931 4.32344 6.99083 4.20312 7.28535 4.20312H10.1122C11.4261 4.20312 12.2501 5.1333 12.2501 6.44999V10.0027C12.2501 11.3199 11.4301 12.2501 10.1122 12.2501H6.34158C5.0232 12.2501 4.20312 11.3199 4.20312 10.0027V7.36822C4.20312 7.08903 4.31152 6.82111 4.50448 6.61968L6.50503 4.5357Z" stroke="black" stroke-width="0.875" stroke-linecap="round" stroke-linejoin="round"/>
    <path d="M7.22013 4.23438V5.866C7.22071 6.66225 6.57601 7.3087 5.77976 7.3104H4.23438" stroke="black" stroke-width="0.875" stroke-linecap="round" stroke-linejoin="round"/>
    <path d="M4.20342 9.80152H3.88901C2.56951 9.80152 1.75 8.86964 1.75 7.55014V4.91681C1.75 4.64156 1.86237 4.37198 2.05306 4.16994L4.0519 2.08711C4.25961 1.87372 4.54054 1.75 4.83225 1.75H7.66197C8.97575 1.75 9.80099 2.68245 9.80099 4.00195V4.204" stroke="black" stroke-width="0.875" stroke-linecap="round" stroke-linejoin="round"/>
    <path d="M4.76702 1.78125V3.4129C4.76758 4.20914 4.12287 4.85556 3.32663 4.85726H1.78125" stroke="black" stroke-width="0.875" stroke-linecap="round" stroke-linejoin="round"/>
</svg>
