<svg xmlns="http://www.w3.org/2000/svg" width="18" height="18" viewBox="0 0 18 18" fill="none">
    <path d="M5.96204 15.0276C5.79786 14.9451 5.61762 14.9167 5.43884 14.959C4.83099 15.102 3.85026 15.3465 3.1366 15.526C2.73088 15.6281 2.36164 15.2669 2.45578 14.8597C2.6331 14.0906 2.87901 13.0209 2.99576 12.486C3.03225 12.3196 3.00963 12.1481 2.93739 11.9941C2.50978 11.0784 2.25 10.0648 2.25 9.00015C2.25 4.86634 6.01604 1.5695 10.2863 2.37073C12.9695 2.87422 15.1258 5.03125 15.6293 7.71367C16.4305 11.9839 13.1336 15.75 8.99985 15.75C7.9425 15.75 6.88586 15.4946 5.96204 15.0276Z" stroke="#1F1F1F" stroke-width="1.125" stroke-linecap="round" stroke-linejoin="round"/>
    <path d="M6.44575 6.34366C5.40592 7.38861 6.194 9.04867 7.58047 10.4351C8.96692 11.8216 10.6007 12.5834 11.6457 11.5436L11.742 11.4472C12.1609 11.0291 12.0996 10.3337 11.6143 9.99517C11.4574 9.88642 11.2933 9.77115 11.1188 9.64927C10.7416 9.38437 10.2256 9.42525 9.89947 9.74992L9.72292 9.92512C8.96324 9.47265 8.57797 9.03772 8.06497 8.26717L8.24009 8.09062C8.56409 7.7637 8.60497 7.24777 8.34082 6.87051C8.21819 6.69611 8.10367 6.53193 7.99424 6.37504C7.65637 5.88978 6.96093 5.82921 6.54208 6.24734L6.44575 6.34366Z" stroke="#1F1F1F" stroke-width="1.125" stroke-linecap="round" stroke-linejoin="round"/>
</svg>
