<svg xmlns="http://www.w3.org/2000/svg" width="24" height="24" viewBox="0 0 24 24" fill="none">
  <path d="M7.8396 18.55C9.46391 19.2317 10.4757 17.7792 12.0095 17.7485C13.4992 17.7784 14.6073 19.2098 16.1795 18.55C17.0506 18.2097 17.6463 17.3771 17.6349 16.4384C17.6165 13.6335 15.012 10.3529 12.0095 10.3496C8.98941 10.3496 5.98969 13.8582 6.40576 16.7751C6.52274 17.6339 7.10141 18.2616 7.8396 18.55Z" stroke="#1F1F1F" stroke-width="1.44"/>
  <path d="M5.05588 11.0761C5.72735 11.0761 6.27168 10.5318 6.27168 9.86034C6.27168 9.18886 5.72735 8.64453 5.05588 8.64453C4.38442 8.64453 3.84009 9.18886 3.84009 9.86034C3.84009 10.5318 4.38442 11.0761 5.05588 11.0761Z" stroke="#1F1F1F" stroke-width="1.44"/>
  <path d="M18.9443 11.0761C19.6158 11.0761 20.1601 10.5318 20.1601 9.86034C20.1601 9.18886 19.6158 8.64453 18.9443 8.64453C18.2728 8.64453 17.7285 9.18886 17.7285 9.86034C17.7285 10.5318 18.2728 11.0761 18.9443 11.0761Z" stroke="#1F1F1F" stroke-width="1.44"/>
  <path d="M9.3945 7.31831C10.066 7.31831 10.6103 6.77398 10.6103 6.10252C10.6103 5.43105 10.066 4.88672 9.3945 4.88672C8.72304 4.88672 8.17871 5.43105 8.17871 6.10252C8.17871 6.77398 8.72304 7.31831 9.3945 7.31831Z" stroke="#1F1F1F" stroke-width="1.44"/>
  <path d="M14.607 7.31831C15.2784 7.31831 15.8227 6.77398 15.8227 6.10252C15.8227 5.43105 15.2784 4.88672 14.607 4.88672C13.9354 4.88672 13.3911 5.43105 13.3911 6.10252C13.3911 6.77398 13.9354 7.31831 14.607 7.31831Z" stroke="#1F1F1F" stroke-width="1.44"/>
</svg>