<svg xmlns="http://www.w3.org/2000/svg" width="24" height="24" viewBox="0 0 24 24" fill="none">
  <path d="M11.7604 18.9571C11.7462 19.9948 12.4088 20.7093 13.4044 20.9096C17.8986 21.8135 20.5178 16.2931 16.4804 13.8117C15.3982 13.0707 13.8638 12.6017 14.847 11.8841C16.2552 10.8561 16.9086 12.3485 18.3488 12.3683C19.3865 12.3826 20.101 11.7199 20.3012 10.7244C21.2053 6.23014 15.6848 3.61091 13.2034 7.64821C12.4624 8.73048 11.9934 10.2649 11.2758 9.28167C10.2477 7.87349 11.7402 7.22014 11.7599 5.77994C11.7741 4.74223 11.1115 4.02773 10.1159 3.82751C5.62179 2.92348 3.00256 8.44394 7.03986 10.9254C8.12212 11.6663 9.65657 12.1354 8.6733 12.853C7.26512 13.881 6.61175 12.3885 5.17155 12.3687C4.13384 12.3545 3.41933 13.0172 3.21911 14.0127C2.31508 18.5069 7.83556 21.1261 10.317 17.0889C11.058 16.0066 11.5269 14.4721 12.2445 15.4553C13.2726 16.8636 11.7802 17.5169 11.7604 18.9571Z" stroke="#1F1F1F" stroke-width="1.44" stroke-miterlimit="10"/>
  <path d="M11.7599 15.1321C13.2855 15.1321 14.5222 13.8954 14.5222 12.3698C14.5222 10.8442 13.2855 9.60742 11.7599 9.60742C10.2343 9.60742 8.99756 10.8442 8.99756 12.3698C8.99756 13.8954 10.2343 15.1321 11.7599 15.1321Z" stroke="#1F1F1F" stroke-width="1.44" stroke-linecap="round" stroke-linejoin="round"/>
</svg>