<svg xmlns="http://www.w3.org/2000/svg" width="58" height="58" viewBox="0 0 58 58" fill="none">
  <path fill-rule="evenodd" clip-rule="evenodd" d="M38.6498 24.7025L27.4897 35.8627C27.1344 36.2179 26.6728 36.3944 26.2088 36.3944C25.7424 36.3944 25.2808 36.2179 24.9256 35.8627L19.3455 30.2826C18.6374 29.5745 18.6374 28.4266 19.3455 27.7185C20.0536 27.0104 21.1991 27.0104 21.9072 27.7185L26.2088 32.0178L36.0857 22.1384C36.7938 21.4304 37.9417 21.4304 38.6498 22.1384C39.3579 22.8465 39.3579 23.9944 38.6498 24.7025ZM29.0001 6.04102C16.3416 6.04102 6.04175 16.3408 6.04175 28.9993C6.04175 41.6603 16.3416 51.9577 29.0001 51.9577C41.6586 51.9577 51.9584 41.6603 51.9584 28.9993C51.9584 16.3408 41.6586 6.04102 29.0001 6.04102Z" fill="#181A1B"/>
</svg>