<svg width="30" height="30" viewBox="0 0 30 30" fill="none" xmlns="http://www.w3.org/2000/svg">
<rect width="30" height="30" rx="4" fill="#3C5A99"/>
<path fill-rule="evenodd" clip-rule="evenodd" d="M16.6305 11.4445C16.6996 11.3786 16.788 11.3411 16.8746 11.3411H19.1246C19.3555 11.3411 19.5413 11.1545 19.5413 10.9245V7.92448C19.5413 7.69448 19.3555 7.50781 19.1246 7.50781H16.8746C15.7863 7.50781 14.713 7.94948 13.928 8.72198C13.1413 9.51365 12.708 10.562 12.708 11.6745V13.5087H10.8747C10.6438 13.5087 10.458 13.6945 10.458 13.9253V16.9245C10.458 17.1553 10.6438 17.3412 10.8747 17.3412H12.708V22.9245C12.708 23.1553 12.8947 23.3412 13.1247 23.3412H16.1246C16.3546 23.3412 16.5413 23.1553 16.5413 22.9245V17.3412H19.1246C19.3555 17.3412 19.5413 17.1553 19.5413 16.9245V13.9253C19.5413 13.6945 19.3555 13.5087 19.1246 13.5087H16.5413V11.6745C16.5413 11.5845 16.5763 11.4995 16.6305 11.4445Z" fill="white"/>
</svg>
