<svg xmlns="http://www.w3.org/2000/svg" width="48" height="17" viewBox="0 0 48 17" fill="none">
  <mask id="mask0_2694_17168" style="mask-type:luminance" maskUnits="userSpaceOnUse" x="0" y="0" width="13" height="14">
    <path d="M0 0.5H12.9922V13.3289H0V0.5Z" fill="white"/>
  </mask>
  <g mask="url(#mask0_2694_17168)">
    <path d="M11.6708 6.15909H6.22994V7.84978H10.09C9.89813 10.2136 8.01799 11.2233 6.23761 11.2233C5.66973 11.2312 5.1172 11.1138 4.59536 10.8868C4.06585 10.6598 3.60541 10.3389 3.20636 9.91618C2.80731 9.49351 2.50035 9.00039 2.28548 8.45248C2.0706 7.89674 1.97084 7.32535 1.97851 6.73048C1.97851 4.17096 3.86633 2.20632 6.23761 2.20632C8.07171 2.20632 9.15375 3.42737 9.15375 3.42737L10.2818 2.20632C10.2818 2.20632 8.83144 0.515625 6.18389 0.515625C2.81498 0.515625 0.205811 3.48999 0.205811 6.69917C0.205811 9.84574 2.65383 12.9219 6.26831 12.9219C9.44536 12.9219 11.7706 10.6441 11.7706 7.27839C11.7706 6.56611 11.6708 6.15909 11.6708 6.15909Z" fill="#4885ED"/>
  </g>
  <path d="M16.1299 4.9375C13.8967 4.9375 12.3005 6.76125 12.3005 8.89027C12.3005 11.0506 13.8507 12.9135 16.1529 12.9135C18.2479 12.9135 19.9592 11.2385 19.9592 8.93724C19.9592 6.29945 17.964 4.9375 16.1299 4.9375ZM16.1529 6.50295C17.2503 6.50295 18.294 7.4344 18.294 8.92941C18.294 10.3931 17.258 11.348 16.1452 11.348C14.9327 11.348 13.9735 10.3227 13.9735 8.91375C13.9735 7.53615 14.9251 6.50295 16.1529 6.50295Z" fill="#DB3236"/>
  <path d="M24.4713 4.9375C22.2382 4.9375 20.6343 6.76125 20.6343 8.89027C20.6343 11.0506 22.1844 12.9135 24.4943 12.9135C26.5817 12.9135 28.293 11.2385 28.293 8.93724C28.293 6.29945 26.3054 4.9375 24.4713 4.9375ZM24.4866 6.50295C25.584 6.50295 26.6277 7.4344 26.6277 8.92941C26.6277 10.3931 25.5917 11.348 24.4866 11.348C23.2665 11.348 22.3072 10.3227 22.3072 8.91375C22.3072 7.53615 23.2588 6.50295 24.4943 6.50295H24.4866Z" fill="#F4C20D"/>
  <mask id="mask1_2694_17168" style="mask-type:luminance" maskUnits="userSpaceOnUse" x="28" y="3" width="9" height="14">
    <path d="M28.708 3.31055H36.5662V16.4995H28.708V3.31055Z" fill="white"/>
  </mask>
  <g mask="url(#mask1_2694_17168)">
    <path d="M32.6464 4.9375C30.5974 4.9375 28.9858 6.81605 28.9858 8.92158C28.9858 11.3246 30.8506 12.9135 32.608 12.9135C33.6977 12.9135 34.2733 12.4673 34.6953 11.9507V12.7335C34.6953 14.1111 33.8972 14.9329 32.6924 14.9329C31.5259 14.9329 30.9427 14.025 30.7355 13.5162L29.2698 14.1502C29.7916 15.3008 30.8353 16.4984 32.7078 16.4984C34.749 16.4984 36.2992 15.1599 36.2992 12.3421V5.18015H34.703V5.85329C34.2119 5.29756 33.5365 4.9375 32.6464 4.9375ZM32.7922 6.50295C33.7975 6.50295 34.8335 7.40309 34.8335 8.93724C34.8335 10.487 33.8051 11.348 32.7691 11.348C31.6794 11.348 30.6665 10.4244 30.6665 8.94506C30.6665 7.41875 31.7178 6.50295 32.7922 6.50295Z" fill="#4885ED"/>
  </g>
  <mask id="mask2_2694_17168" style="mask-type:luminance" maskUnits="userSpaceOnUse" x="38" y="3" width="10" height="11">
    <path d="M38.5332 3.31055H47.0591V13.3295H38.5332V3.31055Z" fill="white"/>
  </mask>
  <g mask="url(#mask2_2694_17168)">
    <path d="M43.4144 4.92969C41.4806 4.92969 39.8613 6.5421 39.8613 8.91377C39.8613 11.4263 41.6724 12.9135 43.5986 12.9135C45.2101 12.9135 46.2078 11.9899 46.791 11.1602L45.4711 10.2444C45.1334 10.8001 44.5578 11.3402 43.6063 11.3402C42.5319 11.3402 42.0408 10.7297 41.7338 10.1348L46.8447 7.91971L46.5915 7.27004C46.0927 5.9942 44.9415 4.92969 43.4144 4.92969ZM43.4835 6.46383C44.1818 6.46383 44.6806 6.8552 44.8955 7.31701L41.4806 8.81201C41.3347 7.65358 42.3784 6.46383 43.4758 6.46383H43.4835Z" fill="#DB3236"/>
  </g>
  <mask id="mask3_2694_17168" style="mask-type:luminance" maskUnits="userSpaceOnUse" x="36" y="0" width="5" height="14">
    <path d="M36.5674 0.5H40.4965V13.3289H36.5674V0.5Z" fill="white"/>
  </mask>
  <g mask="url(#mask3_2694_17168)">
    <path d="M37.4189 12.6804H39.0919V0.923828H37.4189V12.6804Z" fill="#3CBA54"/>
  </g>
</svg>