<svg xmlns="http://www.w3.org/2000/svg" width="24" height="24" viewBox="0 0 24 24" fill="none">
    <path fill-rule="evenodd" clip-rule="evenodd" d="M21.4279 8.4804C21.1459 6.6384 20.0579 5.1004 18.4429 4.2614C16.8649 3.4404 15.0319 3.4294 13.4179 4.2294C12.8959 4.4874 12.4209 4.8164 12.0019 5.2094C11.4069 4.6534 10.6999 4.2244 9.93392 3.9554C8.30192 3.3764 6.62092 3.5494 5.20292 4.4414C3.72492 5.3734 2.72792 7.0114 2.53492 8.8274C2.09592 13.2644 6.00392 16.2504 9.14392 18.6484C9.73192 19.0974 10.3009 19.5314 10.8169 19.9554C11.1519 20.2344 11.5779 20.3804 12.0019 20.3804C12.2329 20.3804 12.4629 20.3374 12.6769 20.2484C12.9469 20.1464 13.1489 19.9794 13.3799 19.7874C13.8549 19.3974 14.3689 19.0004 14.9009 18.5894C18.1019 16.1154 22.0859 13.0364 21.4279 8.4804Z" fill="#1A5CEB"/>
</svg>
