<svg xmlns="http://www.w3.org/2000/svg" width="20" height="20" viewBox="0 0 20 20" fill="none">
  <path fill-rule="evenodd" clip-rule="evenodd" d="M16.8315 3.77469C14.914 1.91885 11.909 1.91885 9.99147 3.77469C9.66064 4.09469 9.65147 4.62219 9.97147 4.95302C10.2923 5.28469 10.819 5.29219 11.1498 4.97219C12.419 3.74552 14.4056 3.74719 15.6731 4.97302C16.2981 5.57635 16.6515 6.38635 16.6665 7.25385C16.6815 8.12135 16.3573 8.94387 15.7631 9.55887L13.8798 11.4414C13.7731 11.5514 13.6573 11.648 13.534 11.7405C12.8398 12.2614 11.9873 12.478 11.1265 12.358C10.264 12.2339 9.50147 11.7814 8.97897 11.0839C8.70314 10.7147 8.18151 10.638 7.81234 10.9147C7.44401 11.1905 7.36901 11.7122 7.64484 12.0814C8.43397 13.1364 9.58647 13.8214 10.8906 14.0072C11.1265 14.0414 11.3623 14.058 11.5965 14.058C12.6523 14.058 13.6748 13.7197 14.5323 13.0747C14.7381 12.9222 14.9148 12.768 15.0665 12.6122L16.9515 10.7272C17.8648 9.78137 18.3556 8.53804 18.3323 7.22552C18.3098 5.91135 17.7765 4.68635 16.8315 3.77469Z" fill="#FFFFFF"/>
  <path fill-rule="evenodd" clip-rule="evenodd" d="M8.84996 15.0261C7.58165 16.2536 5.59499 16.2519 4.32665 15.0253C3.70082 14.4211 3.34749 13.6094 3.33332 12.7386C3.31915 11.8711 3.64332 11.0511 4.23832 10.4386L6.10249 8.5661C6.22165 8.45026 6.35082 8.34193 6.46415 8.25106C7.89999 7.1794 9.94413 7.4744 11.0216 8.9086C11.2983 9.27776 11.8191 9.35026 12.1883 9.07443C12.5566 8.79776 12.6308 8.27523 12.355 7.90773C10.7258 5.7394 7.63582 5.2944 5.44415 6.93273C5.26749 7.07523 5.09999 7.2169 4.93249 7.37856L3.04999 9.27026C2.13665 10.2111 1.64499 11.4519 1.66749 12.7661C1.68915 14.0828 2.22249 15.3111 3.16915 16.2236C4.12749 17.1519 5.35749 17.6153 6.58832 17.6153C7.81915 17.6153 9.04996 17.1519 10.0091 16.2236C10.34 15.9044 10.3483 15.3769 10.0283 15.0453C9.70829 14.7136 9.1808 14.7061 8.84996 15.0261Z" fill="#FFFFFF"/>
</svg>