<svg xmlns="http://www.w3.org/2000/svg" width="21" height="20" viewBox="0 0 21 20" fill="none">
  <path d="M13.5532 4.65625V7.54125" stroke="black" stroke-width="1.25" stroke-linecap="round" stroke-linejoin="round"/>
  <path fill-rule="evenodd" clip-rule="evenodd" d="M15.0177 17.2542C14.5368 17.2542 12.0144 15.2117 12.0144 13.0744C12.0144 11.4155 13.3587 10.0703 15.0177 10.0703C16.6766 10.0703 18.021 11.4155 18.021 13.0744C18.021 15.2117 15.4985 17.2542 15.0177 17.2542Z" stroke="black" stroke-width="1.25" stroke-linecap="round" stroke-linejoin="round"/>
  <path d="M15.0171 13.1441V13.0469" stroke="black" stroke-width="1.66667" stroke-linecap="round" stroke-linejoin="round"/>
  <path d="M9.88941 16.2808L8.10402 15.6305C7.80078 15.521 7.46753 15.5324 7.1732 15.6629L4.23155 16.9683C3.66235 17.2213 3.021 16.8045 3.021 16.181V5.73038C3.021 5.10442 3.38992 4.53767 3.96155 4.28387L7.1732 2.85683C7.46753 2.72629 7.80078 2.71494 8.10321 2.82522L12.7971 4.53037C13.0995 4.63982 13.4336 4.62847 13.7278 4.49793L16.6655 3.19171C17.2355 2.93548 17.8777 3.35225 17.8777 3.97901V7.80851" stroke="black" stroke-width="1.25" stroke-linecap="round" stroke-linejoin="round"/>
  <path d="M7.63232 15.5587V2.76562" stroke="black" stroke-width="1.25" stroke-linecap="round" stroke-linejoin="round"/>
</svg>