<svg width="30" height="30" viewBox="0 0 30 30" fill="none" xmlns="http://www.w3.org/2000/svg">
<rect width="30" height="30" rx="4" fill="#CB2027"/>
<path fill-rule="evenodd" clip-rule="evenodd" d="M15.8238 18.0153C15.7747 18.0178 15.7272 18.0187 15.6797 18.0187C15.1288 18.0187 14.6238 17.8453 14.2272 17.5395L13.808 19.3245C13.7405 19.6128 13.483 19.807 13.2005 19.807C13.153 19.807 13.1047 19.8028 13.0572 19.7912C12.7205 19.712 12.5113 19.3762 12.5905 19.0395L13.7338 14.1645C13.813 13.8287 14.1497 13.6187 14.4855 13.6978C14.8213 13.777 15.0305 14.1128 14.9513 14.4495L14.6772 15.6187C14.6213 15.9578 14.6897 16.2462 14.8738 16.4528C15.0738 16.6762 15.393 16.7912 15.7563 16.767C16.8872 16.7045 17.4997 15.5853 17.4997 14.5653C17.4997 13.2686 16.458 12.2903 15.0772 12.2903C13.6255 12.2903 12.4455 13.2961 12.4455 14.532C12.4455 14.7237 12.473 14.9045 12.5263 15.0853C12.5688 15.2262 12.623 15.357 12.6955 15.487C12.863 15.7878 12.7547 16.1687 12.453 16.3362C12.1513 16.5053 11.7713 16.3962 11.6038 16.0937C11.488 15.8862 11.3955 15.6678 11.3288 15.4428C11.2405 15.1503 11.1955 14.8428 11.1955 14.532C11.1955 12.607 12.9363 11.0403 15.0772 11.0403C17.1705 11.0403 18.7497 12.5553 18.7497 14.5653C18.7497 16.1587 17.7238 17.9095 15.8238 18.0153ZM14.9997 7.50781C10.6338 7.50781 7.08301 11.0586 7.08301 15.4245C7.08301 19.7895 10.6338 23.3412 14.9997 23.3412C19.3647 23.3412 22.9163 19.7895 22.9163 15.4245C22.9163 11.0586 19.3647 7.50781 14.9997 7.50781Z" fill="white"/>
</svg>
