<svg xmlns="http://www.w3.org/2000/svg" width="24" height="24" viewBox="0 0 24 24" fill="none">
  <path d="M20.2698 9.5504C19.7347 10.0453 19.0098 10.3586 18.2645 10.3292C17.2946 10.3292 16.5082 9.5428 16.5082 8.57281C16.5082 7.60281 17.2946 6.81647 18.2645 6.81647C18.8126 6.81647 19.0858 6.88998 19.5331 7.02111C18.9864 4.48551 15.8403 3.97434 14.0951 7.19248C13.1271 8.78061 12.1513 10.3946 10.4943 10.3292C9.52428 10.3292 8.73795 9.5428 8.73795 8.57281C8.73795 7.60281 9.52428 6.81647 10.4943 6.81647C11.0424 6.81647 11.3156 6.88998 11.7627 7.02111C11.2161 4.48551 8.05164 3.97434 6.30642 7.19248C4.79841 9.6665 3.6044 10.2775 2.98975 10.414" stroke="#1F1F1F" stroke-width="1.44" stroke-linecap="round" stroke-linejoin="round"/>
  <path d="M2.75073 14.0666C5.16644 15.5353 7.24705 12.5979 9.6627 14.0666C12.0784 15.5353 14.1591 12.5979 16.5747 14.0666C17.6273 14.7065 18.9781 14.7065 20.0307 14.0666" stroke="#1F1F1F" stroke-width="1.44" stroke-linecap="round" stroke-linejoin="round"/>
  <path d="M2.75073 18.5725C5.16644 20.0411 7.24705 17.1037 9.6627 18.5724C12.0784 20.0411 14.1591 17.1037 16.5747 18.5724C17.6273 19.2124 18.9781 19.2124 20.0307 18.5724" stroke="#1F1F1F" stroke-width="1.44" stroke-linecap="round" stroke-linejoin="round"/>
</svg>