<svg xmlns="http://www.w3.org/2000/svg" width="20" height="20" viewBox="0 0 20 20" fill="none">
    <path fill-rule="evenodd" clip-rule="evenodd" d="M14.7044 2.79883C15.8976 2.79883 16.8644 3.76556 16.8644 4.9588C16.8644 6.15204 15.8976 7.11878 14.7044 7.11878C13.5112 7.11878 12.5444 6.15204 12.5444 4.9588C12.5444 3.76556 13.5112 2.79883 14.7044 2.79883Z" stroke="#333333" stroke-width="1.25" stroke-linecap="round" stroke-linejoin="round"/>
    <path fill-rule="evenodd" clip-rule="evenodd" d="M6.06476 7.83984C7.258 7.83984 8.22474 8.8066 8.22474 9.9998C8.22474 11.1931 7.258 12.1598 6.06476 12.1598C4.87152 12.1598 3.90479 11.1931 3.90479 9.9998C3.90479 8.8066 4.87152 7.83984 6.06476 7.83984Z" stroke="#333333" stroke-width="1.25" stroke-linecap="round" stroke-linejoin="round"/>
    <path fill-rule="evenodd" clip-rule="evenodd" d="M14.7044 12.8809C15.8976 12.8809 16.8644 13.8476 16.8644 15.0408C16.8644 16.2333 15.8976 17.2008 14.7044 17.2008C13.5112 17.2008 12.5444 16.2333 12.5444 15.0408C12.5444 13.8476 13.5112 12.8809 14.7044 12.8809Z" stroke="#333333" stroke-width="1.25" stroke-linecap="round" stroke-linejoin="round"/>
    <path d="M7.92898 11.0865L12.8467 13.9525M12.839 6.04688L7.92822 8.91208" stroke="#333333" stroke-width="1.25" stroke-linecap="round" stroke-linejoin="round"/>
</svg>
