<svg xmlns="http://www.w3.org/2000/svg" width="14" height="14" viewBox="0 0 14 14" fill="none">
    <path d="M10.452 8.35398C10.3009 8.5004 10.2315 8.71215 10.2659 8.91982L10.7845 11.7898C10.8283 12.0331 10.7256 12.2792 10.522 12.4198C10.3225 12.5657 10.0571 12.5832 9.83953 12.4665L7.25594 11.119C7.16611 11.0712 7.06636 11.0455 6.96428 11.0426H6.80619C6.75136 11.0507 6.69769 11.0682 6.64869 11.0951L4.06453 12.449C3.93678 12.5132 3.79211 12.5359 3.65036 12.5132C3.30503 12.4478 3.07461 12.1188 3.13119 11.7717L3.65036 8.90173C3.68478 8.69232 3.61536 8.4794 3.46428 8.33065L1.35786 6.28898C1.18169 6.11807 1.12044 5.8614 1.20094 5.62982C1.27911 5.39882 1.47861 5.23023 1.71953 5.19232L4.61869 4.77173C4.83919 4.74898 5.03286 4.61482 5.13203 4.41648L6.40953 1.79732C6.43986 1.73898 6.47894 1.68532 6.52619 1.63982L6.57869 1.59898C6.60611 1.56865 6.63761 1.54357 6.67261 1.52315L6.73619 1.49982L6.83536 1.45898H7.08094C7.30028 1.48173 7.49336 1.61298 7.59428 1.80898L8.88869 4.41648C8.98203 4.60723 9.16344 4.73965 9.37286 4.77173L12.272 5.19232C12.517 5.22732 12.7218 5.39648 12.8029 5.62982C12.8793 5.86373 12.8134 6.1204 12.6337 6.28898L10.452 8.35398Z" fill="#1A5CEB"/>
</svg>
