<svg xmlns="http://www.w3.org/2000/svg" width="18" height="16" viewBox="0 0 18 16" fill="none">
  <path d="M13.9911 9.93203C13.7752 10.1412 13.6761 10.4437 13.7252 10.7404L14.4661 14.8404C14.5286 15.1879 14.3819 15.5395 14.0911 15.7404C13.8061 15.9487 13.4269 15.9737 13.1161 15.807L9.42524 13.882C9.2969 13.8137 9.1544 13.777 9.00857 13.7729H8.78274C8.7044 13.7845 8.62774 13.8095 8.55774 13.8479L4.86607 15.782C4.68357 15.8737 4.4769 15.9062 4.2744 15.8737C3.78107 15.7804 3.4519 15.3104 3.53274 14.8145L4.2744 10.7145C4.32357 10.4154 4.2244 10.1112 4.00857 9.8987L0.999405 6.98203C0.747738 6.73786 0.660238 6.3712 0.775238 6.04036C0.886905 5.71036 1.1719 5.46953 1.51607 5.41536L5.65774 4.81453C5.97274 4.78203 6.2494 4.59036 6.39107 4.30703L8.21607 0.565365C8.2594 0.482031 8.31524 0.405365 8.38274 0.340365L8.45774 0.282031C8.4969 0.238698 8.5419 0.202865 8.5919 0.173698L8.68274 0.140365L8.8244 0.0820312H9.17524C9.48857 0.114531 9.7644 0.302031 9.90857 0.582031L11.7577 4.30703C11.8911 4.57953 12.1502 4.7687 12.4494 4.81453L16.5911 5.41536C16.9411 5.46536 17.2336 5.70703 17.3494 6.04036C17.4586 6.37453 17.3644 6.7412 17.1077 6.98203L13.9911 9.93203Z" fill="#ECECEC"/>
  <path d="M8.8244 0.0820312V13.7704H8.00857C8.11874 13.7744 8.22637 13.806 8.32091 13.8607L8.55774 13.8479L4.86607 15.782C4.68357 15.8737 4.4769 15.9062 4.2744 15.8737C3.78107 15.7804 3.4519 15.3104 3.53274 14.8145L4.2744 10.7145C4.32357 10.4154 4.2244 10.1112 4.00857 9.8987L0.999405 6.98203C0.747738 6.73786 0.660238 6.3712 0.775238 6.04036C0.886905 5.71036 1.1719 5.46953 1.51607 5.41536L5.65774 4.81453C5.97274 4.78203 6.2494 4.59036 6.39107 4.30703L8.21607 0.565365C8.2594 0.482031 8.31524 0.405365 8.38274 0.340365L8.45774 0.282031L8.8244 0.0820312Z" fill="#2563EB"/>
</svg>
