<svg xmlns="http://www.w3.org/2000/svg" width="24" height="24" viewBox="0 0 24 24" fill="none">
  <path fill-rule="evenodd" clip-rule="evenodd" d="M20.4937 9.1367C21.1388 9.79244 21.1738 10.5756 20.5628 11.2489C20.2019 11.6468 19.8195 12.0282 19.4216 12.3891C18.8213 12.933 17.897 12.9096 17.324 12.3385C15.4288 10.4482 13.5365 8.55588 11.6471 6.66065C11.0702 6.08178 11.0624 5.14681 11.6276 4.55723C11.9964 4.17293 12.3709 3.79447 12.7572 3.42963C13.375 2.84686 14.1951 2.85951 14.8071 3.45201C15.1301 3.76431 20.1921 8.83024 20.4937 9.1367Z" stroke="#1F1F1F" stroke-width="1.5" stroke-linecap="round" stroke-linejoin="round"/>
  <path fill-rule="evenodd" clip-rule="evenodd" d="M9.13743 20.4938C9.79317 21.1388 10.5764 21.1738 11.2496 20.5628C11.6466 20.2019 12.0289 19.8195 12.3899 19.4216C12.9327 18.8213 12.9104 17.8971 12.3383 17.324C10.4489 15.4288 8.55661 13.5365 6.66139 11.6471C6.08251 11.0702 5.14755 11.0624 4.55796 11.6277C4.17367 11.9964 3.79521 12.371 3.43037 12.7572C2.84662 13.375 2.85927 14.1952 3.45274 14.8071L9.13743 20.4938Z" stroke="#1F1F1F" stroke-width="1.5" stroke-linecap="round" stroke-linejoin="round"/>
  <path d="M3.32812 18.1602L5.84602 20.6781" stroke="#1F1F1F" stroke-width="1.5" stroke-linecap="round" stroke-linejoin="round"/>
  <path d="M18.1602 3.32812L20.678 5.84602" stroke="#1F1F1F" stroke-width="1.5" stroke-linecap="round" stroke-linejoin="round"/>
  <path d="M15.7024 10.8721C14.0903 12.4843 12.4811 14.0934 10.8398 15.7347M10.8731 15.7024C12.4852 14.0894 14.0944 12.4811 15.7347 10.8398" stroke="#1F1F1F" stroke-width="1.5" stroke-linecap="round" stroke-linejoin="round"/>
  <path d="M8.27148 13.1654C9.89332 11.5436 11.5025 9.9344 13.1331 8.30283M13.1654 8.27148C11.5436 9.89332 9.9344 11.5015 8.30285 13.134" stroke="#1F1F1F" stroke-width="1.5" stroke-linecap="round" stroke-linejoin="round"/>
</svg>