<svg width="30" height="30" viewBox="0 0 30 30" fill="none" xmlns="http://www.w3.org/2000/svg">
<rect width="30" height="30" rx="4" fill="#1BD741"/>
<path fill-rule="evenodd" clip-rule="evenodd" d="M17.0914 16.7245L17.0056 16.6653C16.8314 16.5436 16.5906 16.5595 16.4464 16.7028L16.2531 16.8978C16.0514 17.1028 15.7339 17.142 15.4864 16.9936C14.5264 16.4153 14.0472 15.857 13.4481 14.9661C13.2839 14.7211 13.3131 14.3936 13.5189 14.182L13.7131 13.982C13.8656 13.8261 13.8839 13.5936 13.7597 13.4128C13.6272 13.2278 13.4981 13.0419 13.3747 12.8644C13.3031 12.7628 13.1856 12.6961 13.0564 12.6853C13.0456 12.6844 13.0331 12.6836 13.0189 12.6836C12.9406 12.6836 12.8206 12.7053 12.7172 12.8094L12.6131 12.9144L12.6106 12.9169C11.7256 13.8045 12.6814 15.3928 13.8714 16.5836C15.0464 17.7545 16.6197 18.6945 17.5047 17.8078L17.6272 17.6928C17.7347 17.5836 17.7422 17.4378 17.7356 17.3628C17.7289 17.287 17.6964 17.1461 17.5539 17.047C17.4006 16.937 17.2497 16.8336 17.0914 16.7245Z" fill="white"/>
<path fill-rule="evenodd" clip-rule="evenodd" d="M18.4966 18.5899L18.3733 18.7066C17.89 19.1874 17.3058 19.4249 16.655 19.4249C15.565 19.4249 14.2883 18.7616 12.9891 17.4666C10.9258 15.4032 10.4416 13.3215 11.7241 12.034L11.83 11.9274C12.1841 11.5724 12.6775 11.3924 13.1641 11.4382C13.6625 11.4815 14.1125 11.7399 14.4 12.1482C14.5216 12.324 14.6483 12.5049 14.7833 12.6932C15.2033 13.3015 15.1841 14.0941 14.7658 14.6682C15.065 15.0757 15.3433 15.3766 15.74 15.6641C16.3166 15.2332 17.1125 15.2149 17.7183 15.6366L17.8008 15.6924C17.9666 15.8074 18.125 15.9157 18.2766 16.0257C18.6775 16.3041 18.9366 16.7524 18.9816 17.2491C19.0266 17.7474 18.8491 18.2357 18.4966 18.5899ZM22.7766 13.9141C22.1833 10.7582 19.6633 8.23904 16.5075 7.64737C14.1633 7.20654 11.7791 7.82154 9.96079 9.32987C8.13246 10.8465 7.08496 13.0674 7.08496 15.4241C7.08496 16.6091 7.35496 17.7866 7.88663 18.9207C7.92996 19.0191 7.94329 19.1182 7.92329 19.2099C7.79329 19.8007 7.52079 20.9899 7.32413 21.8399C7.24163 22.1991 7.34996 22.5657 7.61163 22.8199C7.87079 23.0716 8.23746 23.1707 8.58746 23.0782C9.37996 22.8782 10.4658 22.6124 11.1475 22.4532C11.2366 22.4324 11.335 22.4449 11.4375 22.4957C12.5366 23.0491 13.7691 23.3407 15.0016 23.3407C17.3566 23.3407 19.5766 22.2932 21.0916 20.4674C22.6025 18.6482 23.2158 16.2591 22.7766 13.9141Z" fill="white"/>
</svg>
