<svg xmlns="http://www.w3.org/2000/svg" width="24" height="24" viewBox="0 0 24 24" fill="none">
  <path fill-rule="evenodd" clip-rule="evenodd" d="M2.96875 19.5078C2.96875 19.0936 3.30454 18.7578 3.71875 18.7578H21.7188C22.1329 18.7578 22.4688 19.0936 22.4688 19.5078C22.4688 19.922 22.1329 20.2578 21.7188 20.2578H3.71875C3.30454 20.2578 2.96875 19.922 2.96875 19.5078Z" fill="#1F1F1F"/>
  <path fill-rule="evenodd" clip-rule="evenodd" d="M7.80078 8.92188C7.80078 8.50765 8.13657 8.17188 8.55078 8.17188H9.41478C9.82899 8.17188 10.1647 8.50765 10.1647 8.92188C10.1647 9.33608 9.82899 9.67188 9.41478 9.67188H8.55078C8.13657 9.67188 7.80078 9.33608 7.80078 8.92188ZM7.80078 12.2446C7.80078 11.8304 8.13657 11.4946 8.55078 11.4946H9.41478C9.82899 11.4946 10.1647 11.8304 10.1647 12.2446C10.1647 12.6588 9.82899 12.9946 9.41478 12.9946H8.55078C8.13657 12.9946 7.80078 12.6588 7.80078 12.2446ZM7.80078 15.5674C7.80078 15.1531 8.13657 14.8174 8.55078 14.8174H9.41478C9.82899 14.8174 10.1647 15.1531 10.1647 15.5674C10.1647 15.9816 9.82899 16.3174 9.41478 16.3174H8.55078C8.13657 16.3174 7.80078 15.9816 7.80078 15.5674Z" fill="#1F1F1F"/>
  <path fill-rule="evenodd" clip-rule="evenodd" d="M15.75 13.3555C15.75 12.9412 16.0858 12.6055 16.5 12.6055H17.364C17.7782 12.6055 18.114 12.9412 18.114 13.3555C18.114 13.7697 17.7782 14.1055 17.364 14.1055H16.5C16.0858 14.1055 15.75 13.7697 15.75 13.3555ZM15.75 16.6782C15.75 16.264 16.0858 15.9282 16.5 15.9282H17.364C17.7782 15.9282 18.114 16.264 18.114 16.6782C18.114 17.0924 17.7782 17.4282 17.364 17.4282H16.5C16.0858 17.4282 15.75 17.0924 15.75 16.6782Z" fill="#1F1F1F"/>
  <path fill-rule="evenodd" clip-rule="evenodd" d="M4.23828 6.37003C4.23828 4.91862 5.41472 3.74219 6.86612 3.74219H11.0947C12.5461 3.74219 13.7225 4.91862 13.7225 6.37003V19.511C13.7225 19.9252 13.3867 20.261 12.9725 20.261C12.5583 20.261 12.2225 19.9252 12.2225 19.511V6.37003C12.2225 5.74705 11.7176 5.24219 11.0947 5.24219H6.86612C6.24315 5.24219 5.73828 5.74705 5.73828 6.37003V19.511C5.73828 19.9252 5.4025 20.261 4.98828 20.261C4.57407 20.261 4.23828 19.9252 4.23828 19.511V6.37003Z" fill="#1F1F1F"/>
  <path fill-rule="evenodd" clip-rule="evenodd" d="M12.2344 10.3047C12.2344 9.89047 12.5702 9.55469 12.9844 9.55469H18.6617C20.1131 9.55469 21.2895 10.7311 21.2895 12.1825V19.509C21.2895 19.9232 20.9537 20.259 20.5395 20.259C20.1253 20.259 19.7895 19.9232 19.7895 19.509V12.1825C19.7895 11.5595 19.2846 11.0547 18.6617 11.0547H13.7344V19.509C13.7344 19.9232 13.3986 20.259 12.9844 20.259C12.5702 20.259 12.2344 19.9232 12.2344 19.509V10.3047Z" fill="#1F1F1F"/>
</svg>