<svg xmlns="http://www.w3.org/2000/svg" width="20" height="21" viewBox="0 0 20 21" fill="none">
  <path fill-rule="evenodd" clip-rule="evenodd" d="M3.99694 6.38141C3.99694 5.34058 4.84027 4.49725 5.88111 4.49641H6.7386C7.2361 4.49641 7.71277 4.29891 8.0661 3.94891L8.66527 3.34891C9.39944 2.61058 10.5928 2.60725 11.3311 3.34141L11.3319 3.34225L11.3394 3.34891L11.9394 3.94891C12.2928 4.29975 12.7694 4.49641 13.2669 4.49641H14.1236C15.1644 4.49641 16.0086 5.33975 16.0086 6.38141V7.23725C16.0086 7.73475 16.2053 8.21225 16.5561 8.56558L17.1561 9.16558C17.8944 9.89975 17.8986 11.0931 17.1644 11.8314L17.1636 11.8322L17.1561 11.8397L16.5561 12.4397C16.2053 12.7922 16.0086 13.2689 16.0086 13.7664V14.6239C16.0086 15.6647 15.1653 16.5081 14.1244 16.5081H13.2653C12.7678 16.5081 12.2903 16.7056 11.9378 17.0564L11.3378 17.6556C10.6044 18.3939 9.41194 18.3981 8.67361 17.6656C8.67277 17.6647 8.67194 17.6639 8.67111 17.6631L8.66361 17.6556L8.06444 17.0564C7.71194 16.7056 7.23444 16.5089 6.73694 16.5081H5.88111C4.84027 16.5081 3.99694 15.6647 3.99694 14.6239V13.7647C3.99694 13.2672 3.79944 12.7906 3.44861 12.4381L2.84944 11.8381C2.11111 11.1047 2.10694 9.91225 2.84027 9.17391C2.84027 9.17308 2.84111 9.17225 2.84194 9.17141L2.84944 9.16391L3.44861 8.56391C3.79944 8.21058 3.99694 7.73391 3.99694 7.23558V6.38141Z" stroke="black" stroke-width="1.25" stroke-linecap="round" stroke-linejoin="round"/>
  <path d="M7.85938 12.6427L12.1427 8.35938" stroke="black" stroke-width="1.25" stroke-linecap="round" stroke-linejoin="round"/>
  <path d="M12.0781 12.582H12.0856" stroke="black" stroke-width="1.25" stroke-linecap="round" stroke-linejoin="round"/>
  <path d="M7.91406 8.41797H7.92156" stroke="black" stroke-width="1.25" stroke-linecap="round" stroke-linejoin="round"/>
</svg>