<svg width="24" height="24" viewBox="0 0 24 24" fill="none" xmlns="http://www.w3.org/2000/svg">
<path d="M12.1508 21L10.0832 18.9324H8.02539C5.41587 18.9324 3.78906 17.0945 3.78906 14.4859V7.44746C3.78906 4.83795 5.42463 3 8.02539 3H16.2762C18.8857 3 20.5115 4.83795 20.5115 7.44746V14.4859C20.5115 17.0945 18.8857 18.9324 16.2762 18.9324H14.2184L12.1508 21Z" stroke="black" stroke-width="1.5" stroke-linecap="round" stroke-linejoin="round"/>
<path d="M7.51172 18.8604V18.047C7.51172 16.5331 8.71042 14.6445 12.1479 14.6445C15.5942 14.6445 16.7929 16.5165 16.7929 18.0295V18.8604" stroke="black" stroke-width="1.5" stroke-linecap="round" stroke-linejoin="round"/>
<path fill-rule="evenodd" clip-rule="evenodd" d="M15.1139 9.51348C15.1139 11.15 13.7878 12.4762 12.1512 12.4762C10.5147 12.4762 9.1875 11.15 9.1875 9.51348C9.1875 7.87694 10.5147 6.55078 12.1512 6.55078C13.7878 6.55078 15.1139 7.87694 15.1139 9.51348Z" stroke="black" stroke-width="1.5" stroke-linecap="round" stroke-linejoin="round"/>
</svg>
