<svg width="24" height="24" viewBox="0 0 24 24" fill="none" xmlns="http://www.w3.org/2000/svg">
<path d="M13.9614 5.39453H16.6556C19.2116 5.39453 20.7976 7.1994 20.7976 9.7554V16.648C20.7976 19.1962 19.2116 21.0011 16.6469 21.0011H7.65364C5.09764 21.0011 3.50391 19.1962 3.50391 16.648V9.7554C3.50391 7.1994 5.1064 5.39453 7.65364 5.39453H10.3371" stroke="black" stroke-width="1.5" stroke-linecap="round" stroke-linejoin="round"/>
<path d="M14.8984 10.6445H17.5546M14.8984 13.8908L17.5546 13.9336M15.8942 17.2245H17.5541" stroke="black" stroke-width="1.5" stroke-linecap="round" stroke-linejoin="round"/>
<path d="M6.85547 17.4427C6.85547 16.5427 7.56574 15.4219 9.6119 15.4219C11.659 15.4219 12.3693 16.535 12.3693 17.435" stroke="black" stroke-width="1.5" stroke-linecap="round" stroke-linejoin="round"/>
<path fill-rule="evenodd" clip-rule="evenodd" d="M11.3737 11.7142C11.3737 12.6872 10.5856 13.4753 9.61265 13.4753C8.63967 13.4753 7.85156 12.6872 7.85156 11.7142C7.85156 10.7412 8.63967 9.95312 9.61265 9.95312C10.5856 9.95312 11.3737 10.7412 11.3737 11.7142Z" stroke="black" stroke-width="1.5" stroke-linecap="round" stroke-linejoin="round"/>
<path fill-rule="evenodd" clip-rule="evenodd" d="M13.5537 7.57104L12.3122 8.19471C12.2119 8.24531 12.0942 8.24531 11.993 8.19569L10.7437 7.57104C10.5034 7.45039 10.3516 7.2052 10.3516 6.93666V4.00216C10.3516 3.44854 10.8002 3 11.3548 3H12.9417C13.4953 3 13.9448 3.44854 13.9448 4.00216V6.93763C13.9448 7.20617 13.793 7.45039 13.5537 7.57104Z" stroke="black" stroke-width="1.5" stroke-linecap="round" stroke-linejoin="round"/>
</svg>
