<svg xmlns="http://www.w3.org/2000/svg" width="24" height="25" viewBox="0 0 24 25" fill="none">
  <path fill-rule="evenodd" clip-rule="evenodd" d="M10.2548 5.3514C11.2054 5.23718 12.0409 5.98411 12.0409 6.93765V12.9875C12.0409 13.0399 12.0822 13.0801 12.1325 13.0801H18.1833C19.1368 13.0801 19.8838 13.9156 19.7696 14.8662C19.1914 19.6368 14.6804 23.1942 9.58526 22.204C6.24748 21.556 3.56496 18.8733 2.91605 15.5358C1.92687 10.4407 5.48412 5.9296 10.2548 5.3514ZM4.38848 15.2495C3.57009 11.0336 6.50284 7.31742 10.4339 6.84066L4.38848 15.2495ZM10.4339 6.84066C10.4598 6.83761 10.485 6.84495 10.5074 6.86488C10.53 6.88496 10.5409 6.91014 10.5409 6.93765V12.9875C10.5409 13.8672 11.2527 14.5801 12.1325 14.5801H18.1833C18.2108 14.5801 18.236 14.591 18.2561 14.6136C18.2761 14.6361 18.2834 14.6614 18.2803 14.6873C17.8038 18.6188 14.0875 21.5509 9.87144 20.7315C7.13426 20.2002 4.92079 17.9869 4.38848 15.2495" fill="black"/>
  <path fill-rule="evenodd" clip-rule="evenodd" d="M13.5352 4.46517C13.5352 3.50531 14.3831 2.75565 15.339 2.88089C18.9263 3.35226 21.766 6.19169 22.2374 9.77902C22.3625 10.7356 21.6141 11.5831 20.6531 11.5831H15.1268C14.248 11.5831 13.5352 10.8713 13.5352 9.99251V4.46517ZM15.0694 4.39233C15.0459 4.41295 15.0352 4.43841 15.0352 4.46517V9.99251C15.0352 10.0418 15.0753 10.0831 15.1268 10.0831H20.6531C20.7118 10.0831 20.7573 10.0293 20.7501 9.97397C20.367 7.06035 18.0578 4.75116 15.1441 4.36818C15.1185 4.36482 15.0927 4.37183 15.0694 4.39233Z" fill="black"/>
</svg>