<svg width="20" height="20" viewBox="0 0 20 20" fill="none" xmlns="http://www.w3.org/2000/svg">
<path d="M13.6837 16.7231V4.8083C13.6837 3.961 12.9962 3.27344 12.1489 3.27344H5.03486C4.18757 3.27344 3.5 3.961 3.5 4.8083V16.7231M10.399 14.1844L10.4007 14.2274M10.399 11.5754L10.4007 11.6184M6.70601 14.1844L6.70762 14.2274M6.70601 11.5754L6.70762 11.6184" stroke="black" stroke-width="1.25" stroke-linecap="round" stroke-linejoin="round"/>
<path d="M2.5 16.7266H17.5" stroke="black" stroke-width="1.25" stroke-linecap="round" stroke-linejoin="round"/>
<path d="M16.2629 16.726V7.74296C16.2629 7.10405 15.7449 6.58594 15.1059 6.58594H13.6797" stroke="black" stroke-width="1.25" stroke-linecap="round" stroke-linejoin="round"/>
<path d="M8.58608 7.23289V8.52853M8.58608 7.23289V5.9375M8.58608 7.23289H9.88175M7.28906 7.23289H8.58475" stroke="black" stroke-width="1.25" stroke-linecap="round" stroke-linejoin="round"/>
</svg>
