<svg width="20" height="20" viewBox="0 0 20 20" fill="none" xmlns="http://www.w3.org/2000/svg">
<path d="M17.5 10.0079C17.4968 12.3859 16.3568 14.7259 14.2447 16.1796C10.8361 18.5244 6.16908 17.6674 3.81939 14.2515C1.47456 10.8429 2.33887 6.17194 5.74747 3.8271C9.10658 1.51633 13.6795 2.31253 16.0673 5.58816" stroke="black" stroke-width="1.25" stroke-linecap="round" stroke-linejoin="round"/>
<path d="M16.0546 2.72656L16.2217 5.56598L13.3984 5.7322" stroke="black" stroke-width="1.25" stroke-linecap="round" stroke-linejoin="round"/>
<path d="M11.4323 7.42969H9.37408C8.76149 7.42969 8.26562 7.92465 8.26562 8.5344C8.26562 9.14414 8.76149 9.63905 9.37408 9.63905H10.6405C11.2531 9.63905 11.7489 10.1341 11.7489 10.7439C11.7489 11.3544 11.2531 11.8486 10.6405 11.8486H8.58224" stroke="black" stroke-width="1.25" stroke-linecap="round" stroke-linejoin="round"/>
<path d="M10 11.8511V12.7786M10 6.5V7.43592" stroke="black" stroke-width="1.25" stroke-linecap="round" stroke-linejoin="round"/>
</svg>
