<svg width="20" height="20" viewBox="0 0 20 20" fill="none" xmlns="http://www.w3.org/2000/svg">
<path d="M11.4323 6.65625H9.37408C8.76149 6.65625 8.26562 7.15121 8.26562 7.76096C8.26562 8.3707 8.76149 8.86562 9.37408 8.86562H10.6405C11.2531 8.86562 11.7489 9.36062 11.7489 9.97045C11.7489 10.5809 11.2531 11.0751 10.6405 11.0751H8.58224" stroke="black" stroke-width="1.25" stroke-linecap="round" stroke-linejoin="round"/>
<path d="M10 11.0776V12.0051M10 5.72656V6.66249" stroke="black" stroke-width="1.25" stroke-linecap="round" stroke-linejoin="round"/>
<path d="M9.16794 15.206V17.0746C9.16794 17.3344 9.40694 17.5296 9.6596 17.464C13.1596 16.555 16.2416 13.4515 16.6366 9.75879C16.6829 9.32529 16.6752 8.9047 16.6431 8.4717C16.2929 5.13136 13.4534 2.52734 10.0025 2.52734C6.5517 2.52734 3.71229 5.13136 3.36198 8.4717C3.32985 8.90495 3.32134 9.32529 3.37196 9.75879C3.71826 12.7243 5.9829 15.0489 9.16794 15.206Z" stroke="black" stroke-width="1.25" stroke-linecap="round" stroke-linejoin="round"/>
</svg>
