<svg width="18" height="19" viewBox="0 0 18 19" fill="none" xmlns="http://www.w3.org/2000/svg">
<path d="M5.60938 12.1387L6.18242 10.6893C6.33584 10.3012 6.71063 10.0469 7.12745 10.0469H11.5738C11.9906 10.0469 12.3654 10.3012 12.5188 10.6893L13.0919 12.1387" stroke="#1F1F1F" stroke-width="1.08" stroke-linecap="round" stroke-linejoin="round"/>
<path d="M13.0913 6H11.7812" stroke="#1F1F1F" stroke-width="1.08" stroke-linecap="round" stroke-linejoin="round"/>
<path d="M9.30469 13.7637V15.3896" stroke="#1F1F1F" stroke-width="1.08" stroke-linecap="round" stroke-linejoin="round"/>
<path d="M11.2109 13.7637C11.2109 14.661 11.9388 15.3889 12.8369 15.3889" stroke="#1F1F1F" stroke-width="1.08" stroke-linecap="round" stroke-linejoin="round"/>
<path d="M7.30493 13.7637C7.30493 14.661 6.57709 15.3889 5.67969 15.3889" stroke="#1F1F1F" stroke-width="1.08" stroke-linecap="round" stroke-linejoin="round"/>
<path fill-rule="evenodd" clip-rule="evenodd" d="M15.6182 10.0349C15.4277 11.0318 14.8582 11.8963 13.2413 12.1169C12.898 12.1814 10.2794 12.1996 9.286 12.2002C8.29262 12.201 5.92899 12.2002 5.33984 12.1183C3.80214 11.9166 3.18426 11.1341 2.95518 10.0349C2.75973 8.62328 2.75973 7.19137 2.95518 5.77977C3.09529 5.1696 3.41474 3.94435 5.33984 3.69355C5.64527 3.6347 7.82325 3.61229 9.286 3.60949C10.8412 3.60668 13.0928 3.65572 13.2413 3.69285C15.1678 3.94505 15.4928 5.20673 15.6189 5.77977C15.8144 7.19207 15.8228 8.62328 15.6182 10.0349Z" stroke="#1F1F1F" stroke-width="1.08"/>
</svg>
