<svg width="25" height="25" viewBox="0 0 25 25" fill="none" xmlns="http://www.w3.org/2000/svg">
<path fill-rule="evenodd" clip-rule="evenodd" d="M17.3933 18.9321H8.27171C5.81981 18.9321 3.83203 16.9453 3.83203 14.4934V13.7111C3.83203 12.9921 4.41484 12.4102 5.13289 12.4102H20.5311C21.2502 12.4102 21.832 12.9921 21.832 13.7111V14.4934C21.832 16.9453 19.8452 18.9321 17.3933 18.9321Z" stroke="#1F1F1F" stroke-width="1.5" stroke-linecap="round" stroke-linejoin="round"/>
<path d="M19.779 12.4107V5.36537C19.779 4.12872 18.6795 3.18202 17.4565 3.36688L15.5825 3.64905C14.594 3.79791 13.8633 4.64732 13.8633 5.64753V6.65261" stroke="#1F1F1F" stroke-width="1.5" stroke-linecap="round" stroke-linejoin="round"/>
<path fill-rule="evenodd" clip-rule="evenodd" d="M11.8398 8.49238C11.8398 7.4474 12.7991 6.60481 13.9628 6.65443C15.0515 6.70113 15.8893 7.55346 15.8893 8.54394C15.8893 8.73562 15.718 8.8913 15.5069 8.8913H12.2221C12.011 8.8913 11.8398 8.73562 11.8398 8.54394V8.49238Z" stroke="#1F1F1F" stroke-width="1.5" stroke-linecap="round" stroke-linejoin="round"/>
<path d="M8.27107 18.9316L6.90234 20.7804" stroke="#1F1F1F" stroke-width="1.5" stroke-linecap="round" stroke-linejoin="round"/>
<path d="M18.9002 20.7803L17.5312 18.9316" stroke="#1F1F1F" stroke-width="1.5" stroke-linecap="round" stroke-linejoin="round"/>
</svg>
