<svg width="24" height="25" viewBox="0 0 24 25" fill="none" xmlns="http://www.w3.org/2000/svg">
<path d="M3.28516 15.6627C3.28516 14.8479 3.28516 14.4404 3.36703 14.1044C3.62178 13.059 4.43794 12.2428 5.48327 11.9881C5.8193 11.9062 6.22675 11.9062 7.04167 11.9062H16.8086C17.6235 11.9062 18.031 11.9062 18.3671 11.9881C19.4123 12.2428 20.2285 13.059 20.4833 14.1044C20.5652 14.4404 20.5652 14.8479 20.5652 15.6627C20.5652 16.0974 20.5652 16.3147 20.5215 16.4939C20.3857 17.0514 19.9503 17.4867 19.3928 17.6226C19.2136 17.6663 18.9963 17.6662 18.5617 17.6662H5.28863C4.85401 17.6662 4.63669 17.6663 4.45748 17.6226C3.89998 17.4867 3.46469 17.0514 3.32883 16.4939C3.28516 16.3147 3.28516 16.0974 3.28516 15.6627Z" stroke="#C7C7C7" stroke-width="1.5" stroke-linecap="round" stroke-linejoin="round"/>
<path d="M18.4387 19.1654V18.1094M5.41016 18.1094V19.1654" stroke="#C7C7C7" stroke-width="1.5" stroke-linecap="round" stroke-linejoin="round"/>
<path d="M18.4387 11.9076V7.03258C18.4387 6.44264 18.4387 6.14767 18.3536 5.9112C18.2082 5.5074 17.8903 5.18949 17.4866 5.04412C17.25 4.95898 16.9551 4.95898 16.3651 4.95898H7.48376C6.89381 4.95898 6.59884 4.95898 6.36237 5.04412C5.95858 5.18949 5.64066 5.5074 5.49529 5.9112C5.41016 6.14767 5.41016 6.44264 5.41016 7.03258V11.9076" stroke="#C7C7C7" stroke-width="1.5" stroke-linecap="round" stroke-linejoin="round"/>
</svg>
