<svg width="24" height="25" viewBox="0 0 24 25" fill="none" xmlns="http://www.w3.org/2000/svg">
<path d="M3 20.9746H21" stroke="#1F1F1F" stroke-width="1.8" stroke-linecap="round" stroke-linejoin="round"/>
<path d="M17.3405 20.9724V5.18488C17.3405 4.0611 16.4298 3.15039 15.307 3.15039H8.69464C7.57086 3.15039 6.66016 4.0611 6.66016 5.18488V20.9724" stroke="#1F1F1F" stroke-width="1.8" stroke-linecap="round" stroke-linejoin="round"/>
<path d="M13.6726 13.8379L13.6745 13.8479M10.3242 13.8379L10.3261 13.8479" stroke="#1F1F1F" stroke-width="1.8" stroke-linecap="round" stroke-linejoin="round"/>
<path d="M13.6726 10.5469L13.6745 10.5569M10.3242 10.5469L10.3261 10.5569" stroke="#1F1F1F" stroke-width="1.8" stroke-linecap="round" stroke-linejoin="round"/>
<path d="M13.6726 7.17969L13.6745 7.18969M10.3242 7.17969L10.3261 7.18969" stroke="#1F1F1F" stroke-width="1.8" stroke-linecap="round" stroke-linejoin="round"/>
<path d="M9.98047 20.9767V18.3692C9.98047 17.9469 10.3278 17.5996 10.7501 17.5996H13.2545C13.6758 17.5996 14.0232 17.9469 14.0232 18.3692V20.9767" stroke="#1F1F1F" stroke-width="1.8" stroke-linecap="round" stroke-linejoin="round"/>
<path d="M17.3398 9.07031H18.5969C19.385 9.07031 20.0321 9.70858 20.0321 10.5054V20.9737" stroke="#1F1F1F" stroke-width="1.8" stroke-linecap="round" stroke-linejoin="round"/>
<path d="M4.08203 20.9737V10.5054C4.08203 9.70858 4.72906 9.07031 5.51717 9.07031H6.65165" stroke="#1F1F1F" stroke-width="1.8" stroke-linecap="round" stroke-linejoin="round"/>
</svg>
