<svg width="16" height="17" viewBox="0 0 16 17" fill="none" xmlns="http://www.w3.org/2000/svg">
<path d="M5.52078 2.58008H11.1439C13.1093 2.58008 14.332 3.96754 14.332 5.931V11.2292C14.332 13.1926 13.1093 14.5801 11.1433 14.5801H5.52078C3.55538 14.5801 2.33203 13.1926 2.33203 11.2292V5.931C2.33203 3.96754 3.56122 2.58008 5.52078 2.58008Z" stroke="black" stroke-linecap="round" stroke-linejoin="round"/>
<path d="M5.38281 11.9946L7.6317 10.3269L9.3383 11.8292L11.8764 9.64258" stroke="black" stroke-linecap="round" stroke-linejoin="round"/>
<path fill-rule="evenodd" clip-rule="evenodd" d="M9.57812 6.37741C9.57812 6.99038 10.075 7.48724 10.688 7.48724C11.3016 7.48724 11.7985 6.99038 11.7985 6.37741C11.7985 5.76444 11.3016 5.26758 10.688 5.26758C10.075 5.26758 9.57812 5.76444 9.57812 6.37741Z" stroke="black" stroke-linecap="round" stroke-linejoin="round"/>
<path d="M4.79297 5.64258H6.44897M4.79297 7.64365H7.42327" stroke="black" stroke-linecap="round" stroke-linejoin="round"/>
</svg>
