<svg width="18" height="18" viewBox="0 0 18 18" fill="none" xmlns="http://www.w3.org/2000/svg">
<path fill-rule="evenodd" clip-rule="evenodd" d="M6.5907 2.50002H10.357C10.8647 2.50002 11.3513 2.70613 11.7037 3.07341C11.7036 3.07334 11.7037 3.07348 11.7037 3.07341L14.232 5.7069C14.5644 6.05429 14.7515 6.51713 14.7515 6.99893V12.4407C14.7621 14.0801 13.4716 15.4329 11.8336 15.4996C11.8298 15.4997 11.8261 15.4999 11.8223 15.4999C11.8192 15.5 11.8162 15.5 11.8132 15.5L6.52935 15.4993L6.51832 15.4992C4.86259 15.4627 3.54925 14.0923 3.58265 12.4371V5.43764L3.5828 5.42571C3.62171 3.79435 4.95859 2.49362 6.5907 2.50002ZM11.8025 14.5C12.8979 14.4503 13.7593 13.5437 13.7515 12.4459L13.7515 12.4424V6.99893C13.7515 6.77645 13.665 6.56094 13.5098 6.39854C13.5097 6.39842 13.5099 6.39864 13.5098 6.39854L10.9823 3.76598C10.8196 3.59631 10.5939 3.50002 10.357 3.50002H6.58753C5.50161 3.49536 4.61153 4.35918 4.58265 5.44393V12.4424L4.58253 12.4534C4.55818 13.5572 5.43205 14.4722 6.53518 14.4993L11.8025 14.5Z" fill="#B2C8F8"/>
<path fill-rule="evenodd" clip-rule="evenodd" d="M6.61719 8.78125C6.61719 8.50512 6.84104 8.28125 7.11719 8.28125H9.31153C9.58773 8.28125 9.81153 8.50512 9.81153 8.78125C9.81153 9.05738 9.58773 9.28125 9.31153 9.28125H7.11719C6.84104 9.28125 6.61719 9.05738 6.61719 8.78125ZM6.61813 11.2352C6.61813 10.9591 6.84199 10.7352 7.11813 10.7352H10.6487C10.9249 10.7352 11.1487 10.9591 11.1487 11.2352C11.1487 11.5113 10.9249 11.7352 10.6487 11.7352H7.11813C6.84199 11.7352 6.61813 11.5113 6.61813 11.2352Z" fill="#B2C8F8"/>
<path fill-rule="evenodd" clip-rule="evenodd" d="M10.6797 2.54102C10.9558 2.54102 11.1797 2.76488 11.1797 3.04102V4.96944C11.1792 5.63431 11.7176 6.17443 12.383 6.17604H14.2084C14.4845 6.17604 14.7084 6.3999 14.7084 6.67604C14.7084 6.95218 14.4845 7.17604 14.2084 7.17604H12.3814C11.1648 7.17352 10.1791 6.18666 10.1797 4.96944C10.1797 4.96939 10.1797 4.9695 10.1797 4.96944V3.04102C10.1797 2.76488 10.4036 2.54102 10.6797 2.54102Z" fill="#B2C8F8"/>
</svg>
