<svg width="17" height="18" viewBox="0 0 17 18" fill="none" xmlns="http://www.w3.org/2000/svg">
<path d="M5.29097 2.92188H11.0265C13.0309 2.92188 14.2791 4.33748 14.2791 6.33993V11.7445C14.2791 13.7469 13.0309 15.1619 11.0258 15.1619H5.29097C3.28586 15.1619 2.03906 13.7469 2.03906 11.7445V6.33993C2.03906 4.33748 3.29184 2.92188 5.29097 2.92188Z" stroke="#C7C7C7" stroke-width="1.02" stroke-linecap="round" stroke-linejoin="round"/>
<path d="M9.63781 7.87995V7.82677C9.63781 7.31768 9.22512 6.9043 8.716 6.9043H7.79358C7.17879 6.9043 6.67969 7.40342 6.67969 8.01819C6.67969 8.63359 7.17879 9.13203 7.79358 9.13203H8.56783C9.15868 9.13203 9.63849 9.61123 9.63849 10.2027C9.63849 10.7942 9.15868 11.2734 8.56783 11.2734H7.60216C7.09305 11.2734 6.68035 10.86 6.68035 10.3509" stroke="#C7C7C7" stroke-width="1.02" stroke-linecap="round" stroke-linejoin="round"/>
<path d="M8.16016 11.9556V11.2764M8.16016 6.90114V6.13086" stroke="#C7C7C7" stroke-width="1.02" stroke-linecap="round" stroke-linejoin="round"/>
</svg>
