<svg width="19" height="19" viewBox="0 0 19 19" fill="none" xmlns="http://www.w3.org/2000/svg">
<path d="M6.08662 2.75H12.4127C14.6237 2.75 16 4.31089 16 6.51978V12.4802C16 14.6891 14.6238 16.25 12.4119 16.25H6.08662C3.87554 16.25 2.5 14.6891 2.5 12.4802V6.51978C2.5 4.31089 3.88211 2.75 6.08662 2.75Z" stroke="#1F1F1F" stroke-width="1.125" stroke-linecap="round" stroke-linejoin="round"/>
<path fill-rule="evenodd" clip-rule="evenodd" d="M6.92032 9.24748L5.32281 7.9663C5.11088 7.79648 4.79688 7.94708 4.79688 8.21855V10.7814C4.79688 11.0524 5.11088 11.2034 5.32281 11.0336L6.92032 9.75238C7.0819 9.62285 7.0819 9.37708 6.92032 9.24748Z" stroke="#1F1F1F" stroke-width="1.125" stroke-linecap="round" stroke-linejoin="round"/>
<path d="M9.25391 16.25V2.75" stroke="#1F1F1F" stroke-width="1.125" stroke-linecap="round" stroke-linejoin="round"/>
<path fill-rule="evenodd" clip-rule="evenodd" d="M11.5861 9.75238L13.1836 11.0336C13.3954 11.2034 13.7095 11.0528 13.7095 10.7814V8.21855C13.7095 7.94708 13.3954 7.79648 13.1836 7.9663L11.5861 9.24748C11.4244 9.37708 11.4244 9.62285 11.5861 9.75238Z" stroke="#1F1F1F" stroke-width="1.125" stroke-linecap="round" stroke-linejoin="round"/>
</svg>
