<svg width="21" height="20" viewBox="0 0 21 20" fill="none" xmlns="http://www.w3.org/2000/svg">
<path d="M15.7301 9.54159L15.7301 9.59107M15.9306 9.55226C15.9306 9.6636 15.8402 9.75391 15.7289 9.75391C15.6175 9.75391 15.5273 9.6636 15.5273 9.55226C15.5273 9.44092 15.6175 9.35062 15.7289 9.35062C15.8402 9.35062 15.9306 9.44092 15.9306 9.55226Z" stroke="black" stroke-width="1.15977" stroke-linecap="round" stroke-linejoin="round"/>
<path d="M11.0739 9.54159L11.0739 9.59107M11.2744 9.55226C11.2744 9.6636 11.184 9.75391 11.0727 9.75391C10.9613 9.75391 10.8711 9.6636 10.8711 9.55226C10.8711 9.44092 10.9613 9.35062 11.0727 9.35062C11.184 9.35062 11.2744 9.44092 11.2744 9.55226Z" stroke="black" stroke-width="1.15977" stroke-linecap="round" stroke-linejoin="round"/>
<path d="M6.41765 9.54159L6.41765 9.59107M6.6181 9.55226C6.6181 9.6636 6.52776 9.75391 6.41641 9.75391C6.30507 9.75391 6.21484 9.6636 6.21484 9.55226C6.21484 9.44092 6.30507 9.35062 6.41641 9.35062C6.52776 9.35062 6.6181 9.44092 6.6181 9.55226Z" stroke="black" stroke-width="1.15977" stroke-linecap="round" stroke-linejoin="round"/>
</svg>
