<svg width="16" height="16" viewBox="0 0 16 16" fill="none" xmlns="http://www.w3.org/2000/svg">
<path d="M14 6.45772L8.98273 2.48604C8.40673 2.03069 7.59327 2.03069 7.01727 2.48604L2 6.45772" stroke="#C7C7C7" stroke-width="1.2" stroke-linecap="round" stroke-linejoin="round"/>
<path d="M13.0039 6.68505V5.66992" stroke="#C7C7C7" stroke-width="0.8" stroke-linecap="round" stroke-linejoin="round"/>
<path d="M2.99609 5.66992V11.4532C2.99609 12.5812 3.91069 13.4958 5.03869 13.4958H6.28993" stroke="#C7C7C7" stroke-width="1.2" stroke-linecap="round" stroke-linejoin="round"/>
<path d="M9.42627 9.20898H9.13803C8.50975 9.20898 8 9.71872 8 10.347V11.8527C8.00032 12.481 8.50975 12.9904 9.13803 12.9904H12.5753C13.2039 12.9904 13.7133 12.481 13.7133 11.8527V10.3441C13.7133 9.71745 13.2055 9.2093 12.5788 9.20898H12.2877" stroke="#C7C7C7" stroke-width="1.2" stroke-linecap="round" stroke-linejoin="round"/>
<path d="M10.857 7.11133V10.8299M10.857 7.11133L9.95703 8.01546M10.857 7.11133L11.758 8.01546" stroke="#C7C7C7" stroke-width="0.8" stroke-linecap="round" stroke-linejoin="round"/>
</svg>
