<svg width="20" height="21" viewBox="0 0 20 21" fill="none" xmlns="http://www.w3.org/2000/svg">
<path d="M17.9166 7.62087V6.30655C17.9166 4.51466 16.4645 3.0625 14.6726 3.0625H13.625" stroke="black" stroke-width="1.25" stroke-linecap="round" stroke-linejoin="round"/>
<path d="M2.91797 7.62087V6.30655C2.91797 4.51466 4.37013 3.0625 6.16202 3.0625H7.23634" stroke="black" stroke-width="1.25" stroke-linecap="round" stroke-linejoin="round"/>
<path d="M2.91797 13.5078V14.8221C2.91797 16.6132 4.37013 18.0654 6.16202 18.0654H7.20959" stroke="black" stroke-width="1.25" stroke-linecap="round" stroke-linejoin="round"/>
<path d="M17.916 13.5078V14.8221C17.916 16.6132 16.4638 18.0654 14.672 18.0654H13.5977" stroke="black" stroke-width="1.25" stroke-linecap="round" stroke-linejoin="round"/>
<path fill-rule="evenodd" clip-rule="evenodd" d="M12.8672 10.562C12.8672 11.917 11.7693 13.0148 10.4145 13.0148C9.05957 13.0148 7.96094 11.917 7.96094 10.562C7.96094 9.20722 9.05957 8.10938 10.4145 8.10938C11.7693 8.10938 12.8672 9.20722 12.8672 10.562Z" stroke="black" stroke-width="1.25" stroke-linecap="round" stroke-linejoin="round"/>
<path d="M10.4219 14.7143V13.0156" stroke="black" stroke-width="1.25" stroke-linecap="round" stroke-linejoin="round"/>
<path d="M10.4219 8.11301V6.40625" stroke="black" stroke-width="1.25" stroke-linecap="round" stroke-linejoin="round"/>
<path d="M7.96456 10.5625H6.25781" stroke="black" stroke-width="1.25" stroke-linecap="round" stroke-linejoin="round"/>
<path d="M14.5736 10.5625H12.875" stroke="black" stroke-width="1.25" stroke-linecap="round" stroke-linejoin="round"/>
</svg>
