<svg width="19" height="19" viewBox="0 0 19 19" fill="none" xmlns="http://www.w3.org/2000/svg">
<path d="M14.221 5.18277C13.7905 4.99085 12.5689 4.32826 11.1394 5.21999C9.91192 5.9862 9.45292 5.8709 8.3613 5.21999C6.86824 4.33045 5.71017 4.99085 5.27963 5.18277C3.18312 6.27882 2.99704 11.368 3.00215 11.5897C2.97807 12.5705 3.14371 13.6417 4.1398 14.0475C5.07823 14.3934 5.84517 14.2175 6.35014 13.8432C6.89671 13.4374 6.84416 13.0207 7.74027 12.5041C8.63707 11.9867 10.9751 12.0641 11.7596 12.5041C12.5448 12.9434 12.6039 13.4374 13.1497 13.8432C13.6555 14.2175 14.4217 14.3934 15.3601 14.0475C16.3569 13.6417 16.5226 12.5705 16.4977 11.5897C16.5028 11.368 16.3174 6.27882 14.221 5.18277Z" stroke="#1F1F1F" stroke-width="1.125" stroke-linecap="round" stroke-linejoin="round"/>
<path d="M6.75433 7.79688V9.94886M7.83166 8.87291H5.67969" stroke="#1F1F1F" stroke-width="1.125" stroke-linecap="round" stroke-linejoin="round"/>
<path d="M12.7578 9.95672V9.94922" stroke="#1F1F1F" stroke-width="1.125" stroke-linecap="round" stroke-linejoin="round"/>
<path d="M12.7578 7.80437V7.79688" stroke="#1F1F1F" stroke-width="1.125" stroke-linecap="round" stroke-linejoin="round"/>
<path d="M11.6797 8.88055V8.87305" stroke="#1F1F1F" stroke-width="1.125" stroke-linecap="round" stroke-linejoin="round"/>
<path d="M13.832 8.88055V8.87305" stroke="#1F1F1F" stroke-width="1.125" stroke-linecap="round" stroke-linejoin="round"/>
</svg>
