<svg width="24" height="24" viewBox="0 0 24 24" fill="none" xmlns="http://www.w3.org/2000/svg">
<path d="M6.50174 21H17.4983C19.4327 21 21 19.5123 21 17.6783V10.5045C21 9.6133 20.5774 8.76973 19.8491 8.20638L13.973 3.66551C12.8241 2.77816 11.1759 2.77816 10.027 3.66551L4.15084 8.20638C3.42259 8.76973 3 9.6133 3 10.5045V17.6783C3 19.5123 4.56727 21 6.50174 21Z" stroke="#181A1B" stroke-width="1.5" stroke-linecap="round" stroke-linejoin="round"/>
<path fill-rule="evenodd" clip-rule="evenodd" d="M9 11.7116C9 10.2133 10.3439 9 12.0001 9C13.6574 9 15 10.2136 15 11.7116C15 12.4149 14.702 13.0496 14.2211 13.5271L14.7422 14.9439C15.1129 15.9556 14.2808 17 13.1016 17H10.8995C9.72023 17 8.88782 15.9564 9.25855 14.9447L9.78001 13.5272C9.29892 13.05 9 12.4154 9 11.7116ZM12.0001 10.4347C11.22 10.4347 10.5873 11.0062 10.5873 11.7116C10.5873 12.1285 10.8117 12.4983 11.1661 12.7342C11.443 12.9185 11.5571 13.2431 11.4487 13.5381L10.7653 15.3958C10.7346 15.4802 10.804 15.5653 10.8995 15.5653H13.1016C13.197 15.5653 13.2665 15.4804 13.2358 15.3961L12.5524 13.5381C12.4439 13.2431 12.5579 12.9185 12.835 12.7342C13.1886 12.4987 13.4127 12.1293 13.4127 11.7116C13.4127 11.0059 12.7808 10.4347 12.0001 10.4347Z" fill="#181A1B"/>
</svg>
