<svg width="18" height="19" viewBox="0 0 18 19" fill="none" xmlns="http://www.w3.org/2000/svg">
<path d="M15.7486 8.71468V12.4813C15.7486 14.6895 14.3666 16.2472 12.1585 16.2472H5.83286C3.62465 16.2472 2.25 14.6895 2.25 12.4813V6.52103C2.25 4.3121 3.63195 2.75586 5.83286 2.75586H9.7599" stroke="black" stroke-width="1.125" stroke-linecap="round" stroke-linejoin="round"/>
<path fill-rule="evenodd" clip-rule="evenodd" d="M8.09816 7.22095C8.09816 7.96626 7.4936 8.57082 6.74829 8.57082C6.00299 8.57082 5.39844 7.96626 5.39844 7.22095C5.39844 6.47565 6.00299 5.87109 6.74829 5.87109C7.4936 5.87036 8.09741 6.47419 8.09816 7.2195V7.22095Z" stroke="black" stroke-width="1.125" stroke-linecap="round" stroke-linejoin="round"/>
<path d="M3.01172 14.9525C3.582 13.9432 4.29887 13.0221 5.13241 12.225C6.22192 11.3252 7.45729 12.7297 8.8101 12.7297C10.1709 12.7297 10.9826 9.62891 12.3937 9.62891C13.7829 9.62891 15.0701 10.9962 15.7497 11.6985" stroke="black" stroke-width="1.125" stroke-linecap="round" stroke-linejoin="round"/>
<path d="M14.2159 5.66569L15.3368 6.23488C14.9355 6.58879 14.4078 6.80405 13.8306 6.80405C12.5733 6.80405 11.5547 5.78464 11.5547 4.52734" stroke="black" stroke-width="1.125" stroke-linecap="round" stroke-linejoin="round"/>
<path d="M13.445 3.38836L12.3242 2.81917C12.7255 2.46526 13.2531 2.25 13.8303 2.25C15.0876 2.25 16.1063 3.26942 16.1063 4.52671" stroke="black" stroke-width="1.125" stroke-linecap="round" stroke-linejoin="round"/>
</svg>
