<svg width="21" height="21" viewBox="0 0 21 21" fill="none" xmlns="http://www.w3.org/2000/svg">
<path d="M13.2539 4.71875V7.60375" stroke="black" stroke-width="1.25" stroke-linecap="round" stroke-linejoin="round"/>
<path fill-rule="evenodd" clip-rule="evenodd" d="M14.7181 17.3167C14.2373 17.3167 11.7148 15.2742 11.7148 13.1369C11.7148 11.478 13.0592 10.1328 14.7181 10.1328C16.377 10.1328 17.7214 11.478 17.7214 13.1369C17.7214 15.2742 15.1989 17.3167 14.7181 17.3167Z" stroke="black" stroke-width="1.25" stroke-linecap="round" stroke-linejoin="round"/>
<path d="M14.7188 13.2066V13.1094" stroke="black" stroke-width="1.66667" stroke-linecap="round" stroke-linejoin="round"/>
<path d="M9.59107 16.3433L7.80568 15.693C7.50244 15.5835 7.16919 15.5949 6.87486 15.7254L3.93321 17.0308C3.36401 17.2838 2.72266 16.867 2.72266 16.2435V5.79288C2.72266 5.16692 3.09158 4.60017 3.66321 4.34637L6.87486 2.91933C7.16919 2.78879 7.50244 2.77744 7.80487 2.88772L12.4987 4.59287C12.8012 4.70232 13.1352 4.69097 13.4295 4.56043L16.3672 3.25421C16.9372 2.99798 17.5793 3.41475 17.5793 4.04151V7.87101" stroke="black" stroke-width="1.25" stroke-linecap="round" stroke-linejoin="round"/>
<path d="M7.33203 15.6212V2.82812" stroke="black" stroke-width="1.25" stroke-linecap="round" stroke-linejoin="round"/>
</svg>
