<svg width="24" height="25" viewBox="0 0 24 25" fill="none" xmlns="http://www.w3.org/2000/svg">
<path fill-rule="evenodd" clip-rule="evenodd" d="M9.82422 16.5186C9.41016 16.5186 9.07422 16.1826 9.07422 15.7686V7.85156C9.07422 7.43658 9.41016 7.10156 9.82422 7.10156H13.166C14.79 7.10156 16.1049 8.41656 16.1049 10.0406C16.1049 11.6636 14.79 12.9786 13.166 12.9786H10.5742V15.7686C10.5742 16.1826 10.2382 16.5186 9.82422 16.5186ZM10.5742 11.4786H13.166C13.9619 11.4786 14.6049 10.8346 14.6049 10.0406C14.6049 9.24561 13.9609 8.60156 13.166 8.60156H10.5742V11.4786Z" fill="#1F1F1F"/>
<path fill-rule="evenodd" clip-rule="evenodd" d="M3.74121 3.70947C4.7251 2.65344 6.12793 2.0625 7.7832 2.0625H16.2178C17.877 2.0625 19.2798 2.6535 20.2632 3.71051C21.2422 4.76154 21.75 6.21149 21.75 7.8385V15.7865C21.75 17.4135 21.2422 18.8635 20.2632 19.9145C19.2788 20.9715 17.877 21.5625 16.2168 21.5625H7.7832C6.12402 21.5625 4.72119 20.9715 3.73682 19.9145C2.75879 18.8645 2.25 17.4135 2.25 15.7865V7.8385C2.25 6.21051 2.76123 4.7605 3.74121 3.70947ZM4.83789 4.73248C4.16016 5.45947 3.75 6.52252 3.75 7.8385V15.7865C3.75 17.1035 4.15918 18.1665 4.83496 18.8925C5.50488 19.6125 6.49414 20.0625 7.7832 20.0625H16.2168C17.5059 20.0625 18.4951 19.6125 19.165 18.8925C19.8408 18.1665 20.25 17.1035 20.25 15.7865V7.8385C20.25 6.52148 19.8408 5.4585 19.165 4.73248C18.4951 4.01251 17.5068 3.5625 16.2178 3.5625H7.7832C6.49902 3.5625 5.50977 4.01147 4.83789 4.73248Z" fill="#1F1F1F"/>
</svg>
