<svg width="18" height="19" viewBox="0 0 18 19" fill="none" xmlns="http://www.w3.org/2000/svg">
<path d="M5.87793 14.412C7.09616 14.9233 7.85502 13.8339 9.00536 13.8109C10.1227 13.8333 10.9537 14.9069 12.1328 14.412C12.7862 14.1568 13.233 13.5323 13.2244 12.8283C13.2106 10.7246 11.2572 8.26417 9.00536 8.26172C6.74028 8.26172 4.49049 10.8932 4.80255 13.0808C4.89029 13.7249 5.32429 14.1957 5.87793 14.412Z" stroke="#1F1F1F" stroke-width="1.08"/>
<path d="M3.79075 8.80804C4.29435 8.80804 4.7026 8.3998 4.7026 7.89623C4.7026 7.39262 4.29435 6.98438 3.79075 6.98438C3.28715 6.98438 2.87891 7.39262 2.87891 7.89623C2.87891 8.3998 3.28715 8.80804 3.79075 8.80804Z" stroke="#1F1F1F" stroke-width="1.08"/>
<path d="M14.2087 8.80804C14.7123 8.80804 15.1206 8.3998 15.1206 7.89623C15.1206 7.39262 14.7123 6.98438 14.2087 6.98438C13.7051 6.98438 13.2969 7.39262 13.2969 7.89623C13.2969 8.3998 13.7051 8.80804 14.2087 8.80804Z" stroke="#1F1F1F" stroke-width="1.08"/>
<path d="M7.04466 5.98776C7.54826 5.98776 7.95648 5.57951 7.95648 5.07591C7.95648 4.57231 7.54826 4.16406 7.04466 4.16406C6.54106 4.16406 6.13281 4.57231 6.13281 5.07591C6.13281 5.57951 6.54106 5.98776 7.04466 5.98776Z" stroke="#1F1F1F" stroke-width="1.08"/>
<path d="M10.9548 5.98776C11.4584 5.98776 11.8667 5.57951 11.8667 5.07591C11.8667 4.57231 11.4584 4.16406 10.9548 4.16406C10.4512 4.16406 10.043 4.57231 10.043 5.07591C10.043 5.57951 10.4512 5.98776 10.9548 5.98776Z" stroke="#1F1F1F" stroke-width="1.08"/>
</svg>
