<svg width="20" height="21" viewBox="0 0 20 21" fill="none" xmlns="http://www.w3.org/2000/svg">
<path fill-rule="evenodd" clip-rule="evenodd" d="M12.932 6.3114L6.67033 6.31188C5.98779 6.31188 5.43359 5.7585 5.43359 5.07596V4.29841C5.43359 3.61587 5.98779 3.0625 6.67033 3.0625H13.3291C14.0117 3.0625 14.565 3.61587 14.565 4.29841V5.07596C14.565 5.7585 14.0117 6.31188 13.3291 6.31188L12.932 6.3114Z" stroke="black" stroke-width="1.25" stroke-linecap="round" stroke-linejoin="round"/>
<path d="M7.06619 6.3125V8.27763C7.06619 8.48847 7.01536 8.69598 6.91785 8.88266L5.58194 11.437C5.48444 11.6236 5.43359 11.8312 5.43359 12.0421C5.43359 12.7629 6.0178 13.3463 6.73868 13.3463H13.2599C13.9808 13.3463 14.565 12.7629 14.565 12.0421C14.565 11.8312 14.5142 11.6236 14.4167 11.437L13.0807 8.88266C12.9832 8.69598 12.9316 8.48847 12.9316 8.27763V6.3125" stroke="black" stroke-width="1.25" stroke-linecap="round" stroke-linejoin="round"/>
<path d="M9.99609 13.3438V18.0608" stroke="black" stroke-width="1.25" stroke-linecap="round" stroke-linejoin="round"/>
</svg>
