<svg width="36" height="39" viewBox="0 0 36 39" fill="none" xmlns="http://www.w3.org/2000/svg">
<g filter="url(#filter0_d_10037_34686)">
<path d="M18.1017 3.44141C15.3845 3.44141 12.7283 4.24715 10.469 5.75674C8.20977 7.26633 6.44889 9.41198 5.40906 11.9223C4.36923 14.4327 4.09717 17.195 4.62727 19.86C5.15737 22.525 6.46582 24.9729 8.38717 26.8943C10.3085 28.8156 12.7565 30.1241 15.4214 30.6542C18.0864 31.1843 20.8488 30.9122 23.3591 29.8724C25.8695 28.8326 28.0151 27.0717 29.5247 24.8124C31.0343 22.5532 31.8401 19.897 31.8401 17.1798C31.8401 15.3756 31.4847 13.5892 30.7943 11.9223C30.1039 10.2555 29.0919 8.74101 27.8162 7.46529C26.5404 6.18956 25.0259 5.1776 23.3591 4.48718C21.6923 3.79676 19.9058 3.44141 18.1017 3.44141ZM15.354 23.3621V10.9975L23.597 17.1798L15.354 23.3621Z" fill="white"/>
</g>
<defs>
<filter id="filter0_d_10037_34686" x="0.241766" y="2.41103" width="35.7196" height="35.7196" filterUnits="userSpaceOnUse" color-interpolation-filters="sRGB">
<feFlood flood-opacity="0" result="BackgroundImageFix"/>
<feColorMatrix in="SourceAlpha" type="matrix" values="0 0 0 0 0 0 0 0 0 0 0 0 0 0 0 0 0 0 127 0" result="hardAlpha"/>
<feOffset dy="3.09114"/>
<feGaussianBlur stdDeviation="2.06076"/>
<feComposite in2="hardAlpha" operator="out"/>
<feColorMatrix type="matrix" values="0 0 0 0 0 0 0 0 0 0 0 0 0 0 0 0 0 0 0.15 0"/>
<feBlend mode="normal" in2="BackgroundImageFix" result="effect1_dropShadow_10037_34686"/>
<feBlend mode="normal" in="SourceGraphic" in2="effect1_dropShadow_10037_34686" result="shape"/>
</filter>
</defs>
</svg>
