<svg width="18" height="19" viewBox="0 0 18 19" fill="none" xmlns="http://www.w3.org/2000/svg">
<path fill-rule="evenodd" clip-rule="evenodd" d="M8.28791 16.2491C7.50274 16.2491 6.86719 15.6128 6.86719 14.8284V12.6962C6.86719 11.9117 7.50274 11.2754 8.28791 11.2754C9.07309 11.2754 9.70864 11.9117 9.70864 12.6962V14.8284C9.70864 15.6128 9.07309 16.2491 8.28791 16.2491Z" stroke="#1F1F1F" stroke-width="1.125" stroke-linecap="round" stroke-linejoin="round"/>
<path d="M13.2622 4.88281C14.4392 4.88281 15.3937 5.83791 15.3937 7.01492C15.3937 8.19196 14.4393 9.14641 13.2622 9.14641H10.42C9.24306 9.14641 8.28906 10.1006 8.28906 11.2777" stroke="#1F1F1F" stroke-width="1.125" stroke-linecap="round" stroke-linejoin="round"/>
<path fill-rule="evenodd" clip-rule="evenodd" d="M11.1353 7.01295H4.74085C3.56383 7.01295 2.60938 6.05849 2.60938 4.88148C2.60938 3.70446 3.56383 2.75 4.74085 2.75H11.1353C12.3123 2.75 13.2667 3.70446 13.2667 4.88148C13.2667 6.05849 12.3123 7.01295 11.1353 7.01295Z" stroke="#1F1F1F" stroke-width="1.125" stroke-linecap="round" stroke-linejoin="round"/>
</svg>
