<svg width="25" height="25" viewBox="0 0 25 25" fill="none" xmlns="http://www.w3.org/2000/svg">
<path d="M6.83203 21.0625H12.832M9.83203 21.0625V3.0625M9.83203 3.0625L3.83203 9.0625H21.832M9.83203 3.0625L19.832 9.0625" stroke="black" stroke-width="1.5" stroke-linecap="round" stroke-linejoin="round"/>
<path d="M17.832 9.0625V13.0625C18.2276 13.0625 18.6143 13.1798 18.9432 13.3996C19.2721 13.6193 19.5284 13.9317 19.6798 14.2971C19.8312 14.6626 19.8708 15.0647 19.7936 15.4527C19.7164 15.8406 19.5259 16.197 19.2462 16.4767C18.9665 16.7564 18.6102 16.9469 18.2222 17.0241C17.8342 17.1012 17.4321 17.0616 17.0667 16.9103C16.7012 16.7589 16.3889 16.5025 16.1691 16.1736C15.9493 15.8447 15.832 15.4581 15.832 15.0625" stroke="black" stroke-width="1.5" stroke-linecap="round" stroke-linejoin="round"/>
</svg>