<svg width="25" height="24" viewBox="0 0 25 24" fill="none" xmlns="http://www.w3.org/2000/svg">
<path fill-rule="evenodd" clip-rule="evenodd" d="M12.382 4.09766C8.01838 4.09766 4.48047 7.63471 4.48047 11.9991C4.48047 16.3627 8.01844 19.9006 12.382 19.9006C16.4819 19.9006 19.8542 16.776 20.2452 12.7785C20.2855 12.3663 20.6524 12.0648 21.0646 12.1051C21.4769 12.1454 21.7784 12.5123 21.7381 12.9245C21.2727 17.6827 17.2614 21.4006 12.382 21.4006C7.19001 21.4006 2.98047 17.1911 2.98047 11.9991C2.98047 6.80617 7.19007 2.59766 12.382 2.59766C12.7775 2.59766 13.1684 2.62192 13.5524 2.66952C13.9635 2.72048 14.2554 3.09503 14.2044 3.50609C14.1535 3.91716 13.7789 4.20909 13.3679 4.15813C13.0454 4.11816 12.7162 4.09766 12.382 4.09766Z" fill="#B3B3B3"/>
<path fill-rule="evenodd" clip-rule="evenodd" d="M9.68786 18.2437C9.17467 18.6453 8.93376 19.1574 8.87285 19.6307C8.81998 20.0415 8.44408 20.3317 8.03325 20.2788C7.62243 20.2259 7.33225 19.85 7.38512 19.4392C7.49353 18.5969 7.92257 17.7204 8.7634 17.0624C9.60249 16.4057 10.7969 16.0078 12.3744 16.0078C13.9673 16.0078 15.1693 16.4071 16.0108 17.0697C16.8549 17.7344 17.278 18.6195 17.381 19.469C17.4308 19.8802 17.1379 20.2539 16.7267 20.3038C16.3155 20.3537 15.9417 20.0607 15.8919 19.6495C15.8334 19.1669 15.5947 18.6513 15.0829 18.2482C14.5685 17.8432 13.7202 17.5078 12.3744 17.5078C11.0464 17.5078 10.2028 17.8407 9.68786 18.2437Z" fill="#B3B3B3"/>
<path fill-rule="evenodd" clip-rule="evenodd" d="M12.3798 10.2539C11.4347 10.2539 10.668 11.0206 10.668 11.9657C10.668 12.9113 11.4351 13.6786 12.3798 13.6786C13.3258 13.6786 14.0927 12.9111 14.0927 11.9657C14.0927 11.0208 13.3262 10.2539 12.3798 10.2539ZM9.16797 11.9657C9.16797 10.1922 10.6063 8.75391 12.3798 8.75391C14.1542 8.75391 15.5927 10.192 15.5927 11.9657C15.5927 13.7391 14.1546 15.1786 12.3798 15.1786C10.6059 15.1786 9.16797 13.7389 9.16797 11.9657Z" fill="#B3B3B3"/>
<path d="M19.3164 10.1445V10.1503" stroke="#B3B3B3" stroke-width="1.5" stroke-linecap="round" stroke-linejoin="round"/>
<path d="M19.1126 7.9368C19.1028 7.1974 19.7752 6.8831 20.2762 6.598C20.8853 6.2614 21.2988 5.7272 21.2988 4.9839C21.2988 3.8834 20.4095 3 19.3159 3C18.2155 3 17.332 3.8834 17.332 4.9839" stroke="#B3B3B3" stroke-width="1.5" stroke-linecap="round" stroke-linejoin="round"/>
</svg>
