<svg width="17" height="16" viewBox="0 0 17 16" fill="none" xmlns="http://www.w3.org/2000/svg">
<path fill-rule="evenodd" clip-rule="evenodd" d="M14.247 13.3082C13.8783 13.3082 13.5803 13.0095 13.5803 12.6415C13.5803 12.1442 13.4023 10.9515 11.7596 10.6148C11.399 10.5408 11.1663 10.1888 11.2403 9.82817C11.3143 9.4675 11.6623 9.23417 12.0276 9.30884C14.155 9.74484 14.9136 11.3162 14.9136 12.6415C14.9136 13.0095 14.6156 13.3082 14.247 13.3082Z" fill="#C7C7C7"/>
<path fill-rule="evenodd" clip-rule="evenodd" d="M11.5806 8.34796C11.3106 8.34796 11.0559 8.18196 10.9559 7.91396C10.8273 7.5693 11.0026 7.18463 11.3473 7.05663C11.8859 6.85596 12.2359 6.35199 12.2406 5.77399C12.2406 5.12799 11.7799 4.56066 11.1453 4.42932C10.7846 4.35466 10.5526 4.00132 10.6273 3.64066C10.7026 3.27999 11.0553 3.04732 11.4159 3.12399C12.6666 3.38332 13.5739 4.49999 13.5739 5.77866C13.5659 6.90263 12.8579 7.91597 11.8139 8.30596C11.7366 8.33396 11.6579 8.34796 11.5806 8.34796Z" fill="#C7C7C7"/>
<path fill-rule="evenodd" clip-rule="evenodd" d="M6.76303 9.67773C3.4437 9.67773 1.95703 11.5137 1.95703 13.3337C1.95703 13.4664 2.0097 13.5937 2.1037 13.6877C2.19703 13.7811 2.32436 13.8337 2.45703 13.8337L11.069 13.8217C11.345 13.8211 11.5683 13.5971 11.5683 13.3217C11.5683 11.5077 10.0823 9.67773 6.76303 9.67773Z" fill="#C7C7C7"/>
<path fill-rule="evenodd" clip-rule="evenodd" d="M6.76562 8.66668C8.55762 8.66668 10.0156 7.20802 10.0156 5.41602C10.0156 3.62402 8.55762 2.16602 6.76562 2.16602C4.97362 2.16602 3.51562 3.62402 3.51562 5.41602C3.51562 7.20802 4.97362 8.66668 6.76562 8.66668Z" fill="#C7C7C7"/>
</svg>
