<svg xmlns="http://www.w3.org/2000/svg" width="20" height="20" viewBox="0 0 20 20" fill="none">
  <path d="M2.5 17.4219H17.5" stroke="#333333" stroke-width="1.5" stroke-linecap="round" stroke-linejoin="round"/>
  <path d="M14.4501 17.4298V4.27353C14.4501 3.33705 13.6912 2.57812 12.7555 2.57812H7.2452C6.30872 2.57812 5.5498 3.33705 5.5498 4.27353V17.4298" stroke="#333333" stroke-width="1.5" stroke-linecap="round" stroke-linejoin="round"/>
  <path d="M11.3948 11.4844L11.3964 11.4927M8.60449 11.4844L8.60608 11.4927" stroke="#333333" stroke-width="1.5" stroke-linecap="round" stroke-linejoin="round"/>
  <path d="M11.3948 8.74219L11.3964 8.75052M8.60449 8.74219L8.60608 8.75052" stroke="#333333" stroke-width="1.5" stroke-linecap="round" stroke-linejoin="round"/>
  <path d="M11.3948 5.92969L11.3964 5.93802M8.60449 5.92969L8.60608 5.93802" stroke="#333333" stroke-width="1.5" stroke-linecap="round" stroke-linejoin="round"/>
  <path d="M8.31738 17.4236V15.2507C8.31738 14.8988 8.60682 14.6094 8.95874 14.6094H11.0457C11.3968 14.6094 11.6863 14.8988 11.6863 15.2507V17.4236" stroke="#333333" stroke-width="1.5" stroke-linecap="round" stroke-linejoin="round"/>
  <path d="M14.4502 7.50781H15.4978C16.1545 7.50781 16.6938 8.0397 16.6938 8.70372V17.4273" stroke="#333333" stroke-width="1.5" stroke-linecap="round" stroke-linejoin="round"/>
  <path d="M3.4043 17.4273V8.70372C3.4043 8.0397 3.94349 7.50781 4.60025 7.50781H5.54565" stroke="#333333" stroke-width="1.5" stroke-linecap="round" stroke-linejoin="round"/>
</svg>