<svg xmlns="http://www.w3.org/2000/svg" width="16" height="16" viewBox="0 0 16 16" fill="none">
  <path opacity="0.5" d="M2.83301 8.0026C2.83301 6.63232 3.37735 5.31816 4.34629 4.34922C5.31523 3.38028 6.62939 2.83594 7.99967 2.83594C9.36996 2.83594 10.6841 3.38028 11.6531 4.34922C12.622 5.31816 13.1663 6.63232 13.1663 8.0026C13.1663 9.37289 12.622 10.6871 11.6531 11.656C10.6841 12.6249 9.36996 13.1693 7.99967 13.1693C6.62939 13.1693 5.31523 12.6249 4.34629 11.656C3.37735 10.6871 2.83301 9.37289 2.83301 8.0026Z" fill="#00AE8E"/>
  <path d="M5.5 8C5.5 8.66304 5.76339 9.29893 6.23223 9.76777C6.70107 10.2366 7.33696 10.5 8 10.5C8.66304 10.5 9.29893 10.2366 9.76777 9.76777C10.2366 9.29893 10.5 8.66304 10.5 8C10.5 7.33696 10.2366 6.70107 9.76777 6.23223C9.29893 5.76339 8.66304 5.5 8 5.5C7.33696 5.5 6.70107 5.76339 6.23223 6.23223C5.76339 6.70107 5.5 7.33696 5.5 8Z" fill="#00AE8E"/>
</svg>