<svg xmlns="http://www.w3.org/2000/svg" width="14" height="14" viewBox="0 0 14 14" fill="none">
  <path fill-rule="evenodd" clip-rule="evenodd" d="M7.44067 9.15295C7.44067 9.39445 7.24467 9.59045 7.00317 9.59045C6.76167 9.59045 6.56567 9.39445 6.56567 9.15295V6.6452C6.56567 6.4037 6.76167 6.2077 7.00317 6.2077C7.24467 6.2077 7.44067 6.4037 7.44067 6.6452V9.15295ZM6.56217 4.83511C6.56217 4.59362 6.75817 4.39761 6.99967 4.39761C7.24117 4.39761 7.43717 4.59362 7.43717 4.83511C7.43717 5.07662 7.24117 5.29128 6.99967 5.29128C6.75817 5.29128 6.56217 5.11336 6.56217 4.87186V4.83511ZM6.99967 1.45703C3.94417 1.45703 1.45801 3.94261 1.45801 6.9987C1.45801 10.0542 3.94417 12.5404 6.99967 12.5404C10.0552 12.5404 12.5413 10.0542 12.5413 6.9987C12.5413 3.94261 10.0552 1.45703 6.99967 1.45703Z" fill="#C7C7C7"/>
</svg>