<svg xmlns="http://www.w3.org/2000/svg" width="14" height="14" viewBox="0 0 14 14" fill="none">
  <path fill-rule="evenodd" clip-rule="evenodd" d="M7.44116 9.15295C7.44116 9.39445 7.24516 9.59045 7.00366 9.59045C6.76216 9.59045 6.56616 9.39445 6.56616 9.15295V6.6452C6.56616 6.4037 6.76216 6.2077 7.00366 6.2077C7.24516 6.2077 7.44116 6.4037 7.44116 6.6452V9.15295ZM6.56266 4.83511C6.56266 4.59362 6.75866 4.39761 7.00016 4.39761C7.24166 4.39761 7.43766 4.59362 7.43766 4.83511C7.43766 5.07662 7.24166 5.29128 7.00016 5.29128C6.75866 5.29128 6.56266 5.11336 6.56266 4.87186V4.83511ZM7.00016 1.45703C3.94466 1.45703 1.4585 3.94261 1.4585 6.9987C1.4585 10.0542 3.94466 12.5404 7.00016 12.5404C10.0557 12.5404 12.5418 10.0542 12.5418 6.9987C12.5418 3.94261 10.0557 1.45703 7.00016 1.45703Z" fill="#E42B30"/>
</svg>