<svg xmlns="http://www.w3.org/2000/svg" width="20" height="21" viewBox="0 0 20 21" fill="none">
  <path fill-rule="evenodd" clip-rule="evenodd" d="M2.47266 16.7578C2.47266 16.4126 2.75248 16.1328 3.09766 16.1328H18.0977C18.4428 16.1328 18.7227 16.4126 18.7227 16.7578C18.7227 17.103 18.4428 17.3828 18.0977 17.3828H3.09766C2.75248 17.3828 2.47266 17.103 2.47266 16.7578Z" fill="#C9CCD9"/>
  <path fill-rule="evenodd" clip-rule="evenodd" d="M6.5 7.93359C6.5 7.58841 6.77982 7.30859 7.125 7.30859H7.845C8.19017 7.30859 8.46997 7.58841 8.46997 7.93359C8.46997 8.27877 8.19017 8.55859 7.845 8.55859H7.125C6.77982 8.55859 6.5 8.27877 6.5 7.93359ZM6.5 10.7025C6.5 10.3574 6.77982 10.0775 7.125 10.0775H7.845C8.19017 10.0775 8.46997 10.3574 8.46997 10.7025C8.46997 11.0477 8.19017 11.3275 7.845 11.3275H7.125C6.77982 11.3275 6.5 11.0477 6.5 10.7025ZM6.5 13.4715C6.5 13.1263 6.77982 12.8465 7.125 12.8465H7.845C8.19017 12.8465 8.46997 13.1263 8.46997 13.4715C8.46997 13.8167 8.19017 14.0965 7.845 14.0965H7.125C6.77982 14.0965 6.5 13.8167 6.5 13.4715Z" fill="#C9CCD9"/>
  <path fill-rule="evenodd" clip-rule="evenodd" d="M13.125 11.6289C13.125 11.2837 13.4048 11.0039 13.75 11.0039H14.47C14.8152 11.0039 15.095 11.2837 15.095 11.6289C15.095 11.9741 14.8152 12.2539 14.47 12.2539H13.75C13.4048 12.2539 13.125 11.9741 13.125 11.6289ZM13.125 14.3978C13.125 14.0527 13.4048 13.7728 13.75 13.7728H14.47C14.8152 13.7728 15.095 14.0527 15.095 14.3978C15.095 14.743 14.8152 15.0228 14.47 15.0228H13.75C13.4048 15.0228 13.125 14.743 13.125 14.3978Z" fill="#C9CCD9"/>
  <path fill-rule="evenodd" clip-rule="evenodd" d="M3.53125 5.80705C3.53125 4.59755 4.51162 3.61719 5.72112 3.61719H9.24493C10.4544 3.61719 11.4348 4.59755 11.4348 5.80705V16.7579C11.4348 17.103 11.1549 17.3829 10.8098 17.3829C10.4646 17.3829 10.1848 17.103 10.1848 16.7579V5.80705C10.1848 5.2879 9.76401 4.86719 9.24493 4.86719H5.72112C5.20197 4.86719 4.78125 5.2879 4.78125 5.80705V16.7579C4.78125 17.103 4.50143 17.3829 4.15625 17.3829C3.81108 17.3829 3.53125 17.103 3.53125 16.7579V5.80705Z" fill="#C9CCD9"/>
  <path fill-rule="evenodd" clip-rule="evenodd" d="M10.1953 9.08595C10.1953 8.74075 10.4751 8.46094 10.8203 8.46094H15.5514C16.7609 8.46094 17.7412 9.44128 17.7412 10.6508V16.7562C17.7412 17.1014 17.4614 17.3812 17.1162 17.3812C16.7711 17.3812 16.4912 17.1014 16.4912 16.7562V10.6508C16.4912 10.1316 16.0705 9.71095 15.5514 9.71095H11.4453V16.7562C11.4453 17.1014 11.1655 17.3812 10.8203 17.3812C10.4751 17.3812 10.1953 17.1014 10.1953 16.7562V9.08595Z" fill="#C9CCD9"/>
</svg>