<svg xmlns="http://www.w3.org/2000/svg" width="20" height="20" viewBox="0 0 20 20" fill="none">
  <path fill-rule="evenodd" clip-rule="evenodd" d="M14.4817 11.0968C14.4817 11.4328 14.2097 11.6968 13.8817 11.6968C13.5457 11.6968 13.2817 11.4328 13.2817 11.0968C13.2817 10.7688 13.5457 10.4968 13.8817 10.4968C14.2097 10.4968 14.4817 10.7608 14.4817 11.0888V11.0968ZM14.4817 13.4568C14.4817 13.7928 14.2097 14.0568 13.8817 14.0568C13.5457 14.0568 13.2817 13.7928 13.2817 13.4568C13.2817 13.1288 13.5457 12.8568 13.8817 12.8568C14.2097 12.8568 14.4817 13.1208 14.4817 13.4488V13.4568ZM7.59373 7.54487C7.59373 7.88087 7.32173 8.14487 6.99373 8.14487C6.65773 8.14487 6.39373 7.88087 6.39373 7.54487C6.39373 7.21687 6.65773 6.94487 6.99373 6.94487C7.32173 6.94487 7.59373 7.20887 7.59373 7.53687V7.54487ZM7.59373 10.2088C7.59373 10.5448 7.32173 10.8088 6.99373 10.8088C6.65773 10.8088 6.39373 10.5448 6.39373 10.2088C6.39373 9.88084 6.65773 9.60884 6.99373 9.60884C7.32173 9.60884 7.59373 9.87284 7.59373 10.2008V10.2088ZM7.59373 15.2408C7.59373 15.3734 7.48629 15.4808 7.35373 15.4808H6.63373C6.50119 15.4808 6.39373 15.3734 6.39373 15.2408V13.5208C6.39373 13.1928 6.65773 12.9208 6.99373 12.9208C7.32173 12.9208 7.59373 13.1928 7.59373 13.5208V15.2408ZM17.1777 15.4808H16.8817C16.7492 15.4808 16.6417 15.3734 16.6417 15.2408V8.94484C16.6417 8.49684 16.4417 8.05687 16.1057 7.75287C15.7697 7.44887 15.3137 7.30487 14.8657 7.36087L11.6164 7.70607C11.4944 7.71903 11.4017 7.82199 11.4017 7.94472V15.2408C11.4017 15.3734 11.2943 15.4808 11.1617 15.4808H10.8257C10.6932 15.4808 10.5857 15.3734 10.5857 15.2408V5.80087C10.5857 4.97687 9.96973 4.28887 9.14573 4.20887L5.16173 3.80887C4.70573 3.76087 4.25773 3.90487 3.92173 4.20887C3.59373 4.51287 3.40173 4.94487 3.40173 5.39287V15.2408C3.40173 15.3734 3.29429 15.4808 3.16173 15.4808H2.77773C2.44973 15.4808 2.17773 15.7528 2.17773 16.0808C2.17773 16.4168 2.44973 16.6808 2.77773 16.6808H17.1777C17.5137 16.6808 17.7777 16.4168 17.7777 16.0808C17.7777 15.7528 17.5137 15.4808 17.1777 15.4808Z" fill="#C7C7C7"/>
</svg>