<svg xmlns="http://www.w3.org/2000/svg" width="18" height="19" viewBox="0 0 18 19" fill="none">
  <path d="M11.2236 14.3218C11.2185 15.1881 10.5128 15.8857 9.64654 15.8806H4.17909C3.31359 15.885 2.6079 15.1866 2.60352 14.3204V10.3672C2.60717 10.0271 2.76845 9.7082 3.03992 9.50315L6.01228 7.11752C6.53698 6.70301 7.2777 6.70301 7.80169 7.11752L10.7871 9.50097C11.0572 9.70602 11.2177 10.0242 11.2236 10.3628V14.3218Z" stroke="#1F1F1F" stroke-width="1.15312" stroke-linecap="round" stroke-linejoin="round"/>
  <path d="M6.91016 13.042V15.7034" stroke="#1F1F1F" stroke-width="1.15312" stroke-linecap="round" stroke-linejoin="round"/>
  <path d="M13.5272 15.8011H14.5008C15.3859 15.8011 16.1033 15.0837 16.1033 14.1985V4.72172C16.1033 3.8365 15.3859 3.11914 14.5008 3.11914H10.5833C9.70326 3.11914 8.99023 3.83213 8.99023 4.71223V5.37121" stroke="#1F1F1F" stroke-width="1.15312" stroke-linecap="round" stroke-linejoin="round"/>
  <path d="M13.6777 12.6943V12.7029" stroke="#1F1F1F" stroke-width="1.15312" stroke-linecap="round" stroke-linejoin="round"/>
  <path d="M13.6777 9.53491V9.52637" stroke="#1F1F1F" stroke-width="1.15312" stroke-linecap="round" stroke-linejoin="round"/>
  <path d="M11.3828 6.3584V6.36694" stroke="#1F1F1F" stroke-width="1.15312" stroke-linecap="round" stroke-linejoin="round"/>
  <path d="M13.6777 6.3584V6.36694" stroke="#1F1F1F" stroke-width="1.15312" stroke-linecap="round" stroke-linejoin="round"/>
</svg>