<svg xmlns="http://www.w3.org/2000/svg" width="18" height="18" viewBox="0 0 18 18" fill="none">
  <path fill-rule="evenodd" clip-rule="evenodd" d="M6.67389 12.4931C6.99489 12.4931 7.25589 12.7533 7.25589 13.0751C7.25589 13.3961 6.99489 13.6571 6.67389 13.6571C6.35289 13.6571 6.09189 13.3961 6.09189 13.0751C6.09189 12.7533 6.35289 12.4931 6.67389 12.4931ZM6.67389 9.85758C6.99489 9.85758 7.25589 10.1186 7.25589 10.4396C7.25589 10.7613 6.99489 11.0216 6.67389 11.0216C6.35289 11.0216 6.09189 10.7613 6.09189 10.4396C6.09189 10.1186 6.35289 9.85758 6.67389 9.85758ZM9.70235 12.4931C10.0234 12.4931 10.2844 12.7533 10.2844 13.0751C10.2844 13.3961 10.0234 13.6571 9.70235 13.6571C9.3806 13.6571 9.12035 13.3961 9.12035 13.0751C9.12035 12.7533 9.3806 12.4931 9.70235 12.4931ZM9.70235 9.85758C10.0234 9.85758 10.2844 10.1186 10.2844 10.4396C10.2844 10.7613 10.0234 11.0216 9.70235 11.0216C9.3806 11.0216 9.12035 10.7613 9.12035 10.4396C9.12035 10.1186 9.3806 9.85758 9.70235 9.85758ZM12.7129 9.85758C13.0339 9.85758 13.2941 10.1186 13.2941 10.4396C13.2941 10.7613 13.0339 11.0216 12.7129 11.0216C12.3911 11.0216 12.1309 10.7613 12.1309 10.4396C12.1309 10.1186 12.3911 9.85758 12.7129 9.85758ZM3.24414 12.6476C3.24414 14.8826 4.58589 16.2176 6.83589 16.2176H12.5509C14.8009 16.2176 16.1442 14.9051 16.1442 12.7001V8.41758C16.1442 8.33478 16.077 8.26758 15.9941 8.26758H3.39414C3.3113 8.26758 3.24414 8.33478 3.24414 8.41758V12.6476Z" fill="#C7C7C7"/>
  <path fill-rule="evenodd" clip-rule="evenodd" d="M15.2217 3.99375C14.6742 3.45375 13.9017 3.14625 12.9867 3.06375V2.34375C12.9867 2.03625 12.7317 1.78125 12.4242 1.78125C12.1092 1.78125 11.8617 2.03625 11.8617 2.34375V5.00625C11.8092 5.02125 11.7642 5.03625 11.7117 5.03625C11.3967 5.03625 11.1492 4.78125 11.1492 4.47375V3.18375C11.1492 3.1009 11.082 3.03375 10.9992 3.03375H7.52667V2.34375C7.52667 2.03625 7.27914 1.78125 6.96414 1.78125C6.65664 1.78125 6.40164 2.03625 6.40164 2.34375V5.00625C6.35664 5.02125 6.30414 5.03625 6.25164 5.03625C5.94414 5.03625 5.68914 4.78125 5.68914 4.47375V3.37541C5.68914 3.27797 5.59737 3.20635 5.50403 3.23434C4.07249 3.66355 3.24414 4.82408 3.24414 6.54375V6.99375C3.24414 7.07659 3.3113 7.14375 3.39414 7.14375H15.9942C16.077 7.14375 16.1442 7.07659 16.1442 6.99375V6.54375C16.1442 5.48625 15.8292 4.60125 15.2217 3.99375Z" fill="#C7C7C7"/>
</svg>