<svg xmlns="http://www.w3.org/2000/svg" width="18" height="19" viewBox="0 0 18 19" fill="none">
  <path d="M11.0966 2.70733L11.7824 4.14356H13.9949C14.6751 4.14356 15.2266 4.67296 15.2266 5.32601V6.20169C15.2266 6.64819 14.8495 7.01015 14.3845 7.01015H2.84214C2.37704 7.01015 2 6.64819 2 6.20169V5.32601C2 4.67296 2.55146 4.14356 3.23173 4.14356H5.44418L6.13003 2.70733C6.33581 2.27633 6.78444 2 7.27833 2H9.94827C10.4422 2 10.8907 2.27633 11.0966 2.70733Z" stroke="#E42B30" stroke-width="1.20706" stroke-linecap="round" stroke-linejoin="round"/>
  <path d="M13.9366 7.07031V14.0597C13.9366 15.3993 12.8195 16.4851 11.4415 16.4851H5.78608C4.4081 16.4851 3.29102 15.3993 3.29102 14.0597V7.07031" stroke="#E42B30" stroke-width="1.20706" stroke-linecap="round" stroke-linejoin="round"/>
  <path d="M7.19727 9.89941V13.5274M10.0308 9.89941V13.5274" stroke="#E42B30" stroke-width="1.20706" stroke-linecap="round" stroke-linejoin="round"/>
</svg>