<svg xmlns="http://www.w3.org/2000/svg" width="28" height="26" viewBox="0 0 28 26" fill="none">
  <path d="M21.8912 16.0959C21.5459 16.4306 21.3872 16.9146 21.4659 17.3893L22.6512 23.9493C22.7512 24.5053 22.5165 25.0679 22.0512 25.3893C21.5952 25.7226 20.9885 25.7626 20.4912 25.4959L14.5859 22.4159C14.3805 22.3066 14.1525 22.2479 13.9192 22.2413H13.5579C13.4325 22.2599 13.3099 22.2999 13.1979 22.3613L7.29118 25.4559C6.99918 25.6026 6.66852 25.6546 6.34452 25.6026C5.55518 25.4533 5.02852 24.7013 5.15785 23.9079L6.34452 17.3479C6.42318 16.8693 6.26452 16.3826 5.91918 16.0426L1.10452 11.3759C0.70185 10.9853 0.56185 10.3986 0.74585 9.86927C0.924517 9.34127 1.38052 8.95594 1.93118 8.86927L8.55785 7.90794C9.06185 7.85594 9.50452 7.54927 9.73118 7.09594L12.6512 1.10927C12.7205 0.975937 12.8099 0.853271 12.9179 0.749271L13.0378 0.655938C13.1005 0.586604 13.1725 0.529271 13.2525 0.482604L13.3979 0.429271L13.6245 0.335938H14.1858C14.6872 0.387938 15.1285 0.687938 15.3592 1.13594L18.3179 7.09594C18.5312 7.53194 18.9459 7.8346 19.4245 7.90794L26.0512 8.86927C26.6112 8.94927 27.0792 9.33594 27.2645 9.86927C27.4392 10.4039 27.2885 10.9906 26.8779 11.3759L21.8912 16.0959Z" fill="#181A1B"/>
</svg>