<svg xmlns="http://www.w3.org/2000/svg" width="18" height="19" viewBox="0 0 18 19" fill="none">
  <path fill-rule="evenodd" clip-rule="evenodd" d="M11.9948 8.1665L8.53125 11.63C8.421 11.7403 8.27775 11.795 8.13375 11.795C7.989 11.795 7.84575 11.7403 7.7355 11.63L6.00375 9.89825C5.784 9.6785 5.784 9.32225 6.00375 9.1025C6.2235 8.88275 6.579 8.88275 6.79875 9.1025L8.13375 10.4367L11.199 7.37075C11.4187 7.151 11.775 7.151 11.9948 7.37075C12.2145 7.5905 12.2145 7.94675 11.9948 8.1665ZM9 2.375C5.0715 2.375 1.875 5.5715 1.875 9.5C1.875 13.4292 5.0715 16.625 9 16.625C12.9285 16.625 16.125 13.4292 16.125 9.5C16.125 5.5715 12.9285 2.375 9 2.375Z" fill="#1A5CEB"/>
</svg>