<svg xmlns="http://www.w3.org/2000/svg" width="23" height="22" viewBox="0 0 23 22" fill="none">
  <path d="M11.4785 19.6025C13.7223 19.6102 15.9687 18.6683 17.569 16.7698C19.9634 13.9293 20.0388 9.66686 17.7393 6.74912C14.7458 2.94952 9.21666 2.71166 5.90482 6.03471C3.48383 8.46302 2.96095 12.0608 4.31736 15.0035C4.43032 15.286 4.86762 16.0623 5.16115 16.5732C5.32803 16.8634 5.31091 17.2215 5.11836 17.4945C4.92495 17.7675 4.68021 18.1171 4.48937 18.4038C4.14792 18.9164 4.51077 19.6034 5.12521 19.6025L5.60159 19.6023C7.69097 19.6014 10.7505 19.6001 11.4785 19.6025Z" stroke="black" stroke-width="1.32" stroke-linecap="round" stroke-linejoin="round"/>
  <path d="M13.7652 11.654H9.23047M11.4986 13.9347V9.37695" stroke="black" stroke-width="1.32" stroke-linecap="round" stroke-linejoin="round"/>
</svg>