<svg xmlns="http://www.w3.org/2000/svg" width="18" height="19" viewBox="0 0 18 19" fill="none">
  <path d="M8.6232 16.5389C10.4591 16.5453 12.297 15.7746 13.6063 14.2213C15.5654 11.8972 15.6271 8.40978 13.7457 6.02254C11.2965 2.91377 6.77262 2.71916 4.06293 5.43802C2.08212 7.42483 1.65431 10.3685 2.7641 12.7761C2.85652 13.0073 3.21431 13.6424 3.45447 14.0604C3.59101 14.2979 3.57701 14.5908 3.41946 14.8142C3.26122 15.0376 3.06097 15.3236 2.90483 15.5582C2.62546 15.9776 2.92234 16.5397 3.42506 16.5389L3.81483 16.5388C5.52432 16.5381 8.02754 16.537 8.6232 16.5389Z" stroke="#B3B3B3" stroke-width="1.08" stroke-linecap="round" stroke-linejoin="round"/>
  <path d="M10.4934 10.0349H6.7832M8.63895 11.901V8.17188" stroke="#B3B3B3" stroke-width="1.08" stroke-linecap="round" stroke-linejoin="round"/>
</svg>