<svg xmlns="http://www.w3.org/2000/svg" width="16" height="17" viewBox="0 0 16 17" fill="none">
  <path d="M5.19255 5.83247L10.8059 5.83247C11.0275 5.83215 11.2447 5.8946 11.4323 6.01258C11.6198 6.13056 11.7702 6.29926 11.8659 6.49914C11.9779 6.7363 12.0211 7.00016 11.9904 7.26065C11.9598 7.52114 11.8566 7.76778 11.6926 7.97247L8.88589 11.3725C8.77574 11.4996 8.63957 11.6015 8.48659 11.6713C8.33361 11.7412 8.1674 11.7773 7.99922 11.7773C7.83105 11.7773 7.66484 11.7412 7.51186 11.6713C7.35888 11.6015 7.2227 11.4996 7.11255 11.3725L4.30589 7.97247C4.14188 7.76779 4.03868 7.52114 4.00803 7.26065C3.97739 7.00016 4.02053 6.7363 4.13256 6.49914C4.22825 6.29926 4.37859 6.13056 4.56619 6.01258C4.75378 5.8946 4.97095 5.83215 5.19255 5.83247Z" fill="black"/>
</svg>