<svg xmlns="http://www.w3.org/2000/svg" width="20" height="20" viewBox="0 0 20 20" fill="none">
  <path fill-rule="evenodd" clip-rule="evenodd" d="M8.20898 11.25C4.54232 11.25 2.70898 12.3333 2.70898 14.5C2.70898 15.75 3.62565 16.6667 4.79232 16.6667H11.6256C12.7923 16.6667 13.6256 15.8333 13.709 14.5C13.709 12.3333 11.8756 11.25 8.20898 11.25Z" fill="#C7C7C7"/>
  <path fill-rule="evenodd" clip-rule="evenodd" d="M14.9603 11.416C14.7103 11.416 14.4603 11.4993 14.377 11.7493C14.2936 11.916 14.2936 12.2493 14.377 12.416C15.2103 13.666 15.127 14.8327 14.7936 15.4993C14.7103 15.666 14.7103 15.916 14.877 16.0827C14.9603 16.2493 15.2103 16.3327 15.377 16.3327H16.7103C17.877 16.3327 18.7103 15.4993 18.7103 14.2493C18.7103 11.666 15.877 11.416 14.9603 11.416Z" fill="#C7C7C7"/>
  <path fill-rule="evenodd" clip-rule="evenodd" d="M8.20929 9.49967C9.9593 9.49967 11.2926 8.16634 11.2926 6.41634C11.2926 4.66634 9.9593 3.33301 8.20929 3.33301C6.45929 3.33301 5.12595 4.66634 5.12595 6.41634C5.04262 7.16634 5.37595 7.91634 5.95929 8.49967C6.54262 9.16634 7.37595 9.49967 8.20929 9.49967Z" fill="#C7C7C7"/>
  <path fill-rule="evenodd" clip-rule="evenodd" d="M14.8737 9.58234C16.207 9.58234 17.207 8.58234 17.207 7.16569C17.207 5.74902 16.207 4.74902 14.8737 4.74902C13.5404 4.74902 12.457 5.74902 12.457 7.16569C12.457 8.58234 13.5404 9.58234 14.8737 9.58234Z" fill="#C7C7C7"/>
</svg>