<svg xmlns="http://www.w3.org/2000/svg" width="24" height="24" viewBox="0 0 24 24" fill="none">
  <path d="M11.9967 10.6413L9.61935 8.26412C9.24764 7.89113 8.64424 7.89113 8.26998 8.26412C7.89699 8.6371 7.89699 9.24051 8.26998 9.61349L10.6473 11.9907L8.27252 14.367C7.89953 14.74 7.89953 15.3434 8.27252 15.7164C8.45838 15.9035 8.7028 15.9964 8.94721 15.9964C9.19163 15.9964 9.43604 15.9035 9.6219 15.7164L11.9967 13.3401L14.3753 15.7201C14.5611 15.9072 14.8055 16.0001 15.05 16.0001C15.2931 16.0001 15.5388 15.9072 15.7247 15.7201C16.0976 15.3471 16.0976 14.7437 15.7247 14.3707L13.3461 11.9907L15.7221 9.61617C16.0951 9.24318 16.0951 8.63978 15.7221 8.26679C15.3491 7.8938 14.7457 7.8938 14.3727 8.26679L11.9967 10.6413Z" fill="#1A5CEB"/>
</svg>