<svg xmlns="http://www.w3.org/2000/svg" width="18" height="18" viewBox="0 0 18 18" fill="none">
    <path d="M5.60883 11.6387L6.18187 10.1893C6.33529 9.80118 6.71008 9.54688 7.1269 9.54688H11.5733C11.9901 9.54688 12.3648 9.80118 12.5183 10.1893L13.0913 11.6387" stroke="#1A5CEB" stroke-width="1.08" stroke-linecap="round" stroke-linejoin="round"/>
    <path d="M13.093 5.5H11.783" stroke="#1A5CEB" stroke-width="1.08" stroke-linecap="round" stroke-linejoin="round"/>
    <path d="M9.30603 13.2637V14.8896" stroke="#1A5CEB" stroke-width="1.08" stroke-linecap="round" stroke-linejoin="round"/>
    <path d="M11.2078 13.2637C11.2078 14.161 11.9356 14.8889 12.8337 14.8889" stroke="#1A5CEB" stroke-width="1.08" stroke-linecap="round" stroke-linejoin="round"/>
    <path d="M7.30652 13.2637C7.30652 14.161 6.57868 14.8889 5.68127 14.8889" stroke="#1A5CEB" stroke-width="1.08" stroke-linecap="round" stroke-linejoin="round"/>
    <path fill-rule="evenodd" clip-rule="evenodd" d="M15.6179 9.53491C15.4274 10.5318 14.8579 11.3963 13.2409 11.6169C12.8977 11.6814 10.2791 11.6996 9.2857 11.7002C8.29232 11.701 5.92869 11.7002 5.33953 11.6183C3.80183 11.4166 3.18395 10.6341 2.95488 9.53491C2.75943 8.12328 2.75943 6.69137 2.95488 5.27977C3.09498 4.6696 3.41443 3.44435 5.33953 3.19355C5.64496 3.1347 7.82295 3.11229 9.2857 3.10949C10.8409 3.10668 13.0925 3.15572 13.2409 3.19285C15.1675 3.44505 15.4925 4.70673 15.6186 5.27977C15.8141 6.69207 15.8225 8.12328 15.6179 9.53491Z" stroke="#1A5CEB" stroke-width="1.08"/>
</svg>
