<svg width="16" height="15" viewBox="0 0 16 15" fill="none" xmlns="http://www.w3.org/2000/svg">
<g filter="url(#filter0_d_2694_15985)">
<path fill-rule="evenodd" clip-rule="evenodd" d="M15.856 4.06667C15.621 2.53167 14.7143 1.25001 13.3685 0.550839C12.0535 -0.133328 10.526 -0.142494 9.18102 0.524172C8.74602 0.739172 8.35018 1.01334 8.00102 1.34084C7.50518 0.877506 6.91602 0.520005 6.27767 0.295839C4.91767 -0.186661 3.51684 -0.0424946 2.33517 0.700839C1.10351 1.47751 0.272674 2.84251 0.111841 4.35584C-0.253992 8.05334 3.00267 10.5417 5.61934 12.54C6.10934 12.9142 6.58352 13.2758 7.01352 13.6292C7.29268 13.8617 7.64768 13.9833 8.00102 13.9833C8.19352 13.9833 8.38518 13.9475 8.56352 13.8733C8.78852 13.7883 8.95685 13.6492 9.14935 13.4892C9.54518 13.1642 9.97352 12.8333 10.4168 12.4908C13.0843 10.4292 16.4043 7.86334 15.856 4.06667Z" fill="white"/>
</g>
<defs>
<filter id="filter0_d_2694_15985" x="0.0835571" y="0.015625" width="15.8325" height="14.9668" filterUnits="userSpaceOnUse" color-interpolation-filters="sRGB">
<feFlood flood-opacity="0" result="BackgroundImageFix"/>
<feColorMatrix in="SourceAlpha" type="matrix" values="0 0 0 0 0 0 0 0 0 0 0 0 0 0 0 0 0 0 127 0" result="hardAlpha"/>
<feOffset dy="1"/>
<feComposite in2="hardAlpha" operator="out"/>
<feColorMatrix type="matrix" values="0 0 0 0 0 0 0 0 0 0 0 0 0 0 0 0 0 0 0.3 0"/>
<feBlend mode="normal" in2="BackgroundImageFix" result="effect1_dropShadow_2694_15985"/>
<feBlend mode="normal" in="SourceGraphic" in2="effect1_dropShadow_2694_15985" result="shape"/>
</filter>
</defs>
</svg>
