<svg xmlns="http://www.w3.org/2000/svg" width="20" height="20" viewBox="0 0 20 20" fill="none">
  <path fill-rule="evenodd" clip-rule="evenodd" d="M13.1192 11.8398C14.4254 11.8398 15.4826 12.8986 15.4826 14.204C15.4826 15.5102 14.4254 16.5688 13.1192 16.5688C11.813 16.5688 10.7546 15.5102 10.7546 14.204C10.7546 12.8986 11.813 11.8398 13.1192 11.8398Z" stroke="white" stroke-width="1.2" stroke-linecap="round" stroke-linejoin="round"/>
  <path fill-rule="evenodd" clip-rule="evenodd" d="M7.86456 3.43164C9.1708 3.43164 10.2294 4.4903 10.2294 5.7965C10.2294 7.10193 9.1708 8.16059 7.86456 8.16059C6.55836 8.16059 5.5 7.10199 5.5 5.79658C5.5 4.49037 6.55836 3.43164 7.86456 3.43164Z" stroke="white" stroke-width="1.2" stroke-linecap="round" stroke-linejoin="round"/>
  <path d="M3.18445 5.79688H5.50027M10.2283 5.79688H17.5845" stroke="white" stroke-width="1.2" stroke-linecap="round" stroke-linejoin="round"/>
  <path d="M3.18445 14.2031H10.7546M15.4827 14.2031H17.5845" stroke="white" stroke-width="1.2" stroke-linecap="round" stroke-linejoin="round"/>
</svg>