<svg xmlns="http://www.w3.org/2000/svg" width="18" height="19" viewBox="0 0 18 19" fill="none">
  <path fill-rule="evenodd" clip-rule="evenodd" d="M12.421 14.6531H5.57976C3.74083 14.6531 2.25 13.163 2.25 11.3241V10.7374C2.25 10.1981 2.68711 9.76172 3.22564 9.76172H14.7743C15.3136 9.76172 15.75 10.1981 15.75 10.7374V11.3241C15.75 13.163 14.2599 14.6531 12.421 14.6531Z" stroke="#333333" stroke-width="1.39" stroke-linecap="round" stroke-linejoin="round"/>
  <path d="M14.2087 9.76114V4.47715C14.2087 3.54967 13.3841 2.83964 12.4669 2.97829L11.0614 3.18991C10.32 3.30156 9.77197 3.93862 9.77197 4.68877V5.44258" stroke="#333333" stroke-width="1.39" stroke-linecap="round" stroke-linejoin="round"/>
  <path fill-rule="evenodd" clip-rule="evenodd" d="M8.25443 6.82143C8.25443 6.0377 8.9739 5.40575 9.84667 5.44297C10.6632 5.47799 11.2915 6.11724 11.2915 6.8601C11.2915 7.00386 11.1631 7.12062 11.0047 7.12062H8.54115C8.38282 7.12062 8.25443 7.00386 8.25443 6.8601V6.82143Z" stroke="#333333" stroke-width="1.39" stroke-linecap="round" stroke-linejoin="round"/>
  <path d="M5.57928 14.6523L4.55273 16.0389" stroke="#333333" stroke-width="1.39" stroke-linecap="round" stroke-linejoin="round"/>
  <path d="M13.5511 16.0389L12.5244 14.6523" stroke="#333333" stroke-width="1.39" stroke-linecap="round" stroke-linejoin="round"/>
</svg>