<svg xmlns="http://www.w3.org/2000/svg" width="18" height="19" viewBox="0 0 18 19" fill="none">
  <path d="M2.46375 12.2002C2.46375 11.589 2.46375 11.2834 2.52515 11.0314C2.71621 10.2474 3.32834 9.63524 4.11233 9.44423C4.36435 9.38281 4.66994 9.38281 5.28113 9.38281H12.6063C13.2175 9.38281 13.5231 9.38281 13.7752 9.44423C14.5591 9.63524 15.1713 10.2474 15.3623 11.0314C15.4238 11.2834 15.4238 11.589 15.4238 12.2002C15.4238 12.5262 15.4238 12.6891 15.391 12.8235C15.2891 13.2417 14.9626 13.5682 14.5445 13.6701C14.4101 13.7028 14.2471 13.7028 13.9211 13.7028H3.96635C3.64038 13.7028 3.4774 13.7028 3.34299 13.6701C2.92486 13.5682 2.59839 13.2417 2.4965 12.8235C2.46375 12.6891 2.46375 12.5262 2.46375 12.2002Z" stroke="#333333" stroke-width="1.3875" stroke-linecap="round" stroke-linejoin="round"/>
  <path d="M13.8298 14.8291V14.0371M4.05844 14.0371V14.8291" stroke="#333333" stroke-width="1.3875" stroke-linecap="round" stroke-linejoin="round"/>
  <path d="M13.8298 9.38331V5.72707C13.8298 5.28461 13.8298 5.06339 13.766 4.88604C13.657 4.58319 13.4186 4.34475 13.1157 4.23572C12.9383 4.17187 12.7171 4.17188 12.2746 4.17188H5.61364C5.17118 4.17188 4.94995 4.17187 4.7726 4.23572C4.46976 4.34475 4.23132 4.58319 4.12229 4.88604C4.05844 5.06339 4.05844 5.28461 4.05844 5.72707V9.38331" stroke="#333333" stroke-width="1.3875" stroke-linecap="round" stroke-linejoin="round"/>
</svg>