<svg xmlns="http://www.w3.org/2000/svg" width="18" height="18" viewBox="0 0 18 18" fill="none">
    <path d="M13.471 4.68277C13.0405 4.49085 11.8189 3.82826 10.3894 4.71999C9.16192 5.4862 8.70292 5.3709 7.6113 4.71999C6.11824 3.83045 4.96017 4.49085 4.52963 4.68277C2.43312 5.77882 2.24704 10.868 2.25215 11.0897C2.22807 12.0705 2.39371 13.1417 3.3898 13.5475C4.32823 13.8934 5.09517 13.7175 5.60014 13.3432C6.14671 12.9374 6.09416 12.5207 6.99027 12.0041C7.88707 11.4867 10.2251 11.5641 11.0096 12.0041C11.7948 12.4434 11.8539 12.9374 12.3997 13.3432C12.9055 13.7175 13.6717 13.8934 14.6101 13.5475C15.6069 13.1417 15.7726 12.0705 15.7477 11.0897C15.7528 10.868 15.5674 5.77882 13.471 4.68277Z" stroke="#333333" stroke-width="1.125" stroke-linecap="round" stroke-linejoin="round"/>
    <path d="M6.00091 7.29688V9.44886M7.07824 8.37291H4.92627" stroke="#333333" stroke-width="1.125" stroke-linecap="round" stroke-linejoin="round"/>
    <path d="M12.0044 9.45672V9.44922" stroke="#333333" stroke-width="1.125" stroke-linecap="round" stroke-linejoin="round"/>
    <path d="M12.0044 7.30437V7.29688" stroke="#333333" stroke-width="1.125" stroke-linecap="round" stroke-linejoin="round"/>
    <path d="M10.9292 8.38055V8.37305" stroke="#333333" stroke-width="1.125" stroke-linecap="round" stroke-linejoin="round"/>
    <path d="M13.0811 8.38055V8.37305" stroke="#333333" stroke-width="1.125" stroke-linecap="round" stroke-linejoin="round"/>
</svg>
