<svg xmlns="http://www.w3.org/2000/svg" width="24" height="24" viewBox="0 0 24 24" fill="none">
    <path fill-rule="evenodd" clip-rule="evenodd" d="M4.02782 8.95503C3.81626 11.1067 4.84458 12.8936 6.4499 14.5394C7.55562 15.673 8.84169 16.6548 10.0944 17.6111C10.6996 18.0731 11.2971 18.5292 11.8627 18.9936L11.867 18.9972C12.0266 19.1302 12.2744 19.1676 12.4619 19.0899C12.4689 19.087 12.4759 19.0842 12.483 19.0815C12.5542 19.0545 12.6163 19.0034 12.8304 18.8275L12.8356 18.8232C13.3486 18.4028 13.889 17.9852 14.4359 17.5627C15.7434 16.5526 17.0925 15.5102 18.2192 14.3106C19.7869 12.6416 20.753 10.8329 20.4417 8.66824C19.9816 5.67569 16.8812 4.03321 14.2221 5.35086C13.6887 5.61509 13.2064 5.98177 12.8123 6.42478C12.6701 6.58456 12.4665 6.67606 12.2527 6.67627C12.0388 6.67649 11.835 6.58539 11.6925 6.4259C11.1722 5.84336 10.5034 5.39375 9.76824 5.13569L9.76606 5.13492C6.98678 4.14973 4.33432 6.08807 4.02782 8.95503ZM10.2661 3.72074C6.44418 2.36669 2.92862 5.10711 2.53594 8.79916L2.53537 8.80473C2.25963 11.5954 3.63288 13.7996 5.37611 15.5868C6.55781 16.7983 8.00276 17.9027 9.29939 18.8938C9.87751 19.3357 10.4262 19.755 10.9088 20.1513C11.4897 20.634 12.3214 20.7673 13.0262 20.4797C13.3405 20.3577 13.596 20.1431 13.7402 20.022C13.7577 20.0073 13.7735 19.994 13.7876 19.9824C14.2326 19.6177 14.7293 19.2339 15.2507 18.8309C16.5928 17.7937 18.0991 16.6295 19.3126 15.3376C21.0272 13.5121 22.332 11.2639 21.9258 8.45073L21.9249 8.44442C21.3185 4.48295 17.1589 2.22163 13.5562 4.00678M10.2661 3.72074C10.9943 3.9765 11.6698 4.37176 12.2512 4.87531C12.6473 4.53177 13.0869 4.23923 13.5562 4.00678" fill="white"/>
</svg>
