<svg xmlns="http://www.w3.org/2000/svg" width="18" height="18" viewBox="0 0 18 18" fill="none">
    <path d="M14.0527 7.11719V8.17787" stroke="#1A5CEB" stroke-width="1.08" stroke-linecap="round" stroke-linejoin="round"/>
    <path d="M3.97266 5.30469V8.18469" stroke="#1A5CEB" stroke-width="1.08" stroke-linecap="round" stroke-linejoin="round"/>
    <path d="M2.53265 9.73879C2.53265 9.29635 2.53265 9.0751 2.5965 8.89776C2.70553 8.59493 2.94397 8.35647 3.24681 8.24746C3.42416 8.18359 3.64539 8.18359 4.08785 8.18359H13.9375C14.3799 8.18359 14.6012 8.18359 14.7785 8.24746C15.0813 8.35647 15.3198 8.59493 15.4288 8.89776C15.4927 9.0751 15.4927 9.29635 15.4927 9.73879V10.2157C15.4927 10.6582 15.4927 10.8794 15.4288 11.0568C15.3198 11.3596 15.0813 11.598 14.7785 11.7071C14.6012 11.7709 14.3799 11.7709 13.9375 11.7709H4.08785C3.64539 11.7709 3.42416 11.7709 3.24681 11.7071C2.94397 11.598 2.70553 11.3596 2.5965 11.0568C2.53265 10.8794 2.53265 10.6582 2.53265 10.2157V9.73879Z" stroke="#1A5CEB" stroke-width="1.08" stroke-linecap="round" stroke-linejoin="round"/>
    <path d="M3.97687 12.8835L4.21311 11.7754" stroke="#1A5CEB" stroke-width="1.08" stroke-linecap="round" stroke-linejoin="round"/>
    <path d="M14.0484 12.8835L13.8122 11.7754" stroke="#1A5CEB" stroke-width="1.08" stroke-linecap="round" stroke-linejoin="round"/>
    <path d="M6.75 8.18359C6.75 6.96038 5.75837 5.96875 4.53513 5.96875H3.979" stroke="#1A5CEB" stroke-width="1.08" stroke-linecap="round" stroke-linejoin="round"/>
</svg>
