<svg xmlns="http://www.w3.org/2000/svg" width="12" height="11" viewBox="0 0 12 11" fill="none">
  <path d="M1.0596 10.7067C1.0644 10.6995 1.0908 10.6671 1.116 10.6359C1.2996 10.4175 1.4376 10.0623 1.512 9.61475C1.5612 9.32075 1.5636 9.22835 1.5636 8.10755V7.06355H1.062C0.6036 7.06355 0.5508 7.06595 0.4608 7.08395C0.3192 7.11395 0.1728 7.19435 0.0744 7.29755C-0.0036 7.38035 -0.0012 7.38515 0.0036 7.13435C0.0096 6.92675 0.012 6.90395 0.042 6.79115C0.09 6.61235 0.156 6.47915 0.2556 6.36035C0.3912 6.19715 0.5292 6.10595 0.726 6.04475C0.768 6.03275 0.8568 6.02795 1.1712 6.02555L1.5636 6.01955V5.49995V4.97915L1.0104 4.98275L0.4548 4.98635L0.3588 5.02475C0.2448 5.07035 0.1932 5.10395 0.0816 5.20355L0 5.27675L0.0048 5.04755C0.0108 4.83515 0.012 4.81115 0.042 4.70315C0.1464 4.32155 0.3984 4.04915 0.7308 3.96035C0.8136 3.93755 0.846 3.93635 1.1928 3.93155L1.5636 3.92675V2.85155C1.5636 2.20235 1.56 1.72355 1.554 1.64195C1.548 1.56755 1.5288 1.42835 1.512 1.33115C1.434 0.88355 1.2936 0.54635 1.092 0.32795L1.0512 0.28355H3.0804C4.2936 0.28355 5.2008 0.28835 5.334 0.29435C5.568 0.30635 6.09 0.35795 6.2076 0.38315C6.2448 0.39035 6.3144 0.40115 6.36 0.40835C6.4572 0.42275 6.618 0.45635 6.8496 0.51515C7.176 0.59675 7.4736 0.69875 7.7652 0.82835C7.8564 0.86915 8.118 1.00235 8.1876 1.04435C8.2248 1.06595 8.2692 1.09235 8.286 1.10075C8.3328 1.12595 8.4108 1.17635 8.5248 1.25795C8.5812 1.29875 8.6376 1.33835 8.6496 1.34675C8.7 1.38035 8.874 1.52555 8.9532 1.59875C9.2544 1.87595 9.5064 2.18435 9.702 2.51435C9.7296 2.56235 9.7656 2.62235 9.7812 2.64755C9.8208 2.71475 9.984 3.05075 9.9996 3.10115C10.0068 3.12395 10.0164 3.14795 10.0212 3.15275C10.0524 3.19355 10.2324 3.75995 10.254 3.88355C10.2612 3.92315 10.2648 3.92915 10.2948 3.93515C10.314 3.93875 10.5936 3.93875 10.9164 3.93635C11.562 3.93155 11.562 3.93155 11.7048 3.86555C11.7852 3.82835 11.8092 3.81155 11.898 3.73115C12.0144 3.62675 12.0036 3.60995 11.9964 3.87155C11.9916 4.02515 11.9856 4.11995 11.9748 4.15835C11.934 4.30595 11.9244 4.33715 11.8884 4.41155C11.7708 4.66835 11.574 4.85195 11.322 4.93955L11.2236 4.97555L10.8228 4.98035L10.4232 4.98635L10.428 5.12675C10.4328 5.31155 10.4328 5.67755 10.4268 5.86595L10.422 6.01715L10.9572 6.01955C11.4156 6.02195 11.5008 6.01955 11.5512 6.00635C11.7024 5.96435 11.8044 5.90675 11.9292 5.79275L11.9988 5.72795V5.90555C11.9988 6.11675 11.988 6.21035 11.9448 6.34955C11.8596 6.63155 11.6916 6.84155 11.4516 6.97115C11.2956 7.05515 11.286 7.05755 10.7496 7.06115C10.4352 7.06355 10.2708 7.06835 10.2624 7.07555C10.2552 7.08275 10.2492 7.09475 10.2492 7.10435C10.2492 7.11395 10.2312 7.18955 10.2072 7.27115C9.9264 8.26355 9.402 9.05195 8.6352 9.63635C8.5308 9.71675 8.2752 9.88595 8.172 9.94355C8.1324 9.96635 8.0892 9.99035 8.0784 9.99755C8.028 10.0252 7.7388 10.1668 7.6668 10.1967C7.6236 10.216 7.5672 10.24 7.542 10.2496C7.1184 10.4332 6.408 10.6071 5.8656 10.6611C5.7768 10.6695 5.6592 10.6828 5.6052 10.6876C5.3604 10.7152 5.0208 10.7188 3.0924 10.7188C1.4628 10.7188 1.0536 10.7151 1.0596 10.7067ZM5.028 10.1872C5.4336 10.1632 5.6832 10.132 5.9748 10.0612C6.8652 9.84995 7.4916 9.40355 7.9464 8.65715C7.9884 8.58755 8.166 8.22515 8.1924 8.15195C8.3184 7.81235 8.3796 7.61075 8.4336 7.34435C8.4468 7.27955 8.4648 7.19315 8.4732 7.15235C8.4816 7.11275 8.4852 7.07555 8.4816 7.07195C8.4756 7.06715 7.2708 7.06475 5.802 7.06595L3.132 7.06835L3.1284 8.61035C3.1272 9.45755 3.1284 10.1619 3.132 10.1751L3.1368 10.198H3.99C4.458 10.198 4.926 10.1931 5.028 10.1872ZM8.598 5.98355C8.6064 5.93195 8.6064 5.05595 8.598 5.01275L8.5908 4.98035L5.8608 4.98275L3.132 4.98635L3.1296 5.49515C3.1272 5.77475 3.1296 6.00755 3.132 6.01235C3.1356 6.01835 4.2984 6.02195 5.8644 6.02195H8.5908L8.598 5.98355ZM8.4756 3.92315C8.4816 3.90515 8.4528 3.75755 8.394 3.51755C8.3268 3.24755 8.2356 2.97515 8.1432 2.77355C8.0976 2.67035 7.9836 2.44715 7.956 2.40515C7.9428 2.38595 7.9044 2.32475 7.8708 2.27075C7.6548 1.93235 7.3464 1.62395 6.9948 1.39595C6.8664 1.31435 6.6024 1.17515 6.5316 1.15355C6.5172 1.14995 6.5016 1.14275 6.4956 1.13795C6.4872 1.13075 6.378 1.08995 6.2508 1.04435C6.0168 0.96155 5.5716 0.87155 5.214 0.83435C4.9824 0.81155 4.9452 0.810349 4.0536 0.810349H3.1308V2.36675V3.92435L5.7816 3.92915C7.2396 3.93155 8.4408 3.93515 8.4504 3.93755C8.4612 3.93875 8.472 3.93155 8.4756 3.92315Z" fill="#B3B3B3"/>
</svg>