<svg xmlns="http://www.w3.org/2000/svg" width="34" height="34" viewBox="0 0 34 34" fill="none">
  <rect width="34" height="34" transform="matrix(1 0 0 -1 0 34)" fill="#1A5CEB"/>
  <path d="M9.46094 27.1037C9.46094 27.6351 9.89176 28.0659 10.4232 28.0659H26.3006C26.5663 28.0659 26.7817 27.8505 26.7817 27.5848V27.56C26.7817 27.3577 26.6252 27.19 26.4234 27.176L15.2046 26.3978C14.7002 26.3629 14.3089 25.9435 14.3089 25.4379V8.55929C14.3089 8.05475 14.6986 7.63588 15.2018 7.59952L26.4289 6.78839C26.6277 6.77402 26.7817 6.60851 26.7817 6.40914C26.7817 6.14664 26.5689 5.93384 26.3064 5.93384H10.4232C9.89176 5.93384 9.46094 6.36466 9.46094 6.89611V27.1037Z" fill="white"/>
  <path d="M16.1016 17.2894C16.1016 17.4974 16.2667 17.6677 16.4746 17.6741L19.1689 17.7573C19.3861 17.764 19.5657 17.5898 19.5657 17.3726V16.242C19.5657 16.0247 19.3861 15.8505 19.1689 15.8572L16.4746 15.9404C16.2667 15.9468 16.1016 16.1172 16.1016 16.3251V17.2894Z" fill="white"/>
</svg>