<svg width="404" height="117" viewBox="0 0 404 117" fill="none" xmlns="http://www.w3.org/2000/svg">
<rect x="0.217773" y="19.5" width="78" height="78" rx="5.72477" fill="#1A5CEB"/>
<path fill-rule="evenodd" clip-rule="evenodd" d="M24.3257 36.8762C23.2041 36.8762 22.2949 37.7854 22.2949 38.907V78.0928C22.2949 79.2144 23.2041 80.1236 24.3257 80.1236H55.2119C55.7249 80.1236 56.1407 79.7078 56.1407 79.1948C56.1407 78.8053 55.8398 78.4818 55.4512 78.4538L33.6525 76.8788C32.5905 76.8021 31.7681 75.9181 31.7681 74.8534V42.1519C31.7681 41.0849 32.5938 40.1998 33.6583 40.126L55.4199 38.6167C55.8258 38.5885 56.1407 38.251 56.1407 37.8442C56.1407 37.3096 55.7073 36.8762 55.1727 36.8762H24.3257ZM36.0563 57.1802C35.6176 57.1938 35.269 57.5533 35.269 57.9921V59.7597C35.269 60.1986 35.6176 60.5581 36.0563 60.5716L41.2008 60.7304C41.659 60.7445 42.0382 60.3769 42.0382 59.9185V57.8334C42.0382 57.3749 41.659 57.0073 41.2008 57.0215L36.0563 57.1802Z" fill="white"/>
<path d="M120.311 41.93V53.006H138.173V63.302H120.311V75.314H140.513V86H106.973V31.244H140.513V41.93H120.311ZM175.692 42.008C180.788 42.008 184.844 43.672 187.86 47C190.928 50.276 192.462 54.8 192.462 60.572V86H179.202V62.366C179.202 59.454 178.448 57.192 176.94 55.58C175.432 53.968 173.404 53.162 170.856 53.162C168.308 53.162 166.28 53.968 164.772 55.58C163.264 57.192 162.51 59.454 162.51 62.366V86H149.172V42.476H162.51V48.248C163.862 46.324 165.682 44.816 167.97 43.724C170.258 42.58 172.832 42.008 175.692 42.008ZM218.267 41.852C221.335 41.852 224.013 42.476 226.301 43.724C228.641 44.972 230.435 46.61 231.683 48.638V42.476H245.021V85.922C245.021 89.926 244.215 93.54 242.603 96.764C241.043 100.04 238.625 102.64 235.349 104.564C232.125 106.488 228.095 107.45 223.259 107.45C216.811 107.45 211.585 105.916 207.581 102.848C203.577 99.832 201.289 95.724 200.717 90.524H213.899C214.315 92.188 215.303 93.488 216.863 94.424C218.423 95.412 220.347 95.906 222.635 95.906C225.391 95.906 227.575 95.1 229.187 93.488C230.851 91.928 231.683 89.406 231.683 85.922V79.76C230.383 81.788 228.589 83.452 226.301 84.752C224.013 86 221.335 86.624 218.267 86.624C214.679 86.624 211.429 85.714 208.517 83.894C205.605 82.022 203.291 79.396 201.575 76.016C199.911 72.584 199.079 68.632 199.079 64.16C199.079 59.688 199.911 55.762 201.575 52.382C203.291 49.002 205.605 46.402 208.517 44.582C211.429 42.762 214.679 41.852 218.267 41.852ZM231.683 64.238C231.683 60.91 230.747 58.284 228.875 56.36C227.055 54.436 224.819 53.474 222.167 53.474C219.515 53.474 217.253 54.436 215.381 56.36C213.561 58.232 212.651 60.832 212.651 64.16C212.651 67.488 213.561 70.14 215.381 72.116C217.253 74.04 219.515 75.002 222.167 75.002C224.819 75.002 227.055 74.04 228.875 72.116C230.747 70.192 231.683 67.566 231.683 64.238ZM252.018 64.16C252.018 59.688 252.85 55.762 254.514 52.382C256.23 49.002 258.544 46.402 261.456 44.582C264.368 42.762 267.618 41.852 271.206 41.852C274.274 41.852 276.952 42.476 279.24 43.724C281.58 44.972 283.374 46.61 284.622 48.638V42.476H297.96V86H284.622V79.838C283.322 81.866 281.502 83.504 279.162 84.752C276.874 86 274.196 86.624 271.128 86.624C267.592 86.624 264.368 85.714 261.456 83.894C258.544 82.022 256.23 79.396 254.514 76.016C252.85 72.584 252.018 68.632 252.018 64.16ZM284.622 64.238C284.622 60.91 283.686 58.284 281.814 56.36C279.994 54.436 277.758 53.474 275.106 53.474C272.454 53.474 270.192 54.436 268.32 56.36C266.5 58.232 265.59 60.832 265.59 64.16C265.59 67.488 266.5 70.14 268.32 72.116C270.192 74.04 272.454 75.002 275.106 75.002C277.758 75.002 279.994 74.04 281.814 72.116C283.686 70.192 284.622 67.566 284.622 64.238ZM324.145 41.852C327.213 41.852 329.891 42.476 332.179 43.724C334.519 44.972 336.313 46.61 337.561 48.638V42.476H350.899V85.922C350.899 89.926 350.093 93.54 348.481 96.764C346.921 100.04 344.503 102.64 341.227 104.564C338.003 106.488 333.973 107.45 329.137 107.45C322.689 107.45 317.463 105.916 313.459 102.848C309.455 99.832 307.167 95.724 306.595 90.524H319.777C320.193 92.188 321.181 93.488 322.741 94.424C324.301 95.412 326.225 95.906 328.513 95.906C331.269 95.906 333.453 95.1 335.065 93.488C336.729 91.928 337.561 89.406 337.561 85.922V79.76C336.261 81.788 334.467 83.452 332.179 84.752C329.891 86 327.213 86.624 324.145 86.624C320.557 86.624 317.307 85.714 314.395 83.894C311.483 82.022 309.169 79.396 307.453 76.016C305.789 72.584 304.957 68.632 304.957 64.16C304.957 59.688 305.789 55.762 307.453 52.382C309.169 49.002 311.483 46.402 314.395 44.582C317.307 42.762 320.557 41.852 324.145 41.852ZM337.561 64.238C337.561 60.91 336.625 58.284 334.753 56.36C332.933 54.436 330.697 53.474 328.045 53.474C325.393 53.474 323.131 54.436 321.259 56.36C319.439 58.232 318.529 60.832 318.529 64.16C318.529 67.488 319.439 70.14 321.259 72.116C323.131 74.04 325.393 75.002 328.045 75.002C330.697 75.002 332.933 74.04 334.753 72.116C336.625 70.192 337.561 67.566 337.561 64.238ZM401.577 63.536C401.577 64.784 401.499 66.084 401.343 67.436H371.157C371.365 70.14 372.223 72.22 373.731 73.676C375.291 75.08 377.189 75.782 379.425 75.782C382.753 75.782 385.067 74.378 386.367 71.57H400.563C399.835 74.43 398.509 77.004 396.585 79.292C394.713 81.58 392.347 83.374 389.487 84.674C386.627 85.974 383.429 86.624 379.893 86.624C375.629 86.624 371.833 85.714 368.505 83.894C365.177 82.074 362.577 79.474 360.705 76.094C358.833 72.714 357.897 68.762 357.897 64.238C357.897 59.714 358.807 55.762 360.627 52.382C362.499 49.002 365.099 46.402 368.427 44.582C371.755 42.762 375.577 41.852 379.893 41.852C384.105 41.852 387.849 42.736 391.125 44.504C394.401 46.272 396.949 48.794 398.769 52.07C400.641 55.346 401.577 59.168 401.577 63.536ZM387.927 60.026C387.927 57.738 387.147 55.918 385.587 54.566C384.027 53.214 382.077 52.538 379.737 52.538C377.501 52.538 375.603 53.188 374.043 54.488C372.535 55.788 371.599 57.634 371.235 60.026H387.927Z" fill="#1A5CEB"/>
</svg>
