<svg width="72" height="72" viewBox="0 0 72 72" fill="none" xmlns="http://www.w3.org/2000/svg">
<rect width="72" height="72" rx="36" fill="#E7EEFE" fill-opacity="0.1"/>
<rect x="4" y="4" width="64" height="64" rx="32" fill="#1A5CEB"/>
<path d="M38.457 23.9359C38.2128 23.4993 37.8567 23.1357 37.4252 22.8826C36.9937 22.6295 36.5025 22.4961 36.0023 22.4961C35.502 22.4961 35.0108 22.6295 34.5793 22.8826C34.1478 23.1357 33.7917 23.4993 33.5475 23.9359L22.8533 43.0654C22.614 43.4932 22.4908 43.9762 22.4958 44.4664C22.5007 44.9566 22.6337 45.4369 22.8816 45.8599C23.1294 46.2828 23.4835 46.6336 23.9087 46.8775C24.334 47.1214 24.8155 47.25 25.3057 47.2504H46.6897C47.1801 47.2504 47.662 47.1221 48.0875 46.8784C48.5131 46.6346 48.8675 46.2838 49.1156 45.8608C49.3637 45.4378 49.4969 44.9573 49.502 44.467C49.507 43.9766 49.3838 43.4934 49.1445 43.0654L38.457 23.9359ZM37.6875 41.0629C37.6875 41.5104 37.5097 41.9396 37.1932 42.2561C36.8768 42.5726 36.4476 42.7504 36 42.7504C35.5524 42.7504 35.1232 42.5726 34.8068 42.2561C34.4903 41.9396 34.3125 41.5104 34.3125 41.0629C34.3125 40.6153 34.4903 40.1861 34.8068 39.8696C35.1232 39.5532 35.5524 39.3754 36 39.3754C36.4476 39.3754 36.8768 39.5532 37.1932 39.8696C37.5097 40.1861 37.6875 40.6153 37.6875 41.0629ZM34.875 36.0004V30.3754C34.875 30.077 34.9935 29.7909 35.2045 29.5799C35.4155 29.3689 35.7016 29.2504 36 29.2504C36.2984 29.2504 36.5845 29.3689 36.7955 29.5799C37.0065 29.7909 37.125 30.077 37.125 30.3754V36.0004C37.125 36.2987 37.0065 36.5849 36.7955 36.7959C36.5845 37.0068 36.2984 37.1254 36 37.1254C35.7016 37.1254 35.4155 37.0068 35.2045 36.7959C34.9935 36.5849 34.875 36.2987 34.875 36.0004Z" fill="white"/>
</svg>
