<svg width="14" height="14" viewBox="0 0 14 14" fill="none" xmlns="http://www.w3.org/2000/svg">
<path d="M10.4525 8.35336C10.3014 8.49977 10.232 8.71152 10.2664 8.91919L10.785 11.7892C10.8287 12.0324 10.726 12.2786 10.5225 12.4192C10.323 12.565 10.0575 12.5825 9.83995 12.4659L7.25637 11.1184C7.16654 11.0705 7.06679 11.0449 6.9647 11.0419H6.80662C6.75179 11.0501 6.69812 11.0676 6.64912 11.0944L4.06495 12.4484C3.9372 12.5125 3.79254 12.5353 3.65079 12.5125C3.30545 12.4472 3.07504 12.1182 3.13162 11.7711L3.65079 8.90111C3.6852 8.69169 3.61579 8.47878 3.4647 8.33003L1.35829 6.28836C1.18212 6.11744 1.12087 5.86078 1.20137 5.62919C1.27954 5.39819 1.47904 5.22961 1.71995 5.19169L4.61912 4.77111C4.83962 4.74836 5.03329 4.61419 5.13245 4.41586L6.40995 1.79669C6.44029 1.73836 6.47937 1.68469 6.52662 1.63919L6.57912 1.59836C6.60654 1.56803 6.63804 1.54294 6.67304 1.52253L6.73662 1.49919L6.83579 1.45836H7.08137C7.3007 1.48111 7.49379 1.61236 7.5947 1.80836L8.88912 4.41586C8.98245 4.60661 9.16387 4.73903 9.37329 4.77111L12.2725 5.19169C12.5175 5.22669 12.7222 5.39586 12.8033 5.62919C12.8797 5.86311 12.8138 6.11978 12.6341 6.28836L10.4525 8.35336Z" fill="#1A5CEB"/>
</svg>
