<svg width="20" height="20" viewBox="0 0 20 20" fill="none" xmlns="http://www.w3.org/2000/svg">
<g clip-path="url(#clip0_3868_22553)">
<path d="M8.6279 1.35309C9.98767 0.59902 11.7174 1.09447 12.4773 2.44209L19.746 15.0572C19.906 15.4338 19.976 15.7399 19.996 16.058C20.036 16.8012 19.776 17.5236 19.2661 18.0795C18.7562 18.6334 18.0663 18.9604 17.3164 19H2.6789C2.36896 18.9812 2.05901 18.9108 1.76906 18.8018C0.319301 18.2172 -0.380581 16.5723 0.20932 15.1464L7.52809 2.43317C7.77804 1.98628 8.15798 1.60082 8.6279 1.35309ZM9.99767 13.2726C9.51775 13.2726 9.11782 13.669 9.11782 14.1456C9.11782 14.6202 9.51775 15.0176 9.99767 15.0176C10.4776 15.0176 10.8675 14.6202 10.8675 14.1347C10.8675 13.66 10.4776 13.2726 9.99767 13.2726ZM9.99767 7.09039C9.51775 7.09039 9.11782 7.47585 9.11782 7.95248V10.7557C9.11782 11.2314 9.51775 11.6287 9.99767 11.6287C10.4776 11.6287 10.8675 11.2314 10.8675 10.7557V7.95248C10.8675 7.47585 10.4776 7.09039 9.99767 7.09039Z" fill="#ED8B18"/>
</g>
<defs>
<clipPath id="clip0_3868_22553">
<rect width="20" height="20" fill="white"/>
</clipPath>
</defs>
</svg>
