<svg width="26" height="26" viewBox="0 0 26 26" fill="none" xmlns="http://www.w3.org/2000/svg">
    <rect width="26" height="26" rx="4" fill="#28B16D"/>
    <path d="M14.6003 7.3667C17.1454 7.45623 19.3197 9.25955 19.8568 11.7663C20.4707 14.4393 19.0639 17.1635 16.5315 18.225C14.4213 19.0947 11.9785 18.5448 10.4437 16.8565C10.1368 16.5112 10.1368 16.5112 9.7403 16.7414L7.20797 18.2634C6.77313 18.5192 6.59407 18.468 6.33828 18.0332L6.10807 17.6111C5.94181 17.4065 5.96739 17.0995 6.18481 16.9205C6.22318 16.8821 6.27434 16.8565 6.3127 16.8437L8.92177 15.3218C9.31824 15.0916 9.30545 15.0916 9.19035 14.6695C8.28229 11.7535 9.88098 8.64565 12.7714 7.66086C13.0144 7.57133 13.2702 7.50738 13.5388 7.46902C13.8969 7.41786 14.2422 7.41786 14.6003 7.3667ZM18.9104 13.0325C18.936 10.5769 16.9792 8.55613 14.5364 8.50497C12.1064 8.50497 10.1112 10.449 10.06 12.879C9.95772 15.3474 11.8889 17.4321 14.3573 17.5344C14.3701 17.5344 14.3957 17.5344 14.4085 17.5344C16.8769 17.56 18.8976 15.5776 18.9104 13.1092C18.9104 13.0708 18.9104 13.0453 18.9104 13.0325Z" fill="white"/>
    <path d="M17.3777 13.5573V14.9897C17.3777 15.3222 17.237 15.4501 16.9173 15.4501H15.8174C15.5616 15.4501 15.4465 15.3478 15.4465 15.0792V13.9282C15.4337 13.455 15.0884 13.0457 14.6152 12.9818C14.1164 12.9178 13.656 13.2503 13.5537 13.7491C13.5409 13.9282 13.5409 14.0945 13.5537 14.2735V15.0792C13.5537 15.3478 13.4385 15.4757 13.17 15.4757H12.0317C11.8015 15.5013 11.5969 15.335 11.5713 15.1176C11.5713 15.092 11.5713 15.0665 11.5713 15.0409V12.1888C11.5585 11.9586 11.6736 11.754 11.8782 11.6517C12.5944 11.2424 13.3107 10.8331 14.0141 10.3983C14.2954 10.2064 14.6536 10.2064 14.9349 10.3983C15.6511 10.8331 16.3801 11.2552 17.1091 11.6772C17.2754 11.7668 17.3777 11.9458 17.3649 12.1377V13.5957L17.3777 13.5573Z" fill="white"/>
</svg>
