<svg xmlns="http://www.w3.org/2000/svg" width="32" height="28" viewBox="0 0 32 28" fill="none">
    <path d="M2.8256 27.8816C2.8384 27.8624 2.9088 27.776 2.976 27.6928C3.4656 27.1104 3.8336 26.1632 4.032 24.9696C4.1632 24.1856 4.1696 23.9392 4.1696 20.9504V18.1664H2.832C1.6096 18.1664 1.4688 18.1728 1.2288 18.2208C0.8512 18.3008 0.4608 18.5152 0.1984 18.7904C-0.00960001 19.0112 -0.0032 19.024 0.0096 18.3552C0.0256 17.8016 0.032 17.7408 0.112 17.44C0.24 16.9632 0.416 16.608 0.6816 16.2912C1.0432 15.856 1.4112 15.6128 1.936 15.4496C2.048 15.4176 2.2848 15.4048 3.1232 15.3984L4.1696 15.3824V13.9968V12.608L2.6944 12.6176L1.2128 12.6272L0.9568 12.7296C0.6528 12.8512 0.5152 12.9408 0.2176 13.2064L0 13.4016L0.0128 12.7904C0.0288 12.224 0.032 12.16 0.112 11.872C0.3904 10.8544 1.0624 10.128 1.9488 9.89117C2.1696 9.83037 2.256 9.82717 3.1808 9.81437L4.1696 9.80157V6.93437C4.1696 5.20317 4.16 3.92637 4.144 3.70877C4.128 3.51037 4.0768 3.13917 4.032 2.87997C3.824 1.68637 3.4496 0.787172 2.912 0.204773L2.8032 0.0863743H8.2144C11.4496 0.0863743 13.8688 0.0991726 14.224 0.115173C14.848 0.147173 16.24 0.284773 16.5536 0.351973C16.6528 0.371174 16.8384 0.399973 16.96 0.419172C17.2192 0.457573 17.648 0.547173 18.2656 0.703974C19.136 0.921574 19.9296 1.19357 20.7072 1.53917C20.9504 1.64797 21.648 2.00317 21.8336 2.11517C21.9328 2.17277 22.0512 2.24317 22.096 2.26557C22.2208 2.33277 22.4288 2.46717 22.7328 2.68477C22.8832 2.79357 23.0336 2.89917 23.0656 2.92157C23.2 3.01117 23.664 3.39837 23.8752 3.59357C24.6784 4.33277 25.3504 5.15517 25.872 6.03517C25.9456 6.16317 26.0416 6.32317 26.0832 6.39037C26.1888 6.56957 26.624 7.46557 26.6656 7.59997C26.6848 7.66077 26.7104 7.72477 26.7232 7.73757C26.8064 7.84637 27.2864 9.35677 27.344 9.68637C27.3632 9.79198 27.3728 9.80797 27.4528 9.82397C27.504 9.83357 28.2496 9.83357 29.1104 9.82717C30.832 9.81437 30.832 9.81437 31.2128 9.63837C31.4272 9.53918 31.4912 9.49437 31.728 9.27997C32.0384 9.00157 32.0096 8.95677 31.9904 9.65438C31.9776 10.064 31.9616 10.3168 31.9328 10.4192C31.824 10.8128 31.7984 10.896 31.7024 11.0944C31.3888 11.7792 30.864 12.2688 30.192 12.5024L29.9296 12.5984L28.8608 12.6112L27.7952 12.6272L27.808 13.0016C27.8208 13.4944 27.8208 14.4704 27.8048 14.9728L27.792 15.376L29.2192 15.3824C30.4416 15.3888 30.6688 15.3824 30.8032 15.3472C31.2064 15.2352 31.4784 15.0816 31.8112 14.7776L31.9968 14.6048V15.0784C31.9968 15.6416 31.968 15.8912 31.8528 16.2624C31.6256 17.0144 31.1776 17.5744 30.5376 17.92C30.1216 18.144 30.096 18.1504 28.6656 18.16C27.8272 18.1664 27.3888 18.1792 27.3664 18.1984C27.3472 18.2176 27.3312 18.2496 27.3312 18.2752C27.3312 18.3008 27.2832 18.5024 27.2192 18.72C26.4704 21.3664 25.072 23.4688 23.0272 25.0272C22.7488 25.2416 22.0672 25.6928 21.792 25.8464C21.6864 25.9072 21.5712 25.9712 21.5424 25.9904C21.408 26.064 20.6368 26.4416 20.4448 26.5216C20.3296 26.5728 20.1792 26.6368 20.112 26.6624C18.9824 27.152 17.088 27.616 15.6416 27.76C15.4048 27.7824 15.0912 27.8176 14.9472 27.8304C14.2944 27.904 13.3888 27.9136 8.2464 27.9136C3.9008 27.9136 2.8096 27.904 2.8256 27.8816ZM13.408 26.496C14.4896 26.432 15.1552 26.3488 15.9328 26.16C18.3072 25.5968 19.9776 24.4064 21.1904 22.416C21.3024 22.2304 21.776 21.264 21.8464 21.0688C22.1824 20.1632 22.3456 19.6256 22.4896 18.9152C22.5248 18.7424 22.5728 18.512 22.5952 18.4032C22.6176 18.2976 22.6272 18.1984 22.6176 18.1888C22.6016 18.176 19.3888 18.1696 15.472 18.1728L8.352 18.1792L8.3424 22.2912C8.3392 24.5504 8.3424 26.4288 8.352 26.464L8.3648 26.5248H10.64C11.888 26.5248 13.136 26.512 13.408 26.496ZM22.928 15.2864C22.9504 15.1488 22.9504 12.8128 22.928 12.6976L22.9088 12.6112L15.6288 12.6176L8.352 12.6272L8.3456 13.984C8.3392 14.7296 8.3456 15.3504 8.352 15.3632C8.3616 15.3792 11.4624 15.3888 15.6384 15.3888H22.9088L22.928 15.2864ZM22.6016 9.79197C22.6176 9.74397 22.5408 9.35037 22.384 8.71037C22.2048 7.99037 21.9616 7.26397 21.7152 6.72637C21.5936 6.45117 21.2896 5.85597 21.216 5.74397C21.1808 5.69277 21.0784 5.52957 20.9888 5.38557C20.4128 4.48317 19.5904 3.66077 18.6528 3.05277C18.3104 2.83517 17.6064 2.46397 17.4176 2.40637C17.3792 2.39677 17.3376 2.37757 17.3216 2.36477C17.2992 2.34557 17.008 2.23677 16.6688 2.11517C16.0448 1.89437 14.8576 1.65437 13.904 1.55517C13.2864 1.49437 13.1872 1.49117 10.8096 1.49117H8.3488V5.64157V9.79517L15.4176 9.80797C19.3056 9.81437 22.5088 9.82397 22.5344 9.83037C22.5632 9.83357 22.592 9.81437 22.6016 9.79197Z" fill="#EBEBEB"/>
</svg>
