<svg xmlns="http://www.w3.org/2000/svg" width="20" height="20" viewBox="0 0 20 20" fill="none">
    <path d="M9.28833 14.9023H3.89453" stroke="black" stroke-width="1.25" stroke-linecap="round" stroke-linejoin="round"/>
    <path fill-rule="evenodd" clip-rule="evenodd" d="M12.668 14.9029C12.668 16.6043 13.2354 17.171 14.9361 17.171C16.6368 17.171 17.2042 16.6043 17.2042 14.9029C17.2042 13.2014 16.6368 12.6348 14.9361 12.6348C13.2354 12.6348 12.668 13.2014 12.668 14.9029Z" stroke="black" stroke-width="1.25" stroke-linecap="round" stroke-linejoin="round"/>
    <path d="M11.8125 6.16211H17.2055" stroke="black" stroke-width="1.25" stroke-linecap="round" stroke-linejoin="round"/>
    <path fill-rule="evenodd" clip-rule="evenodd" d="M8.43163 6.16074C8.43163 4.45999 7.86418 3.89258 6.16343 3.89258C4.46194 3.89258 3.89453 4.45999 3.89453 6.16074C3.89453 7.86223 4.46194 8.4289 6.16343 8.4289C7.86418 8.4289 8.43163 7.86223 8.43163 6.16074Z" stroke="black" stroke-width="1.25" stroke-linecap="round" stroke-linejoin="round"/>
</svg>
