<svg width="139" height="89" viewBox="0 0 139 89" fill="none" xmlns="http://www.w3.org/2000/svg">
    <g opacity="0.4">
        <rect x="84.5" y="18" width="54" height="54" rx="3.76941" fill="url(#paint0_linear_14314_43098)"/>
        <path fill-rule="evenodd" clip-rule="evenodd" d="M111.626 46.917C109.545 46.917 107.77 47.2573 107.77 48.6189C107.77 49.9812 109.535 50.333 111.626 50.333C113.706 50.333 115.483 49.9921 115.483 48.6304C115.483 47.2695 113.718 46.917 111.626 46.917Z" stroke="#A6ABBF" stroke-linecap="round" stroke-linejoin="round"/>
        <path fill-rule="evenodd" clip-rule="evenodd" d="M114.288 42.3307C114.288 43.8014 113.095 44.9943 111.624 44.9943C110.153 44.9943 108.961 43.8014 108.961 42.3307C108.961 40.8599 110.153 39.667 111.624 39.667C113.095 39.667 114.288 40.8599 114.288 42.3307Z" stroke="#A6ABBF" stroke-linecap="round" stroke-linejoin="round"/>
        <path d="M107.291 45.9502H107.285C106.136 46.1291 105.332 46.5473 105.332 47.3905C105.332 47.8256 105.548 48.1482 105.918 48.3821" stroke="#A6ABBF" stroke-linecap="round" stroke-linejoin="round"/>
        <path d="M115.91 45.9502H115.916C117.065 46.1291 117.869 46.5473 117.869 47.3905C117.869 47.8256 117.653 48.1482 117.283 48.3821" stroke="#A6ABBF" stroke-linecap="round" stroke-linejoin="round"/>
        <path d="M115.705 43.9384C116.554 43.6205 117.044 42.7083 116.814 41.8095C116.629 41.083 116.026 40.5739 115.328 40.4736" stroke="#A6ABBF" stroke-linecap="round" stroke-linejoin="round"/>
        <path d="M107.494 43.9384C106.645 43.6205 106.155 42.7083 106.385 41.8095C106.57 41.083 107.173 40.5739 107.871 40.4736" stroke="#A6ABBF" stroke-linecap="round" stroke-linejoin="round"/>
    </g>
    <g opacity="0.4">
        <rect x="0.5" y="18" width="54" height="54" rx="3.76941" fill="url(#paint1_linear_14314_43098)"/>
        <path fill-rule="evenodd" clip-rule="evenodd" d="M27.6261 46.917C25.5446 46.917 23.7695 47.2573 23.7695 48.6189C23.7695 49.9812 25.5351 50.333 27.6261 50.333C29.7062 50.333 31.4826 49.9921 31.4826 48.6304C31.4826 47.2695 29.7177 46.917 27.6261 46.917Z" stroke="#A6ABBF" stroke-linecap="round" stroke-linejoin="round"/>
        <path fill-rule="evenodd" clip-rule="evenodd" d="M30.2876 42.3307C30.2876 43.8014 29.0954 44.9943 27.6239 44.9943C26.1531 44.9943 24.9609 43.8014 24.9609 42.3307C24.9609 40.8599 26.1531 39.667 27.6239 39.667C29.0954 39.667 30.2876 40.8599 30.2876 42.3307Z" stroke="#A6ABBF" stroke-linecap="round" stroke-linejoin="round"/>
        <path d="M23.2908 45.9502H23.2854C22.1359 46.1291 21.332 46.5473 21.332 47.3905C21.332 47.8256 21.5482 48.1482 21.9176 48.3821" stroke="#A6ABBF" stroke-linecap="round" stroke-linejoin="round"/>
        <path d="M31.9102 45.9502H31.9156C33.0651 46.1291 33.8689 46.5473 33.8689 47.3905C33.8689 47.8256 33.6527 48.1482 33.2833 48.3821" stroke="#A6ABBF" stroke-linecap="round" stroke-linejoin="round"/>
        <path d="M31.705 43.9384C32.5542 43.6205 33.0443 42.7083 32.8145 41.8095C32.6288 41.083 32.0263 40.5739 31.3281 40.4736" stroke="#A6ABBF" stroke-linecap="round" stroke-linejoin="round"/>
        <path d="M23.4942 43.9384C22.645 43.6205 22.1549 42.7083 22.3847 41.8095C22.5704 41.083 23.1729 40.5739 23.8711 40.4736" stroke="#A6ABBF" stroke-linecap="round" stroke-linejoin="round"/>
    </g>
    <g filter="url(#filter0_f_14314_43098)">
        <rect x="102.5" y="18" width="8" height="53" fill="#A6ABBF" fill-opacity="0.8"/>
    </g>
    <g filter="url(#filter1_f_14314_43098)">
        <rect x="34.5" y="18" width="8" height="53" fill="#A6ABBF" fill-opacity="0.8"/>
    </g>
    <rect x="30.5" y="4" width="78" height="78" rx="5.44471" fill="url(#paint2_linear_14314_43098)"/>
    <rect x="30.75" y="4.25" width="77.5" height="77.5" rx="5.19471" stroke="url(#paint3_linear_14314_43098)" stroke-opacity="0.3" stroke-width="0.5"/>
    <path fill-rule="evenodd" clip-rule="evenodd" d="M69.6872 45.875C66.565 45.875 63.9023 46.3854 63.9023 48.4278C63.9023 50.4713 66.5508 50.999 69.6872 50.999C72.8073 50.999 75.472 50.4876 75.472 48.4451C75.472 46.4037 72.8246 45.875 69.6872 45.875Z" stroke="#A6ABBF" stroke-width="1.5" stroke-linecap="round" stroke-linejoin="round"/>
    <path fill-rule="evenodd" clip-rule="evenodd" d="M73.6814 38.9955C73.6814 41.2016 71.8931 42.991 69.6859 42.991C67.4797 42.991 65.6914 41.2016 65.6914 38.9955C65.6914 36.7893 67.4797 35 69.6859 35C71.8931 35 73.6814 36.7893 73.6814 38.9955Z" stroke="#A6ABBF" stroke-width="1.5" stroke-linecap="round" stroke-linejoin="round"/>
    <path d="M63.1843 44.4258H63.1761C61.4519 44.6942 60.2461 45.3215 60.2461 46.5862C60.2461 47.2389 60.5704 47.7228 61.1245 48.0736" stroke="#A6ABBF" stroke-width="1.5" stroke-linecap="round" stroke-linejoin="round"/>
    <path d="M76.1172 44.4258H76.1253C77.8496 44.6942 79.0553 45.3215 79.0553 46.5862C79.0553 47.2389 78.731 47.7228 78.1769 48.0736" stroke="#A6ABBF" stroke-width="1.5" stroke-linecap="round" stroke-linejoin="round"/>
    <path d="M75.8075 41.4081C77.0813 40.9313 77.8164 39.5629 77.4717 38.2148C77.1932 37.1249 76.2894 36.3614 75.2422 36.2109" stroke="#A6ABBF" stroke-width="1.5" stroke-linecap="round" stroke-linejoin="round"/>
    <path d="M63.4913 41.4081C62.2174 40.9313 61.4824 39.5629 61.827 38.2148C62.1056 37.1249 63.0094 36.3614 64.0566 36.2109" stroke="#A6ABBF" stroke-width="1.5" stroke-linecap="round" stroke-linejoin="round"/>
    <defs>
        <filter id="filter0_f_14314_43098" x="84.5" y="0" width="44" height="89" filterUnits="userSpaceOnUse" color-interpolation-filters="sRGB">
            <feFlood flood-opacity="0" result="BackgroundImageFix"/>
            <feBlend mode="normal" in="SourceGraphic" in2="BackgroundImageFix" result="shape"/>
            <feGaussianBlur stdDeviation="9" result="effect1_foregroundBlur_14314_43098"/>
        </filter>
        <filter id="filter1_f_14314_43098" x="16.5" y="0" width="44" height="89" filterUnits="userSpaceOnUse" color-interpolation-filters="sRGB">
            <feFlood flood-opacity="0" result="BackgroundImageFix"/>
            <feBlend mode="normal" in="SourceGraphic" in2="BackgroundImageFix" result="shape"/>
            <feGaussianBlur stdDeviation="9" result="effect1_foregroundBlur_14314_43098"/>
        </filter>
        <linearGradient id="paint0_linear_14314_43098" x1="111.5" y1="18" x2="111.5" y2="72" gradientUnits="userSpaceOnUse">
            <stop stop-color="#E8EAEE"/>
            <stop offset="1" stop-color="#FAFAFB"/>
        </linearGradient>
        <linearGradient id="paint1_linear_14314_43098" x1="27.5" y1="18" x2="27.5" y2="72" gradientUnits="userSpaceOnUse">
            <stop stop-color="#E8EAEE"/>
            <stop offset="1" stop-color="#FAFAFB"/>
        </linearGradient>
        <linearGradient id="paint2_linear_14314_43098" x1="69.5" y1="4" x2="69.5" y2="82" gradientUnits="userSpaceOnUse">
            <stop stop-color="#E8EAEE"/>
            <stop offset="1" stop-color="white"/>
        </linearGradient>
        <linearGradient id="paint3_linear_14314_43098" x1="69.5" y1="4" x2="69.5" y2="82" gradientUnits="userSpaceOnUse">
            <stop stop-color="#A6ABBF"/>
            <stop offset="1" stop-color="#A6ABBF" stop-opacity="0"/>
        </linearGradient>
    </defs>
</svg>
