<svg xmlns="http://www.w3.org/2000/svg" width="16" height="16" viewBox="0 0 16 16" fill="none">
    <path fill-rule="evenodd" clip-rule="evenodd" d="M8.0026 3.33447C8.3708 3.33447 8.66927 3.63295 8.66927 4.00114V7.33447H12.0026C12.3708 7.33447 12.6693 7.63294 12.6693 8.00114C12.6693 8.36934 12.3708 8.66781 12.0026 8.66781H8.66927V12.0011C8.66927 12.3693 8.3708 12.6678 8.0026 12.6678C7.6344 12.6678 7.33594 12.3693 7.33594 12.0011V8.66781H4.0026C3.63442 8.66781 3.33594 8.36934 3.33594 8.00114C3.33594 7.63294 3.63442 7.33447 4.0026 7.33447H7.33594V4.00114C7.33594 3.63295 7.6344 3.33447 8.0026 3.33447Z" fill="#1A5CEB"/>
</svg>
