<svg width="26" height="26" viewBox="0 0 26 26" fill="none" xmlns="http://www.w3.org/2000/svg">
    <rect width="26" height="26" rx="4" fill="#EA3934"/>
    <path d="M12.9991 3.93213C16.3099 3.93213 18.9986 6.6375 18.9986 9.97747C18.9986 10.4993 18.9318 11.0045 18.8107 11.4888C18.6729 12.0232 18.4642 12.5325 18.197 13.0001C17.9339 13.4594 17.6125 13.8811 17.2409 14.2526C16.1554 15.3465 14.6566 16.0228 13.0033 16.0228V15.9435C12.9449 14.2192 12.2059 12.6703 11.0536 11.5598C9.99318 10.5369 8.57369 9.88562 7.01226 9.81047C7.05401 8.20729 7.71782 6.76275 8.76574 5.70231C9.84288 4.60847 11.3417 3.93213 12.9991 3.93213ZM7.00391 22.0681C10.3146 22.0681 13.0033 19.3628 13.0033 16.0228H7.00391V22.0681Z" fill="white"/>
</svg>
