<svg xmlns="http://www.w3.org/2000/svg" width="12" height="12" viewBox="0 0 12 12" fill="none">
  <path d="M4.6875 0.75H1.3125C1.00078 0.75 0.75 1.00078 0.75 1.3125V4.6875C0.75 4.91484 0.885938 5.12109 1.09688 5.20781C1.30781 5.29453 1.54922 5.24766 1.71094 5.08594L2.64844 4.14844L4.5 6L2.64844 7.85156L1.71094 6.91406C1.54922 6.75234 1.30781 6.70547 1.09688 6.79219C0.885938 6.87891 0.75 7.08516 0.75 7.3125V10.6875C0.75 10.9992 1.00078 11.25 1.3125 11.25H4.6875C4.91484 11.25 5.12109 11.1141 5.20781 10.9031C5.29453 10.6922 5.24766 10.4508 5.08594 10.2891L4.14844 9.35156L6 7.5L7.85156 9.35156L6.91406 10.2891C6.75234 10.4508 6.70547 10.6922 6.79219 10.9031C6.87891 11.1141 7.08516 11.25 7.3125 11.25H10.6875C10.9992 11.25 11.25 10.9992 11.25 10.6875V7.3125C11.25 7.08516 11.1141 6.87891 10.9031 6.79219C10.6922 6.70547 10.4508 6.75234 10.2891 6.91406L9.35156 7.85156L7.5 6L9.35156 4.14844L10.2891 5.08594C10.4508 5.24766 10.6922 5.29453 10.9031 5.20781C11.1141 5.12109 11.25 4.91484 11.25 4.6875V1.3125C11.25 1.00078 10.9992 0.75 10.6875 0.75H7.3125C7.08516 0.75 6.87891 0.885938 6.79219 1.09688C6.70547 1.30781 6.75234 1.54922 6.91406 1.71094L7.85156 2.64844L6 4.5L4.14844 2.64844L5.08594 1.71094C5.24766 1.54922 5.29453 1.30781 5.20781 1.09688C5.12109 0.885938 4.91484 0.75 4.6875 0.75Z" fill="#737373"/>
</svg>