<svg xmlns="http://www.w3.org/2000/svg" width="18" height="14" viewBox="0 0 18 14" fill="none">
  <path d="M0.875 0.875C1.35898 0.875 1.75 1.26602 1.75 1.75V8.75H7.875V4.375C7.875 3.89102 8.26602 3.5 8.75 3.5H14.875C16.3242 3.5 17.5 4.67578 17.5 6.125V12.25C17.5 12.734 17.109 13.125 16.625 13.125C16.141 13.125 15.75 12.734 15.75 12.25V11.375H9.625H8.75H1.75V12.25C1.75 12.734 1.35898 13.125 0.875 13.125C0.391016 13.125 0 12.734 0 12.25V1.75C0 1.26602 0.391016 0.875 0.875 0.875ZM4.8125 3.5C6.01981 3.5 7 4.48019 7 5.6875C7 6.89481 6.01981 7.875 4.8125 7.875C3.60519 7.875 2.625 6.89481 2.625 5.6875C2.625 4.48019 3.60519 3.5 4.8125 3.5Z" fill="#737373"/>
</svg>