<svg xmlns="http://www.w3.org/2000/svg" width="11" height="14" viewBox="0 0 11 14" fill="none">
  <path d="M1.75 1.3125C1.50937 1.3125 1.3125 1.50937 1.3125 1.75V12.25C1.3125 12.4906 1.50937 12.6875 1.75 12.6875H3.9375V10.9375C3.9375 10.2129 4.52539 9.625 5.25 9.625C5.97461 9.625 6.5625 10.2129 6.5625 10.9375V12.6875H8.75C8.99063 12.6875 9.1875 12.4906 9.1875 12.25V1.75C9.1875 1.50937 8.99063 1.3125 8.75 1.3125H1.75ZM0 1.75C0 0.784766 0.784766 0 1.75 0H8.75C9.71523 0 10.5 0.784766 10.5 1.75V12.25C10.5 13.2152 9.71523 14 8.75 14H1.75C0.784766 14 0 13.2152 0 12.25V1.75ZM2.40625 2.84375C2.40625 2.60313 2.60313 2.40625 2.84375 2.40625H4.15625C4.39687 2.40625 4.59375 2.60313 4.59375 2.84375V4.15625C4.59375 4.39687 4.39687 4.59375 4.15625 4.59375H2.84375C2.60313 4.59375 2.40625 4.39687 2.40625 4.15625V2.84375ZM6.34375 2.40625H7.65625C7.89687 2.40625 8.09375 2.60313 8.09375 2.84375V4.15625C8.09375 4.39687 7.89687 4.59375 7.65625 4.59375H6.34375C6.10313 4.59375 5.90625 4.39687 5.90625 4.15625V2.84375C5.90625 2.60313 6.10313 2.40625 6.34375 2.40625ZM2.40625 6.34375C2.40625 6.10313 2.60313 5.90625 2.84375 5.90625H4.15625C4.39687 5.90625 4.59375 6.10313 4.59375 6.34375V7.65625C4.59375 7.89687 4.39687 8.09375 4.15625 8.09375H2.84375C2.60313 8.09375 2.40625 7.89687 2.40625 7.65625V6.34375ZM6.34375 5.90625H7.65625C7.89687 5.90625 8.09375 6.10313 8.09375 6.34375V7.65625C8.09375 7.89687 7.89687 8.09375 7.65625 8.09375H6.34375C6.10313 8.09375 5.90625 7.89687 5.90625 7.65625V6.34375C5.90625 6.10313 6.10313 5.90625 6.34375 5.90625Z" fill="#737373"/>
</svg>