<svg xmlns="http://www.w3.org/2000/svg" width="16" height="16" viewBox="0 0 16 16" fill="none">
  <path d="M14 2.5C14.275 2.5 14.5 2.725 14.5 3V12.9937L14.3438 12.7906L10.0938 7.29063C9.95312 7.10625 9.73125 7 9.5 7C9.26875 7 9.05 7.10625 8.90625 7.29063L6.3125 10.6469L5.35938 9.3125C5.21875 9.11563 4.99375 9 4.75 9C4.50625 9 4.28125 9.11563 4.14062 9.31563L1.64062 12.8156L1.5 13.0094V13V3C1.5 2.725 1.725 2.5 2 2.5H14ZM2 1C0.896875 1 0 1.89688 0 3V13C0 14.1031 0.896875 15 2 15H14C15.1031 15 16 14.1031 16 13V3C16 1.89688 15.1031 1 14 1H2ZM4.5 7C5.32787 7 6 6.32787 6 5.5C6 4.67213 5.32787 4 4.5 4C3.67213 4 3 4.67213 3 5.5C3 6.32787 3.67213 7 4.5 7Z" fill="white"/>
</svg>