<svg xmlns="http://www.w3.org/2000/svg" width="16" height="14" viewBox="0 0 16 14" fill="none">
  <path d="M8.3125 6.5625V0.453906C8.3125 0.207812 8.50391 0 8.75 0C12.1324 0 14.875 2.74258 14.875 6.125C14.875 6.37109 14.6672 6.5625 14.4211 6.5625H8.3125ZM0.875 7.4375C0.875 4.1207 3.33867 1.37539 6.53516 0.937891C6.78672 0.902344 7 1.10469 7 1.35898V7.875L11.2793 12.1543C11.4625 12.3375 11.4488 12.6383 11.2383 12.7859C10.1664 13.5516 8.85391 14 7.4375 14C3.81445 14 0.875 11.0633 0.875 7.4375ZM15.2688 7.875C15.523 7.875 15.7227 8.08828 15.6898 8.33984C15.4793 9.86836 14.7438 11.2273 13.6691 12.2309C13.5051 12.384 13.248 12.373 13.0895 12.2117L8.75 7.875H15.2688Z" fill="#737373"/>
</svg>