<svg xmlns="http://www.w3.org/2000/svg" width="13" height="14" viewBox="0 0 13 14" fill="none">
  <path d="M9.625 6.125C11.0742 6.125 12.25 4.94922 12.25 3.5C12.25 2.05078 11.0742 0.875 9.625 0.875C9.625 0.875 7 2.05078 7 3.5C7 3.60938 7.00547 3.71875 7.01914 3.82539L4.44609 5.11055C3.97578 4.65391 3.3332 4.375 2.625 4.375C1.17578 4.375 0 5.55078 0 7C0 8.44922 1.17578 9.625 2.625 9.625C3.3332 9.625 3.97578 9.34609 4.44609 8.88945L7.01914 10.1746C7.00547 10.2812 7 10.3879 7 10.5C7 11.9492 8.17578 13.125 9.625 13.125C11.0742 13.125 12.25 11.9492 12.25 10.5C12.25 10.5 11.0742 7.875 9.625 7.875C8.9168 7.875 8.27422 8.15391 7.80391 8.61055L5.23086 7.32539C5.24453 7.21875 5.25 7.11211 5.25 7C5.25 6.88789 5.24453 6.78125 5.23086 6.67461L7.80391 5.38945C8.27422 5.84609 8.9168 6.125 9.625 6.125Z" fill="#171717"/>
</svg>