<svg xmlns="http://www.w3.org/2000/svg" width="13" height="14" viewBox="0 0 13 14" fill="none">
  <path d="M0 2.18868V6.27657C0 6.74142 0.183203 7.18712 0.511328 7.51524L5.32383 12.3277C6.00742 13.0113 7.11484 13.0113 7.79844 12.3277L11.4488 8.67735C12.1324 7.99376 12.1324 6.88634 11.4488 6.20274L6.63633 1.39024C6.3082 1.06212 5.8625 0.878916 5.39766 0.878916H1.3125C0.587891 0.876181 0 1.46407 0 2.18868ZM3.0625 3.06368C3.54543 3.06368 3.9375 3.45576 3.9375 3.93868C3.9375 4.42161 3.54543 4.81368 3.0625 4.81368C2.57957 4.81368 2.1875 4.42161 2.1875 3.93868C2.1875 3.45576 2.57957 3.06368 3.0625 3.06368Z" fill="#737373"/>
</svg>