<svg xmlns="http://www.w3.org/2000/svg" width="9" height="12" viewBox="0 0 9 12" fill="none">
  <path d="M1.125 0C0.503906 0 0 0.503906 0 1.125V10.875C0 11.4961 0.503906 12 1.125 12H3.375V10.125C3.375 9.50391 3.87891 9 4.5 9C5.12109 9 5.625 9.50391 5.625 10.125V12H7.875C8.49609 12 9 11.4961 9 10.875V1.125C9 0.503906 8.49609 0 7.875 0H1.125ZM1.5 5.625C1.5 5.41875 1.66875 5.25 1.875 5.25H2.625C2.83125 5.25 3 5.41875 3 5.625V6.375C3 6.58125 2.83125 6.75 2.625 6.75H1.875C1.66875 6.75 1.5 6.58125 1.5 6.375V5.625ZM4.125 5.25H4.875C5.08125 5.25 5.25 5.41875 5.25 5.625V6.375C5.25 6.58125 5.08125 6.75 4.875 6.75H4.125C3.91875 6.75 3.75 6.58125 3.75 6.375V5.625C3.75 5.41875 3.91875 5.25 4.125 5.25ZM6 5.625C6 5.41875 6.16875 5.25 6.375 5.25H7.125C7.33125 5.25 7.5 5.41875 7.5 5.625V6.375C7.5 6.58125 7.33125 6.75 7.125 6.75H6.375C6.16875 6.75 6 6.58125 6 6.375V5.625ZM1.875 2.25H2.625C2.83125 2.25 3 2.41875 3 2.625V3.375C3 3.58125 2.83125 3.75 2.625 3.75H1.875C1.66875 3.75 1.5 3.58125 1.5 3.375V2.625C1.5 2.41875 1.66875 2.25 1.875 2.25ZM3.75 2.625C3.75 2.41875 3.91875 2.25 4.125 2.25H4.875C5.08125 2.25 5.25 2.41875 5.25 2.625V3.375C5.25 3.58125 5.08125 3.75 4.875 3.75H4.125C3.91875 3.75 3.75 3.58125 3.75 3.375V2.625ZM6.375 2.25H7.125C7.33125 2.25 7.5 2.41875 7.5 2.625V3.375C7.5 3.58125 7.33125 3.75 7.125 3.75H6.375C6.16875 3.75 6 3.58125 6 3.375V2.625C6 2.41875 6.16875 2.25 6.375 2.25Z" fill="#2563EB"/>
</svg>