<svg width="16" height="16" viewBox="0 0 16 16" fill="none" xmlns="http://www.w3.org/2000/svg">
<path fill-rule="evenodd" clip-rule="evenodd" d="M5.15591 9.46033C5.26422 9.6751 5.48084 9.79879 5.70607 9.79879C5.79899 9.79879 5.89376 9.77787 5.98238 9.73295L7.63223 8.90218C7.83961 8.79756 7.97069 8.58525 7.97069 8.35264V5.88492C7.97069 5.54522 7.695 5.26953 7.3553 5.26953C7.01561 5.26953 6.73992 5.54522 6.73992 5.88492V7.97356L5.42853 8.63387C5.12514 8.7871 5.00268 9.15695 5.15591 9.46033Z" fill="#ED8B18"/>
<path fill-rule="evenodd" clip-rule="evenodd" d="M2.5221 5.68079C2.62179 5.7411 2.73133 5.7694 2.83964 5.7694C3.04826 5.7694 3.25133 5.66356 3.36703 5.47217C3.52149 5.2174 3.70056 4.97494 3.89933 4.75217C4.12579 4.49863 4.10426 4.10971 3.85072 3.88325C3.59718 3.65617 3.20826 3.67894 2.98179 3.93186C2.73195 4.21125 2.50733 4.51525 2.31349 4.83586C2.13749 5.12694 2.23103 5.50479 2.5221 5.68079Z" fill="#ED8B18"/>
<path fill-rule="evenodd" clip-rule="evenodd" d="M3.3161 10.3695C3.14133 10.063 3.00471 9.7578 2.91117 9.46118C2.80902 9.13688 2.46133 8.9578 2.13886 9.05995C1.81517 9.16272 1.63548 9.50857 1.73763 9.83226C1.85763 10.212 2.02933 10.5978 2.24717 10.9793C2.3604 11.1781 2.5684 11.2901 2.78194 11.2901C2.88533 11.2901 2.99056 11.2636 3.08656 11.2089C3.38194 11.0403 3.4841 10.6643 3.3161 10.3695Z" fill="#ED8B18"/>
<path fill-rule="evenodd" clip-rule="evenodd" d="M7.47171 12.7721C7.09817 12.7721 6.7394 12.7321 6.40586 12.6533C6.35909 12.6423 6.31171 12.6367 6.26432 12.6367H6.25879C5.9191 12.6367 5.64648 12.9124 5.64648 13.2521C5.64648 13.5487 5.85756 13.7961 6.13756 13.8546C6.55909 13.953 7.00832 14.0029 7.47171 14.0029C7.8114 14.0029 8.08709 13.7272 8.08709 13.3875C8.08709 13.0478 7.8114 12.7721 7.47171 12.7721Z" fill="#ED8B18"/>
<path fill-rule="evenodd" clip-rule="evenodd" d="M4.77234 3.88001C4.87881 3.88001 4.9865 3.85293 5.08434 3.79447C5.36434 3.62955 5.66896 3.49293 5.98896 3.38832C6.31204 3.28247 6.48865 2.93539 6.38342 2.61232C6.27819 2.28986 5.93235 2.11263 5.60742 2.21786C5.20188 2.35016 4.81604 2.5237 4.45911 2.73478C4.16619 2.90709 4.06896 3.28493 4.24188 3.57724C4.35634 3.7717 4.56188 3.88001 4.77234 3.88001Z" fill="#ED8B18"/>
<path fill-rule="evenodd" clip-rule="evenodd" d="M13.4485 7.01972C13.3981 6.70218 13.3248 6.39818 13.2252 6.09111C13.0959 5.6868 12.923 5.29849 12.715 4.93972C12.3981 4.38588 11.9932 3.88864 11.5181 3.46772C11.2368 3.21111 10.9273 2.98218 10.6055 2.79264C10.0541 2.45787 9.45838 2.21603 8.83931 2.07387C8.411 1.97295 7.95746 1.92188 7.49038 1.92188C7.15069 1.92188 6.875 2.19757 6.875 2.53726C6.875 2.87757 7.15069 3.15264 7.49038 3.15264C7.86269 3.15264 8.22146 3.19264 8.56054 3.27264C9.05469 3.38649 9.52792 3.57911 9.97408 3.84926C10.2295 4.00003 10.4701 4.17726 10.6953 4.3828C11.0768 4.72064 11.3968 5.11326 11.6485 5.55449C11.8147 5.84003 11.9507 6.14711 12.0541 6.46895C12.1347 6.71634 12.1925 6.95941 12.2332 7.21295C12.2725 7.46033 12.2922 7.71448 12.291 7.97479C12.2935 8.33356 12.2535 8.67818 12.1692 9.0271C12.1648 9.04495 12.1618 9.06279 12.1587 9.08064C12.051 9.55018 11.8621 10.0068 11.5876 10.4554C11.4461 10.7046 11.2713 10.9422 11.0639 11.168C10.7895 11.4751 10.4725 11.7311 10.1347 11.9557C10.2036 11.64 10.0221 11.3206 9.707 11.2314C9.38085 11.1397 9.03992 11.3293 8.94761 11.6566L8.58392 12.9428C8.58208 12.9489 8.58392 12.9557 8.58208 12.9625C8.55131 13.0751 8.54085 13.1939 8.57962 13.3133C8.65838 13.5533 8.87069 13.7059 9.107 13.7286L10.3045 14.0542C10.3587 14.0689 10.4128 14.0763 10.4664 14.0763C10.7372 14.0763 10.9852 13.896 11.0596 13.6222C11.1285 13.3693 11.027 13.1133 10.8282 12.9674C11.2479 12.6868 11.6412 12.3693 11.9759 11.9939C12.2405 11.7071 12.4695 11.3939 12.6467 11.0813C12.9901 10.5225 13.2325 9.92679 13.3692 9.31018C13.3716 9.29787 13.3735 9.28556 13.3759 9.27264C13.4762 8.84002 13.5242 8.41295 13.5218 7.97418C13.5236 7.65295 13.4984 7.3311 13.4485 7.01972Z" fill="#ED8B18"/>
<path fill-rule="evenodd" clip-rule="evenodd" d="M4.99281 12.0708C4.72511 11.9102 4.48511 11.7342 4.28019 11.5472C4.02911 11.3182 3.63958 11.3367 3.41065 11.5872C3.18173 11.8382 3.19958 12.2272 3.45065 12.4561C3.7165 12.6985 4.02235 12.9244 4.36019 13.1268C4.45927 13.1859 4.56819 13.2142 4.67588 13.2142C4.88511 13.2142 5.08881 13.1078 5.2045 12.9152C5.37865 12.6235 5.2845 12.2456 4.99281 12.0708Z" fill="#ED8B18"/>
<path fill-rule="evenodd" clip-rule="evenodd" d="M2.05995 8.56821C2.39964 8.56636 2.6741 8.28944 2.67226 7.94975C2.67041 7.58359 2.71103 7.22483 2.79287 6.8839C2.87226 6.55408 2.66857 6.22178 2.3381 6.14239C2.01072 6.06239 1.67534 6.26608 1.59657 6.59654C1.49134 7.03344 1.43903 7.49129 1.44149 7.9559C1.44334 8.29498 1.71841 8.56821 2.05687 8.56821H2.05995Z" fill="#ED8B18"/>
</svg>
