<svg xmlns="http://www.w3.org/2000/svg" width="16" height="16" viewBox="0 0 16 16" fill="none">
  <path fill-rule="evenodd" clip-rule="evenodd" d="M5.43333 13.5008H4.59533C3.44 13.5008 2.5 12.5621 2.5 11.4075V10.3541C2.5 10.0781 2.276 9.85413 2 9.85413C1.724 9.85413 1.5 10.0781 1.5 10.3541V11.4075C1.5 13.1135 2.88867 14.5008 4.59533 14.5008H5.43333C5.70933 14.5008 5.93333 14.2768 5.93333 14.0008C5.93333 13.7248 5.70933 13.5008 5.43333 13.5008Z" fill="#1A5CEB"/>
  <path fill-rule="evenodd" clip-rule="evenodd" d="M7.99976 8.67756C7.62643 8.67756 7.32643 8.37756 7.32643 8.00422C7.32643 7.63756 7.62643 7.33089 7.99976 7.33089C8.37309 7.33089 8.67309 7.63756 8.67309 8.00422C8.67309 8.37756 8.37309 8.67756 7.99976 8.67756ZM11.8398 8.13089C11.8798 8.05089 11.8798 7.95089 11.8398 7.87089C11.0331 5.99756 9.59976 4.87756 7.99976 4.87756C6.39977 4.87756 4.96643 5.99756 4.15977 7.87089C4.12643 7.95089 4.12643 8.05089 4.15977 8.13089C4.95977 10.0042 6.39977 11.1176 7.99976 11.1176C9.59976 11.1176 11.0398 10.0042 11.8398 8.13089Z" fill="#1A5CEB"/>
  <path fill-rule="evenodd" clip-rule="evenodd" d="M13.9996 9.85413C13.7236 9.85413 13.4996 10.0782 13.4996 10.3541V11.4075C13.4996 12.5622 12.5596 13.5008 11.4049 13.5008H10.5449C10.2689 13.5008 10.0449 13.7248 10.0449 14.0008C10.0449 14.2768 10.2689 14.5008 10.5449 14.5008H11.4049C13.1109 14.5008 14.4996 13.1135 14.4996 11.4075V10.3541C14.4996 10.0782 14.2756 9.85413 13.9996 9.85413Z" fill="#1A5CEB"/>
  <path fill-rule="evenodd" clip-rule="evenodd" d="M11.4044 1.5H10.5664C10.2904 1.5 10.0664 1.724 10.0664 2C10.0664 2.276 10.2904 2.5 10.5664 2.5H11.4044C12.5597 2.5 13.4997 3.43867 13.4997 4.59333V5.64667C13.4997 5.92267 13.7237 6.14667 13.9997 6.14667C14.2757 6.14667 14.4997 5.92267 14.4997 5.64667V4.59333C14.4997 2.88733 13.1111 1.5 11.4044 1.5Z" fill="#1A5CEB"/>
  <path fill-rule="evenodd" clip-rule="evenodd" d="M2 6.14667C2.276 6.14667 2.5 5.92267 2.5 5.64667V4.59333C2.5 3.43867 3.44 2.5 4.59533 2.5H5.45467C5.73067 2.5 5.95467 2.276 5.95467 2C5.95467 1.724 5.73067 1.5 5.45467 1.5H4.59533C2.88867 1.5 1.5 2.88733 1.5 4.59333V5.64667C1.5 5.92267 1.724 6.14667 2 6.14667Z" fill="#1A5CEB"/>
</svg>