<svg width="12" height="12" viewBox="0 0 12 12" fill="none" xmlns="http://www.w3.org/2000/svg">
<g clip-path="url(#clip0_16396_53581)">
<path d="M1.0596 11.2067C1.0644 11.1995 1.0908 11.1671 1.116 11.1359C1.2996 10.9175 1.4376 10.5623 1.512 10.1148C1.5612 9.82075 1.5636 9.72835 1.5636 8.60755V7.56355H1.062C0.6036 7.56355 0.5508 7.56595 0.4608 7.58395C0.3192 7.61395 0.1728 7.69435 0.0744 7.79755C-0.0036 7.88035 -0.0012 7.88515 0.0036 7.63435C0.0096 7.42675 0.012 7.40395 0.042 7.29115C0.09 7.11235 0.156 6.97915 0.2556 6.86035C0.3912 6.69715 0.5292 6.60595 0.726 6.54475C0.768 6.53275 0.8568 6.52795 1.1712 6.52555L1.5636 6.51955V5.99995V5.47915L1.0104 5.48275L0.4548 5.48635L0.3588 5.52475C0.2448 5.57035 0.1932 5.60395 0.0816 5.70355L0 5.77675L0.0048 5.54755C0.0108 5.33515 0.012 5.31115 0.042 5.20315C0.1464 4.82155 0.3984 4.54915 0.7308 4.46035C0.8136 4.43755 0.846 4.43635 1.1928 4.43155L1.5636 4.42675V3.35155C1.5636 2.70235 1.56 2.22355 1.554 2.14195C1.548 2.06755 1.5288 1.92835 1.512 1.83115C1.434 1.38355 1.2936 1.04635 1.092 0.82795L1.0512 0.78355H3.0804C4.2936 0.78355 5.2008 0.78835 5.334 0.79435C5.568 0.80635 6.09 0.85795 6.2076 0.88315C6.2448 0.89035 6.3144 0.90115 6.36 0.90835C6.4572 0.92275 6.618 0.95635 6.8496 1.01515C7.176 1.09675 7.4736 1.19875 7.7652 1.32835C7.8564 1.36915 8.118 1.50235 8.1876 1.54435C8.2248 1.56595 8.2692 1.59235 8.286 1.60075C8.3328 1.62595 8.4108 1.67635 8.5248 1.75795C8.5812 1.79875 8.6376 1.83835 8.6496 1.84675C8.7 1.88035 8.874 2.02555 8.9532 2.09875C9.2544 2.37595 9.5064 2.68435 9.702 3.01435C9.7296 3.06235 9.7656 3.12235 9.7812 3.14755C9.8208 3.21475 9.984 3.55075 9.9996 3.60115C10.0068 3.62395 10.0164 3.64795 10.0212 3.65275C10.0524 3.69355 10.2324 4.25995 10.254 4.38355C10.2612 4.42315 10.2648 4.42915 10.2948 4.43515C10.314 4.43875 10.5936 4.43875 10.9164 4.43635C11.562 4.43155 11.562 4.43155 11.7048 4.36555C11.7852 4.32835 11.8092 4.31155 11.898 4.23115C12.0144 4.12675 12.0036 4.10995 11.9964 4.37155C11.9916 4.52515 11.9856 4.61995 11.9748 4.65835C11.934 4.80595 11.9244 4.83715 11.8884 4.91155C11.7708 5.16835 11.574 5.35195 11.322 5.43955L11.2236 5.47555L10.8228 5.48035L10.4232 5.48635L10.428 5.62675C10.4328 5.81155 10.4328 6.17755 10.4268 6.36595L10.422 6.51715L10.9572 6.51955C11.4156 6.52195 11.5008 6.51955 11.5512 6.50635C11.7024 6.46435 11.8044 6.40675 11.9292 6.29275L11.9988 6.22795V6.40555C11.9988 6.61675 11.988 6.71035 11.9448 6.84955C11.8596 7.13155 11.6916 7.34155 11.4516 7.47115C11.2956 7.55515 11.286 7.55755 10.7496 7.56115C10.4352 7.56355 10.2708 7.56835 10.2624 7.57555C10.2552 7.58275 10.2492 7.59475 10.2492 7.60435C10.2492 7.61395 10.2312 7.68955 10.2072 7.77115C9.9264 8.76355 9.402 9.55195 8.6352 10.1364C8.5308 10.2168 8.2752 10.386 8.172 10.4435C8.1324 10.4664 8.0892 10.4904 8.0784 10.4976C8.028 10.5252 7.7388 10.6668 7.6668 10.6967C7.6236 10.716 7.5672 10.74 7.542 10.7496C7.1184 10.9332 6.408 11.1071 5.8656 11.1611C5.7768 11.1695 5.6592 11.1828 5.6052 11.1876C5.3604 11.2152 5.0208 11.2188 3.0924 11.2188C1.4628 11.2188 1.0536 11.2151 1.0596 11.2067ZM5.028 10.6872C5.4336 10.6632 5.6832 10.632 5.9748 10.5612C6.8652 10.35 7.4916 9.90355 7.9464 9.15715C7.9884 9.08755 8.166 8.72515 8.1924 8.65195C8.3184 8.31235 8.3796 8.11075 8.4336 7.84435C8.4468 7.77955 8.4648 7.69315 8.4732 7.65235C8.4816 7.61275 8.4852 7.57555 8.4816 7.57195C8.4756 7.56715 7.2708 7.56475 5.802 7.56595L3.132 7.56835L3.1284 9.11035C3.1272 9.95755 3.1284 10.6619 3.132 10.6751L3.1368 10.698H3.99C4.458 10.698 4.926 10.6931 5.028 10.6872ZM8.598 6.48355C8.6064 6.43195 8.6064 5.55595 8.598 5.51275L8.5908 5.48035L5.8608 5.48275L3.132 5.48635L3.1296 5.99515C3.1272 6.27475 3.1296 6.50755 3.132 6.51235C3.1356 6.51835 4.2984 6.52195 5.8644 6.52195H8.5908L8.598 6.48355ZM8.4756 4.42315C8.4816 4.40515 8.4528 4.25755 8.394 4.01755C8.3268 3.74755 8.2356 3.47515 8.1432 3.27355C8.0976 3.17035 7.9836 2.94715 7.956 2.90515C7.9428 2.88595 7.9044 2.82475 7.8708 2.77075C7.6548 2.43235 7.3464 2.12395 6.9948 1.89595C6.8664 1.81435 6.6024 1.67515 6.5316 1.65355C6.5172 1.64995 6.5016 1.64275 6.4956 1.63795C6.4872 1.63075 6.378 1.58995 6.2508 1.54435C6.0168 1.46155 5.5716 1.37155 5.214 1.33435C4.9824 1.31155 4.9452 1.31035 4.0536 1.31035H3.1308V2.86675V4.42435L5.7816 4.42915C7.2396 4.43155 8.4408 4.43515 8.4504 4.43755C8.4612 4.43875 8.472 4.43155 8.4756 4.42315Z" fill="#1F1F1F"/>
</g>
<defs>
<clipPath id="clip0_16396_53581">
<rect width="12" height="12" fill="white" transform="matrix(1 0 0 -1 0 12)"/>
</clipPath>
</defs>
</svg>
