<svg xmlns="http://www.w3.org/2000/svg" width="12" height="12" viewBox="0 0 12 12" fill="none">
    <path opacity="0.5" d="M2.125 6C2.125 4.97229 2.53326 3.98666 3.25996 3.25996C3.98666 2.53326 4.97229 2.125 6 2.125C7.02771 2.125 8.01334 2.53326 8.74004 3.25996C9.46674 3.98666 9.875 4.97229 9.875 6C9.875 7.02771 9.46674 8.01334 8.74004 8.74004C8.01334 9.46674 7.02771 9.875 6 9.875C4.97229 9.875 3.98666 9.46674 3.25996 8.74004C2.53326 8.01334 2.125 7.02771 2.125 6Z" fill="#00AE8E"/>
    <path d="M4.125 6C4.125 6.49728 4.32254 6.97419 4.67417 7.32583C5.02581 7.67746 5.50272 7.875 6 7.875C6.49728 7.875 6.97419 7.67746 7.32583 7.32583C7.67746 6.97419 7.875 6.49728 7.875 6C7.875 5.50272 7.67746 5.02581 7.32583 4.67417C6.97419 4.32254 6.49728 4.125 6 4.125C5.50272 4.125 5.02581 4.32254 4.67417 4.67417C4.32254 5.02581 4.125 5.50272 4.125 6Z" fill="#00AE8E"/>
</svg>
