<svg xmlns="http://www.w3.org/2000/svg" width="16" height="16" viewBox="0 0 16 16" fill="none">
    <path d="M8.06583 8.92464C9.79356 8.92464 11.1942 7.52403 11.1942 5.7963C11.1942 4.06857 9.79356 2.66797 8.06583 2.66797C6.3381 2.66797 4.9375 4.06857 4.9375 5.7963C4.9375 7.52403 6.3381 8.92464 8.06583 8.92464Z" stroke="#E0E0E0" stroke-linecap="round" stroke-linejoin="round"/>
    <path d="M9.52944 9.11328H6.67884C5.06209 9.11328 3.75145 10.4239 3.75145 12.0407C3.75145 12.0987 3.75089 12.157 3.75011 12.2155C3.74142 12.8637 4.26811 13.3345 4.91646 13.3345H11.2918C11.9402 13.3345 12.4668 12.8637 12.4582 12.2155C12.4574 12.157 12.4568 12.0987 12.4568 12.0407C12.4568 10.4239 11.1462 9.11328 9.52944 9.11328Z" stroke="#E0E0E0" stroke-linecap="round" stroke-linejoin="round"/>
</svg>
