<svg width="37" height="17" viewBox="0 0 37 17" fill="none" xmlns="http://www.w3.org/2000/svg">
<path d="M3.088 16.426C2.18267 15.558 1.478 14.438 0.974 13.066C0.47 11.694 0.218 10.2147 0.218 8.628C0.218 7.02267 0.479333 5.52467 1.002 4.134C1.52467 2.734 2.26667 1.59533 3.228 0.717999H5.58V0.942C4.6 1.91267 3.844 3.07933 3.312 4.442C2.78 5.79533 2.514 7.19067 2.514 8.628C2.514 10.056 2.77067 11.4327 3.284 12.758C3.79733 14.0833 4.52067 15.2313 5.454 16.202V16.426H3.088ZM11.3559 6.038C11.2812 5.69267 11.1505 5.436 10.9639 5.268C10.7772 5.09067 10.5112 5.002 10.1659 5.002C9.63388 5.002 9.25121 5.23533 9.01788 5.702C8.78454 6.15933 8.66321 6.88733 8.65388 7.886C8.85921 7.55933 9.15321 7.30267 9.53588 7.116C9.92788 6.92933 10.3572 6.836 10.8239 6.836C11.7385 6.836 12.4712 7.12533 13.0219 7.704C13.5819 8.28267 13.8619 9.09 13.8619 10.126C13.8619 10.8073 13.7219 11.4047 13.4419 11.918C13.1712 12.4313 12.7699 12.8327 12.2379 13.122C11.7152 13.4113 11.0945 13.556 10.3759 13.556C8.93854 13.556 7.93988 13.108 7.37988 12.212C6.81988 11.3067 6.53988 10.0093 6.53988 8.32C6.53988 6.54667 6.83388 5.23067 7.42188 4.372C8.01921 3.504 8.97121 3.07 10.2779 3.07C10.9779 3.07 11.5659 3.21 12.0419 3.49C12.5272 3.76067 12.8912 4.12 13.1339 4.568C13.3859 5.016 13.5352 5.506 13.5819 6.038H11.3559ZM10.2499 8.726C9.84854 8.726 9.51254 8.84733 9.24188 9.09C8.98054 9.32333 8.84988 9.65933 8.84988 10.098C8.84988 10.546 8.97121 10.896 9.21388 11.148C9.46588 11.4 9.82054 11.526 10.2779 11.526C10.6885 11.526 11.0105 11.4047 11.2439 11.162C11.4865 10.91 11.6079 10.5693 11.6079 10.14C11.6079 9.70133 11.4912 9.356 11.2579 9.104C11.0245 8.852 10.6885 8.726 10.2499 8.726ZM15.2159 8.25C15.2159 6.64467 15.5239 5.38 16.1399 4.456C16.7653 3.532 17.7686 3.07 19.1499 3.07C20.5313 3.07 21.5299 3.532 22.1459 4.456C22.7713 5.38 23.0839 6.64467 23.0839 8.25C23.0839 9.874 22.7713 11.148 22.1459 12.072C21.5299 12.996 20.5313 13.458 19.1499 13.458C17.7686 13.458 16.7653 12.996 16.1399 12.072C15.5239 11.148 15.2159 9.874 15.2159 8.25ZM20.7319 8.25C20.7319 7.30733 20.6293 6.584 20.4239 6.08C20.2186 5.56667 19.7939 5.31 19.1499 5.31C18.5059 5.31 18.0813 5.56667 17.8759 6.08C17.6706 6.584 17.5679 7.30733 17.5679 8.25C17.5679 8.88467 17.6053 9.412 17.6799 9.832C17.7546 10.2427 17.9039 10.5787 18.1279 10.84C18.3613 11.092 18.7019 11.218 19.1499 11.218C19.5979 11.218 19.9339 11.092 20.1579 10.84C20.3913 10.5787 20.5453 10.2427 20.6199 9.832C20.6946 9.412 20.7319 8.88467 20.7319 8.25ZM27.7648 13.612C27.0834 13.612 26.4768 13.4953 25.9448 13.262C25.4128 13.0287 24.9928 12.7113 24.6848 12.31C24.3768 11.8993 24.2041 11.442 24.1668 10.938H26.5328C26.5608 11.2087 26.6868 11.428 26.9108 11.596C27.1348 11.764 27.4101 11.848 27.7368 11.848C28.0354 11.848 28.2641 11.792 28.4228 11.68C28.5908 11.5587 28.6748 11.4047 28.6748 11.218C28.6748 10.994 28.5581 10.8307 28.3248 10.728C28.0914 10.616 27.7134 10.4947 27.1908 10.364C26.6308 10.2333 26.1641 10.098 25.7908 9.958C25.4174 9.80867 25.0954 9.58 24.8248 9.272C24.5541 8.95467 24.4188 8.53 24.4188 7.998C24.4188 7.55 24.5401 7.144 24.7828 6.78C25.0348 6.40667 25.3988 6.11267 25.8748 5.898C26.3601 5.68333 26.9341 5.576 27.5968 5.576C28.5768 5.576 29.3468 5.81867 29.9068 6.304C30.4761 6.78933 30.8028 7.43333 30.8868 8.236H28.6748C28.6374 7.96533 28.5161 7.75067 28.3108 7.592C28.1148 7.43333 27.8534 7.354 27.5268 7.354C27.2468 7.354 27.0321 7.41 26.8828 7.522C26.7334 7.62467 26.6588 7.76933 26.6588 7.956C26.6588 8.18 26.7754 8.348 27.0088 8.46C27.2514 8.572 27.6248 8.684 28.1288 8.796C28.7074 8.94533 29.1788 9.09467 29.5428 9.244C29.9068 9.384 30.2241 9.61733 30.4948 9.944C30.7748 10.2613 30.9194 10.6907 30.9288 11.232C30.9288 11.6893 30.7981 12.1 30.5368 12.464C30.2848 12.8187 29.9161 13.0987 29.4308 13.304C28.9548 13.5093 28.3994 13.612 27.7648 13.612ZM31.7494 16.426V16.202C32.6827 15.2313 33.4061 14.0833 33.9194 12.758C34.4327 11.4327 34.6894 10.056 34.6894 8.628C34.6894 7.19067 34.4234 5.79533 33.8914 4.442C33.3594 3.07933 32.6034 1.91267 31.6234 0.942V0.717999H33.9754C34.9367 1.59533 35.6787 2.734 36.2014 4.134C36.7241 5.52467 36.9854 7.02267 36.9854 8.628C36.9854 10.2147 36.7334 11.694 36.2294 13.066C35.7254 14.438 35.0207 15.558 34.1154 16.426H31.7494Z" fill="#1F1F1F"/>
</svg>
