<svg width="74" height="74" viewBox="0 0 74 74" fill="none" xmlns="http://www.w3.org/2000/svg">
    <path d="M0 5.22352C0 2.33865 2.33865 0 5.22353 0H68.7765C71.6614 0 74 2.33865 74 5.22353V68.7765C74 71.6614 71.6613 74 68.7765 74H5.22352C2.33865 74 0 71.6613 0 68.7765V5.22352Z" fill="#FAFAFA"/>
    <path d="M39.1398 34.8398H42.501C43.0306 34.8398 43.46 35.2692 43.46 35.7981V42.5212C43.46 43.0508 43.0306 43.4795 42.501 43.4795H31.4583C30.9287 43.4795 30.5 43.0508 30.5 42.5212V33.5634C30.5 33.0345 30.9287 32.605 31.4583 32.605H34.8195V31.4779C34.8195 30.949 35.249 30.5195 35.7786 30.5195H38.1815C38.7103 30.5195 39.1398 30.949 39.1398 31.4779V34.8398ZM39.1398 34.8398V43.4795" stroke="#B3B3B3" stroke-width="1.44" stroke-linecap="round" stroke-linejoin="round"/>
    <path d="M33.375 40.5625L33.3765 40.57" stroke="#B3B3B3" stroke-width="1.44" stroke-linecap="round" stroke-linejoin="round"/>
    <path d="M33.375 35.3398L33.3765 35.3473" stroke="#B3B3B3" stroke-width="1.44" stroke-linecap="round" stroke-linejoin="round"/>
    <path d="M33.375 37.9824L33.3765 37.9899" stroke="#B3B3B3" stroke-width="1.44" stroke-linecap="round" stroke-linejoin="round"/>
    <path d="M36.2578 40.5625L36.2593 40.57" stroke="#B3B3B3" stroke-width="1.44" stroke-linecap="round" stroke-linejoin="round"/>
    <path d="M36.2578 35.3398L36.2593 35.3473" stroke="#B3B3B3" stroke-width="1.44" stroke-linecap="round" stroke-linejoin="round"/>
    <path d="M36.2578 37.9824L36.2593 37.9899" stroke="#B3B3B3" stroke-width="1.44" stroke-linecap="round" stroke-linejoin="round"/>
    <path d="M41.2969 40.5625L41.2984 40.57" stroke="#B3B3B3" stroke-width="1.44" stroke-linecap="round" stroke-linejoin="round"/>
    <path d="M41.2969 37.9824L41.2984 37.9899" stroke="#B3B3B3" stroke-width="1.44" stroke-linecap="round" stroke-linejoin="round"/>
</svg>
