<svg xmlns="http://www.w3.org/2000/svg" width="20" height="20" viewBox="0 0 20 20" fill="none">
  <path fill-rule="evenodd" clip-rule="evenodd" d="M7.8766 13.2051C4.0326 13.2051 0.749603 13.7861 0.749603 16.1141C0.749603 18.4421 4.0126 19.0441 7.8766 19.0441C11.7216 19.0441 15.0036 18.4621 15.0036 16.1351C15.0036 13.8081 11.7416 13.2051 7.8766 13.2051Z" stroke="black" stroke-width="1.125" stroke-linecap="round" stroke-linejoin="round"/>
  <path fill-rule="evenodd" clip-rule="evenodd" d="M7.87663 9.88405C10.3996 9.88405 12.4446 7.83905 12.4446 5.31605C12.4446 2.79305 10.3996 0.748047 7.87663 0.748047C5.35463 0.748047 3.3096 2.79305 3.3096 5.31605C3.30063 7.83005 5.33063 9.87505 7.84563 9.88405H7.87663Z" stroke="black" stroke-width="1.125" stroke-linecap="round" stroke-linejoin="round"/>
  <path d="M17.2037 6.66797V10.678" stroke="black" stroke-width="1.125" stroke-linecap="round" stroke-linejoin="round"/>
  <path d="M19.2496 8.67188H15.1596" stroke="black" stroke-width="1.125" stroke-linecap="round" stroke-linejoin="round"/>
</svg>