<svg width="16" height="16" viewBox="0 0 16 16" fill="none" xmlns="http://www.w3.org/2000/svg">
<path fill-rule="evenodd" clip-rule="evenodd" d="M3.7968 4.42456H5.17409C6.02761 4.42456 6.71943 5.11637 6.71943 5.96989V12.4542C6.71943 13.3077 6.02761 13.9995 5.17409 13.9995H3.7968C2.94328 13.9995 2.25146 13.3077 2.25146 12.4542V5.96989C2.25146 5.11637 2.94328 4.42456 3.7968 4.42456Z" stroke="black" stroke-linecap="round" stroke-linejoin="round"/>
<path fill-rule="evenodd" clip-rule="evenodd" d="M10.8251 4.42456H12.2025C13.0559 4.42456 13.7478 5.11637 13.7478 5.96989V9.26235C13.7478 10.1158 13.0559 10.8077 12.2025 10.8077H10.8251C9.97159 10.8077 9.27979 10.1158 9.27979 9.26235V5.96989C9.27979 5.11637 9.97159 4.42456 10.8251 4.42456Z" stroke="black" stroke-linecap="round" stroke-linejoin="round"/>
<path d="M2.06006 2H13.939" stroke="black" stroke-linecap="round" stroke-linejoin="round"/>
</svg>
