<svg width="24" height="25" viewBox="0 0 24 25" fill="none" xmlns="http://www.w3.org/2000/svg">
<path fill-rule="evenodd" clip-rule="evenodd" d="M9.848 22.206C7.838 22.206 5.828 21.44 4.299 19.911C2.816 18.43 2 16.458 2 14.361C2 12.265 2.816 10.294 4.299 8.80997L8.692 4.41897C9.74 3.36997 11.134 2.79297 12.616 2.79297C14.098 2.79297 15.492 3.36997 16.539 4.41897C17.587 5.46697 18.164 6.85997 18.164 8.34297C18.164 9.82497 17.587 11.219 16.539 12.267L12.254 16.552C11.009 17.798 8.838 17.798 7.592 16.552C6.97 15.93 6.627 15.102 6.627 14.221C6.627 13.341 6.97 12.513 7.592 11.89L11.636 7.84597C12.026 7.45497 12.659 7.45497 13.05 7.84597C13.44 8.23597 13.44 8.86897 13.05 9.25997L9.007 13.304C8.762 13.549 8.627 13.875 8.627 14.221C8.627 14.567 8.762 14.893 9.007 15.138C9.497 15.628 10.35 15.628 10.839 15.138L15.125 10.852C15.795 10.182 16.164 9.29097 16.164 8.34297C16.164 7.39397 15.795 6.50397 15.125 5.83297C13.784 4.49097 11.447 4.49097 10.106 5.83297L5.713 10.225C4.608 11.33 4 12.799 4 14.361C4 15.924 4.608 17.393 5.713 18.497C7.993 20.777 11.704 20.775 13.984 18.497L20.293 12.187C20.683 11.797 21.316 11.797 21.707 12.187C22.098 12.578 22.098 13.211 21.707 13.602L15.398 19.911C13.868 21.44 11.858 22.206 9.848 22.206Z" fill="black"/>
</svg>
