<svg width="21" height="20" viewBox="0 0 21 20" fill="none" xmlns="http://www.w3.org/2000/svg">
<path d="M9.55705 3.17205L9.55709 3.17213L9.56501 3.16774C10.4921 2.65363 11.6752 2.99209 12.1937 3.91151L12.1936 3.91152L12.1956 3.91496L18.2396 14.4045C18.3483 14.6658 18.3918 14.8675 18.4049 15.0732C18.4315 15.5759 18.2561 16.065 17.9085 16.444C17.5609 16.8214 17.0946 17.0433 16.5865 17.0729H4.414C4.20753 17.059 3.99718 17.0115 3.79723 16.9369C2.81675 16.5386 2.34647 15.4342 2.72712 14.4764L8.81151 3.90739L8.81153 3.90741L8.81412 3.90279C8.98436 3.59842 9.24239 3.33792 9.55705 3.17205ZM10.4994 12.3001C9.86686 12.3001 9.33907 12.8183 9.33907 13.4547C9.33907 14.0894 9.86686 14.6084 10.4994 14.6084C11.1416 14.6084 11.6513 14.0796 11.6513 13.4456C11.6513 12.8109 11.1319 12.3001 10.4994 12.3001ZM10.4994 7.14824C9.87389 7.14824 9.33907 7.65047 9.33907 8.29373V10.6298C9.33907 11.265 9.86655 11.7843 10.4994 11.7843C11.1385 11.7843 11.6513 11.2586 11.6513 10.6298V8.29373C11.6513 7.65675 11.1312 7.14824 10.4994 7.14824Z" fill="#ED8B18" stroke="#ED8B18" stroke-width="0.854167"/>
</svg>
