<svg xmlns="http://www.w3.org/2000/svg" width="16" height="14" viewBox="0 0 16 14" fill="none">
  <path d="M7.15017 0.854842L7.15021 0.854918L7.15734 0.850967C7.99169 0.388267 9.05654 0.692879 9.52312 1.52036L9.52311 1.52037L9.52489 1.52347L14.9645 10.964C15.0623 11.1993 15.1014 11.3808 15.1133 11.5659C15.1371 12.0182 14.9793 12.4584 14.6666 12.7995C14.3537 13.1392 13.934 13.339 13.4767 13.3656H2.52142C2.33561 13.3531 2.1463 13.3104 1.96636 13.2432C1.08391 12.8847 0.660652 11.8908 1.00324 11.0288L6.47918 1.51665L6.47921 1.51666L6.48153 1.51251C6.63475 1.23858 6.86698 1.00413 7.15017 0.854842ZM7.99825 9.07008C7.429 9.07008 6.95399 9.53648 6.95399 10.1092C6.95399 10.6804 7.429 11.1476 7.99825 11.1476C8.57629 11.1476 9.03502 10.6716 9.03502 10.101C9.03502 9.52979 8.5675 9.07008 7.99825 9.07008ZM7.99825 4.43342C7.43533 4.43342 6.95399 4.88542 6.95399 5.46436V7.56679C6.95399 8.13848 7.42872 8.6059 7.99825 8.6059C8.57349 8.6059 9.03502 8.13278 9.03502 7.56679V5.46436C9.03502 4.89107 8.56693 4.43342 7.99825 4.43342Z" fill="#1A5CEB" stroke="#1A5CEB" stroke-width="0.76875"/>
</svg>