<svg xmlns="http://www.w3.org/2000/svg" width="16" height="16" viewBox="0 0 16 16" fill="none">
  <path fill-rule="evenodd" clip-rule="evenodd" d="M11.0409 12.5803H4.95979C3.32519 12.5803 2 11.2558 2 9.62116V9.09963C2 8.62029 2.38854 8.23236 2.86724 8.23236H13.1327C13.6121 8.23236 14 8.62029 14 9.09963V9.62116C14 11.2558 12.6755 12.5803 11.0409 12.5803Z" stroke="#E0E0E0" stroke-width="1.2" stroke-linecap="round" stroke-linejoin="round"/>
  <path d="M12.6301 8.23182V3.53494C12.6301 2.71051 11.8971 2.07938 11.0817 2.20262L9.83241 2.39073C9.17341 2.48997 8.68628 3.05624 8.68628 3.72305V4.3931" stroke="#E0E0E0" stroke-width="1.2" stroke-linecap="round" stroke-linejoin="round"/>
  <path fill-rule="evenodd" clip-rule="evenodd" d="M7.33716 5.61957C7.33716 4.92292 7.97669 4.36119 8.75249 4.39427C9.47829 4.42541 10.0368 4.99363 10.0368 5.65395C10.0368 5.78173 9.92262 5.88552 9.78189 5.88552H7.59202C7.45129 5.88552 7.33716 5.78173 7.33716 5.65395V5.61957Z" stroke="#E0E0E0" stroke-width="1.2" stroke-linecap="round" stroke-linejoin="round"/>
  <path d="M4.95936 12.5801L4.04688 13.8126" stroke="#E0E0E0" stroke-width="1.2" stroke-linecap="round" stroke-linejoin="round"/>
  <path d="M12.0455 13.8125L11.1328 12.5801" stroke="#E0E0E0" stroke-width="1.2" stroke-linecap="round" stroke-linejoin="round"/>
</svg>