<svg width="24" height="24" viewBox="0 0 24 24" fill="none" xmlns="http://www.w3.org/2000/svg">
<path d="M3.28516 15.6002C3.28516 14.7854 3.28516 14.3779 3.36703 14.0419C3.62178 12.9965 4.43794 12.1803 5.48327 11.9256C5.8193 11.8437 6.22675 11.8438 7.04167 11.8438H16.8086C17.6235 11.8438 18.031 11.8437 18.3671 11.9256C19.4123 12.1803 20.2285 12.9965 20.4833 14.0419C20.5652 14.3779 20.5652 14.7854 20.5652 15.6002C20.5652 16.0349 20.5652 16.2522 20.5215 16.4314C20.3857 16.9889 19.9503 17.4242 19.3928 17.5601C19.2136 17.6038 18.9963 17.6037 18.5617 17.6037H5.28863C4.85401 17.6037 4.63669 17.6038 4.45748 17.5601C3.89998 17.4242 3.46469 16.9889 3.32883 16.4314C3.28516 16.2522 3.28516 16.0349 3.28516 15.6002Z" stroke="#333333" stroke-width="1.5" stroke-linecap="round" stroke-linejoin="round"/>
<path d="M18.4387 19.1039V18.0479M5.41016 18.0479V19.1039" stroke="#333333" stroke-width="1.5" stroke-linecap="round" stroke-linejoin="round"/>
<path d="M18.4387 11.8441V6.96911C18.4387 6.37916 18.4387 6.08419 18.3536 5.84772C18.2082 5.44393 17.8903 5.12601 17.4866 4.98064C17.25 4.89551 16.9551 4.89551 16.3651 4.89551H7.48376C6.89381 4.89551 6.59884 4.89551 6.36237 4.98064C5.95858 5.12601 5.64066 5.44393 5.49529 5.84772C5.41016 6.08419 5.41016 6.37916 5.41016 6.96911V11.8441" stroke="#333333" stroke-width="1.5" stroke-linecap="round" stroke-linejoin="round"/>
</svg>
