<svg xmlns="http://www.w3.org/2000/svg" width="17" height="16" viewBox="0 0 17 16" fill="none">
  <path d="M2.79004 10.4006C2.79004 9.85736 2.79004 9.58568 2.84462 9.36168C3.01446 8.66478 3.55856 8.12065 4.25545 7.95086C4.47947 7.89627 4.7511 7.89627 5.29438 7.89627H11.8057C12.349 7.89627 12.6206 7.89627 12.8446 7.95086C13.5415 8.12065 14.0856 8.66478 14.2555 9.36168C14.3101 9.58568 14.3101 9.85736 14.3101 10.4006C14.3101 10.6904 14.3101 10.8352 14.2809 10.9547C14.1904 11.3263 13.9001 11.6166 13.5285 11.7072C13.409 11.7363 13.2642 11.7363 12.9744 11.7363H4.12569C3.83594 11.7363 3.69106 11.7363 3.57159 11.7072C3.19992 11.6166 2.90973 11.3263 2.81915 10.9547C2.79004 10.8352 2.79004 10.6904 2.79004 10.4006Z" stroke="#E0E0E0" stroke-width="1.11304" stroke-linecap="round" stroke-linejoin="round"/>
  <path d="M12.8932 12.7359V12.0319M4.20752 12.0319V12.7359" stroke="#E0E0E0" stroke-width="1.11304" stroke-linecap="round" stroke-linejoin="round"/>
  <path d="M12.8932 7.89645V4.64647C12.8932 4.25317 12.8932 4.05652 12.8365 3.89888C12.7395 3.62968 12.5276 3.41774 12.2584 3.32082C12.1008 3.26407 11.9041 3.26407 11.5108 3.26407H5.58992C5.19662 3.26407 4.99997 3.26407 4.84233 3.32082C4.57313 3.41774 4.36119 3.62968 4.26427 3.89888C4.20752 4.05652 4.20752 4.25317 4.20752 4.64647V7.89645" stroke="#E0E0E0" stroke-width="1.11304" stroke-linecap="round" stroke-linejoin="round"/>
</svg>