<svg xmlns="http://www.w3.org/2000/svg" width="122" height="16" viewBox="0 0 122 16" fill="none">
  <path fill-rule="evenodd" clip-rule="evenodd" d="M2.57124 13.4482H6.55429C8.18383 13.4482 8.9986 12.7204 8.9986 11.2645C8.9986 9.8085 8.18383 9.08076 6.55429 9.08076H2.57124V13.4482ZM2.57124 6.91859H5.98556C7.48817 6.91859 8.23997 6.24144 8.23997 4.88614C8.23997 3.53134 7.48817 2.85368 5.98556 2.85368H2.57124V6.91859ZM8.83018 7.71895C9.57465 7.96387 10.2 8.40361 10.7058 9.03769C11.2115 9.67227 11.4644 10.4431 11.4644 11.3511C11.4644 12.6919 10.9904 13.7657 10.0418 14.5731C9.09379 15.38 7.81135 15.7837 6.19596 15.7837H0V0.648438H5.94309C7.36222 0.648438 8.49626 1.00905 9.34667 1.72977C10.1966 2.4505 10.6213 3.36606 10.6213 4.47544C10.6213 5.87432 10.0243 6.9261 8.83018 7.6323V7.71895Z" fill="#001E60"/>
  <path fill-rule="evenodd" clip-rule="evenodd" d="M14.9712 9.253H20.7249C20.6541 8.47468 20.3524 7.86564 19.8183 7.4259C19.2842 6.98615 18.6311 6.76678 17.8583 6.76678C17.1275 6.76678 16.4992 6.98615 15.9724 7.4259C15.4457 7.86564 15.1118 8.47468 14.9712 9.253ZM22.9793 11.0475H14.9292C14.9853 11.927 15.2836 12.6222 15.825 13.1341C16.3654 13.6455 17.0577 13.9014 17.9007 13.9014C19.3194 13.9014 20.2401 13.2678 20.6614 11.9992L22.7479 12.1284L22.8323 12.2371C22.4808 13.4476 21.8799 14.3772 21.03 15.0263C20.18 15.6744 19.1231 15.999 17.8583 15.999C16.2707 15.999 14.9956 15.4836 14.0334 14.4528C13.0712 13.4231 12.5898 12.0633 12.5898 10.3769C12.5898 8.73362 13.1063 7.38633 14.1388 6.33404C15.1713 5.28225 16.4113 4.75586 17.8583 4.75586C19.3755 4.75586 20.6087 5.2497 21.5572 6.23688C22.5052 7.22455 22.9793 8.57535 22.9793 10.2908V11.0475Z" fill="#001E60"/>
  <path fill-rule="evenodd" clip-rule="evenodd" d="M27.5435 2.59283V4.97137H29.9039V6.91717H27.5435V12.7766C27.5435 13.5259 27.9438 13.9005 28.7449 13.9005C29.0676 13.9005 29.3981 13.8575 29.7349 13.7713L29.7984 13.8144V15.7817C29.2219 15.926 28.6321 15.9981 28.0283 15.9981C27.1286 15.9981 26.4192 15.7422 25.8998 15.2303C25.3799 14.7189 25.1202 13.9737 25.1202 12.9925V6.91717H23.1602V4.97137H25.1202V1.79297H25.3096L27.5435 2.59283Z" fill="#001E60"/>
  <path fill-rule="evenodd" clip-rule="evenodd" d="M34.3355 2.59283V4.97137H36.6958V6.91717H34.3355V12.7766C34.3355 13.5259 34.7358 13.9005 35.5369 13.9005C35.8596 13.9005 36.1901 13.8575 36.5269 13.7713L36.5904 13.8144V15.7817C36.0138 15.926 35.4241 15.9981 34.8202 15.9981C33.9205 15.9981 33.2112 15.7422 32.6918 15.2303C32.1719 14.7189 31.9121 13.9737 31.9121 12.9925V6.91717H29.7734V4.97137H31.9121V1.79297H32.1016L34.3355 2.59283Z" fill="#001E60"/>
  <path fill-rule="evenodd" clip-rule="evenodd" d="M39.5005 9.253H45.2541C45.1834 8.47468 44.8812 7.86564 44.3476 7.4259C43.8135 6.98615 43.1604 6.76678 42.3876 6.76678C41.6568 6.76678 41.0285 6.98615 40.5017 7.4259C39.975 7.86564 39.6411 8.47468 39.5005 9.253ZM47.5086 11.0475H39.4585C39.5146 11.927 39.8129 12.6222 40.3543 13.1341C40.8947 13.6455 41.587 13.9014 42.4295 13.9014C43.8487 13.9014 44.7689 13.2678 45.1907 11.9992L47.2772 12.1284L47.3611 12.2371C47.0101 13.4476 46.4092 14.3772 45.5593 15.0263C44.7093 15.6744 43.6524 15.999 42.3876 15.999C40.8 15.999 39.5249 15.4836 38.5627 14.4528C37.6005 13.4231 37.1191 12.0633 37.1191 10.3769C37.1191 8.73362 37.6356 7.38633 38.6681 6.33404C39.7006 5.28225 40.9406 4.75586 42.3876 4.75586C43.9048 4.75586 45.138 5.2497 46.086 6.23688C47.0345 7.22455 47.5086 8.57535 47.5086 10.2908V11.0475Z" fill="#001E60"/>
  <path fill-rule="evenodd" clip-rule="evenodd" d="M51.6846 4.97173V6.3125C52.5701 5.27424 53.5811 4.75586 54.7196 4.75586C55.0989 4.75586 55.4006 4.81346 55.6256 4.92865L55.3093 6.91753L55.2248 6.98264C55.0569 6.93957 54.8245 6.91753 54.5297 6.91753C53.2931 6.91753 52.3451 7.58817 51.6846 8.92845V15.7821H49.2822V4.97173H51.6846Z" fill="#001E60"/>
  <path fill-rule="evenodd" clip-rule="evenodd" d="M73.3685 6.93957C72.4414 6.93957 71.6828 7.24609 71.0926 7.85863C70.5024 8.47117 70.2075 9.3106 70.2075 10.3769C70.2075 11.4442 70.5024 12.2837 71.0926 12.8962C71.6828 13.5092 72.4414 13.8153 73.3685 13.8153C74.3097 13.8153 75.0756 13.5092 75.6658 12.8962C76.2556 12.2837 76.5509 11.4442 76.5509 10.3769C76.5509 9.3106 76.2556 8.47117 75.6658 7.85863C75.0756 7.24609 74.3097 6.93957 73.3685 6.93957ZM73.3685 4.75586C75.0122 4.75586 76.3537 5.28526 77.3935 6.34506C78.4328 7.40436 78.9532 8.74864 78.9532 10.3769C78.9532 12.0062 78.4328 13.35 77.3935 14.4093C76.3537 15.4691 75.0122 15.9985 73.3685 15.9985C71.7384 15.9985 70.4037 15.4691 69.3644 14.4093C68.3246 13.35 67.8047 12.0062 67.8047 10.3769C67.8047 8.74864 68.3246 7.40436 69.3644 6.34506C70.4037 5.28526 71.7384 4.75586 73.3685 4.75586Z" fill="#001E60"/>
  <path fill-rule="evenodd" clip-rule="evenodd" d="M83.001 4.97173V6.24739C83.886 5.2527 84.94 4.75586 86.1619 4.75586C87.4126 4.75586 88.2909 5.26723 88.7966 6.29047C89.8218 5.26723 90.9671 4.75586 92.2314 4.75586C93.2854 4.75586 94.0894 5.04385 94.6445 5.62033C95.1996 6.19731 95.4768 6.97513 95.4768 7.9553V15.7821H93.0745V8.58236C93.0745 7.47298 92.5619 6.91753 91.5363 6.91753C90.6229 6.91753 89.8569 7.40085 89.2394 8.36599V15.7821H86.8366V8.62594C86.8366 7.4875 86.3377 6.91753 85.3403 6.91753C84.4689 6.91753 83.6893 7.45094 83.001 8.51725V15.7821H80.5986V4.97173H83.001Z" fill="#001E60"/>
  <path fill-rule="evenodd" clip-rule="evenodd" d="M99.2026 9.253H104.956C104.886 8.47468 104.583 7.86564 104.05 7.4259C103.516 6.98615 102.863 6.76678 102.09 6.76678C101.359 6.76678 100.731 6.98615 100.204 7.4259C99.6771 7.86564 99.3427 8.47468 99.2026 9.253ZM107.211 11.0475H99.1606C99.2168 11.927 99.5151 12.6222 100.056 13.1341C100.597 13.6455 101.289 13.9014 102.132 13.9014C103.551 13.9014 104.471 13.2678 104.893 11.9992L106.979 12.1284L107.063 12.2371C106.712 13.4476 106.112 14.3772 105.261 15.0263C104.411 15.6744 103.355 15.999 102.09 15.999C100.502 15.999 99.227 15.4836 98.2648 14.4528C97.3026 13.4231 96.8213 12.0633 96.8213 10.3769C96.8213 8.73362 97.3378 7.38633 98.3703 6.33404C99.4028 5.28225 100.643 4.75586 102.09 4.75586C103.607 4.75586 104.84 5.2497 105.788 6.23688C106.737 7.22455 107.211 8.57535 107.211 10.2908V11.0475Z" fill="#001E60"/>
  <path fill-rule="evenodd" clip-rule="evenodd" d="M114.106 8.27985C114.008 7.74694 113.782 7.33975 113.431 7.05827C113.08 6.77729 112.644 6.63655 112.125 6.63655C111.717 6.63655 111.366 6.7237 111.071 6.8965C110.776 7.06929 110.629 7.32172 110.629 7.65328C110.629 7.99937 110.832 8.28736 111.24 8.51775C111.647 8.74914 112.357 9.00808 113.368 9.29607C114.492 9.59859 115.321 9.99576 115.855 10.4856C116.389 10.9759 116.656 11.6315 116.656 12.4529C116.656 13.4772 116.277 14.3231 115.518 14.9933C114.759 15.6639 113.768 15.999 112.546 15.999C111.296 15.999 110.284 15.6995 109.512 15.1014C108.739 14.5039 108.261 13.671 108.078 12.6047L108.121 12.4745L110.123 12.1284C110.404 13.354 111.219 13.9665 112.567 13.9665C113.087 13.9665 113.519 13.8513 113.864 13.6204C114.208 13.39 114.38 13.073 114.38 12.6688C114.38 12.2656 114.183 11.9451 113.79 11.7072C113.396 11.4698 112.701 11.2208 111.703 10.9614C110.621 10.6879 109.814 10.2948 109.28 9.7824C108.745 9.27153 108.479 8.59739 108.479 7.76147C108.479 6.92555 108.823 6.21534 109.512 5.63135C110.2 5.04735 111.085 4.75586 112.167 4.75586C113.291 4.75586 114.208 5.02632 114.917 5.56674C115.626 6.10716 116.052 6.88197 116.192 7.89069L116.129 7.99937L114.106 8.27985Z" fill="#001E60"/>
  <path fill-rule="evenodd" clip-rule="evenodd" d="M118.579 12.886C118.909 12.555 119.3 12.3887 119.749 12.3887C120.198 12.3887 120.588 12.555 120.919 12.886C121.248 13.2181 121.414 13.6143 121.414 14.075C121.414 14.5368 121.248 14.9375 120.919 15.2756C120.588 15.6142 120.198 15.7834 119.749 15.7834C119.3 15.7834 118.909 15.6142 118.579 15.2756C118.249 14.9375 118.084 14.5368 118.084 14.075C118.084 13.6143 118.249 13.2181 118.579 12.886Z" fill="#001E60"/>
  <path fill-rule="evenodd" clip-rule="evenodd" d="M65.4876 5.74025C64.8129 5.08464 63.9137 4.75658 62.7899 4.75658C62.0591 4.75658 61.36 4.90784 60.6932 5.21085C60.0254 5.51337 59.4815 5.88851 59.0597 6.33476V4.16658V0.842932L56.8297 0H56.6574V4.16658V15.7833H59.0597V8.62716C59.4249 8.10778 59.8711 7.69357 60.3983 7.38355C60.9251 7.07352 61.4689 6.91876 62.0313 6.91876C62.6493 6.91876 63.1482 7.09556 63.5275 7.44866C63.9069 7.80176 64.0963 8.31012 64.0963 8.97275V15.7833H66.4991V8.41079C66.4991 7.28588 66.1618 6.39637 65.4876 5.74025Z" fill="#001E60"/>
  <path fill-rule="evenodd" clip-rule="evenodd" d="M118.498 12.3954C118.906 11.9837 119.387 11.7773 119.943 11.7773C120.498 11.7773 120.98 11.9837 121.388 12.3954C121.796 12.8081 122 13.3009 122 13.8739C122 14.4479 121.796 14.9457 121.388 15.3659C120.98 15.7877 120.498 15.998 119.943 15.998C119.387 15.998 118.906 15.7877 118.498 15.3659C118.09 14.9457 117.886 14.4479 117.886 13.8739C117.886 13.3009 118.09 12.8081 118.498 12.3954Z" fill="#EF6079"/>
</svg>