<svg xmlns="http://www.w3.org/2000/svg" width="18" height="18" viewBox="0 0 18 18" fill="none">
  <path fill-rule="evenodd" clip-rule="evenodd" d="M9.00098 13.0167C5.4419 13.0167 3.79556 12.5408 3.63647 10.6296C3.63647 8.72055 4.78439 8.84243 4.78439 6.49916C4.78439 4.6682 6.44825 2.58618 9.00098 2.58618C11.5537 2.58618 13.2176 4.6682 13.2176 6.49844C13.2176 8.84168 14.3654 8.71913 14.3654 10.6296C14.2056 12.5474 12.5593 13.0167 9.00098 13.0167Z" stroke="#C7C7C7" stroke-width="1.125" stroke-linecap="round" stroke-linejoin="round"/>
  <path d="M7.48828 15C7.85677 15.4605 8.40997 15.7502 9.02152 15.7502C9.64035 15.7502 10.1935 15.4605 10.562 15" stroke="#C7C7C7" stroke-width="1.125" stroke-linecap="round" stroke-linejoin="round"/>
  <path d="M4.55378 2.25586C3.843 2.94695 3.32268 3.78325 3.03369 4.65167" stroke="#C7C7C7" stroke-width="1.125" stroke-linecap="round" stroke-linejoin="round"/>
  <path d="M14.9666 4.65894C14.6769 3.78979 14.1573 2.94765 13.4399 2.25" stroke="#C7C7C7" stroke-width="1.125" stroke-linecap="round" stroke-linejoin="round"/>
</svg>