<svg xmlns="http://www.w3.org/2000/svg" width="20" height="20" viewBox="0 0 20 20" fill="none">
  <path fill-rule="evenodd" clip-rule="evenodd" d="M11.8883 14.9861C11.8883 16.0278 11.04 16.8761 9.99749 16.8761C8.95582 16.8761 8.10836 16.0278 8.10836 14.9861L8.10753 14.9845H11.8883V14.9861ZM16.1142 10.9461C15.8725 10.4311 15.745 9.85946 15.745 9.29279L15.7442 8.22366C15.7442 5.05616 13.1675 2.47949 9.99999 2.47949C6.83337 2.47949 4.2567 5.05616 4.2567 8.22366L4.25587 9.29279C4.25587 9.86946 4.13087 10.4253 3.8867 10.9453L3.50753 11.7495C3.17503 12.4561 3.22587 13.2711 3.6442 13.9303C4.06253 14.5903 4.7792 14.9845 5.56003 14.9845H6.85836V14.9861C6.85836 16.7178 8.2667 18.1261 9.99749 18.1261C11.73 18.1261 13.1383 16.7178 13.1383 14.9861V14.9845H14.4408C15.2208 14.9845 15.9358 14.5903 16.3542 13.932C16.7733 13.2728 16.825 12.457 16.4917 11.7495L16.1142 10.9461Z" fill="#1A5CEB"/>
  <path fill-rule="evenodd" clip-rule="evenodd" d="M3.95786 5.07539C4.32453 4.27705 4.9012 3.55705 5.6237 2.99289C5.89536 2.78122 5.94369 2.38789 5.73119 2.11622C5.51953 1.84455 5.12703 1.79372 4.85369 2.00789C3.97536 2.69372 3.27286 3.57372 2.82203 4.55289C2.67786 4.86705 2.81536 5.23789 3.12869 5.38205C3.21286 5.42122 3.30203 5.43955 3.38953 5.43955C3.62619 5.43955 3.85203 5.30455 3.95786 5.07539Z" fill="#1A5CEB"/>
  <path fill-rule="evenodd" clip-rule="evenodd" d="M17.1774 4.55261C16.7265 3.57428 16.024 2.69428 15.1457 2.00845C14.8715 1.79428 14.4799 1.84428 14.269 2.11595C14.0565 2.38761 14.104 2.78095 14.3765 2.99261C15.0982 3.55678 15.674 4.27678 16.0432 5.07595C16.1482 5.30428 16.374 5.43928 16.6099 5.43928C16.6982 5.43928 16.7865 5.42095 16.8724 5.38178C17.1857 5.23761 17.3224 4.86595 17.1774 4.55261Z" fill="#1A5CEB"/>
</svg>