<svg width="46" height="46" viewBox="0 0 46 46" fill="none" xmlns="http://www.w3.org/2000/svg">
<rect width="46" height="46" rx="23" fill="#E7EEFE"/>
<path fill-rule="evenodd" clip-rule="evenodd" d="M29.9878 19.8905L21.9063 27.972C21.649 28.2292 21.3148 28.357 20.9788 28.357C20.641 28.357 20.3068 28.2292 20.0495 27.972L16.0088 23.9312C15.496 23.4185 15.496 22.5872 16.0088 22.0745C16.5215 21.5617 17.351 21.5617 17.8638 22.0745L20.9788 25.1877L28.131 18.0337C28.6438 17.521 29.475 17.521 29.9878 18.0337C30.5005 18.5465 30.5005 19.3777 29.9878 19.8905ZM23 6.37695C13.8335 6.37695 6.375 13.8355 6.375 23.002C6.375 32.1702 13.8335 39.627 23 39.627C32.1665 39.627 39.625 32.1702 39.625 23.002C39.625 13.8355 32.1665 6.37695 23 6.37695Z" fill="#1A5CEB"/>
</svg>
