<svg xmlns="http://www.w3.org/2000/svg" width="20" height="21" viewBox="0 0 20 21" fill="none">
  <path fill-rule="evenodd" clip-rule="evenodd" d="M3.32777 3.74781C4.14817 2.86764 5.31651 2.375 6.69607 2.375H13.725C15.1078 2.375 16.2766 2.86737 17.0967 3.74804C17.912 4.62367 18.3359 5.83241 18.3359 7.18865V13.8113C18.3359 15.1676 17.912 16.3763 17.0965 17.252C16.2764 18.1327 15.1073 18.625 13.7242 18.625H6.69607C5.31327 18.625 4.14459 18.1326 3.32475 17.2519C2.50962 16.3763 2.08594 15.1675 2.08594 13.8113V7.18865C2.08594 5.83172 2.51191 4.62309 3.32777 3.74781ZM4.24215 4.6001C3.6778 5.20555 3.33594 6.09126 3.33594 7.18865V13.8113C3.33594 14.9095 3.67645 15.7951 4.2397 16.4002C4.79823 17.0002 5.62211 17.375 6.69607 17.375H13.7242C14.7986 17.375 15.6229 17.0002 16.1818 16.4001C16.7453 15.795 17.0859 14.9094 17.0859 13.8113V7.18865C17.0859 6.09057 16.7453 5.20497 16.1819 4.59987C15.6231 3.99979 14.7989 3.625 13.725 3.625H6.69607C5.62617 3.625 4.80195 3.99952 4.24215 4.6001Z" fill="black"/>
  <path fill-rule="evenodd" clip-rule="evenodd" d="M5.89844 7.19922C5.89844 6.85404 6.17826 6.57422 6.52344 6.57422H6.77723C7.1224 6.57422 7.40223 6.85404 7.40223 7.19922C7.40223 7.5444 7.1224 7.82422 6.77723 7.82422H6.52344C6.17826 7.82422 5.89844 7.5444 5.89844 7.19922ZM8.86559 7.19922C8.86559 6.85404 9.14534 6.57422 9.49059 6.57422H13.8933C14.2384 6.57422 14.5183 6.85404 14.5183 7.19922C14.5183 7.5444 14.2384 7.82422 13.8933 7.82422H9.49059C9.14534 7.82422 8.86559 7.5444 8.86559 7.19922ZM5.89844 10.4995C5.89844 10.1543 6.17826 9.8745 6.52344 9.8745H6.77723C7.1224 9.8745 7.40223 10.1543 7.40223 10.4995C7.40223 10.8447 7.1224 11.1245 6.77723 11.1245H6.52344C6.17826 11.1245 5.89844 10.8447 5.89844 10.4995ZM8.86559 10.4995C8.86559 10.1543 9.14534 9.8745 9.49059 9.8745H13.8933C14.2384 9.8745 14.5183 10.1543 14.5183 10.4995C14.5183 10.8447 14.2384 11.1245 13.8933 11.1245H9.49059C9.14534 11.1245 8.86559 10.8447 8.86559 10.4995ZM5.89844 13.7989C5.89844 13.4538 6.17826 13.1739 6.52344 13.1739H6.77723C7.1224 13.1739 7.40223 13.4538 7.40223 13.7989C7.40223 14.1441 7.1224 14.4239 6.77723 14.4239H6.52344C6.17826 14.4239 5.89844 14.1441 5.89844 13.7989ZM8.86559 13.7989C8.86559 13.4538 9.14534 13.1739 9.49059 13.1739H13.8933C14.2384 13.1739 14.5183 13.4538 14.5183 13.7989C14.5183 14.1441 14.2384 14.4239 13.8933 14.4239H9.49059C9.14534 14.4239 8.86559 14.1441 8.86559 13.7989Z" fill="black"/>
</svg>