<svg width="16" height="16" viewBox="0 0 16 16" fill="none" xmlns="http://www.w3.org/2000/svg">
<path d="M3.11242 14.0627C3.28709 14.2374 3.51909 14.3334 3.76642 14.3334C3.92242 14.3334 4.07909 14.2934 4.21775 14.2154L8.01577 12.0867L11.7771 14.2107C11.9924 14.3321 12.2411 14.3634 12.4784 14.2961C12.7164 14.2301 12.9138 14.0754 13.0338 13.8621C13.1118 13.7227 13.1538 13.5661 13.1538 13.4081L13.1498 4.39075C13.1498 2.63408 12.0204 1.66675 9.96977 1.66675H6.02509C4.00309 1.66675 2.84375 2.61808 2.84375 4.27675V13.4107C2.84309 13.6567 2.93909 13.8881 3.11242 14.0627Z" fill="#B2C8F8"/>
</svg>
