<svg width="18" height="18" viewBox="0 0 18 18" fill="none" xmlns="http://www.w3.org/2000/svg">
<path fill-rule="evenodd" clip-rule="evenodd" d="M4.34941 2.38189C5.05547 1.8761 5.99095 1.6875 6.96596 1.6875H11.4035C12.4108 1.6875 13.3534 1.88988 14.0556 2.42749C14.784 2.98523 15.1687 3.83768 15.1687 4.93958L15.1724 15.0836C15.1724 15.2965 15.1167 15.5034 15.0136 15.6857C14.6811 16.2758 13.9337 16.4825 13.3452 16.1512L13.3444 16.1507L9.20448 13.8122L5.02337 16.1561C4.84052 16.2583 4.63379 16.3125 4.42359 16.3125C3.74663 16.3125 3.19822 15.7636 3.19922 15.0869V4.81136C3.19922 3.73016 3.61267 2.90965 4.34941 2.38189ZM5.00456 3.29644C4.59708 3.58834 4.32422 4.04852 4.32422 4.81136V15.0885C4.32408 15.1597 4.40835 15.2107 4.47364 15.1744L8.93044 12.6761C9.10188 12.58 9.31106 12.5803 9.48214 12.677L13.897 15.1708C13.9619 15.2071 14.0473 15.1559 14.0474 15.0838L14.0437 4.93999C14.0437 4.11988 13.7721 3.6273 13.3716 3.32071C12.9449 2.99395 12.2861 2.8125 11.4035 2.8125H6.96596C6.10936 2.8125 5.44272 2.98256 5.00456 3.29644ZM9.18551 5.53426C9.49616 5.53426 9.74801 5.7861 9.74801 6.09676V7.29017H10.941C11.2518 7.29017 11.5035 7.542 11.5035 7.85265C11.5035 8.1633 11.2518 8.41515 10.941 8.41515H9.74801V9.60825C9.74801 9.9189 9.49616 10.1707 9.18551 10.1707C8.87486 10.1707 8.62301 9.9189 8.62301 9.60825V8.41515H7.42961C7.11895 8.41515 6.86711 8.1633 6.86711 7.85265C6.86711 7.542 7.11895 7.29017 7.42961 7.29017H8.62301V6.09676C8.62301 5.7861 8.87486 5.53426 9.18551 5.53426Z" fill="#1A5CEB"/>
</svg>
