<svg xmlns="http://www.w3.org/2000/svg" width="24" height="24" viewBox="0 0 24 24" fill="none">
    <path fill-rule="evenodd" clip-rule="evenodd" d="M2.96875 19.5078C2.96875 19.0936 3.30454 18.7578 3.71875 18.7578H21.7188C22.1329 18.7578 22.4688 19.0936 22.4688 19.5078C22.4688 19.922 22.1329 20.2578 21.7188 20.2578H3.71875C3.30454 20.2578 2.96875 19.922 2.96875 19.5078Z" fill="black"/>
    <path fill-rule="evenodd" clip-rule="evenodd" d="M7.80469 8.92188C7.80469 8.50765 8.14048 8.17188 8.55469 8.17188H9.41869C9.8329 8.17188 10.1686 8.50765 10.1686 8.92188C10.1686 9.33608 9.8329 9.67188 9.41869 9.67188H8.55469C8.14048 9.67188 7.80469 9.33608 7.80469 8.92188ZM7.80469 12.2446C7.80469 11.8304 8.14048 11.4946 8.55469 11.4946H9.41869C9.8329 11.4946 10.1686 11.8304 10.1686 12.2446C10.1686 12.6588 9.8329 12.9946 9.41869 12.9946H8.55469C8.14048 12.9946 7.80469 12.6588 7.80469 12.2446ZM7.80469 15.5674C7.80469 15.1531 8.14048 14.8174 8.55469 14.8174H9.41869C9.8329 14.8174 10.1686 15.1531 10.1686 15.5674C10.1686 15.9816 9.8329 16.3174 9.41869 16.3174H8.55469C8.14048 16.3174 7.80469 15.9816 7.80469 15.5674Z" fill="black"/>
    <path fill-rule="evenodd" clip-rule="evenodd" d="M15.75 13.3516C15.75 12.9373 16.0858 12.6016 16.5 12.6016H17.364C17.7782 12.6016 18.114 12.9373 18.114 13.3516C18.114 13.7658 17.7782 14.1016 17.364 14.1016H16.5C16.0858 14.1016 15.75 13.7658 15.75 13.3516ZM15.75 16.6743C15.75 16.2601 16.0858 15.9243 16.5 15.9243H17.364C17.7782 15.9243 18.114 16.2601 18.114 16.6743C18.114 17.0885 17.7782 17.4243 17.364 17.4243H16.5C16.0858 17.4243 15.75 17.0885 15.75 16.6743Z" fill="black"/>
    <path fill-rule="evenodd" clip-rule="evenodd" d="M4.24219 6.37003C4.24219 4.91862 5.41863 3.74219 6.87003 3.74219H11.0986C12.55 3.74219 13.7264 4.91862 13.7264 6.37003V19.511C13.7264 19.9252 13.3906 20.261 12.9764 20.261C12.5622 20.261 12.2264 19.9252 12.2264 19.511V6.37003C12.2264 5.74705 11.7215 5.24219 11.0986 5.24219H6.87003C6.24706 5.24219 5.74219 5.74705 5.74219 6.37003V19.511C5.74219 19.9252 5.40641 20.261 4.99219 20.261C4.57798 20.261 4.24219 19.9252 4.24219 19.511V6.37003Z" fill="black"/>
    <path fill-rule="evenodd" clip-rule="evenodd" d="M12.2344 10.3047C12.2344 9.89047 12.5702 9.55469 12.9844 9.55469H18.6617C20.1131 9.55469 21.2895 10.7311 21.2895 12.1825V19.509C21.2895 19.9232 20.9537 20.259 20.5395 20.259C20.1253 20.259 19.7895 19.9232 19.7895 19.509V12.1825C19.7895 11.5595 19.2846 11.0547 18.6617 11.0547H13.7344V19.509C13.7344 19.9232 13.3986 20.259 12.9844 20.259C12.5702 20.259 12.2344 19.9232 12.2344 19.509V10.3047Z" fill="black"/>
</svg>
