<svg width="21" height="20" viewBox="0 0 21 20" fill="none" xmlns="http://www.w3.org/2000/svg">
<path d="M12.8763 7.60024H16.611C17.1994 7.60024 17.6765 8.0774 17.6765 8.66511V16.1352C17.6765 16.7236 17.1994 17.2 16.611 17.2H4.34137C3.75292 17.2 3.27655 16.7236 3.27655 16.1352V6.18204C3.27655 5.59436 3.75292 5.11722 4.34137 5.11722H8.07603V3.86481C8.07603 3.27713 8.55319 2.79999 9.14167 2.79999H11.8115C12.3991 2.79999 12.8763 3.27713 12.8763 3.86481V7.60024ZM12.8763 7.60024V17.2" stroke="#B2C8F8" stroke-width="1.44" stroke-linecap="round" stroke-linejoin="round"/>
<path d="M6.47421 13.9594L6.47584 13.9677" stroke="#B2C8F8" stroke-width="1.44" stroke-linecap="round" stroke-linejoin="round"/>
<path d="M6.47421 8.15625L6.47584 8.16458" stroke="#B2C8F8" stroke-width="1.44" stroke-linecap="round" stroke-linejoin="round"/>
<path d="M6.47421 11.0906L6.47584 11.099" stroke="#B2C8F8" stroke-width="1.44" stroke-linecap="round" stroke-linejoin="round"/>
<path d="M9.67657 13.9594L9.67824 13.9677" stroke="#B2C8F8" stroke-width="1.44" stroke-linecap="round" stroke-linejoin="round"/>
<path d="M9.67657 8.15625L9.67824 8.16458" stroke="#B2C8F8" stroke-width="1.44" stroke-linecap="round" stroke-linejoin="round"/>
<path d="M9.67657 11.0906L9.67824 11.099" stroke="#B2C8F8" stroke-width="1.44" stroke-linecap="round" stroke-linejoin="round"/>
<path d="M15.2719 13.9594L15.2735 13.9677" stroke="#B2C8F8" stroke-width="1.44" stroke-linecap="round" stroke-linejoin="round"/>
<path d="M15.2719 11.0906L15.2735 11.099" stroke="#B2C8F8" stroke-width="1.44" stroke-linecap="round" stroke-linejoin="round"/>
</svg>
