<svg width="18" height="19" viewBox="0 0 18 19" fill="none" xmlns="http://www.w3.org/2000/svg">
<path fill-rule="evenodd" clip-rule="evenodd" d="M13.0345 10.4873C13.0345 10.7897 12.7897 11.0273 12.4945 11.0273C12.1921 11.0273 11.9545 10.7897 11.9545 10.4873C11.9545 10.1921 12.1921 9.94726 12.4945 9.94726C12.7897 9.94726 13.0345 10.1849 13.0345 10.4801V10.4873ZM13.0345 12.6113C13.0345 12.9137 12.7897 13.1513 12.4945 13.1513C12.1921 13.1513 11.9545 12.9137 11.9545 12.6113C11.9545 12.3161 12.1921 12.0713 12.4945 12.0713C12.7897 12.0713 13.0345 12.3089 13.0345 12.6041V12.6113ZM6.83534 7.29048C6.83534 7.59288 6.59054 7.83048 6.29534 7.83048C5.99294 7.83048 5.75534 7.59288 5.75534 7.29048C5.75534 6.99528 5.99294 6.75048 6.29534 6.75048C6.59054 6.75048 6.83534 6.98808 6.83534 7.28328V7.29048ZM6.83534 9.68806C6.83534 9.99046 6.59054 10.2281 6.29534 10.2281C5.99294 10.2281 5.75534 9.99046 5.75534 9.68806C5.75534 9.39286 5.99294 9.14806 6.29534 9.14806C6.59054 9.14806 6.83534 9.38566 6.83534 9.68086V9.68806ZM6.83534 14.2169C6.83534 14.3362 6.73863 14.4329 6.61934 14.4329H5.97134C5.85205 14.4329 5.75534 14.3362 5.75534 14.2169V12.6689C5.75534 12.3737 5.99294 12.1289 6.29534 12.1289C6.59054 12.1289 6.83534 12.3737 6.83534 12.6689V14.2169ZM15.4609 14.4329H15.1945C15.0752 14.4329 14.9785 14.3362 14.9785 14.2169V8.55046C14.9785 8.14726 14.7985 7.75128 14.4961 7.47768C14.1937 7.20408 13.7833 7.07448 13.3801 7.12488L10.4557 7.43556C10.3459 7.44722 10.2625 7.53989 10.2625 7.65035V14.2169C10.2625 14.3362 10.1658 14.4329 10.0465 14.4329H9.74414C9.62483 14.4329 9.52814 14.3362 9.52814 14.2169V5.72088C9.52814 4.97928 8.97374 4.36008 8.23214 4.28808L4.64654 3.92808C4.23614 3.88488 3.83294 4.01448 3.53054 4.28808C3.23534 4.56168 3.06254 4.95048 3.06254 5.35368V14.2169C3.06254 14.3362 2.96583 14.4329 2.84654 14.4329H2.50094C2.20574 14.4329 1.96094 14.6777 1.96094 14.9729C1.96094 15.2753 2.20574 15.5129 2.50094 15.5129H15.4609C15.7633 15.5129 16.0009 15.2753 16.0009 14.9729C16.0009 14.6777 15.7633 14.4329 15.4609 14.4329Z" fill="#181A1B"/>
</svg>
