<svg width="17" height="16" viewBox="0 0 17 16" fill="none" xmlns="http://www.w3.org/2000/svg">
<path d="M2.66797 13.9414H14.668" stroke="#C7C7C7" stroke-width="1.2" stroke-linecap="round" stroke-linejoin="round"/>
<path d="M12.2296 13.9399V3.41492C12.2296 2.66573 11.6225 2.05859 10.8739 2.05859H6.46569C5.71651 2.05859 5.10938 2.66573 5.10938 3.41492V13.9399" stroke="#C7C7C7" stroke-width="1.2" stroke-linecap="round" stroke-linejoin="round"/>
<path d="M9.78305 9.18359L9.78431 9.19026M7.55078 9.18359L7.55205 9.19026" stroke="#C7C7C7" stroke-width="1.2" stroke-linecap="round" stroke-linejoin="round"/>
<path d="M9.78305 6.99023L9.78431 6.9969M7.55078 6.99023L7.55205 6.9969" stroke="#C7C7C7" stroke-width="1.2" stroke-linecap="round" stroke-linejoin="round"/>
<path d="M9.78305 4.74414L9.78431 4.75081M7.55078 4.74414L7.55205 4.75081" stroke="#C7C7C7" stroke-width="1.2" stroke-linecap="round" stroke-linejoin="round"/>
<path d="M7.32031 13.9428V12.2045C7.32031 11.9229 7.55187 11.6914 7.8334 11.6914H9.503C9.78387 11.6914 10.0155 11.9229 10.0155 12.2045V13.9428" stroke="#C7C7C7" stroke-width="1.2" stroke-linecap="round" stroke-linejoin="round"/>
<path d="M12.2266 6.00586H13.0646C13.59 6.00586 14.0214 6.43137 14.0214 6.96259V13.9415" stroke="#C7C7C7" stroke-width="1.2" stroke-linecap="round" stroke-linejoin="round"/>
<path d="M3.39062 13.9415V6.96259C3.39062 6.43137 3.82198 6.00586 4.34739 6.00586H5.10371" stroke="#C7C7C7" stroke-width="1.2" stroke-linecap="round" stroke-linejoin="round"/>
</svg>
