<svg xmlns="http://www.w3.org/2000/svg" width="14" height="15" viewBox="0 0 14 15" fill="none">
  <path fill-rule="evenodd" clip-rule="evenodd" d="M10.5576 8.29976C10.5576 8.54476 10.3593 8.73726 10.1201 8.73726C9.8751 8.73726 9.6826 8.54476 9.6826 8.29976C9.6826 8.06059 9.8751 7.86226 10.1201 7.86226C10.3593 7.86226 10.5576 8.05476 10.5576 8.29393V8.29976ZM10.5576 10.0206C10.5576 10.2656 10.3593 10.4581 10.1201 10.4581C9.8751 10.4581 9.6826 10.2656 9.6826 10.0206C9.6826 9.78143 9.8751 9.58309 10.1201 9.58309C10.3593 9.58309 10.5576 9.77559 10.5576 10.0148V10.0206ZM5.5351 5.70978C5.5351 5.95478 5.33677 6.14728 5.0976 6.14728C4.8526 6.14728 4.6601 5.95478 4.6601 5.70978C4.6601 5.47061 4.8526 5.27228 5.0976 5.27228C5.33677 5.27228 5.5351 5.46478 5.5351 5.70395V5.70978ZM5.5351 7.65226C5.5351 7.89726 5.33677 8.08976 5.0976 8.08976C4.8526 8.08976 4.6601 7.89726 4.6601 7.65226C4.6601 7.41309 4.8526 7.21476 5.0976 7.21476C5.33677 7.21476 5.5351 7.40726 5.5351 7.64643V7.65226ZM5.5351 11.3214C5.5351 11.4181 5.45676 11.4964 5.3601 11.4964H4.8351C4.73846 11.4964 4.6601 11.4181 4.6601 11.3214V10.0673C4.6601 9.82809 4.8526 9.62976 5.0976 9.62976C5.33677 9.62976 5.5351 9.82809 5.5351 10.0673V11.3214ZM12.5234 11.4964H12.3076C12.2109 11.4964 12.1326 11.4181 12.1326 11.3214V6.73059C12.1326 6.40393 11.9868 6.08311 11.7418 5.86145C11.4968 5.63978 11.1643 5.53478 10.8376 5.57561L8.46828 5.82732C8.37932 5.83677 8.31177 5.91185 8.31177 6.00134V11.3214C8.31177 11.4181 8.23343 11.4964 8.13677 11.4964H7.89177C7.79511 11.4964 7.71677 11.4181 7.71677 11.3214V4.43811C7.71677 3.83728 7.2676 3.33561 6.66677 3.27728L3.76177 2.98561C3.42927 2.95061 3.1026 3.05561 2.8576 3.27728C2.61844 3.49895 2.47844 3.81395 2.47844 4.14061V11.3214C2.47844 11.4181 2.40009 11.4964 2.30344 11.4964H2.02344C1.78427 11.4964 1.58594 11.6948 1.58594 11.9339C1.58594 12.1789 1.78427 12.3714 2.02344 12.3714H12.5234C12.7684 12.3714 12.9609 12.1789 12.9609 11.9339C12.9609 11.6948 12.7684 11.4964 12.5234 11.4964Z" fill="#E5E5EF"/>
</svg>