<svg xmlns="http://www.w3.org/2000/svg" width="20" height="21" viewBox="0 0 20 21" fill="none">
  <path d="M2.5 17.9258H17.5" stroke="#C7C7C7" stroke-width="1.5" stroke-linecap="round" stroke-linejoin="round"/>
  <path d="M14.4504 17.9259V4.76963C14.4504 3.83314 13.6915 3.07422 12.7558 3.07422H7.24551C6.30903 3.07422 5.55011 3.83314 5.55011 4.76963V17.9259" stroke="#C7C7C7" stroke-width="1.5" stroke-linecap="round" stroke-linejoin="round"/>
  <path d="M11.3946 11.9805L11.3962 11.9888M8.60431 11.9805L8.60589 11.9888" stroke="#C7C7C7" stroke-width="1.5" stroke-linecap="round" stroke-linejoin="round"/>
  <path d="M11.3946 9.23633L11.3962 9.24466M8.60431 9.23633L8.60589 9.24466" stroke="#C7C7C7" stroke-width="1.5" stroke-linecap="round" stroke-linejoin="round"/>
  <path d="M11.3946 6.43164L11.3962 6.43997M8.60431 6.43164L8.60589 6.43997" stroke="#C7C7C7" stroke-width="1.5" stroke-linecap="round" stroke-linejoin="round"/>
  <path d="M8.31708 17.9275V15.7546C8.31708 15.4027 8.60652 15.1133 8.95844 15.1133H11.0454C11.3965 15.1133 11.686 15.4027 11.686 15.7546V17.9275" stroke="#C7C7C7" stroke-width="1.5" stroke-linecap="round" stroke-linejoin="round"/>
  <path d="M14.4498 8.00586H15.4974C16.1542 8.00586 16.6934 8.53775 16.6934 9.20177V17.9254" stroke="#C7C7C7" stroke-width="1.5" stroke-linecap="round" stroke-linejoin="round"/>
  <path d="M3.40411 17.9254V9.20177C3.40411 8.53775 3.94331 8.00586 4.60006 8.00586H5.54546" stroke="#C7C7C7" stroke-width="1.5" stroke-linecap="round" stroke-linejoin="round"/>
</svg>