<svg width="18" height="18" viewBox="0 0 18 18" fill="none" xmlns="http://www.w3.org/2000/svg">
<path fill-rule="evenodd" clip-rule="evenodd" d="M9.14335 2.81055C10.1241 2.81055 10.9196 3.61398 10.9196 4.60497C10.9196 5.59668 10.1241 6.40011 9.14335 6.40011C8.16258 6.40011 7.36719 5.59668 7.36719 4.60497C7.36719 3.61398 8.16258 2.81055 9.14335 2.81055Z" stroke="#1F1F1F" stroke-width="1.5" stroke-linecap="round" stroke-linejoin="round"/>
<path fill-rule="evenodd" clip-rule="evenodd" d="M4.1668 11.5977C5.14757 11.5977 5.94298 12.4011 5.94298 13.3921C5.94298 14.3831 5.14757 15.1866 4.1668 15.1866C3.18604 15.1866 2.39062 14.3831 2.39062 13.3921C2.39062 12.4011 3.18604 11.5977 4.1668 11.5977Z" stroke="#1F1F1F" stroke-width="1.5" stroke-linecap="round" stroke-linejoin="round"/>
<path fill-rule="evenodd" clip-rule="evenodd" d="M14.1121 11.5977C15.0929 11.5977 15.8882 12.4011 15.8882 13.3921C15.8882 14.3831 15.0929 15.1866 14.1121 15.1866C13.1313 15.1866 12.3359 14.3831 12.3359 13.3921C12.3359 12.4011 13.1313 11.5977 14.1121 11.5977Z" stroke="#1F1F1F" stroke-width="1.5" stroke-linecap="round" stroke-linejoin="round"/>
<path d="M9.8544 14.0318H8.43361M11.8535 8.24805L12.6081 9.48427M6.55142 8.24805L5.79688 9.48427" stroke="#1F1F1F" stroke-width="1.5" stroke-linecap="round" stroke-linejoin="round"/>
</svg>
