<svg width="62" height="28" viewBox="0 0 62 28" fill="none" xmlns="http://www.w3.org/2000/svg">
<rect x="0.5" y="0.5" width="61" height="27" rx="3.5" fill="#1A5CEB"/>
<rect x="0.5" y="0.5" width="61" height="27" rx="3.5" stroke="#1A5CEB"/>
<path d="M10.76 9.576V14.616C10.76 15.12 10.884 15.508 11.132 15.78C11.38 16.052 11.744 16.188 12.224 16.188C12.704 16.188 13.072 16.052 13.328 15.78C13.584 15.508 13.712 15.12 13.712 14.616V9.576H15.764V14.604C15.764 15.356 15.604 15.992 15.284 16.512C14.964 17.032 14.532 17.424 13.988 17.688C13.452 17.952 12.852 18.084 12.188 18.084C11.524 18.084 10.928 17.956 10.4 17.7C9.88 17.436 9.468 17.044 9.164 16.524C8.86 15.996 8.708 15.356 8.708 14.604V9.576H10.76ZM19.2569 12.252C19.4569 11.94 19.7329 11.688 20.0849 11.496C20.4369 11.304 20.8489 11.208 21.3209 11.208C21.8729 11.208 22.3729 11.348 22.8209 11.628C23.2689 11.908 23.6209 12.308 23.8769 12.828C24.1409 13.348 24.2729 13.952 24.2729 14.64C24.2729 15.328 24.1409 15.936 23.8769 16.464C23.6209 16.984 23.2689 17.388 22.8209 17.676C22.3729 17.956 21.8729 18.096 21.3209 18.096C20.8569 18.096 20.4449 18 20.0849 17.808C19.7329 17.616 19.4569 17.368 19.2569 17.064V21.192H17.2049V11.304H19.2569V12.252ZM22.1849 14.64C22.1849 14.128 22.0409 13.728 21.7529 13.44C21.4729 13.144 21.1249 12.996 20.7089 12.996C20.3009 12.996 19.9529 13.144 19.6649 13.44C19.3849 13.736 19.2449 14.14 19.2449 14.652C19.2449 15.164 19.3849 15.568 19.6649 15.864C19.9529 16.16 20.3009 16.308 20.7089 16.308C21.1169 16.308 21.4649 16.16 21.7529 15.864C22.0409 15.56 22.1849 15.152 22.1849 14.64ZM24.9415 14.64C24.9415 13.952 25.0695 13.348 25.3255 12.828C25.5895 12.308 25.9455 11.908 26.3935 11.628C26.8415 11.348 27.3415 11.208 27.8935 11.208C28.3335 11.208 28.7335 11.3 29.0935 11.484C29.4615 11.668 29.7495 11.916 29.9575 12.228V9.12H32.0095V18H29.9575V17.04C29.7655 17.36 29.4895 17.616 29.1295 17.808C28.7775 18 28.3655 18.096 27.8935 18.096C27.3415 18.096 26.8415 17.956 26.3935 17.676C25.9455 17.388 25.5895 16.984 25.3255 16.464C25.0695 15.936 24.9415 15.328 24.9415 14.64ZM29.9575 14.652C29.9575 14.14 29.8135 13.736 29.5255 13.44C29.2455 13.144 28.9015 12.996 28.4935 12.996C28.0855 12.996 27.7375 13.144 27.4495 13.44C27.1695 13.728 27.0295 14.128 27.0295 14.64C27.0295 15.152 27.1695 15.56 27.4495 15.864C27.7375 16.16 28.0855 16.308 28.4935 16.308C28.9015 16.308 29.2455 16.16 29.5255 15.864C29.8135 15.568 29.9575 15.164 29.9575 14.652ZM33.086 14.64C33.086 13.952 33.214 13.348 33.47 12.828C33.734 12.308 34.09 11.908 34.538 11.628C34.986 11.348 35.486 11.208 36.038 11.208C36.51 11.208 36.922 11.304 37.274 11.496C37.634 11.688 37.91 11.94 38.102 12.252V11.304H40.154V18H38.102V17.052C37.902 17.364 37.622 17.616 37.262 17.808C36.91 18 36.498 18.096 36.026 18.096C35.482 18.096 34.986 17.956 34.538 17.676C34.09 17.388 33.734 16.984 33.47 16.464C33.214 15.936 33.086 15.328 33.086 14.64ZM38.102 14.652C38.102 14.14 37.958 13.736 37.67 13.44C37.39 13.144 37.046 12.996 36.638 12.996C36.23 12.996 35.882 13.144 35.594 13.44C35.314 13.728 35.174 14.128 35.174 14.64C35.174 15.152 35.314 15.56 35.594 15.864C35.882 16.16 36.23 16.308 36.638 16.308C37.046 16.308 37.39 16.16 37.67 15.864C37.958 15.568 38.102 15.164 38.102 14.652ZM45.3705 16.26V18H44.3265C43.5825 18 43.0025 17.82 42.5865 17.46C42.1705 17.092 41.9625 16.496 41.9625 15.672V13.008H41.1465V11.304H41.9625V9.672H44.0145V11.304H45.3585V13.008H44.0145V15.696C44.0145 15.896 44.0625 16.04 44.1585 16.128C44.2545 16.216 44.4145 16.26 44.6385 16.26H45.3705ZM52.8255 14.544C52.8255 14.736 52.8135 14.936 52.7895 15.144H48.1455C48.1775 15.56 48.3095 15.88 48.5415 16.104C48.7815 16.32 49.0735 16.428 49.4175 16.428C49.9295 16.428 50.2855 16.212 50.4855 15.78H52.6695C52.5575 16.22 52.3535 16.616 52.0575 16.968C51.7695 17.32 51.4055 17.596 50.9655 17.796C50.5255 17.996 50.0335 18.096 49.4895 18.096C48.8335 18.096 48.2495 17.956 47.7375 17.676C47.2255 17.396 46.8255 16.996 46.5375 16.476C46.2495 15.956 46.1055 15.348 46.1055 14.652C46.1055 13.956 46.2455 13.348 46.5255 12.828C46.8135 12.308 47.2135 11.908 47.7255 11.628C48.2375 11.348 48.8255 11.208 49.4895 11.208C50.1375 11.208 50.7135 11.344 51.2175 11.616C51.7215 11.888 52.1135 12.276 52.3935 12.78C52.6815 13.284 52.8255 13.872 52.8255 14.544ZM50.7255 14.004C50.7255 13.652 50.6055 13.372 50.3655 13.164C50.1255 12.956 49.8255 12.852 49.4655 12.852C49.1215 12.852 48.8295 12.952 48.5895 13.152C48.3575 13.352 48.2135 13.636 48.1575 14.004H50.7255Z" fill="white"/>
</svg>
