<svg xmlns="http://www.w3.org/2000/svg" width="17" height="17" viewBox="0 0 17 17" fill="none">
  <path d="M9.68359 2.96094V4.71403" stroke="#C7C7C7" stroke-linecap="round" stroke-linejoin="round"/>
  <path d="M5.38281 2.96094V4.71403" stroke="#C7C7C7" stroke-linecap="round" stroke-linejoin="round"/>
  <path d="M12.3238 7.81006V6.27549C12.3286 4.67328 11.3563 3.80212 9.78759 3.80212H5.27735C3.71286 3.80212 2.73633 4.67328 2.73633 6.27549V11.0953C2.73633 12.7227 3.71286 13.6142 5.27735 13.6142H6.41491" stroke="#C7C7C7" stroke-linecap="round" stroke-linejoin="round"/>
  <path fill-rule="evenodd" clip-rule="evenodd" d="M12.9382 11.6354C12.9382 12.9622 11.8624 14.0381 10.5355 14.0381C9.20875 14.0381 8.13281 12.9622 8.13281 11.6354C8.13281 10.3086 9.20875 9.23267 10.5355 9.23267C11.8624 9.23267 12.9382 10.3086 12.9382 11.6354Z" stroke="#C7C7C7" stroke-linecap="round" stroke-linejoin="round"/>
  <path d="M11.2833 12.2602L10.5234 11.8063V10.8298" stroke="#C7C7C7" stroke-linecap="round" stroke-linejoin="round"/>
  <path d="M10.0457 7.04517H5.01758" stroke="#C7C7C7" stroke-linecap="round" stroke-linejoin="round"/>
</svg>