<svg xmlns="http://www.w3.org/2000/svg" width="17" height="16" viewBox="0 0 17 16" fill="none">
  <path d="M10.3477 2.46094V4.21403" stroke="#E0E0E0" stroke-width="1.05494" stroke-linecap="round" stroke-linejoin="round"/>
  <path d="M6.04297 2.46094V4.21403" stroke="#E0E0E0" stroke-width="1.05494" stroke-linecap="round" stroke-linejoin="round"/>
  <path d="M12.9781 7.31006V5.77549C12.9829 4.17328 12.0106 3.30212 10.4419 3.30212H5.93165C4.36715 3.30212 3.39062 4.17328 3.39062 5.77549V10.5953C3.39062 12.2227 4.36715 13.1142 5.93165 13.1142H7.06921" stroke="#E0E0E0" stroke-width="1.05494" stroke-linecap="round" stroke-linejoin="round"/>
  <path fill-rule="evenodd" clip-rule="evenodd" d="M13.5984 11.1357C13.5984 12.4626 12.5225 13.5384 11.1957 13.5384C9.86891 13.5384 8.79297 12.4626 8.79297 11.1357C8.79297 9.80897 9.86891 8.73303 11.1957 8.73303C12.5225 8.73303 13.5984 9.80897 13.5984 11.1357Z" stroke="#E0E0E0" stroke-width="1.05494" stroke-linecap="round" stroke-linejoin="round"/>
  <path d="M11.9434 11.7598L11.1836 11.306V10.3295" stroke="#E0E0E0" stroke-width="1.05494" stroke-linecap="round" stroke-linejoin="round"/>
  <path d="M10.7039 6.54565H5.67578" stroke="#E0E0E0" stroke-width="1.05494" stroke-linecap="round" stroke-linejoin="round"/>
</svg>