<svg xmlns="http://www.w3.org/2000/svg" width="24" height="24" viewBox="0 0 24 24" fill="none">
    <path fill-rule="evenodd" clip-rule="evenodd" d="M4.59883 5.23462C5.4811 4.39582 6.70906 4.005 8.10762 4.005H15.4232C16.8249 4.005 18.0535 4.39551 18.9345 5.23527C19.8207 6.08011 20.2616 7.2904 20.2576 8.73753V16.6212C20.2576 18.0684 19.8148 19.28 18.9284 20.1264C18.047 20.968 16.8186 21.3613 15.4157 21.3613H8.10762C6.70461 21.3613 5.47512 20.9595 4.59375 20.105C3.70883 19.247 3.26562 18.0207 3.26562 16.5558V8.73677C3.26562 7.28854 3.71101 6.0787 4.59883 5.23462ZM5.59103 6.27824C5.05232 6.79041 4.70563 7.58646 4.70563 8.73677V16.5558C4.70563 17.7295 5.05451 18.546 5.59612 19.0712C6.14128 19.5996 6.97278 19.9213 8.10762 19.9213H15.4157C16.5581 19.9213 17.3906 19.6038 17.9339 19.085C18.4721 18.571 18.8176 17.7725 18.8176 16.6212V8.73677V8.7347C18.821 7.58387 18.4771 6.78874 17.9409 6.27759C17.399 5.76109 16.5667 5.445 15.4232 5.445H8.10762C6.96834 5.445 6.1353 5.7608 5.59103 6.27824ZM10.1843 13.7891C10.4654 14.0702 10.4654 14.5261 10.1843 14.8072L8.76074 16.2308C8.47957 16.512 8.02369 16.512 7.74251 16.2308L7.01114 15.4994C6.72997 15.2182 6.72997 14.7624 7.01114 14.4812C7.29233 14.2 7.7482 14.2 8.02938 14.4812L8.25163 14.7035L9.16602 13.7891C9.44719 13.5079 9.90307 13.5079 10.1843 13.7891Z" fill="black"/>
    <path fill-rule="evenodd" clip-rule="evenodd" d="M10.1808 9.13215C10.462 9.41332 10.462 9.86921 10.1808 10.1504L8.75736 11.5739C8.47618 11.8551 8.0203 11.8551 7.73912 11.5739L7.00776 10.8425C6.72658 10.5614 6.72658 10.1055 7.00776 9.82428C7.28893 9.5431 7.74481 9.5431 8.02599 9.82428L8.24824 10.0465L9.16262 9.13215C9.4438 8.85097 9.89966 8.85097 10.1808 9.13215Z" fill="black"/>
    <path fill-rule="evenodd" clip-rule="evenodd" d="M11.4531 15.6187C11.4531 15.221 11.7755 14.8987 12.1731 14.8987H16.0009C16.3986 14.8987 16.7209 15.221 16.7209 15.6187C16.7209 16.0163 16.3986 16.3387 16.0009 16.3387H12.1731C11.7755 16.3387 11.4531 16.0163 11.4531 15.6187Z" fill="black"/>
    <path fill-rule="evenodd" clip-rule="evenodd" d="M11.4531 10.965C11.4531 10.5674 11.7755 10.245 12.1731 10.245H16.0009C16.3986 10.245 16.7209 10.5674 16.7209 10.965C16.7209 11.3626 16.3986 11.685 16.0009 11.685H12.1731C11.7755 11.685 11.4531 11.3626 11.4531 10.965Z" fill="black"/>
    <path fill-rule="evenodd" clip-rule="evenodd" d="M8.27469 2.64001C8.67233 2.64001 8.99469 2.96237 8.99469 3.36001V5.8334C8.99469 6.23104 8.67233 6.5534 8.27469 6.5534C7.87705 6.5534 7.55469 6.23104 7.55469 5.8334V3.36001C7.55469 2.96237 7.87705 2.64001 8.27469 2.64001ZM15.255 2.64001C15.6526 2.64001 15.975 2.96237 15.975 3.36001V5.8334C15.975 6.23104 15.6526 6.5534 15.255 6.5534C14.8574 6.5534 14.535 6.23104 14.535 5.8334V3.36001C14.535 2.96237 14.8574 2.64001 15.255 2.64001Z" fill="black"/>
</svg>
