<svg xmlns="http://www.w3.org/2000/svg" width="16" height="17" viewBox="0 0 16 17" fill="none">
  <path d="M9.54175 2.96094V4.71403" stroke="#CBD0DD" stroke-width="0.923077" stroke-linecap="round" stroke-linejoin="round"/>
  <path d="M5.2395 2.96094V4.71403" stroke="#CBD0DD" stroke-width="0.923077" stroke-linecap="round" stroke-linejoin="round"/>
  <path d="M12.1813 7.81003V6.27546C12.1861 4.67325 11.2137 3.80209 9.64501 3.80209H5.13477C3.57028 3.80209 2.59375 4.67325 2.59375 6.27546V11.0953C2.59375 12.7226 3.57028 13.6141 5.13477 13.6141H6.27233" stroke="#CBD0DD" stroke-width="0.923077" stroke-linecap="round" stroke-linejoin="round"/>
  <path fill-rule="evenodd" clip-rule="evenodd" d="M12.7949 11.6358C12.7949 12.9626 11.719 14.0385 10.3922 14.0385C9.06544 14.0385 7.9895 12.9626 7.9895 11.6358C7.9895 10.309 9.06544 9.23306 10.3922 9.23306C11.719 9.23306 12.7949 10.309 12.7949 11.6358Z" stroke="#CBD0DD" stroke-width="0.923077" stroke-linecap="round" stroke-linejoin="round"/>
  <path d="M11.1399 12.2598L10.3801 11.8059V10.8294" stroke="#CBD0DD" stroke-width="0.923077" stroke-linecap="round" stroke-linejoin="round"/>
  <path d="M9.90315 7.04556H4.875" stroke="#CBD0DD" stroke-width="0.923077" stroke-linecap="round" stroke-linejoin="round"/>
</svg>