<svg width="138" height="89" viewBox="0 0 138 89" fill="none" xmlns="http://www.w3.org/2000/svg">
<g opacity="0.4">
<rect x="84" y="18" width="54" height="54" rx="3.76941" fill="url(#paint0_linear_7532_24527)"/>
<path d="M112.719 39.6667C114.832 39.9013 116.501 41.5683 116.738 43.6812" stroke="#A6ABBF" stroke-width="0.857143" stroke-linecap="round" stroke-linejoin="round"/>
<path d="M112.719 41.6893C113.73 41.8857 114.52 42.6764 114.717 43.6875" stroke="#A6ABBF" stroke-width="0.857143" stroke-linecap="round" stroke-linejoin="round"/>
<path fill-rule="evenodd" clip-rule="evenodd" d="M110.82 45.3598C113.097 47.6365 113.614 45.0026 115.064 46.4516C116.462 47.8491 117.266 48.1291 115.494 49.8998C115.272 50.0781 113.863 52.223 108.909 47.2708C103.955 42.3179 106.099 40.9069 106.277 40.6851C108.053 38.9096 108.328 39.7177 109.726 41.1152C111.176 42.5648 108.543 43.0831 110.82 45.3598Z" stroke="#A6ABBF" stroke-width="0.857143" stroke-linecap="round" stroke-linejoin="round"/>
</g>
<g opacity="0.4">
<rect y="18" width="54" height="54" rx="3.76941" fill="url(#paint1_linear_7532_24527)"/>
<path d="M28.7188 39.6667C30.8316 39.9013 32.5009 41.5683 32.7378 43.6812" stroke="#A6ABBF" stroke-width="0.857143" stroke-linecap="round" stroke-linejoin="round"/>
<path d="M28.7188 41.6893C29.7298 41.8857 30.5199 42.6764 30.7169 43.6875" stroke="#A6ABBF" stroke-width="0.857143" stroke-linecap="round" stroke-linejoin="round"/>
<path fill-rule="evenodd" clip-rule="evenodd" d="M26.8201 45.3598C29.0974 47.6365 29.614 45.0026 31.064 46.4516C32.4618 47.8491 33.2659 48.1291 31.4942 49.8998C31.2723 50.0781 29.8628 52.223 24.9093 47.2708C19.9551 42.3179 22.0988 40.9069 22.2772 40.6851C24.0525 38.9096 24.3283 39.7177 25.7262 41.1152C27.1755 42.5648 24.5428 43.0831 26.8201 45.3598Z" stroke="#A6ABBF" stroke-width="0.857143" stroke-linecap="round" stroke-linejoin="round"/>
</g>
<g filter="url(#filter0_f_7532_24527)">
<rect x="102" y="18" width="8" height="53" fill="#A6ABBF" fill-opacity="0.8"/>
</g>
<g filter="url(#filter1_f_7532_24527)">
<rect x="34" y="18" width="8" height="53" fill="#A6ABBF" fill-opacity="0.8"/>
</g>
<rect x="30" y="4" width="78" height="78" rx="5.44471" fill="url(#paint2_linear_7532_24527)"/>
<rect x="30.25" y="4.25" width="77.5" height="77.5" rx="5.19471" stroke="url(#paint3_linear_7532_24527)" stroke-opacity="0.3" stroke-width="0.5"/>
<path d="M71.5781 35C74.7474 35.3519 77.2514 37.8524 77.6068 41.0218" stroke="#A6ABBF" stroke-width="1.28571" stroke-linecap="round" stroke-linejoin="round"/>
<path d="M71.5781 38.034C73.0947 38.3286 74.2799 39.5146 74.5753 41.0312" stroke="#A6ABBF" stroke-width="1.28571" stroke-linecap="round" stroke-linejoin="round"/>
<path fill-rule="evenodd" clip-rule="evenodd" d="M68.7341 43.5397C72.15 46.9548 72.9249 43.0039 75.0999 45.1774C77.1967 47.2737 78.4027 47.6937 75.7452 50.3496C75.4124 50.6171 73.2981 53.8345 65.8678 46.4061C58.4366 38.9768 61.6522 36.8603 61.9197 36.5276C64.5827 33.8643 64.9964 35.0765 67.0932 37.1728C69.2672 39.3472 65.3181 40.1247 68.7341 43.5397Z" stroke="#A6ABBF" stroke-width="1.28571" stroke-linecap="round" stroke-linejoin="round"/>
<defs>
<filter id="filter0_f_7532_24527" x="84" y="0" width="44" height="89" filterUnits="userSpaceOnUse" color-interpolation-filters="sRGB">
<feFlood flood-opacity="0" result="BackgroundImageFix"/>
<feBlend mode="normal" in="SourceGraphic" in2="BackgroundImageFix" result="shape"/>
<feGaussianBlur stdDeviation="9" result="effect1_foregroundBlur_7532_24527"/>
</filter>
<filter id="filter1_f_7532_24527" x="16" y="0" width="44" height="89" filterUnits="userSpaceOnUse" color-interpolation-filters="sRGB">
<feFlood flood-opacity="0" result="BackgroundImageFix"/>
<feBlend mode="normal" in="SourceGraphic" in2="BackgroundImageFix" result="shape"/>
<feGaussianBlur stdDeviation="9" result="effect1_foregroundBlur_7532_24527"/>
</filter>
<linearGradient id="paint0_linear_7532_24527" x1="111" y1="18" x2="111" y2="72" gradientUnits="userSpaceOnUse">
<stop stop-color="#E8EAEE"/>
<stop offset="1" stop-color="#FAFAFB"/>
</linearGradient>
<linearGradient id="paint1_linear_7532_24527" x1="27" y1="18" x2="27" y2="72" gradientUnits="userSpaceOnUse">
<stop stop-color="#E8EAEE"/>
<stop offset="1" stop-color="#FAFAFB"/>
</linearGradient>
<linearGradient id="paint2_linear_7532_24527" x1="69" y1="4" x2="69" y2="82" gradientUnits="userSpaceOnUse">
<stop stop-color="#E8EAEE"/>
<stop offset="1" stop-color="white"/>
</linearGradient>
<linearGradient id="paint3_linear_7532_24527" x1="69" y1="4" x2="69" y2="82" gradientUnits="userSpaceOnUse">
<stop stop-color="#A6ABBF"/>
<stop offset="1" stop-color="#A6ABBF" stop-opacity="0"/>
</linearGradient>
</defs>
</svg>
