<svg width="18" height="18" viewBox="0 0 18 18" fill="none" xmlns="http://www.w3.org/2000/svg">
<path fill-rule="evenodd" clip-rule="evenodd" d="M13.8036 1.74756C14.1143 1.74756 14.3661 1.99939 14.3661 2.31006V3.88113H15.9375C16.2482 3.88113 16.5 4.13297 16.5 4.44363C16.5 4.75429 16.2482 5.00613 15.9375 5.00613H14.3661V6.57752C14.3661 6.88818 14.1143 7.14002 13.8036 7.14002C13.493 7.14002 13.2411 6.88818 13.2411 6.57752V5.00613H11.6701C11.3594 5.00613 11.1076 4.75429 11.1076 4.44363C11.1076 4.13297 11.3594 3.88113 11.6701 3.88113H13.2411V2.31006C13.2411 1.99939 13.493 1.74756 13.8036 1.74756ZM3.59909 4.04666C3.56858 4.08087 3.53658 4.11199 3.51948 4.12862C3.51746 4.13058 3.51566 4.13233 3.51409 4.13387L3.51182 4.13608C3.48209 4.16515 3.45364 4.19294 3.42236 4.22587C3.35976 4.29179 3.28982 4.37443 3.22496 4.47959C3.09993 4.68229 2.9746 4.99872 3.00447 5.48686C3.06627 6.49698 3.80009 8.31795 6.80601 11.3232C9.81195 14.3284 11.6327 15.061 12.6423 15.1221C13.1303 15.1516 13.4465 15.0261 13.6493 14.9009C13.7545 14.8359 13.8372 14.7658 13.9033 14.7031C13.9359 14.6722 13.9634 14.644 13.9923 14.6145L13.9956 14.6111C13.9971 14.6096 13.9988 14.6078 14.0008 14.6059C14.0174 14.5888 14.0485 14.5568 14.0829 14.5262C14.6042 14.0032 14.8942 13.63 15.0377 13.3492C15.1702 13.0899 15.1602 12.9472 15.1227 12.8338C15.0715 12.6793 14.9368 12.4864 14.6451 12.1873C14.5044 12.043 14.3422 11.8884 14.1541 11.7094L14.1437 11.6995C13.9607 11.5254 13.7569 11.3316 13.5415 11.1162C13.1919 10.7669 12.9614 10.7317 12.7823 10.7451C12.6686 10.7536 12.5402 10.786 12.3758 10.8439C12.294 10.8727 12.2097 10.9054 12.1156 10.9423C12.1063 10.9459 12.0968 10.9496 12.0872 10.9534C12.0032 10.9863 11.9115 11.0223 11.8178 11.0566C11.3942 11.212 10.8566 11.3637 10.2084 11.2348C9.56565 11.107 8.89643 10.7209 8.15235 9.97702C7.40829 9.2331 7.02195 8.56402 6.89376 7.92127C6.7645 7.27315 6.91562 6.73534 7.07057 6.31153C7.10481 6.21784 7.14071 6.12607 7.17356 6.04207C7.17732 6.03247 7.18104 6.02296 7.18471 6.01357C7.2215 5.9194 7.25411 5.83504 7.2828 5.75327C7.34055 5.58867 7.37286 5.46021 7.38129 5.34628C7.39455 5.16688 7.35899 4.936 7.00952 4.58639C6.79133 4.36839 6.59543 4.1623 6.41965 3.9774L6.41626 3.97383C6.23727 3.78555 6.0828 3.6232 5.93858 3.48227C5.63965 3.19015 5.44725 3.05526 5.29301 3.00399C5.18037 2.96656 5.03825 2.95631 4.77872 3.08905C4.4976 3.23284 4.12355 3.52366 3.59909 4.04666ZM7.23162 3.19872C7.40927 3.38559 7.5969 3.58298 7.80495 3.79081C8.34225 4.32832 8.54483 4.86685 8.5032 5.42923C8.48423 5.6862 8.4159 5.92179 8.34435 6.12572C8.30843 6.22822 8.2692 6.32924 8.23253 6.423C8.22885 6.43245 8.22518 6.44182 8.22158 6.45114C8.18805 6.53674 8.15685 6.61664 8.12715 6.69783C7.99778 7.05166 7.92795 7.35469 7.99703 7.70122C8.06723 8.05312 8.2986 8.53245 8.94773 9.18142C9.59685 9.8304 10.0761 10.0615 10.4278 10.1314C10.7741 10.2002 11.0768 10.1302 11.4305 10.0005C11.5116 9.97072 11.5915 9.93937 11.6771 9.90577C11.6864 9.90217 11.6957 9.8985 11.7051 9.89482C11.7988 9.85807 11.8997 9.81877 12.0022 9.7827C12.206 9.711 12.4415 9.64245 12.6984 9.62317C13.2608 9.5811 13.7991 9.78322 14.3366 10.3204C14.5421 10.5259 14.7375 10.7117 14.9224 10.8876L14.9295 10.8943C15.1141 11.07 15.2924 11.2396 15.4506 11.4019C15.7568 11.7159 16.0531 12.0647 16.1907 12.4803C16.342 12.9372 16.2785 13.3933 16.0394 13.8611C15.8126 14.3049 15.4171 14.7829 14.8641 15.336C14.8529 15.3472 14.8413 15.3579 14.8293 15.368C14.8274 15.37 14.8187 15.3784 14.7996 15.398L14.7944 15.4034C14.7664 15.432 14.726 15.4732 14.678 15.5189C14.5739 15.6177 14.4299 15.741 14.2405 15.8581C13.8539 16.0968 13.3093 16.2895 12.5744 16.2451C11.1383 16.1581 9.06608 15.1735 6.0106 12.1187C2.95514 9.06405 1.96944 6.99166 1.88157 5.55557C1.8366 4.82061 2.0289 4.27573 2.26746 3.88897C2.38439 3.69941 2.50773 3.5553 2.60659 3.45119C2.65268 3.40266 2.69429 3.36201 2.72307 3.3339C2.72468 3.33232 2.72625 3.33078 2.72779 3.32928C2.74804 3.30949 2.75647 3.30087 2.75826 3.29917C2.76821 3.28743 2.77865 3.2761 2.78955 3.26521C3.34389 2.71086 3.82244 2.31456 4.26642 2.08747C4.7345 1.84805 5.19085 1.78453 5.64784 1.93642C6.06322 2.07448 6.41158 2.37152 6.72486 2.67766C6.88584 2.83497 7.05431 3.01219 7.22862 3.19555L7.23162 3.19872Z" fill="#1f1f1f"/>
</svg>
