<svg width="20" height="21" viewBox="0 0 20 21" fill="none" xmlns="http://www.w3.org/2000/svg">
<path fill-rule="evenodd" clip-rule="evenodd" d="M9.78906 1.3335C12.1832 1.3335 14.4332 2.26433 16.1232 3.95516C19.6166 7.4485 19.6166 13.1318 16.1232 16.6252C14.4107 18.3385 12.1049 19.2452 9.76906 19.2452C8.49573 19.2452 7.21406 18.976 6.0149 18.421C5.66156 18.2793 5.33073 18.146 5.09323 18.146C4.8199 18.1477 4.4524 18.2743 4.0974 18.3968C3.36906 18.6468 2.4624 18.9585 1.79156 18.2902C1.12323 17.621 1.43156 16.7168 1.6799 15.9893C1.8024 15.631 1.92823 15.261 1.92823 14.981C1.92823 14.751 1.8174 14.4577 1.6474 14.0352C0.0865622 10.6643 0.808229 6.60183 3.45573 3.956C5.14573 2.26516 7.3949 1.3335 9.78906 1.3335ZM9.7899 2.5835C7.72906 2.5835 5.79323 3.38516 4.33906 4.84016C2.06073 7.11683 1.44073 10.6127 2.7949 13.5402C2.9899 14.0227 3.17823 14.4927 3.17823 14.981C3.17823 15.4685 3.01073 15.9593 2.86323 16.3927C2.74156 16.7493 2.5574 17.2877 2.67573 17.406C2.79156 17.526 3.33323 17.3368 3.69073 17.2143C4.1199 17.0677 4.60656 16.8993 5.08906 16.896C5.5724 16.896 6.02823 17.0793 6.51073 17.2735C9.46656 18.6402 12.9624 18.0185 15.2399 15.7418C18.2449 12.7352 18.2449 7.84433 15.2399 4.83933C13.7849 3.38433 11.8499 2.5835 9.7899 2.5835ZM13.079 9.80241C13.539 9.80241 13.9123 10.1749 13.9123 10.6357C13.9123 11.0966 13.539 11.4691 13.079 11.4691C12.619 11.4691 12.2423 11.0966 12.2423 10.6357C12.2423 10.1749 12.6115 9.80241 13.0715 9.80241H13.079ZM9.73831 9.80241C10.1983 9.80241 10.5716 10.1749 10.5716 10.6357C10.5716 11.0966 10.1983 11.4691 9.73831 11.4691C9.27831 11.4691 8.90165 11.0966 8.90165 10.6357C8.90165 10.1749 9.26998 9.80241 9.73081 9.80241H9.73831ZM6.39731 9.80241C6.85731 9.80241 7.23065 10.1749 7.23065 10.6357C7.23065 11.0966 6.85731 11.4691 6.39731 11.4691C5.93731 11.4691 5.56065 11.0966 5.56065 10.6357C5.56065 10.1749 5.92981 9.80241 6.38981 9.80241H6.39731Z" fill="black"/>
</svg>
