<svg xmlns="http://www.w3.org/2000/svg" width="18" height="18" viewBox="0 0 18 18" fill="none">
  <path fill-rule="evenodd" clip-rule="evenodd" d="M11.9948 7.6665L8.53125 11.13C8.421 11.2403 8.27775 11.295 8.13375 11.295C7.989 11.295 7.84575 11.2403 7.7355 11.13L6.00375 9.39825C5.784 9.1785 5.784 8.82225 6.00375 8.6025C6.2235 8.38275 6.579 8.38275 6.79875 8.6025L8.13375 9.93675L11.199 6.87075C11.4188 6.651 11.775 6.651 11.9948 6.87075C12.2145 7.0905 12.2145 7.44675 11.9948 7.6665ZM9 1.875C5.0715 1.875 1.875 5.0715 1.875 9C1.875 12.9293 5.0715 16.125 9 16.125C12.9285 16.125 16.125 12.9293 16.125 9C16.125 5.0715 12.9285 1.875 9 1.875Z" fill="#1A5CEB"/>
</svg>