<svg xmlns="http://www.w3.org/2000/svg" width="16" height="16" viewBox="0 0 16 16" fill="none">
  <path fill-rule="evenodd" clip-rule="evenodd" d="M5.15591 9.46131C5.26422 9.67608 5.48084 9.79977 5.70607 9.79977C5.79899 9.79977 5.89376 9.77885 5.98238 9.73392L7.63223 8.90315C7.83961 8.79854 7.97069 8.58623 7.97069 8.35362V5.88589C7.97069 5.5462 7.695 5.27051 7.3553 5.27051C7.01561 5.27051 6.73992 5.5462 6.73992 5.88589V7.97454L5.42853 8.63485C5.12514 8.78808 5.00268 9.15792 5.15591 9.46131Z" fill="#ED8B18"/>
  <path fill-rule="evenodd" clip-rule="evenodd" d="M2.5221 5.68054C2.62179 5.74085 2.73133 5.76916 2.83964 5.76916C3.04826 5.76916 3.25133 5.66331 3.36703 5.47193C3.52149 5.21716 3.70056 4.9747 3.89933 4.75193C4.12579 4.49839 4.10426 4.10947 3.85072 3.883C3.59718 3.65593 3.20826 3.6787 2.98179 3.93162C2.73195 4.211 2.50733 4.515 2.31349 4.83562C2.13749 5.1267 2.23103 5.50454 2.5221 5.68054Z" fill="#ED8B18"/>
  <path fill-rule="evenodd" clip-rule="evenodd" d="M3.3161 10.3685C3.14133 10.0621 3.00471 9.75682 2.91117 9.46021C2.80902 9.1359 2.46133 8.95682 2.13886 9.05898C1.81517 9.16175 1.63548 9.50759 1.73763 9.83128C1.85763 10.211 2.02933 10.5968 2.24717 10.9784C2.3604 11.1771 2.5684 11.2891 2.78194 11.2891C2.88533 11.2891 2.99056 11.2627 3.08656 11.2079C3.38194 11.0393 3.4841 10.6633 3.3161 10.3685Z" fill="#ED8B18"/>
  <path fill-rule="evenodd" clip-rule="evenodd" d="M7.47171 12.7721C7.09817 12.7721 6.7394 12.7321 6.40586 12.6533C6.35909 12.6423 6.31171 12.6367 6.26432 12.6367H6.25879C5.9191 12.6367 5.64648 12.9124 5.64648 13.2521C5.64648 13.5487 5.85756 13.7961 6.13756 13.8546C6.55909 13.953 7.00832 14.0029 7.47171 14.0029C7.8114 14.0029 8.08709 13.7272 8.08709 13.3875C8.08709 13.0478 7.8114 12.7721 7.47171 12.7721Z" fill="#ED8B18"/>
  <path fill-rule="evenodd" clip-rule="evenodd" d="M4.77234 3.87977C4.87881 3.87977 4.9865 3.85269 5.08434 3.79423C5.36434 3.6293 5.66896 3.49269 5.98896 3.38807C6.31204 3.28223 6.48865 2.93515 6.38342 2.61207C6.27819 2.28961 5.93235 2.11238 5.60742 2.21761C5.20188 2.34992 4.81604 2.52346 4.45911 2.73454C4.16619 2.90684 4.06896 3.28469 4.24188 3.577C4.35634 3.77146 4.56188 3.87977 4.77234 3.87977Z" fill="#ED8B18"/>
  <path fill-rule="evenodd" clip-rule="evenodd" d="M13.4485 7.02069C13.3981 6.70316 13.3248 6.39916 13.2252 6.09208C13.0959 5.68778 12.923 5.29947 12.715 4.9407C12.3981 4.38685 11.9932 3.88962 11.5181 3.4687C11.2368 3.21208 10.9273 2.98316 10.6055 2.79362C10.0541 2.45885 9.45838 2.21701 8.83931 2.07485C8.411 1.97393 7.95746 1.92285 7.49038 1.92285C7.15069 1.92285 6.875 2.19854 6.875 2.53824C6.875 2.87854 7.15069 3.15362 7.49038 3.15362C7.86269 3.15362 8.22146 3.19362 8.56054 3.27362C9.05469 3.38747 9.52792 3.58008 9.97408 3.85024C10.2295 4.00101 10.4701 4.17824 10.6953 4.38377C11.0768 4.72162 11.3968 5.11424 11.6485 5.55547C11.8147 5.84101 11.9507 6.14808 12.0541 6.46993C12.1347 6.71731 12.1925 6.96038 12.2332 7.21392C12.2725 7.46131 12.2922 7.71546 12.291 7.97577C12.2935 8.33454 12.2535 8.67915 12.1692 9.02808C12.1648 9.04592 12.1618 9.06377 12.1587 9.08161C12.051 9.55115 11.8621 10.0078 11.5876 10.4564C11.4461 10.7056 11.2713 10.9432 11.0639 11.169C10.7895 11.4761 10.4725 11.7321 10.1347 11.9567C10.2036 11.641 10.0221 11.3216 9.707 11.2324C9.38085 11.1407 9.03992 11.3302 8.94761 11.6576L8.58392 12.9438C8.58208 12.9499 8.58392 12.9567 8.58208 12.9635C8.55131 13.0761 8.54085 13.1948 8.57962 13.3142C8.65838 13.5542 8.87069 13.7068 9.107 13.7296L10.3045 14.0552C10.3587 14.0699 10.4128 14.0773 10.4664 14.0773C10.7372 14.0773 10.9852 13.897 11.0596 13.6232C11.1285 13.3702 11.027 13.1142 10.8282 12.9684C11.2479 12.6878 11.6412 12.3702 11.9759 11.9948C12.2405 11.7081 12.4695 11.3948 12.6467 11.0822C12.9901 10.5235 13.2325 9.92777 13.3692 9.31115C13.3716 9.29885 13.3735 9.28654 13.3759 9.27361C13.4762 8.841 13.5242 8.41392 13.5218 7.97515C13.5236 7.65392 13.4984 7.33208 13.4485 7.02069Z" fill="#ED8B18"/>
  <path fill-rule="evenodd" clip-rule="evenodd" d="M4.99281 12.0718C4.72511 11.9112 4.48511 11.7352 4.28019 11.5481C4.02911 11.3192 3.63958 11.3377 3.41065 11.5881C3.18173 11.8392 3.19958 12.2281 3.45065 12.4571C3.7165 12.6995 4.02235 12.9254 4.36019 13.1278C4.45927 13.1869 4.56819 13.2152 4.67588 13.2152C4.88511 13.2152 5.08881 13.1087 5.2045 12.9161C5.37865 12.6244 5.2845 12.2466 4.99281 12.0718Z" fill="#ED8B18"/>
  <path fill-rule="evenodd" clip-rule="evenodd" d="M2.05995 8.56919C2.39964 8.56734 2.6741 8.29042 2.67226 7.95072C2.67041 7.58457 2.71103 7.2258 2.79287 6.88488C2.87226 6.55506 2.66857 6.22275 2.3381 6.14336C2.01072 6.06336 1.67534 6.26706 1.59657 6.59752C1.49134 7.03442 1.43903 7.49226 1.44149 7.95688C1.44334 8.29596 1.71841 8.56919 2.05687 8.56919H2.05995Z" fill="#ED8B18"/>
</svg>