<svg xmlns="http://www.w3.org/2000/svg" width="20" height="21" viewBox="0 0 20 21" fill="none">
  <path d="M7.27307 11.8847L9.33516 10.8481V7.76123" stroke="black" stroke-width="1.18269" stroke-linecap="round" stroke-linejoin="round"/>
  <path d="M4.44152 5.8291C4.15949 6.14879 3.90921 6.48472 3.69141 6.84428" stroke="black" stroke-width="1.18269" stroke-linecap="round" stroke-linejoin="round"/>
  <path d="M3.61931 13.7456C3.39043 13.3476 3.19182 12.9165 3.04785 12.4624" stroke="black" stroke-width="1.18269" stroke-linecap="round" stroke-linejoin="round"/>
  <path d="M7.96509 16.969L7.97247 16.9683C8.46047 17.0856 8.96847 17.1425 9.48155 17.141" stroke="black" stroke-width="1.18269" stroke-linecap="round" stroke-linejoin="round"/>
  <path d="M7.38876 3.91113C6.94135 4.05436 6.50944 4.24559 6.10632 4.48258" stroke="black" stroke-width="1.18269" stroke-linecap="round" stroke-linejoin="round"/>
  <path d="M9.50476 3.57718C10.0179 3.5757 10.5251 3.63255 11.0139 3.74994C11.7182 3.90646 12.3908 4.18258 12.9992 4.55617C13.3654 4.77323 13.7087 5.02278 14.021 5.30555C14.5511 5.77807 15.0074 6.33475 15.3677 6.96379C15.6047 7.36765 15.7959 7.79955 15.9406 8.25361C16.0514 8.59102 16.1355 8.93876 16.1924 9.2983C16.2492 9.65784 16.2765 10.0152 16.2751 10.3696C16.2781 10.8894 16.2182 11.3825 16.1008 11.8713L16.1016 11.8787C15.9458 12.5823 15.6682 13.2483 15.2946 13.8566C15.0849 14.2221 14.8288 14.5661 14.546 14.8785C14.0727 15.4085 13.5108 15.8729 12.8811 16.2332C12.4765 16.4636 12.0453 16.6615 11.5979 16.8047" stroke="black" stroke-width="1.18269" stroke-linecap="round" stroke-linejoin="round"/>
  <path d="M5.98672 16.1524C5.62791 15.9413 5.28533 15.6924 4.97302 15.4097" stroke="black" stroke-width="1.18269" stroke-linecap="round" stroke-linejoin="round"/>
  <path d="M2.88466 8.83252C2.76653 9.32127 2.70968 9.8285 2.71263 10.349" stroke="black" stroke-width="1.18269" stroke-linecap="round" stroke-linejoin="round"/>
  <path d="M13.2248 17.234L11.6123 16.7896L12.0671 15.1875" stroke="black" stroke-width="1.18269" stroke-linecap="round" stroke-linejoin="round"/>
</svg>