<svg xmlns="http://www.w3.org/2000/svg" width="16" height="16" viewBox="0 0 16 16" fill="none">
    <path fill-rule="evenodd" clip-rule="evenodd" d="M10.4607 12.2364L5.74067 12.2431H5.74C5.66733 12.2431 5.598 12.2144 5.54667 12.1631C5.49533 12.1117 5.466 12.0417 5.466 11.9691C5.466 10.9717 6.28067 9.96507 8.10069 9.96507C9.92002 9.96507 10.7347 10.9684 10.7347 11.9624C10.7347 12.1137 10.612 12.2364 10.4607 12.2364ZM8.10002 5.69974C9.04269 5.69974 9.80935 6.46641 9.80935 7.40907C9.80935 8.35173 9.04269 9.1184 8.10002 9.1184C7.15802 9.1184 6.39133 8.35173 6.39133 7.40907C6.39133 6.46641 7.15802 5.69974 8.10002 5.69974ZM7.38669 2.74441C7.38669 2.63374 7.47602 2.54441 7.58669 2.54441H8.61402C8.72469 2.54441 8.81402 2.63374 8.81402 2.74441V3.91841C8.81402 4.02841 8.72469 4.11841 8.61402 4.11841H7.58669C7.47602 4.11841 7.38669 4.02841 7.38669 3.91841V2.74441ZM10.5667 2.89974H9.76669V2.69974C9.76669 2.09974 9.30002 1.56641 8.70002 1.56641H7.56669C6.96669 1.56641 6.43333 2.03307 6.43333 2.69974V2.89974H5.63333C3.7 2.89974 2.5 4.03307 2.5 5.96641V11.2997C2.5 13.2331 3.7 14.4331 5.63333 14.4331H10.5667C12.5 14.4331 13.7 13.2997 13.7 11.3664V5.96641C13.6334 4.03307 12.5 2.89974 10.5667 2.89974Z" fill="#181A1B"/>
</svg>
