<svg width="18" height="10" viewBox="0 0 18 10" fill="none" xmlns="http://www.w3.org/2000/svg">
<path d="M4.10851 4.44455L14.1085 4.44455C14.4196 4.44455 14.6641 4.689 14.6641 5.00011C14.6641 5.31122 14.4196 5.55566 14.1085 5.55566L4.10851 5.55566C3.7974 5.55567 3.55295 5.31122 3.55295 5.00011C3.55295 4.689 3.7974 4.44455 4.10851 4.44455Z" fill="white"/>
<path d="M11.3329 0.555447C11.4058 0.554559 11.478 0.568928 11.545 0.597632C11.612 0.626336 11.6722 0.668739 11.7218 0.722113L15.6107 4.611C15.8329 4.83322 15.8329 5.17767 15.6107 5.39989L11.7218 9.27767C11.4996 9.49989 11.1551 9.49989 10.9329 9.27767C10.7107 9.05545 10.7107 8.711 10.9329 8.48878L14.4329 4.98878L10.9329 1.48878C10.7107 1.26656 10.7107 0.922114 10.9329 0.699892C11.044 0.588781 11.1885 0.533225 11.3218 0.533224L11.3329 0.555447Z" fill="white"/>
</svg>
