<svg width="18" height="10" viewBox="0 0 18 10" fill="none" xmlns="http://www.w3.org/2000/svg">
<path d="M13.8915 5.55545H3.89149C3.58038 5.55545 3.33594 5.311 3.33594 4.99989C3.33594 4.68878 3.58038 4.44434 3.89149 4.44434H13.8915C14.2026 4.44434 14.447 4.68878 14.447 4.99989C14.447 5.311 14.2026 5.55545 13.8915 5.55545Z" fill="black"/>
<path d="M6.6671 9.44455C6.59424 9.44544 6.522 9.43107 6.45502 9.40237C6.38805 9.37366 6.32782 9.33126 6.27821 9.27789L2.38932 5.389C2.1671 5.16678 2.1671 4.82233 2.38932 4.60011L6.27821 0.722331C6.50043 0.500109 6.84488 0.500109 7.0671 0.722331C7.28932 0.944553 7.28932 1.289 7.0671 1.51122L3.5671 5.01122L7.0671 8.51122C7.28932 8.73344 7.28932 9.07789 7.0671 9.30011C6.95599 9.41122 6.81154 9.46678 6.67821 9.46678L6.6671 9.44455Z" fill="black"/>
</svg>
