<svg xmlns="http://www.w3.org/2000/svg" width="24" height="25" viewBox="0 0 24 25" fill="none">
    <path fill-rule="evenodd" clip-rule="evenodd" d="M2.96875 20.3078C2.96875 19.8936 3.30454 19.5578 3.71875 19.5578H21.7188C22.1329 19.5578 22.4688 19.8936 22.4688 20.3078C22.4688 20.722 22.1329 21.0578 21.7188 21.0578H3.71875C3.30454 21.0578 2.96875 20.722 2.96875 20.3078Z" fill="black"/>
    <path fill-rule="evenodd" clip-rule="evenodd" d="M7.80469 9.72186C7.80469 9.30764 8.14048 8.97186 8.55469 8.97186H9.41869C9.8329 8.97186 10.1686 9.30764 10.1686 9.72186C10.1686 10.1361 9.8329 10.4719 9.41869 10.4719H8.55469C8.14048 10.4719 7.80469 10.1361 7.80469 9.72186ZM7.80469 13.0446C7.80469 12.6304 8.14048 12.2946 8.55469 12.2946H9.41869C9.8329 12.2946 10.1686 12.6304 10.1686 13.0446C10.1686 13.4588 9.8329 13.7946 9.41869 13.7946H8.55469C8.14048 13.7946 7.80469 13.4588 7.80469 13.0446ZM7.80469 16.3674C7.80469 15.9531 8.14048 15.6174 8.55469 15.6174H9.41869C9.8329 15.6174 10.1686 15.9531 10.1686 16.3674C10.1686 16.7816 9.8329 17.1174 9.41869 17.1174H8.55469C8.14048 17.1174 7.80469 16.7816 7.80469 16.3674Z" fill="black"/>
    <path fill-rule="evenodd" clip-rule="evenodd" d="M15.75 14.1516C15.75 13.7373 16.0858 13.4016 16.5 13.4016H17.364C17.7782 13.4016 18.114 13.7373 18.114 14.1516C18.114 14.5658 17.7782 14.9016 17.364 14.9016H16.5C16.0858 14.9016 15.75 14.5658 15.75 14.1516ZM15.75 17.4743C15.75 17.0601 16.0858 16.7243 16.5 16.7243H17.364C17.7782 16.7243 18.114 17.0601 18.114 17.4743C18.114 17.8885 17.7782 18.2243 17.364 18.2243H16.5C16.0858 18.2243 15.75 17.8885 15.75 17.4743Z" fill="black"/>
    <path fill-rule="evenodd" clip-rule="evenodd" d="M4.24219 7.17002C4.24219 5.71861 5.41863 4.54218 6.87003 4.54218H11.0986C12.55 4.54218 13.7264 5.71861 13.7264 7.17002V20.311C13.7264 20.7252 13.3906 21.061 12.9764 21.061C12.5622 21.061 12.2264 20.7252 12.2264 20.311V7.17002C12.2264 6.54704 11.7215 6.04218 11.0986 6.04218H6.87003C6.24706 6.04218 5.74219 6.54704 5.74219 7.17002V20.311C5.74219 20.7252 5.40641 21.061 4.99219 21.061C4.57798 21.061 4.24219 20.7252 4.24219 20.311V7.17002Z" fill="black"/>
    <path fill-rule="evenodd" clip-rule="evenodd" d="M12.2344 11.1047C12.2344 10.6905 12.5702 10.3547 12.9844 10.3547H18.6617C20.1131 10.3547 21.2895 11.5311 21.2895 12.9825V20.309C21.2895 20.7232 20.9537 21.059 20.5395 21.059C20.1253 21.059 19.7895 20.7232 19.7895 20.309V12.9825C19.7895 12.3595 19.2846 11.8547 18.6617 11.8547H13.7344V20.309C13.7344 20.7232 13.3986 21.059 12.9844 21.059C12.5702 21.059 12.2344 20.7232 12.2344 20.309V11.1047Z" fill="black"/>
</svg>
