<svg xmlns="http://www.w3.org/2000/svg" width="25" height="22" viewBox="0 0 25 22" fill="none">
    <path d="M2.2075 21.715C2.2175 21.7 2.2725 21.6325 2.325 21.5675C2.7075 21.1125 2.995 20.3725 3.15 19.44C3.2525 18.8275 3.2575 18.635 3.2575 16.3V14.125H2.2125C1.2575 14.125 1.1475 14.13 0.96 14.1675C0.665 14.23 0.36 14.3975 0.155 14.6125C-0.0075 14.785 -0.0025 14.795 0.0075 14.2725C0.02 13.84 0.025 13.7925 0.0875 13.5575C0.1875 13.185 0.325 12.9075 0.5325 12.66C0.815 12.32 1.1025 12.13 1.5125 12.0025C1.6 11.9775 1.785 11.9675 2.44 11.9625L3.2575 11.95V10.8675V9.78249L2.105 9.78999L0.9475 9.79749L0.7475 9.87749C0.51 9.97249 0.4025 10.0425 0.17 10.25L0 10.4025L0.01 9.92499C0.0225 9.48249 0.025 9.43249 0.0875 9.20749C0.305 8.41249 0.83 7.84499 1.5225 7.65999C1.695 7.61249 1.7625 7.60999 2.485 7.59999L3.2575 7.58999V5.34999C3.2575 3.99749 3.25 2.99999 3.2375 2.82999C3.225 2.67499 3.185 2.38499 3.15 2.18249C2.9875 1.24999 2.695 0.547489 2.275 0.0924892L2.19 -9.53674e-06H6.4175C8.945 -9.53674e-06 10.835 0.00998878 11.1125 0.0224895C11.6 0.0474892 12.6875 0.154991 12.9325 0.207491C13.01 0.22249 13.155 0.244989 13.25 0.259989C13.4525 0.289989 13.7875 0.359991 14.27 0.482491C14.95 0.652491 15.57 0.86499 16.1775 1.13499C16.3675 1.21999 16.9125 1.49749 17.0575 1.58499C17.135 1.62999 17.2275 1.68499 17.2625 1.70249C17.36 1.75499 17.5225 1.85999 17.76 2.02999C17.8775 2.11499 17.995 2.19749 18.02 2.21499C18.125 2.28499 18.4875 2.58749 18.6525 2.73999C19.28 3.31749 19.805 3.95999 20.2125 4.64749C20.27 4.74749 20.345 4.87249 20.3775 4.92499C20.46 5.06499 20.8 5.76499 20.8325 5.86999C20.8475 5.91749 20.8675 5.96749 20.8775 5.97749C20.9425 6.06249 21.3175 7.24249 21.3625 7.49999C21.3775 7.58249 21.385 7.59499 21.4475 7.60749C21.4875 7.61499 22.07 7.61499 22.7425 7.60999C24.0875 7.59999 24.0875 7.59999 24.385 7.46249C24.5525 7.38499 24.6025 7.34999 24.7875 7.18249C25.03 6.96499 25.0075 6.92999 24.9925 7.47499C24.9825 7.79499 24.97 7.99249 24.9475 8.07249C24.8625 8.37999 24.8425 8.44499 24.7675 8.59999C24.5225 9.13499 24.1125 9.51749 23.5875 9.69999L23.3825 9.77499L22.5475 9.78499L21.715 9.79749L21.725 10.09C21.735 10.475 21.735 11.2375 21.7225 11.63L21.7125 11.945L22.8275 11.95C23.7825 11.955 23.96 11.95 24.065 11.9225C24.38 11.835 24.5925 11.715 24.8525 11.4775L24.9975 11.3425V11.7125C24.9975 12.1525 24.975 12.3475 24.885 12.6375C24.7075 13.225 24.3575 13.6625 23.8575 13.9325C23.5325 14.1075 23.5125 14.1125 22.395 14.12C21.74 14.125 21.3975 14.135 21.38 14.15C21.365 14.165 21.3525 14.19 21.3525 14.21C21.3525 14.23 21.315 14.3875 21.265 14.5575C20.68 16.625 19.5875 18.2675 17.99 19.485C17.7725 19.6525 17.24 20.005 17.025 20.125C16.9425 20.1725 16.8525 20.2225 16.83 20.2375C16.725 20.295 16.1225 20.59 15.9725 20.6525C15.8825 20.6925 15.765 20.7425 15.7125 20.7625C14.83 21.145 13.35 21.5075 12.22 21.62C12.035 21.6375 11.79 21.665 11.6775 21.675C11.1675 21.7325 10.46 21.74 6.4425 21.74C3.0475 21.74 2.195 21.7325 2.2075 21.715ZM10.475 20.6325C11.32 20.5825 11.84 20.5175 12.4475 20.37C14.3025 19.93 15.6075 19 16.555 17.445C16.6425 17.3 17.0125 16.545 17.0675 16.3925C17.33 15.685 17.4575 15.265 17.57 14.71C17.5975 14.575 17.635 14.395 17.6525 14.31C17.67 14.2275 17.6775 14.15 17.67 14.1425C17.6575 14.1325 15.1475 14.1275 12.0875 14.13L6.525 14.135L6.5175 17.3475C6.515 19.1125 6.5175 20.58 6.525 20.6075L6.535 20.655H8.3125C9.2875 20.655 10.2625 20.645 10.475 20.6325ZM17.9125 11.875C17.93 11.7675 17.93 9.94249 17.9125 9.85249L17.8975 9.78499L12.21 9.78999L6.525 9.79749L6.52 10.8575C6.515 11.44 6.52 11.925 6.525 11.935C6.5325 11.9475 8.955 11.955 12.2175 11.955H17.8975L17.9125 11.875ZM17.6575 7.58249C17.67 7.54499 17.61 7.23749 17.4875 6.73749C17.3475 6.17499 17.1575 5.60749 16.965 5.18749C16.87 4.97249 16.6325 4.50749 16.575 4.41999C16.5475 4.37999 16.4675 4.25249 16.3975 4.13999C15.9475 3.43499 15.305 2.79249 14.5725 2.31749C14.305 2.14749 13.755 1.85749 13.6075 1.81249C13.5775 1.80499 13.545 1.78999 13.5325 1.77999C13.515 1.76499 13.2875 1.67999 13.0225 1.58499C12.535 1.41249 11.6075 1.22499 10.8625 1.14749C10.38 1.09999 10.3025 1.09749 8.445 1.09749H6.5225V4.33999V7.58499L12.045 7.59499C15.0825 7.59999 17.585 7.60749 17.605 7.61249C17.6275 7.61499 17.65 7.59999 17.6575 7.58249Z" fill="#1F1F1F"/>
</svg>
