<svg xmlns="http://www.w3.org/2000/svg" width="24" height="24" viewBox="0 0 24 24" fill="none">
  <path fill-rule="evenodd" clip-rule="evenodd" d="M9.85 13.5C5.45 13.5 3.25 14.8 3.25 17.4C3.25 18.9 4.35 20 5.75 20H13.95C15.35 20 16.35 19 16.45 17.4C16.45 14.8 14.25 13.5 9.85 13.5Z" fill="#1A5CEB"/>
  <path fill-rule="evenodd" clip-rule="evenodd" d="M17.9508 13.6992C17.6508 13.6992 17.3508 13.7992 17.2508 14.0992C17.1508 14.2992 17.1508 14.6992 17.2508 14.8992C18.2508 16.3992 18.1508 17.7992 17.7508 18.5992C17.6508 18.7992 17.6508 19.0992 17.8508 19.2992C17.9508 19.4992 18.2508 19.5992 18.4508 19.5992H20.0508C21.4508 19.5992 22.4508 18.5992 22.4508 17.0992C22.4508 13.9992 19.0508 13.6992 17.9508 13.6992Z" fill="#1A5CEB"/>
  <path fill-rule="evenodd" clip-rule="evenodd" d="M9.85193 11.4C11.9519 11.4 13.5519 9.8 13.5519 7.7C13.5519 5.6 11.9519 4 9.85193 4C7.75193 4 6.15193 5.6 6.15193 7.7C6.05192 8.6 6.45193 9.5 7.15193 10.2C7.85193 11 8.85193 11.4 9.85193 11.4Z" fill="#1A5CEB"/>
  <path fill-rule="evenodd" clip-rule="evenodd" d="M17.8492 11.4992C19.4492 11.4992 20.6492 10.2992 20.6492 8.59922C20.6492 6.89922 19.4492 5.69922 17.8492 5.69922C16.2492 5.69922 14.9492 6.89922 14.9492 8.59922C14.9492 10.2992 16.2492 11.4992 17.8492 11.4992Z" fill="#1A5CEB"/>
</svg>