<svg xmlns="http://www.w3.org/2000/svg" width="14" height="14" viewBox="0 0 14 14" fill="none">
  <path d="M8.35156 2.15332V3.68727" stroke="#E0E0E0" stroke-width="0.923077" stroke-linecap="round" stroke-linejoin="round"/>
  <path d="M4.58594 2.15332V3.68727" stroke="#E0E0E0" stroke-width="0.923077" stroke-linecap="round" stroke-linejoin="round"/>
  <path d="M10.6547 6.39634V5.0536C10.6589 3.65167 9.80807 2.8894 8.43548 2.8894H4.48902C3.12009 2.8894 2.26562 3.65167 2.26562 5.0536V9.27092C2.26562 10.6949 3.12009 11.475 4.48902 11.475H5.48439" stroke="#E0E0E0" stroke-width="0.923077" stroke-linecap="round" stroke-linejoin="round"/>
  <path fill-rule="evenodd" clip-rule="evenodd" d="M11.1969 9.74373C11.1969 10.9047 10.2555 11.8461 9.09456 11.8461C7.93363 11.8461 6.99219 10.9047 6.99219 9.74373C6.99219 8.5828 7.93363 7.64136 9.09456 7.64136C10.2555 7.64136 11.1969 8.5828 11.1969 9.74373Z" stroke="#E0E0E0" stroke-width="0.923077" stroke-linecap="round" stroke-linejoin="round"/>
  <path d="M9.75078 10.2899L9.08594 9.89276V9.03833" stroke="#E0E0E0" stroke-width="0.923077" stroke-linecap="round" stroke-linejoin="round"/>
  <path d="M8.66525 5.72742H4.26562" stroke="#E0E0E0" stroke-width="0.923077" stroke-linecap="round" stroke-linejoin="round"/>
</svg>