<svg xmlns="http://www.w3.org/2000/svg" width="17" height="16" viewBox="0 0 17 16" fill="none">
  <path d="M14.1606 7.72033C14.1606 4.53894 11.582 1.96033 8.40062 1.96033C5.21924 1.96033 2.64062 4.53894 2.64062 7.72033C2.64062 10.9017 5.21924 13.4803 8.40062 13.4803C11.582 13.4803 14.1606 10.9017 14.1606 7.72033Z" stroke="#E0E0E0" stroke-width="1.11304" stroke-linecap="round" stroke-linejoin="round"/>
  <path d="M9.56139 5.9126H7.88133C7.3813 5.9126 6.97656 6.31798 6.97656 6.81738C6.97656 7.31677 7.3813 7.72215 7.88133 7.72215H8.91506C9.41509 7.72215 9.81983 8.12752 9.81983 8.62698C9.81983 9.12701 9.41509 9.53175 8.91506 9.53175H7.23499" stroke="#E0E0E0" stroke-width="1.11304" stroke-linecap="round" stroke-linejoin="round"/>
  <path d="M8.39844 9.53132V10.291M8.39844 5.14868V5.91523" stroke="#E0E0E0" stroke-width="1.11304" stroke-linecap="round" stroke-linejoin="round"/>
</svg>