<svg xmlns="http://www.w3.org/2000/svg" width="17" height="16" viewBox="0 0 17 16" fill="none">
  <path d="M2.38672 10.4006C2.38672 9.85733 2.38672 9.58565 2.4413 9.36165C2.61113 8.66475 3.15524 8.12062 3.85213 7.95083C4.07615 7.89624 4.34778 7.89624 4.89106 7.89624H11.4023C11.9456 7.89624 12.2173 7.89624 12.4413 7.95083C13.1382 8.12062 13.6823 8.66475 13.8521 9.36165C13.9067 9.58565 13.9067 9.85733 13.9067 10.4006C13.9067 10.6904 13.9067 10.8352 13.8776 10.9547C13.7871 11.3263 13.4968 11.6166 13.1252 11.7071C13.0057 11.7362 12.8608 11.7362 12.5711 11.7362H3.72237C3.43262 11.7362 3.28774 11.7362 3.16827 11.7071C2.7966 11.6166 2.50641 11.3263 2.41583 10.9547C2.38672 10.8352 2.38672 10.6904 2.38672 10.4006Z" stroke="#E0E0E0" stroke-width="1.11304" stroke-linecap="round" stroke-linejoin="round"/>
  <path d="M12.4943 12.7359V12.0319M3.80859 12.0319V12.7359" stroke="#E0E0E0" stroke-width="1.11304" stroke-linecap="round" stroke-linejoin="round"/>
  <path d="M12.4943 7.89642V4.64644C12.4943 4.25314 12.4943 4.05649 12.4376 3.89885C12.3406 3.62965 12.1287 3.41771 11.8595 3.32079C11.7018 3.26404 11.5052 3.26404 11.1119 3.26404H5.19099C4.79769 3.26404 4.60105 3.26404 4.4434 3.32079C4.17421 3.41771 3.96226 3.62965 3.86535 3.89885C3.80859 4.05649 3.80859 4.25314 3.80859 4.64644V7.89642" stroke="#E0E0E0" stroke-width="1.11304" stroke-linecap="round" stroke-linejoin="round"/>
</svg>