<svg xmlns="http://www.w3.org/2000/svg" width="16" height="16" viewBox="0 0 16 16" fill="none">
  <path fill-rule="evenodd" clip-rule="evenodd" d="M5.59125 1.50002H9.35755C9.86528 1.50002 10.3519 1.70613 10.7042 2.07341C10.7042 2.07334 10.7043 2.07348 10.7042 2.07341L13.2325 4.7069C13.5649 5.05429 13.7521 5.51713 13.7521 5.99893V11.4407C13.7627 13.0801 12.4722 14.4329 10.8342 14.4996C10.8304 14.4997 10.8266 14.4999 10.8228 14.4999C10.8198 14.5 10.8168 14.5 10.8138 14.5L5.5299 14.4993L5.51887 14.4992C3.86314 14.4627 2.5498 13.0923 2.5832 11.4371V4.43764L2.58335 4.42571C2.62226 2.79435 3.95914 1.49362 5.59125 1.50002ZM10.8031 13.5C11.8985 13.4503 12.7599 12.5437 12.7521 11.4459L12.752 11.4424V5.99893C12.752 5.77645 12.6656 5.56094 12.5104 5.39854C12.5102 5.39842 12.5104 5.39864 12.5104 5.39854L9.98282 2.76598C9.82015 2.59631 9.59442 2.50002 9.35755 2.50002H5.58808C4.50216 2.49536 3.61208 3.35918 3.5832 4.44393V11.4424L3.58308 11.4534C3.55873 12.5572 4.4326 13.4722 5.53573 13.4993L10.8031 13.5Z" fill="#000"/>
  <path fill-rule="evenodd" clip-rule="evenodd" d="M5.61606 7.78125C5.61606 7.50512 5.83991 7.28125 6.11606 7.28125H8.31041C8.58661 7.28125 8.81041 7.50512 8.81041 7.78125C8.81041 8.05738 8.58661 8.28125 8.31041 8.28125H6.11606C5.83991 8.28125 5.61606 8.05738 5.61606 7.78125ZM5.61701 10.2352C5.61701 9.95905 5.84087 9.73518 6.11701 9.73518H9.64761C9.92374 9.73518 10.1476 9.95905 10.1476 10.2352C10.1476 10.5113 9.92374 10.7352 9.64761 10.7352H6.11701C5.84087 10.7352 5.61701 10.5113 5.61701 10.2352Z" fill="#000"/>
  <path fill-rule="evenodd" clip-rule="evenodd" d="M9.67856 1.54187C9.95469 1.54187 10.1786 1.76573 10.1786 2.04187V3.9703C10.1781 4.63516 10.7165 5.17528 11.3819 5.17689H13.2072C13.4834 5.17689 13.7072 5.40075 13.7072 5.67689C13.7072 5.95303 13.4834 6.17689 13.2072 6.17689H11.3802C10.1636 6.17438 9.17796 5.18751 9.17856 3.9703C9.17856 3.97024 9.17856 3.97035 9.17856 3.9703V2.04187C9.17856 1.76573 9.40243 1.54187 9.67856 1.54187Z" fill="#000"/>
</svg>