<svg xmlns="http://www.w3.org/2000/svg" width="20" height="20" viewBox="0 0 20 20" fill="none">
  <path d="M15.6415 8.58191V7.49866C15.6415 7.0584 15.4712 6.63434 15.1656 6.3157L12.0058 3.02462C11.6839 2.68895 11.2388 2.50003 10.7742 2.50003H6.06421C4.36394 2.49273 2.97097 3.84759 2.93043 5.54705V14.303C2.89313 16.03 4.26178 17.4611 5.98881 17.4992C6.01394 17.4992 9.3245 17.5 9.3245 17.5" stroke="black" stroke-width="1.25" stroke-linecap="round" stroke-linejoin="round"/>
  <path d="M11.177 2.55176V4.96229C11.1762 6.13877 12.1289 7.0931 13.3054 7.09553H15.5878" stroke="black" stroke-width="1.25" stroke-linecap="round" stroke-linejoin="round"/>
  <path d="M10.455 11.7577H6.51446M8.57066 8.31738H6.51367" stroke="black" stroke-width="1.25" stroke-linecap="round" stroke-linejoin="round"/>
  <path d="M14.5301 11.7656C14.7732 11.3445 15.3117 11.2001 15.7328 11.4433L16.3821 11.8181C16.8032 12.0613 16.9475 12.5998 16.7044 13.0209L14.6809 16.5255C14.4868 16.8618 14.177 17.1161 13.8094 17.2409L13.2683 17.4246C12.9019 17.549 12.5099 17.3226 12.4344 16.9431L12.3229 16.3827C12.2473 16.0019 12.3125 15.6065 12.5067 15.2701L14.5301 11.7656Z" stroke="black" stroke-width="1.25" stroke-linecap="round" stroke-linejoin="round"/>
</svg>