<svg xmlns="http://www.w3.org/2000/svg" width="17" height="17" viewBox="0 0 17 17" fill="none">
  <path d="M13.9731 8.21996C13.9731 5.03857 11.3945 2.45996 8.21312 2.45996C5.03174 2.45996 2.45312 5.03857 2.45312 8.21996C2.45312 11.4013 5.03174 13.98 8.21312 13.98C11.3945 13.98 13.9731 11.4013 13.9731 8.21996Z" stroke="#C7C7C7" stroke-linecap="round" stroke-linejoin="round"/>
  <path d="M9.37585 6.41248H7.69578C7.19575 6.41248 6.79102 6.81786 6.79102 7.31726C6.79102 7.81665 7.19575 8.22202 7.69578 8.22202H8.72951C9.22954 8.22202 9.63428 8.6274 9.63428 9.12686C9.63428 9.62689 9.22954 10.0316 8.72951 10.0316H7.04945" stroke="#C7C7C7" stroke-linecap="round" stroke-linejoin="round"/>
  <path d="M8.21289 10.0314V10.7911M8.21289 5.6488V6.41535" stroke="#C7C7C7" stroke-linecap="round" stroke-linejoin="round"/>
</svg>