<svg xmlns="http://www.w3.org/2000/svg" width="17" height="16" viewBox="0 0 17 16" fill="none">
  <path d="M14.1599 7.71999C14.1599 4.5386 11.5813 1.95999 8.39989 1.95999C5.2185 1.95999 2.63989 4.5386 2.63989 7.71999C2.63989 10.9014 5.2185 13.48 8.39989 13.48C11.5813 13.48 14.1599 10.9014 14.1599 7.71999Z" stroke="#E0E0E0" stroke-width="1.11304" stroke-linecap="round" stroke-linejoin="round"/>
  <path d="M9.56335 5.91251H7.88328C7.38325 5.91251 6.97852 6.31789 6.97852 6.81729C6.97852 7.31668 7.38325 7.72205 7.88328 7.72205H8.91701C9.41704 7.72205 9.82178 8.12743 9.82178 8.62689C9.82178 9.12692 9.41704 9.53165 8.91701 9.53165H7.23695" stroke="#E0E0E0" stroke-width="1.11304" stroke-linecap="round" stroke-linejoin="round"/>
  <path d="M8.3999 9.53139V10.2911M8.3999 5.14874V5.91529" stroke="#E0E0E0" stroke-width="1.11304" stroke-linecap="round" stroke-linejoin="round"/>
</svg>