<svg xmlns="http://www.w3.org/2000/svg" width="6" height="5" viewBox="0 0 6 5" fill="none">
  <path d="M5.40039 2.5C5.40039 2.99445 5.25377 3.4778 4.97906 3.88892C4.70436 4.30005 4.31391 4.62048 3.8571 4.8097C3.40028 4.99892 2.89762 5.04843 2.41266 4.95196C1.92771 4.8555 1.48226 4.6174 1.13262 4.26776C0.782993 3.91813 0.544892 3.47268 0.448429 2.98772C0.351966 2.50277 0.401474 2.00011 0.590693 1.54329C0.779912 1.08648 1.10034 0.696029 1.51147 0.421325C1.92259 0.146622 2.40594 0 2.90039 0C3.56343 0 4.19932 0.263392 4.66816 0.732233C5.137 1.20107 5.40039 1.83696 5.40039 2.5Z" fill="#333333"/>
</svg>