<svg xmlns="http://www.w3.org/2000/svg" width="4" height="4" viewBox="0 0 4 4" fill="none">
  <path d="M3.66666 1.99998C3.66666 2.32961 3.56891 2.65185 3.38578 2.92593C3.20264 3.20001 2.94234 3.41363 2.6378 3.53978C2.33326 3.66592 1.99815 3.69893 1.67484 3.63462C1.35154 3.57031 1.05457 3.41158 0.821484 3.17849C0.588397 2.9454 0.429662 2.64843 0.365354 2.32513C0.301045 2.00183 0.33405 1.66672 0.460196 1.36217C0.586342 1.05763 0.799964 0.797332 1.07405 0.614197C1.34813 0.431061 1.67036 0.333313 2 0.333313C2.44202 0.333313 2.86594 0.508907 3.17851 0.821468C3.49107 1.13403 3.66666 1.55795 3.66666 1.99998Z" fill="#1A5CEB"/>
</svg>