<svg width="17" height="17" viewBox="0 0 17 17" fill="none" xmlns="http://www.w3.org/2000/svg">
<path d="M8.00804 14.8153H6.30802C5.4586 14.8143 4.64426 14.4764 4.04362 13.8757C3.44298 13.2751 3.10506 12.4607 3.104 11.6113V5.204C3.10506 4.35457 3.44298 3.54023 4.04362 2.93959C4.64426 2.33896 5.4586 2.00106 6.30802 2H10.9667C11.8161 2.00106 12.6304 2.33896 13.2311 2.93959C13.8317 3.54023 14.1696 4.35457 14.1706 5.204V7.41267C14.1706 7.54527 14.118 7.67247 14.0242 7.7662C13.9304 7.86 13.8032 7.91267 13.6706 7.91267C13.538 7.91267 13.4109 7.86 13.3172 7.7662C13.2234 7.67247 13.1706 7.54527 13.1706 7.41267V5.204C13.17 4.61968 12.9376 4.0595 12.5244 3.64632C12.1112 3.23315 11.551 3.00071 10.9667 3H6.30802C5.7237 3.00071 5.1635 3.23315 4.75032 3.64632C4.33715 4.0595 4.10471 4.61968 4.104 5.204V11.6113C4.10471 12.1957 4.33715 12.7559 4.75032 13.169C5.1635 13.5822 5.7237 13.8146 6.30802 13.8153H8.00937C8.14197 13.8153 8.2691 13.868 8.3629 13.9618C8.45664 14.0555 8.50937 14.1827 8.50937 14.3153C8.50937 14.4479 8.45664 14.5751 8.3629 14.6689C8.2691 14.7627 8.14197 14.8153 8.00937 14.8153H8.00804Z" fill="#1F1F1F"/>
<path d="M10.9757 14.9998C10.8296 14.9992 10.6853 14.968 10.5521 14.908C10.4188 14.8481 10.2997 14.7608 10.2024 14.6519C10.1051 14.543 10.0317 14.4148 9.98721 14.2756C9.94261 14.1366 9.92781 13.9896 9.94367 13.8444L9.99641 13.3471C10.0332 13.0029 10.1775 12.6791 10.409 12.4218L12.5177 10.1191C12.7271 9.8925 13.0179 9.75824 13.3263 9.7457C13.6346 9.73324 13.9353 9.8435 14.1623 10.0524L14.607 10.4644C14.8328 10.6742 14.9661 10.9648 14.9779 11.2728C14.9897 11.5807 14.8788 11.8808 14.6697 12.1071L12.5904 14.3738C12.3402 14.653 12.0023 14.8386 11.6323 14.8998L11.1503 14.9818C11.0927 14.9923 11.0343 14.9984 10.9757 14.9998ZM13.3757 10.7438C13.3532 10.7438 13.331 10.7484 13.3103 10.7574C13.2897 10.7663 13.2711 10.7794 13.2557 10.7958L11.1531 13.0924C11.0632 13.1936 11.0075 13.3205 10.9937 13.4551L10.9403 13.9524L11.469 13.9178C11.6163 13.893 11.7507 13.819 11.8503 13.7078L13.9363 11.4304C13.9512 11.4148 13.9628 11.3963 13.9705 11.3761C13.9782 11.356 13.9817 11.3344 13.9811 11.3129C13.9804 11.2913 13.9755 11.2701 13.9665 11.2504C13.9576 11.2308 13.9449 11.2131 13.9291 11.1984L13.485 10.7871C13.4553 10.7595 13.4163 10.744 13.3757 10.7438Z" fill="#1F1F1F"/>
<path d="M8.70763 10.2746H6.96631C6.8337 10.2746 6.70652 10.2219 6.61275 10.1282C6.51898 10.0344 6.46631 9.90722 6.46631 9.77462C6.46631 9.64196 6.51898 9.51482 6.61275 9.42109C6.70652 9.32729 6.8337 9.27463 6.96631 9.27463H8.70763C8.84023 9.27463 8.96743 9.32729 9.06123 9.42109C9.15496 9.51482 9.20763 9.64196 9.20763 9.77462C9.20763 9.90722 9.15496 10.0344 9.06123 10.1282C8.96743 10.2219 8.84023 10.2746 8.70763 10.2746ZM10.3023 7.36196H6.969C6.83638 7.36196 6.7092 7.30929 6.61544 7.21549C6.52167 7.12173 6.469 6.99455 6.469 6.86194C6.469 6.72933 6.52167 6.60215 6.61544 6.50838C6.7092 6.41461 6.83638 6.36194 6.969 6.36194H10.3023C10.435 6.36194 10.5621 6.41461 10.6558 6.50838C10.7496 6.60215 10.8023 6.72933 10.8023 6.86194C10.8023 6.99455 10.7496 7.12173 10.6558 7.21549C10.5621 7.30929 10.435 7.36196 10.3023 7.36196Z" fill="#1F1F1F"/>
</svg>
