<svg width="53" height="53" viewBox="0 0 53 53" fill="none" xmlns="http://www.w3.org/2000/svg">
<path d="M38.4766 7V20.1993" stroke="black" stroke-width="3.25" stroke-linecap="round" stroke-linejoin="round"/>
<path d="M33.2539 12.2397L38.4704 7L43.689 12.2397" stroke="black" stroke-width="3.25" stroke-linecap="round" stroke-linejoin="round"/>
<path d="M7.01562 34.261L15.572 28.0494C18.7411 25.7469 23.072 25.9577 26.007 28.5365L42.6771 43.4923" stroke="black" stroke-width="3.25" stroke-linecap="round" stroke-linejoin="round"/>
<path d="M46.0005 34.0554C44.1829 32.3855 41.3533 29.7246 37.5074 31.7951C35.5212 32.8704 33.7691 33.9921 32.7969 34.6458" stroke="black" stroke-width="3.25" stroke-linecap="round" stroke-linejoin="round"/>
<path d="M45.9991 24.2473V35.1294C45.9991 41.5098 42.0057 46.0093 35.6273 46.0093H17.3528C10.9725 46.0093 7 41.5098 7 35.1294V17.9112C7 11.5308 10.9935 7.03125 17.3528 7.03125H25.0637" stroke="black" stroke-width="3.25" stroke-linecap="round" stroke-linejoin="round"/>
</svg>
