<svg width="16" height="16" viewBox="0 0 16 16" fill="none" xmlns="http://www.w3.org/2000/svg">
<path d="M5.19256 5.33247L10.8059 5.33247C11.0275 5.33215 11.2447 5.3946 11.4323 5.51258C11.6198 5.63056 11.7702 5.79926 11.8659 5.99914C11.9779 6.2363 12.0211 6.50016 11.9904 6.76065C11.9598 7.02114 11.8566 7.26778 11.6926 7.47247L8.88589 10.8725C8.77575 10.9996 8.63957 11.1015 8.48659 11.1713C8.33361 11.2412 8.1674 11.2773 7.99922 11.2773C7.83105 11.2773 7.66484 11.2412 7.51186 11.1713C7.35888 11.1015 7.2227 10.9996 7.11256 10.8725L4.30589 7.47247C4.14188 7.26779 4.03868 7.02114 4.00803 6.76065C3.97739 6.50016 4.02053 6.2363 4.13256 5.99914C4.22825 5.79926 4.3786 5.63056 4.56619 5.51258C4.75378 5.3946 4.97095 5.33215 5.19256 5.33247Z" fill="black"/>
</svg>
