<svg width="138" height="90" viewBox="0 0 138 90" fill="none" xmlns="http://www.w3.org/2000/svg">
<g opacity="0.4">
<rect x="84" y="18.5" width="54" height="54" rx="3.76941" fill="url(#paint0_linear_9007_56564)"/>
<path d="M105.806 43.2675V49.2732C105.806 50.4446 106.755 51.3944 107.927 51.3944H114.074C115.245 51.3944 116.195 50.4446 116.195 49.2732V43.2675M117.231 44.0845L112.021 39.9601C111.423 39.4873 110.578 39.4873 109.98 39.9601L104.77 44.0845" stroke="#A6ABBF" stroke-width="1.03846" stroke-linecap="round" stroke-linejoin="round"/>
</g>
<g opacity="0.4">
<rect y="18.5" width="54" height="54" rx="3.76941" fill="url(#paint1_linear_9007_56564)"/>
<path d="M21.8056 43.2675V49.2732C21.8056 50.4446 22.7554 51.3944 23.9267 51.3944H30.074C31.2454 51.3944 32.1952 50.4446 32.1952 49.2732V43.2675M33.2311 44.0845L28.0208 39.9601C27.4227 39.4873 26.5779 39.4873 25.9798 39.9601L20.7695 44.0845" stroke="#A6ABBF" stroke-width="1.03846" stroke-linecap="round" stroke-linejoin="round"/>
</g>
<g filter="url(#filter0_f_9007_56564)">
<rect x="102" y="18.5" width="8" height="53" fill="#A6ABBF" fill-opacity="0.8"/>
</g>
<g filter="url(#filter1_f_9007_56564)">
<rect x="34" y="18.5" width="8" height="53" fill="#A6ABBF" fill-opacity="0.8"/>
</g>
<rect x="30" y="4.5" width="78" height="78" rx="5.44471" fill="url(#paint2_linear_9007_56564)"/>
<rect x="30.25" y="4.75" width="77.5" height="77.5" rx="5.19471" stroke="url(#paint3_linear_9007_56564)" stroke-opacity="0.3" stroke-width="0.5"/>
<path d="M61.4965 40.2759V48.9509C61.4965 50.6429 62.8684 52.0148 64.5604 52.0148H73.4398C75.1318 52.0148 76.5037 50.6429 76.5037 48.9509V40.2759M78 41.4561L70.4741 35.4986C69.6101 34.8156 68.3899 34.8156 67.5259 35.4986L60 41.4561" stroke="#A6ABBF" stroke-width="1.5" stroke-linecap="round" stroke-linejoin="round"/>
<path d="M66.4141 47.9289C66.4141 46.5006 67.5729 45.3418 69.0012 45.3418C70.4305 45.3418 71.5894 46.5006 71.5894 47.9289" stroke="#A6ABBF" stroke-width="1.5" stroke-linecap="round" stroke-linejoin="round"/>
<defs>
<filter id="filter0_f_9007_56564" x="84" y="0.5" width="44" height="89" filterUnits="userSpaceOnUse" color-interpolation-filters="sRGB">
<feFlood flood-opacity="0" result="BackgroundImageFix"/>
<feBlend mode="normal" in="SourceGraphic" in2="BackgroundImageFix" result="shape"/>
<feGaussianBlur stdDeviation="9" result="effect1_foregroundBlur_9007_56564"/>
</filter>
<filter id="filter1_f_9007_56564" x="16" y="0.5" width="44" height="89" filterUnits="userSpaceOnUse" color-interpolation-filters="sRGB">
<feFlood flood-opacity="0" result="BackgroundImageFix"/>
<feBlend mode="normal" in="SourceGraphic" in2="BackgroundImageFix" result="shape"/>
<feGaussianBlur stdDeviation="9" result="effect1_foregroundBlur_9007_56564"/>
</filter>
<linearGradient id="paint0_linear_9007_56564" x1="111" y1="18.5" x2="111" y2="72.5" gradientUnits="userSpaceOnUse">
<stop stop-color="#E8EAEE"/>
<stop offset="1" stop-color="#FAFAFB"/>
</linearGradient>
<linearGradient id="paint1_linear_9007_56564" x1="27" y1="18.5" x2="27" y2="72.5" gradientUnits="userSpaceOnUse">
<stop stop-color="#E8EAEE"/>
<stop offset="1" stop-color="#FAFAFB"/>
</linearGradient>
<linearGradient id="paint2_linear_9007_56564" x1="69" y1="4.5" x2="69" y2="82.5" gradientUnits="userSpaceOnUse">
<stop stop-color="#E8EAEE"/>
<stop offset="1" stop-color="white"/>
</linearGradient>
<linearGradient id="paint3_linear_9007_56564" x1="69" y1="4.5" x2="69" y2="82.5" gradientUnits="userSpaceOnUse">
<stop stop-color="#A6ABBF"/>
<stop offset="1" stop-color="#A6ABBF" stop-opacity="0"/>
</linearGradient>
</defs>
</svg>
