<svg width="138" height="89" viewBox="0 0 138 89" fill="none" xmlns="http://www.w3.org/2000/svg">
<g opacity="0.4">
<rect x="84" y="18" width="54" height="54" rx="3.76941" fill="url(#paint0_linear_4973_35487)"/>
<path d="M111.062 45.9233C112.79 45.9233 114.19 44.5227 114.19 42.795C114.19 41.0672 112.79 39.6666 111.062 39.6666C109.334 39.6666 107.934 41.0672 107.934 42.795C107.934 44.5227 109.334 45.9233 111.062 45.9233Z" stroke="#A6ABBF" stroke-linecap="round" stroke-linejoin="round"/>
<path d="M106.791 50.3332C106.717 49.9085 106.747 49.4683 106.747 49.0393C106.747 47.4225 108.058 46.1119 109.675 46.1119H112.525C114.142 46.1119 115.453 47.4225 115.453 49.0393C115.453 49.4683 115.483 49.9085 115.41 50.3332" stroke="#A6ABBF" stroke-linecap="round" stroke-linejoin="round"/>
</g>
<g opacity="0.4">
<rect y="18" width="54" height="54" rx="3.76941" fill="url(#paint1_linear_4973_35487)"/>
<path d="M27.0619 45.9233C28.7897 45.9233 30.1903 44.5227 30.1903 42.795C30.1903 41.0672 28.7897 39.6666 27.0619 39.6666C25.3342 39.6666 23.9336 41.0672 23.9336 42.795C23.9336 44.5227 25.3342 45.9233 27.0619 45.9233Z" stroke="#A6ABBF" stroke-linecap="round" stroke-linejoin="round"/>
<path d="M22.7907 50.3332C22.717 49.9085 22.7474 49.4683 22.7474 49.0393C22.7474 47.4225 24.0581 46.1119 25.6749 46.1119H28.5254C30.1422 46.1119 31.4528 47.4225 31.4528 49.0393C31.4528 49.4683 31.4833 49.9085 31.4095 50.3332" stroke="#A6ABBF" stroke-linecap="round" stroke-linejoin="round"/>
</g>
<g filter="url(#filter0_f_4973_35487)">
<rect x="102" y="18" width="8" height="53" fill="#A6ABBF" fill-opacity="0.8"/>
</g>
<g filter="url(#filter1_f_4973_35487)">
<rect x="34" y="18" width="8" height="53" fill="#A6ABBF" fill-opacity="0.8"/>
</g>
<rect x="30" y="4" width="78" height="78" rx="5.44471" fill="url(#paint2_linear_4973_35487)"/>
<rect x="30.25" y="4.25" width="77.5" height="77.5" rx="5.19471" stroke="url(#paint3_linear_4973_35487)" stroke-opacity="0.3" stroke-width="0.5"/>
<path d="M76.4132 50.6656C75.2705 51.8083 73.4178 51.8083 72.2751 50.6656C71.1323 49.5228 71.1323 47.6701 72.2751 46.5274C73.4178 45.3846 75.2705 45.3846 76.4132 46.5274C77.556 47.6701 77.556 49.5228 76.4132 50.6656ZM76.4132 50.6656L77.9989 52.2508" stroke="#A6ABBF" stroke-width="1.625" stroke-linecap="round" stroke-linejoin="round"/>
<path d="M67.3581 43.9343C70.1705 43.9343 72.4505 41.6543 72.4505 38.8418C72.4505 36.0294 70.1705 33.7494 67.3581 33.7494C64.5456 33.7494 62.2656 36.0294 62.2656 38.8418C62.2656 41.6543 64.5456 43.9343 67.3581 43.9343Z" stroke="#A6ABBF" stroke-width="1.625" stroke-linecap="round" stroke-linejoin="round"/>
<path d="M60.4078 51.1115C60.2877 50.4201 60.3373 49.7036 60.3373 49.0052C60.3373 46.3734 62.4708 44.2399 65.1026 44.2399H69.7429C70.0966 44.2399 70.4413 44.2784 70.773 44.3516" stroke="#A6ABBF" stroke-width="1.625" stroke-linecap="round" stroke-linejoin="round"/>
<defs>
<filter id="filter0_f_4973_35487" x="84" y="0" width="44" height="89" filterUnits="userSpaceOnUse" color-interpolation-filters="sRGB">
<feFlood flood-opacity="0" result="BackgroundImageFix"/>
<feBlend mode="normal" in="SourceGraphic" in2="BackgroundImageFix" result="shape"/>
<feGaussianBlur stdDeviation="9" result="effect1_foregroundBlur_4973_35487"/>
</filter>
<filter id="filter1_f_4973_35487" x="16" y="0" width="44" height="89" filterUnits="userSpaceOnUse" color-interpolation-filters="sRGB">
<feFlood flood-opacity="0" result="BackgroundImageFix"/>
<feBlend mode="normal" in="SourceGraphic" in2="BackgroundImageFix" result="shape"/>
<feGaussianBlur stdDeviation="9" result="effect1_foregroundBlur_4973_35487"/>
</filter>
<linearGradient id="paint0_linear_4973_35487" x1="111" y1="18" x2="111" y2="72" gradientUnits="userSpaceOnUse">
<stop stop-color="#E8EAEE"/>
<stop offset="1" stop-color="#FAFAFB"/>
</linearGradient>
<linearGradient id="paint1_linear_4973_35487" x1="27" y1="18" x2="27" y2="72" gradientUnits="userSpaceOnUse">
<stop stop-color="#E8EAEE"/>
<stop offset="1" stop-color="#FAFAFB"/>
</linearGradient>
<linearGradient id="paint2_linear_4973_35487" x1="69" y1="4" x2="69" y2="82" gradientUnits="userSpaceOnUse">
<stop stop-color="#E8EAEE"/>
<stop offset="1" stop-color="white"/>
</linearGradient>
<linearGradient id="paint3_linear_4973_35487" x1="69" y1="4" x2="69" y2="82" gradientUnits="userSpaceOnUse">
<stop stop-color="#A6ABBF"/>
<stop offset="1" stop-color="#A6ABBF" stop-opacity="0"/>
</linearGradient>
</defs>
</svg>
