<svg width="138" height="89" viewBox="0 0 138 89" fill="none" xmlns="http://www.w3.org/2000/svg">
<g opacity="0.4">
<rect x="84" y="18" width="54" height="54" rx="3.76941" fill="url(#paint0_linear_7532_24527)"/>
<path d="M112.57 38.6667C115.038 38.9407 116.987 40.8873 117.264 43.3547" stroke="black" stroke-width="0.857143" stroke-linecap="round" stroke-linejoin="round"/>
<path d="M112.57 41.0287C113.751 41.258 114.674 42.1813 114.904 43.362" stroke="black" stroke-width="0.857143" stroke-linecap="round" stroke-linejoin="round"/>
<path fill-rule="evenodd" clip-rule="evenodd" d="M110.357 45.3149C113.016 47.9736 113.62 44.8978 115.313 46.5899C116.945 48.2218 117.884 48.5488 115.815 50.6165C115.556 50.8247 113.91 53.3295 108.126 47.5464C102.34 41.7627 104.844 40.115 105.052 39.856C107.125 37.7826 107.447 38.7263 109.08 40.3582C110.772 42.051 107.698 42.6563 110.357 45.3149Z" stroke="black" stroke-width="0.857143" stroke-linecap="round" stroke-linejoin="round"/>
</g>
<g opacity="0.4">
<rect y="18" width="54" height="54" rx="3.76941" fill="url(#paint1_linear_7532_24527)"/>
<path d="M28.5703 38.6667C31.0376 38.9407 32.987 40.8873 33.2636 43.3547" stroke="black" stroke-width="0.857143" stroke-linecap="round" stroke-linejoin="round"/>
<path d="M28.5703 41.0287C29.751 41.258 30.6736 42.1813 30.9036 43.362" stroke="black" stroke-width="0.857143" stroke-linecap="round" stroke-linejoin="round"/>
<path fill-rule="evenodd" clip-rule="evenodd" d="M26.357 45.3149C29.0163 47.9736 29.6196 44.8978 31.3128 46.5899C32.9451 48.2218 33.8841 48.5488 31.8151 50.6165C31.5561 50.8247 29.9101 53.3295 24.1256 47.5464C18.3403 41.7627 20.8436 40.115 21.0519 39.856C23.1251 37.7826 23.4472 38.7263 25.0795 40.3582C26.772 42.051 23.6976 42.6563 26.357 45.3149Z" stroke="black" stroke-width="0.857143" stroke-linecap="round" stroke-linejoin="round"/>
</g>
<g filter="url(#filter0_f_7532_24527)">
<rect x="102" y="18" width="8" height="53" fill="#A6ABBF" fill-opacity="0.8"/>
</g>
<g filter="url(#filter1_f_7532_24527)">
<rect x="34" y="18" width="8" height="53" fill="#A6ABBF" fill-opacity="0.8"/>
</g>
<rect x="30" y="4" width="78" height="78" rx="5.44471" fill="url(#paint2_linear_7532_24527)"/>
<rect x="30.25" y="4.25" width="77.5" height="77.5" rx="5.19471" stroke="url(#paint3_linear_7532_24527)" stroke-opacity="0.3" stroke-width="0.5"/>
<path d="M71.3594 33.5C75.0604 33.911 77.9844 36.831 78.3994 40.532" stroke="black" stroke-width="1.28571" stroke-linecap="round" stroke-linejoin="round"/>
<path d="M71.3594 37.043C73.1304 37.387 74.5144 38.772 74.8594 40.543" stroke="black" stroke-width="1.28571" stroke-linecap="round" stroke-linejoin="round"/>
<path fill-rule="evenodd" clip-rule="evenodd" d="M68.0393 43.4724C72.0283 47.4604 72.9333 42.8467 75.4731 45.3848C77.9216 47.8328 79.33 48.3232 76.2266 51.4247C75.838 51.737 73.3691 55.4943 64.6923 46.8197C56.0144 38.144 59.7694 35.6724 60.0818 35.2839C63.1916 32.1738 63.6746 33.5894 66.1232 36.0373C68.6619 38.5765 64.0503 39.4844 68.0393 43.4724Z" stroke="black" stroke-width="1.28571" stroke-linecap="round" stroke-linejoin="round"/>
<defs>
<filter id="filter0_f_7532_24527" x="84" y="0" width="44" height="89" filterUnits="userSpaceOnUse" color-interpolation-filters="sRGB">
<feFlood flood-opacity="0" result="BackgroundImageFix"/>
<feBlend mode="normal" in="SourceGraphic" in2="BackgroundImageFix" result="shape"/>
<feGaussianBlur stdDeviation="9" result="effect1_foregroundBlur_7532_24527"/>
</filter>
<filter id="filter1_f_7532_24527" x="16" y="0" width="44" height="89" filterUnits="userSpaceOnUse" color-interpolation-filters="sRGB">
<feFlood flood-opacity="0" result="BackgroundImageFix"/>
<feBlend mode="normal" in="SourceGraphic" in2="BackgroundImageFix" result="shape"/>
<feGaussianBlur stdDeviation="9" result="effect1_foregroundBlur_7532_24527"/>
</filter>
<linearGradient id="paint0_linear_7532_24527" x1="111" y1="18" x2="111" y2="72" gradientUnits="userSpaceOnUse">
<stop stop-color="#E8EAEE"/>
<stop offset="1" stop-color="#FAFAFB"/>
</linearGradient>
<linearGradient id="paint1_linear_7532_24527" x1="27" y1="18" x2="27" y2="72" gradientUnits="userSpaceOnUse">
<stop stop-color="#E8EAEE"/>
<stop offset="1" stop-color="#FAFAFB"/>
</linearGradient>
<linearGradient id="paint2_linear_7532_24527" x1="69" y1="4" x2="69" y2="82" gradientUnits="userSpaceOnUse">
<stop stop-color="#E8EAEE"/>
<stop offset="1" stop-color="white"/>
</linearGradient>
<linearGradient id="paint3_linear_7532_24527" x1="69" y1="4" x2="69" y2="82" gradientUnits="userSpaceOnUse">
<stop stop-color="#A6ABBF"/>
<stop offset="1" stop-color="#A6ABBF" stop-opacity="0"/>
</linearGradient>
</defs>
</svg>
