<svg width="28" height="28" viewBox="0 0 28 28" fill="none" xmlns="http://www.w3.org/2000/svg">
<rect width="28" height="28" fill="#1A5CEB"/>
<path d="M7.79297 5.67917C7.79297 5.24151 8.14776 4.88672 8.58542 4.88672H21.6609C21.8797 4.88672 22.0571 5.06412 22.0571 5.28295V5.30339C22.0571 5.46995 21.9282 5.60809 21.7621 5.61962L12.523 6.26042C12.1076 6.28924 11.7854 6.6346 11.7854 7.05098V20.951C11.7854 21.3665 12.1063 21.7115 12.5207 21.7414L21.7665 22.4094C21.9303 22.4212 22.0571 22.5575 22.0571 22.7217C22.0571 22.9379 21.8819 23.1131 21.6657 23.1131H8.58542C8.14776 23.1131 7.79297 22.7583 7.79297 22.3207V5.67917Z" fill="white"/>
<path d="M13.2617 13.7616C13.2617 13.5904 13.3977 13.4501 13.5689 13.4448L15.7878 13.3763C15.9666 13.3708 16.1145 13.5142 16.1145 13.6931V14.6242C16.1145 14.8031 15.9666 14.9466 15.7878 14.941L13.5689 14.8725C13.3977 14.8673 13.2617 14.727 13.2617 14.5557V13.7616Z" fill="white"/>
</svg>
