<svg width="16" height="16" viewBox="0 0 16 16" fill="none" xmlns="http://www.w3.org/2000/svg">
<path d="M7.25391 2.53418C7.94919 2.14878 8.82409 2.36278 9.27246 2.99707L9.35645 3.12891L9.3584 3.13184L14.1904 11.5195C14.2564 11.6774 14.2939 11.8075 14.3125 11.9326L14.3252 12.0605C14.3433 12.4116 14.2386 12.7542 14.0264 13.0371L13.9287 13.1553C13.6509 13.457 13.2781 13.6342 12.8721 13.6582H3.13379C2.9686 13.6472 2.80064 13.6085 2.64062 13.5488C1.85426 13.2299 1.47756 12.3446 1.78516 11.5771L6.65039 3.12598L6.65332 3.12207C6.77253 2.90906 6.94526 2.72288 7.15527 2.59082L7.24707 2.53809L7.25391 2.53418ZM8.00098 9.83984C7.49503 9.83988 7.07327 10.2546 7.07324 10.7637C7.07324 11.2714 7.49501 11.6865 8.00098 11.6865C8.51466 11.6865 8.92265 11.2639 8.92285 10.7568C8.92285 10.2491 8.50698 9.83984 8.00098 9.83984ZM8.00098 5.71875C7.50071 5.71879 7.07336 6.12028 7.07324 6.63477V8.50391C7.07329 9.01201 7.49479 9.42769 8.00098 9.42773C8.51227 9.42773 8.9228 9.00696 8.92285 8.50391V6.63477C8.92273 6.12528 8.50639 5.71875 8.00098 5.71875Z" fill="#E42B30" stroke="#E42B30" stroke-width="0.683333"/>
</svg>
