<svg xmlns="http://www.w3.org/2000/svg" width="16" height="17" viewBox="0 0 16 17" fill="none">
  <path d="M11.4238 14.9344C9.85777 14.9344 7.82377 13.6911 5.36709 11.2384C2.90175 8.77573 1.65909 6.73172 1.66842 5.16505C1.66189 4.83169 1.72612 4.50073 1.85689 4.19401C1.98767 3.8873 2.18201 3.61181 2.42709 3.38572C2.4456 3.36452 2.46519 3.34427 2.48576 3.32505C3.38909 2.42172 3.98508 2.03172 4.60975 2.06439C5.32108 2.07306 5.82176 2.59772 6.45643 3.26772C6.61109 3.43105 6.77977 3.60839 6.9671 3.79572C7.2915 4.0896 7.50543 4.48582 7.5731 4.91831C7.64083 5.3508 7.55823 5.79343 7.3391 6.17239C7.07243 6.86439 6.83443 7.4624 7.98977 8.61774C9.14443 9.7704 9.7411 9.53707 10.4338 9.2664C10.8125 9.04687 11.255 8.96387 11.6875 9.0312C12.12 9.09853 12.5164 9.31214 12.8104 9.6364C12.9951 9.82107 13.1704 9.98773 13.3318 10.1417C14.0024 10.7791 14.5318 11.2824 14.5404 11.9957C14.5478 12.6017 14.1831 13.2164 13.2818 14.1177L13.2211 14.1771C12.995 14.4223 12.7194 14.6168 12.4126 14.7477C12.1057 14.8786 11.7746 14.9429 11.4411 14.9364L11.4238 14.9344ZM3.19574 4.02705C3.19574 4.02705 3.16576 4.05972 3.12909 4.09905C2.97908 4.23225 2.86031 4.39691 2.78125 4.58129C2.7022 4.76567 2.66481 4.96523 2.67175 5.16572C2.66642 6.05372 3.25309 7.70507 6.07709 10.5284C8.8871 13.3384 10.5364 13.9284 11.4271 13.9284H11.4384C11.6396 13.9354 11.8398 13.898 12.0248 13.8188C12.2099 13.7397 12.3752 13.6207 12.5091 13.4704C12.5437 13.4339 12.5802 13.3991 12.6184 13.3664C13.2318 12.7491 13.5471 12.2904 13.5444 12.0004C13.5418 11.7104 13.1651 11.3517 12.6464 10.8584C12.4791 10.6991 12.2978 10.5251 12.1064 10.3357C11.6331 9.86307 11.3731 9.96573 10.8024 10.1891C10.0024 10.5031 8.90377 10.9331 7.28643 9.3164C5.66842 7.69973 6.09776 6.60172 6.41109 5.79972C6.63443 5.22839 6.73643 4.96772 6.26375 4.49439C6.06975 4.30105 5.89509 4.11772 5.73509 3.94839C5.24376 3.43305 4.88975 3.06039 4.60175 3.05639H4.59709C4.30642 3.05639 3.84909 3.37305 3.19709 4.02439L3.19574 4.02705ZM12.4018 6.86105C12.2692 6.86105 12.142 6.80837 12.0482 6.71461C11.9544 6.62084 11.9018 6.49366 11.9018 6.36105V2.59105C11.9018 2.45845 11.9544 2.33127 12.0482 2.2375C12.142 2.14374 12.2692 2.09105 12.4018 2.09105C12.5344 2.09105 12.6616 2.14374 12.7553 2.2375C12.8491 2.33127 12.9018 2.45845 12.9018 2.59105V6.36105C12.9018 6.49366 12.8491 6.62084 12.7553 6.71461C12.6616 6.80837 12.5344 6.86105 12.4018 6.86105ZM14.1684 5.66105C14.0358 5.66105 13.9086 5.60837 13.8148 5.51461C13.7211 5.42084 13.6684 5.29366 13.6684 5.16105V3.86172C13.6684 3.72911 13.7211 3.60193 13.8148 3.50817C13.9086 3.4144 14.0358 3.36172 14.1684 3.36172C14.301 3.36172 14.4282 3.4144 14.522 3.50817C14.6158 3.60193 14.6684 3.72911 14.6684 3.86172V5.16172C14.6684 5.29433 14.6158 5.42151 14.522 5.51527C14.4282 5.60904 14.301 5.66105 14.1684 5.66105ZM10.6351 5.66105C10.5025 5.66105 10.3753 5.60837 10.2816 5.51461C10.1878 5.42084 10.1351 5.29366 10.1351 5.16105V3.86172C10.1351 3.72911 10.1878 3.60193 10.2816 3.50817C10.3753 3.4144 10.5025 3.36172 10.6351 3.36172C10.7677 3.36172 10.8948 3.4144 10.9886 3.50817C11.0824 3.60193 11.1351 3.72911 11.1351 3.86172V5.16172C11.1351 5.29433 11.0824 5.42151 10.9886 5.51527C10.8948 5.60904 10.7677 5.66105 10.6351 5.66105Z" fill="black"/>
</svg>