<svg width="18" height="18" viewBox="0 0 18 18" fill="none" xmlns="http://www.w3.org/2000/svg">
<path fill-rule="evenodd" clip-rule="evenodd" d="M8.99526 7.25781C8.03301 7.25781 7.25 8.03857 7.25 8.99782C7.25 9.96157 8.03301 10.7453 8.99526 10.7453C9.95751 10.7453 10.7398 9.96157 10.7398 8.99782C10.7398 8.03857 9.95751 7.25781 8.99526 7.25781Z" fill="black"/>
<path fill-rule="evenodd" clip-rule="evenodd" d="M9.00247 11.8701C7.41994 11.8701 6.13219 10.5816 6.13219 8.9976C6.13219 7.41738 7.41994 6.13262 9.00247 6.13262C10.585 6.13262 11.872 7.41738 11.872 8.9976C11.872 10.5816 10.585 11.8701 9.00247 11.8701ZM16.0952 8.84984C14.6005 5.37287 11.9477 3.29688 8.99872 3.29688C6.05119 3.29688 3.39994 5.37287 1.90594 8.84984C1.86469 8.94434 1.86469 9.05084 1.90594 9.14534C3.39919 12.6208 6.05044 14.6968 8.99797 14.6983H9.00247C11.95 14.6968 14.6012 12.6208 16.0952 9.14534C16.1357 9.05084 16.1357 8.94434 16.0952 8.84984Z" fill="black"/>
</svg>
