<svg xmlns="http://www.w3.org/2000/svg" width="16" height="17" viewBox="0 0 16 17" fill="none">
  <path d="M2 14.4395H14" stroke="#333333" stroke-width="1.25" stroke-linecap="round" stroke-linejoin="round"/>
  <path d="M11.5607 14.4419V3.91687C11.5607 3.16769 10.9535 2.56055 10.205 2.56055H5.79675C5.04756 2.56055 4.44043 3.16769 4.44043 3.91687V14.4419" stroke="#333333" stroke-width="1.25" stroke-linecap="round" stroke-linejoin="round"/>
  <path d="M9.11606 9.68359L9.11732 9.69026M6.88379 9.68359L6.88506 9.69026" stroke="#333333" stroke-width="1.25" stroke-linecap="round" stroke-linejoin="round"/>
  <path d="M9.11606 7.48828L9.11732 7.49495M6.88379 7.48828L6.88506 7.49495" stroke="#333333" stroke-width="1.25" stroke-linecap="round" stroke-linejoin="round"/>
  <path d="M9.11606 5.24414L9.11732 5.25081M6.88379 5.24414L6.88506 5.25081" stroke="#333333" stroke-width="1.25" stroke-linecap="round" stroke-linejoin="round"/>
  <path d="M6.65332 14.4409V12.7025C6.65332 12.421 6.88487 12.1895 7.16641 12.1895H8.83601C9.11687 12.1895 9.34847 12.421 9.34847 12.7025V14.4409" stroke="#333333" stroke-width="1.25" stroke-linecap="round" stroke-linejoin="round"/>
  <path d="M11.5596 6.50586H12.3976C12.923 6.50586 13.3544 6.93137 13.3544 7.46259V14.4415" stroke="#333333" stroke-width="1.25" stroke-linecap="round" stroke-linejoin="round"/>
  <path d="M2.72266 14.4415V7.46259C2.72266 6.93137 3.15401 6.50586 3.67942 6.50586H4.43574" stroke="#333333" stroke-width="1.25" stroke-linecap="round" stroke-linejoin="round"/>
</svg>