<svg xmlns="http://www.w3.org/2000/svg" width="18" height="18" viewBox="0 0 18 18" fill="none">
  <path d="M4.81934 13.3151C4.81934 14.0777 5.43759 14.696 6.20025 14.696H8.50875C9.27147 14.696 9.8897 14.0777 9.8897 13.3151V12.2794C9.8897 11.5167 9.27147 10.8984 8.50875 10.8984H6.20025C5.43759 10.8984 4.81934 11.5167 4.81934 12.2794V13.3151Z" stroke="#1A5CEB" stroke-width="1.03846" stroke-linecap="round" stroke-linejoin="round"/>
  <path d="M13.1553 4.68433C13.1553 3.92167 12.5371 3.30341 11.7744 3.30341H8.52059C7.75788 3.30341 7.13965 3.92167 7.13965 4.68433V5.72002C7.13965 6.48268 7.75788 7.10094 8.52059 7.10094H11.7744C12.5371 7.10094 13.1553 6.48268 13.1553 5.72002V4.68433Z" stroke="#1A5CEB" stroke-width="1.03846" stroke-linecap="round" stroke-linejoin="round"/>
  <path d="M2.75537 12.7916H4.75935M9.93158 12.7916H15.2168" stroke="#1A5CEB" stroke-width="1.03846" stroke-linecap="round" stroke-linejoin="round"/>
  <path d="M15.2164 5.20864H13.2124M7.05213 5.20862H2.75537" stroke="#1A5CEB" stroke-width="1.03846" stroke-linecap="round" stroke-linejoin="round"/>
</svg>