<svg xmlns="http://www.w3.org/2000/svg" width="12" height="12" viewBox="0 0 12 12" fill="none">
    <g clip-path="url(#clip0_1620_7665)">
      <path d="M8.0147 7.41071C7.90256 7.7672 7.70601 8.09136 7.44175 8.35561C7.17749 8.61987 6.85334 8.81642 6.49685 8.92857C6.44481 8.94475 6.39063 8.95302 6.33613 8.95312C6.20807 8.95321 6.08422 8.90743 5.98701 8.82406C5.8898 8.7407 5.82567 8.62527 5.80623 8.49869C5.7868 8.37212 5.81335 8.24277 5.88108 8.13408C5.94881 8.0254 6.05323 7.94457 6.17542 7.90624C6.36754 7.84588 6.54223 7.74 6.68463 7.5976C6.82703 7.4552 6.93291 7.28051 6.99328 7.08839C7.01438 7.02126 7.0485 6.95895 7.09369 6.90501C7.13888 6.85107 7.19424 6.80656 7.25663 6.77401C7.38263 6.70829 7.52958 6.69532 7.66515 6.73794C7.73228 6.75905 7.79459 6.79317 7.84853 6.83835C7.90247 6.88354 7.94698 6.93891 7.97952 7.0013C8.01207 7.06369 8.032 7.13188 8.03819 7.20197C8.04438 7.27206 8.0367 7.34269 8.0156 7.40982L8.0147 7.41071ZM9.90667 6.71428C9.90667 7.80356 9.47395 8.84823 8.70371 9.61847C7.93348 10.3887 6.88881 10.8214 5.79953 10.8214C4.71024 10.8214 3.66558 10.3887 2.89534 9.61847C2.1251 8.84823 1.69238 7.80356 1.69238 6.71428C1.69238 5.42812 2.19551 4.11696 3.18703 2.81785C3.23295 2.75766 3.29112 2.70788 3.35769 2.6718C3.42426 2.63573 3.49773 2.61418 3.57323 2.60856C3.64874 2.60295 3.72458 2.61341 3.79576 2.63925C3.86693 2.66509 3.93181 2.70573 3.98613 2.75848L4.86515 3.6116L5.75488 1.17366C5.7843 1.09299 5.83268 1.02058 5.89594 0.962527C5.9592 0.904472 6.03548 0.862472 6.11837 0.840065C6.20125 0.817659 6.28831 0.815504 6.3722 0.83378C6.45609 0.852057 6.53437 0.89023 6.60042 0.945084C7.59417 1.77008 9.90667 3.98437 9.90667 6.71428ZM8.83524 6.71428C8.83524 4.85223 7.46872 3.21473 6.4906 2.28169L5.58836 4.75491C5.55774 4.83886 5.50661 4.91382 5.43961 4.97295C5.37262 5.03209 5.29189 5.07353 5.20479 5.0935C5.11769 5.11347 5.02697 5.11133 4.94091 5.08728C4.85484 5.06323 4.77616 5.01803 4.71203 4.9558L3.68836 3.96249C3.07631 4.90089 2.76381 5.8241 2.76381 6.71428C2.76381 7.5194 3.08364 8.29155 3.65295 8.86086C4.22226 9.43016 4.9944 9.74999 5.79953 9.74999C6.60465 9.74999 7.37679 9.43016 7.9461 8.86086C8.51541 8.29155 8.83524 7.5194 8.83524 6.71428Z" fill="#ED8B18"/>
    </g>
    <defs>
      <clipPath id="clip0_1620_7665">
        <rect width="11.4286" height="11.4286" fill="white" transform="translate(0.0854492 0.285706)"/>
      </clipPath>
    </defs>
  </svg>