<svg xmlns="http://www.w3.org/2000/svg" width="12" height="12" viewBox="0 0 12 12" fill="none">
  <g clip-path="url(#clip0_6132_50249)">
    <path d="M8.01763 7.41086C7.90549 7.76736 7.70894 8.09151 7.44468 8.35577C7.18042 8.62002 6.85627 8.81658 6.49978 8.92872C6.44774 8.9449 6.39356 8.95317 6.33906 8.95327C6.211 8.95336 6.08715 8.90758 5.98994 8.82422C5.89273 8.74085 5.8286 8.62542 5.80916 8.49885C5.78973 8.37227 5.81628 8.24292 5.88401 8.13424C5.95174 8.02555 6.05616 7.94472 6.17835 7.9064C6.37047 7.84604 6.54516 7.74015 6.68756 7.59775C6.82996 7.45536 6.93584 7.28066 6.99621 7.08854C7.01731 7.02141 7.05143 6.9591 7.09662 6.90516C7.14181 6.85122 7.19717 6.80671 7.25956 6.77417C7.38556 6.70845 7.53251 6.69547 7.66808 6.73809C7.73521 6.7592 7.79752 6.79332 7.85146 6.83851C7.9054 6.88369 7.94991 6.93906 7.98245 7.00145C8.015 7.06384 8.03493 7.13203 8.04112 7.20212C8.04731 7.27222 8.03963 7.34284 8.01853 7.40997L8.01763 7.41086ZM9.9096 6.71443C9.9096 7.80371 9.47688 8.84838 8.70664 9.61862C7.93641 10.3889 6.89174 10.8216 5.80246 10.8216C4.71317 10.8216 3.66851 10.3889 2.89827 9.61862C2.12803 8.84838 1.69531 7.80371 1.69531 6.71443C1.69531 5.42827 2.19844 4.11711 3.18996 2.818C3.23588 2.75781 3.29405 2.70803 3.36062 2.67196C3.42719 2.63588 3.50066 2.61433 3.57616 2.60872C3.65167 2.60311 3.72751 2.61357 3.79869 2.63941C3.86986 2.66525 3.93474 2.70588 3.98906 2.75863L4.86808 3.61175L5.75781 1.17381C5.78723 1.09315 5.83561 1.02074 5.89887 0.96268C5.96213 0.904624 6.03841 0.862624 6.1213 0.840218C6.20418 0.817812 6.29124 0.815656 6.37513 0.833933C6.45902 0.85221 6.53729 0.890383 6.60335 0.945237C7.5971 1.77024 9.9096 3.98452 9.9096 6.71443ZM8.83817 6.71443C8.83817 4.85238 7.47165 3.21488 6.49353 2.28184L5.59129 4.75506C5.56067 4.83901 5.50954 4.91397 5.44254 4.97311C5.37555 5.03225 5.29482 5.07368 5.20772 5.09365C5.12062 5.11362 5.0299 5.11148 4.94384 5.08743C4.85777 5.06338 4.77909 5.01818 4.71496 4.95595L3.69129 3.96265C3.07924 4.90104 2.76674 5.82425 2.76674 6.71443C2.76674 7.51955 3.08657 8.2917 3.65588 8.86101C4.22519 9.43031 4.99733 9.75015 5.80246 9.75015C6.60758 9.75015 7.37972 9.43031 7.94903 8.86101C8.51834 8.2917 8.83817 7.51955 8.83817 6.71443Z" fill="#ED8B18"/>
  </g>
  <defs>
    <clipPath id="clip0_6132_50249">
      <rect width="11.4286" height="11.4286" fill="white" transform="translate(0.0859375 0.285767)"/>
    </clipPath>
  </defs>
</svg>