<svg width="20" height="21" viewBox="0 0 20 21" fill="none" xmlns="http://www.w3.org/2000/svg">
<path fill-rule="evenodd" clip-rule="evenodd" d="M4.06264 4.57303C3.586 5.17133 3.33594 6.11092 3.33594 7.45075V13.5449C3.33594 14.8198 3.71001 15.7559 4.32822 16.3729C4.9466 16.99 5.88534 17.3639 7.1647 17.3639H13.245C14.5208 17.3639 15.4569 16.9903 16.0738 16.3734C16.6906 15.7563 17.0641 14.8202 17.0641 13.5449V13.5413L17.0859 9.6651C17.0859 9.66452 17.0859 9.66385 17.0859 9.66327C17.0857 8.29073 16.8321 7.40538 16.3679 6.8619C15.9229 6.34084 15.1757 6.01119 13.8733 6.01119H11.6622H11.6604C10.9039 6.00901 10.192 5.65315 9.7366 5.04921L9.73602 5.04846L9.02277 4.09958C8.80352 3.80766 8.46035 3.63574 8.09659 3.63574H6.534C5.26246 3.63574 4.5156 4.00445 4.06264 4.57303ZM3.08496 3.79416C3.84442 2.84083 5.00909 2.38574 6.534 2.38574H8.09659C8.85485 2.38574 9.56752 2.74348 10.0219 3.34848C10.0219 3.3484 10.022 3.34857 10.0219 3.34848L10.7347 4.29662C10.7345 4.29646 10.7348 4.29678 10.7347 4.29662C10.9544 4.58763 11.298 4.75989 11.6632 4.76119H13.8733C15.3739 4.76119 16.5454 5.14483 17.3185 6.05014C18.0723 6.93278 18.3359 8.18633 18.3359 9.6651V9.6686L18.3141 13.5449C18.3141 13.5454 18.3141 13.5461 18.3141 13.5467C18.3137 15.0662 17.8634 16.3514 16.9577 17.2571C16.0516 18.1634 14.7658 18.6138 13.245 18.6138H7.1647C5.64114 18.6138 4.353 18.1636 3.44522 17.2576C2.53728 16.3514 2.08594 15.0654 2.08594 13.5449V7.45075C2.08594 5.99817 2.34918 4.71775 3.08496 3.79416Z" fill="#E42B30"/>
<path fill-rule="evenodd" clip-rule="evenodd" d="M8.2729 9.56099C8.51694 9.31691 8.91269 9.31691 9.15677 9.56099L10.2074 10.6116L11.2572 9.56174C11.5013 9.31766 11.8969 9.31766 12.141 9.56174C12.3851 9.80583 12.3851 10.2016 12.141 10.4457L11.0913 11.4954L12.1403 12.5444C12.3844 12.7885 12.3844 13.1842 12.1403 13.4283C11.8962 13.6724 11.5004 13.6724 11.2564 13.4283L10.2074 12.3793L9.15761 13.4292C8.91353 13.6732 8.51777 13.6732 8.27369 13.4292C8.02962 13.1851 8.02962 12.7893 8.27369 12.5452L9.32352 11.4954L8.2729 10.4448C8.02882 10.2007 8.02882 9.80508 8.2729 9.56099Z" fill="#E42B30"/>
</svg>
