<svg width="18" height="18" viewBox="0 0 18 18" fill="none" xmlns="http://www.w3.org/2000/svg">
<path d="M11.7307 15.7382C14.2475 15.7382 15.7304 14.2546 15.7304 11.7385L15.75 8.2467C15.75 5.67963 14.8188 4.39572 12.2961 4.39572H10.3061C9.80115 4.39426 9.3261 4.15672 9.0222 3.75377L8.38028 2.89977C8.07713 2.49609 7.60207 2.25781 7.09708 2.25781H5.69076C3.17395 2.25781 2.25 3.74065 2.25 6.25382V11.7385C2.25 14.2546 3.73575 15.7382 6.25839 15.7382H11.7307Z" stroke="white" stroke-width="1.125" stroke-linecap="round" stroke-linejoin="round"/>
<path d="M7.35156 10.6229L9.00053 12.2791M9.00053 12.2791L10.6502 10.6229M9.00053 12.2791L9.00098 7.65625" stroke="white" stroke-width="1.125" stroke-linecap="round" stroke-linejoin="round"/>
</svg>
