<svg width="28" height="28" viewBox="0 0 28 28" fill="none" xmlns="http://www.w3.org/2000/svg">
<rect x="0.5" y="0.5" width="27" height="27" rx="3.5" fill="#1A5CEB"/>
<rect x="0.5" y="0.5" width="27" height="27" rx="3.5" stroke="#1A5CEB"/>
<path d="M10.962 20.0276C10.7979 19.9451 10.6176 19.9167 10.4388 19.959C9.83099 20.102 8.85026 20.3465 8.1366 20.526C7.73088 20.6281 7.36164 20.2669 7.45578 19.8597C7.6331 19.0906 7.87901 18.0209 7.99576 17.486C8.03225 17.3196 8.00963 17.1481 7.93739 16.9941C7.50978 16.0784 7.25 15.0648 7.25 14.0001C7.25 9.86634 11.016 6.5695 15.2863 7.37073C17.9695 7.87422 20.1258 10.0313 20.6293 12.7137C21.4305 16.9839 18.1336 20.75 13.9998 20.75C12.9425 20.75 11.8859 20.4946 10.962 20.0276Z" stroke="white" stroke-width="1.125" stroke-linecap="round" stroke-linejoin="round"/>
<path d="M11.4492 11.3443C10.4093 12.3893 11.1974 14.0493 12.5839 15.4358C13.9703 16.8223 15.6041 17.5841 16.6491 16.5443L16.7454 16.4479C17.1643 16.0298 17.103 15.3344 16.6178 14.9958C16.4609 14.8871 16.2967 14.7718 16.1222 14.6499C15.745 14.385 15.2291 14.4259 14.9029 14.7506L14.7263 14.9258C13.9667 14.4733 13.5814 14.0384 13.0684 13.2678L13.2435 13.0913C13.5675 12.7644 13.6084 12.2484 13.3442 11.8712C13.2216 11.6968 13.1071 11.5326 12.9977 11.3757C12.6598 10.8905 11.9643 10.8299 11.5455 11.248L11.4492 11.3443Z" stroke="white" stroke-width="1.125" stroke-linecap="round" stroke-linejoin="round"/>
</svg>
