<svg xmlns="http://www.w3.org/2000/svg" width="20" height="20" viewBox="0 0 20 20" fill="none">
  <path d="M15.3496 13.9521C15.6074 13.9522 15.8552 14.0515 16.0418 14.2295C16.2284 14.4074 16.3394 14.6502 16.3518 14.9077C16.3641 15.1652 16.277 15.4176 16.1084 15.6126C15.9397 15.8076 15.7025 15.9302 15.4459 15.9551L15.3496 15.9598H4.64202C4.38422 15.9597 4.13636 15.8604 3.94978 15.6825C3.76321 15.5046 3.65223 15.2617 3.63984 15.0042C3.62745 14.7467 3.7146 14.4943 3.88324 14.2993C4.05187 14.1043 4.28906 13.9817 4.54565 13.9568L4.64202 13.9521H15.3496ZM15.3496 9.26756C15.6158 9.26756 15.8711 9.37332 16.0594 9.56158C16.2476 9.74983 16.3534 10.0052 16.3534 10.2714C16.3534 10.5376 16.2476 10.793 16.0594 10.9812C15.8711 11.1695 15.6158 11.2752 15.3496 11.2752H4.64202C4.37578 11.2752 4.12045 11.1695 3.9322 10.9812C3.74394 10.793 3.63818 10.5376 3.63818 10.2714C3.63818 10.0052 3.74394 9.74983 3.9322 9.56158C4.12045 9.37332 4.37578 9.26756 4.64202 9.26756H15.3496ZM15.3496 4.58301C15.6158 4.58301 15.8711 4.68877 16.0594 4.87702C16.2476 5.06528 16.3534 5.32061 16.3534 5.58684C16.3534 5.85307 16.2476 6.1084 16.0594 6.29666C15.8711 6.48491 15.6158 6.59067 15.3496 6.59067H4.64202C4.37578 6.59067 4.12045 6.48491 3.9322 6.29666C3.74394 6.1084 3.63818 5.85307 3.63818 5.58684C3.63818 5.32061 3.74394 5.06528 3.9322 4.87702C4.12045 4.68877 4.37578 4.58301 4.64202 4.58301H15.3496Z" fill="#121418"/>
</svg>