<svg width="10" height="10" viewBox="0 0 10 10" fill="none" xmlns="http://www.w3.org/2000/svg">
<path opacity="0.2" d="M10 5C10 5.98891 9.70675 6.9556 9.15735 7.77785C8.60794 8.60009 7.82705 9.24096 6.91342 9.6194C5.99979 9.99783 4.99445 10.0969 4.02455 9.90392C3.05465 9.711 2.16373 9.23479 1.46447 8.53553C0.765205 7.83627 0.289002 6.94535 0.0960758 5.97545C-0.0968502 5.00555 0.00216643 4.00021 0.380605 3.08658C0.759043 2.17295 1.3999 1.39206 2.22215 0.842652C3.0444 0.293245 4.01109 0 5 0C6.32608 0 7.59785 0.526784 8.53553 1.46447C9.47322 2.40215 10 3.67392 10 5Z" fill="#1A5CEB"/>
<path d="M6.66665 5.00004C6.66665 5.32968 6.5689 5.65191 6.38576 5.92599C6.20263 6.20007 5.94233 6.41369 5.63778 6.53984C5.33324 6.66598 4.99813 6.69899 4.67483 6.63468C4.35153 6.57037 4.05456 6.41164 3.82147 6.17855C3.58838 5.94546 3.42965 5.64849 3.36534 5.32519C3.30103 5.00189 3.33404 4.66678 3.46018 4.36223C3.58633 4.05769 3.79995 3.79739 4.07403 3.61426C4.34811 3.43112 4.67034 3.33337 4.99998 3.33337C5.44201 3.33337 5.86593 3.50897 6.17849 3.82153C6.49105 4.13409 6.66665 4.55801 6.66665 5.00004Z" fill="#1A5CEB"/>
</svg>
