<svg xmlns="http://www.w3.org/2000/svg" width="5" height="5" viewBox="0 0 5 5" fill="none">
  <path d="M5 2.5C5 2.99445 4.85338 3.4778 4.57867 3.88892C4.30397 4.30005 3.91352 4.62048 3.45671 4.8097C2.99989 4.99892 2.49723 5.04843 2.01227 4.95196C1.52732 4.8555 1.08187 4.6174 0.732234 4.26776C0.382603 3.91813 0.144501 3.47268 0.0480379 2.98772C-0.0484251 2.50277 0.00108321 2.00011 0.190302 1.54329C0.379521 1.08648 0.699953 0.696029 1.11108 0.421325C1.5222 0.146622 2.00555 0 2.5 0C3.16304 0 3.79892 0.263392 4.26777 0.732233C4.73661 1.20107 5 1.83696 5 2.5Z" fill="#00AE8E"/>
</svg>