<svg width="26" height="26" viewBox="0 0 26 26" fill="none" xmlns="http://www.w3.org/2000/svg">
<path d="M3.25 12.9544C3.25 7.58781 7.61523 3.2373 13 3.2373C18.3848 3.2373 22.75 7.58781 22.75 12.9544C22.75 18.321 18.3848 22.6716 13 22.6716H4.33333C3.73503 22.6716 3.25 22.1882 3.25 21.5919V12.9544Z" fill="#1A5CEB"/>
<path d="M15.1562 8.4209C15.7431 10.0068 16.9931 11.2577 18.5791 11.8447L19 12L18.5791 12.1553C16.9931 12.7421 15.7431 13.9932 15.1562 15.5791L15 16L14.8447 15.5791C14.2579 13.993 13.0072 12.7422 11.4209 12.1553L11 12L11.4209 11.8447C13.0072 11.2577 14.2579 10.007 14.8447 8.4209L15 8L15.1562 8.4209Z" fill="white"/>
<path d="M9.5 13.5C9.79169 14.4584 10.5417 15.2083 11.5 15.5C10.5417 15.7917 9.79169 16.5418 9.5 17.5C9.20831 16.5418 8.45832 15.7917 7.5 15.5C8.45831 15.2083 9.20831 14.4584 9.5 13.5Z" fill="white"/>
</svg>