<svg xmlns="http://www.w3.org/2000/svg" width="20" height="20" viewBox="0 0 20 20" fill="none">
  <path fill-rule="evenodd" clip-rule="evenodd" d="M4.58175 14.5612C4.99445 15.2763 5.90905 15.522 6.62418 15.1085C7.3377 14.6957 7.58256 13.7828 7.17066 13.0677L5.91472 10.8922C5.50283 10.1779 4.58905 9.93308 3.87472 10.3442L3.69877 10.4455C3.2504 10.7042 3.02336 11.2368 3.17661 11.7314C3.44986 12.6128 3.91607 13.5614 4.58175 14.5612Z" stroke="#1F1F1F" stroke-width="1.25" stroke-linecap="round" stroke-linejoin="round"/>
  <path fill-rule="evenodd" clip-rule="evenodd" d="M15.4217 14.5612C15.009 15.2763 14.0944 15.522 13.3793 15.1085C12.6657 14.6957 12.4209 13.7828 12.8328 13.0677L14.0887 10.8922C14.5006 10.1779 15.4144 9.93308 16.1287 10.3442L16.3047 10.4455C16.7531 10.7042 16.9801 11.2368 16.8268 11.7314C16.5536 12.6128 16.0874 13.5614 15.4217 14.5612Z" stroke="#1F1F1F" stroke-width="1.25" stroke-linecap="round" stroke-linejoin="round"/>
  <path d="M9.46875 17.4782C11.3823 17.4782 12.7387 17.8706 14.1098 15.3076" stroke="#1F1F1F" stroke-width="1.25" stroke-linecap="round" stroke-linejoin="round"/>
  <path d="M16.5256 12.5306C16.918 11.6476 17.1385 10.6665 17.1385 9.63675C17.1385 5.6946 13.9383 2.5 9.99613 2.5C6.05965 2.5 2.85938 5.6946 2.85938 9.63675C2.85938 10.5319 3.02478 11.3898 3.32559 12.1754" stroke="#1F1F1F" stroke-width="1.25" stroke-linecap="round" stroke-linejoin="round"/>
</svg>