<svg width="20" height="18" viewBox="0 0 20 18" fill="none" xmlns="http://www.w3.org/2000/svg">
<g id="Iconly/Light/Hide">
<g id="Hide">
<path id="Stroke-1" d="M7.76045 10.8667C7.18545 10.2927 6.83545 9.51268 6.83545 8.63768C6.83545 6.88468 8.24745 5.47168 9.99945 5.47168C10.8664 5.47168 11.6644 5.82268 12.2294 6.39668" stroke="#333333" stroke-width="1.5" stroke-linecap="round" stroke-linejoin="round"/>
<path id="Stroke-3" d="M13.1049 9.19873C12.8729 10.4887 11.8569 11.5067 10.5679 11.7407" stroke="#333333" stroke-width="1.5" stroke-linecap="round" stroke-linejoin="round"/>
<path id="Stroke-5" d="M4.65451 13.972C3.06751 12.726 1.72351 10.906 0.749512 8.63698C1.73351 6.35798 3.08651 4.52798 4.68351 3.27198C6.27051 2.01598 8.10151 1.33398 9.99951 1.33398C11.9085 1.33398 13.7385 2.02598 15.3355 3.29098" stroke="#333333" stroke-width="1.5" stroke-linecap="round" stroke-linejoin="round"/>
<path id="Stroke-7" d="M17.4473 5.49072C18.1353 6.40472 18.7403 7.45972 19.2493 8.63672C17.2823 13.1937 13.8063 15.9387 9.99929 15.9387C9.13629 15.9387 8.28529 15.7987 7.46729 15.5257" stroke="#333333" stroke-width="1.5" stroke-linecap="round" stroke-linejoin="round"/>
<path id="Stroke-9" d="M17.8868 0.749512L2.11279 16.5235" stroke="#333333" stroke-width="1.5" stroke-linecap="round" stroke-linejoin="round"/>
</g>
</g>
</svg>
