<svg width="24" height="24" viewBox="0 0 24 24" fill="none" xmlns="http://www.w3.org/2000/svg">
<path d="M6.78267 21H17.2139C19.0489 21 20.5356 19.5123 20.5356 17.6783V10.5045C20.5356 9.6133 20.1347 8.76973 19.4439 8.20638L13.8698 3.66551C12.78 2.77816 11.2165 2.77816 10.1267 3.66551L4.55262 8.20638C3.86181 8.76973 3.46094 9.6133 3.46094 10.5045V17.6783C3.46094 19.5123 4.94764 21 6.78267 21Z" stroke="black" stroke-width="1.5" stroke-linecap="round" stroke-linejoin="round"/>
<path d="M12.1659 16.0981V18.1307M14.5163 10.6821C14.6778 11.0888 14.5786 11.5538 14.2633 11.8584C14.2633 11.8584 13.7681 12.2301 13.6902 12.4139C13.591 12.6475 13.5764 13.203 13.6902 13.4297C13.805 13.6603 14.5124 14.0466 14.5124 14.0466C14.9415 14.3686 15.1944 14.8736 15.1944 15.4097C15.1944 15.7901 14.887 16.0976 14.5066 16.0976H9.82364C9.44418 16.0976 9.13672 15.7901 9.13672 15.4097C9.13672 14.8736 9.38872 14.3686 9.8178 14.0466C9.8178 14.0466 10.5261 13.6603 10.6409 13.4297C10.7548 13.203 10.7402 12.6475 10.6409 12.4139C10.5631 12.2301 10.0678 11.8584 10.0678 11.8584C9.75261 11.5538 9.65239 11.0888 9.81488 10.6821C9.97834 10.2705 10.3763 10 10.82 10H13.5112C13.9539 10 14.3528 10.2705 14.5163 10.6821Z" stroke="black" stroke-width="1.5" stroke-linecap="round" stroke-linejoin="round"/>
</svg>
