<svg width="16" height="16" viewBox="0 0 16 16" fill="none" xmlns="http://www.w3.org/2000/svg">
<path d="M14 6.45675L8.98273 2.48506C8.40673 2.02972 7.59327 2.02972 7.01727 2.48506L2 6.45675" stroke="#C7C7C7" stroke-width="1.2" stroke-linecap="round" stroke-linejoin="round"/>
<path d="M13.0039 6.68407V5.66895" stroke="#C7C7C7" stroke-width="0.8" stroke-linecap="round" stroke-linejoin="round"/>
<path d="M2.99609 5.66895V11.4523C2.99609 12.5803 3.91069 13.4949 5.03869 13.4949H6.28993" stroke="#C7C7C7" stroke-width="1.2" stroke-linecap="round" stroke-linejoin="round"/>
<path d="M9.42627 9.20801H9.13803C8.50975 9.20801 8 9.71775 8 10.346V11.8518C8.00032 12.4801 8.50975 12.9895 9.13803 12.9895H12.5753C13.2039 12.9895 13.7133 12.4801 13.7133 11.8518V10.3432C13.7133 9.71647 13.2055 9.20832 12.5788 9.20801H12.2877" stroke="#C7C7C7" stroke-width="1.2" stroke-linecap="round" stroke-linejoin="round"/>
<path d="M10.857 7.11035V10.8289M10.857 7.11035L9.95703 8.01448M10.857 7.11035L11.758 8.01448" stroke="#C7C7C7" stroke-width="0.8" stroke-linecap="round" stroke-linejoin="round"/>
</svg>
