<svg width="20" height="21" viewBox="0 0 20 21" fill="none" xmlns="http://www.w3.org/2000/svg">
<path d="M9.17093 17.1648H15.6326C16.7693 17.1648 17.6902 16.2906 17.6902 15.213V10.9976C17.6902 10.4739 17.4419 9.97822 17.014 9.6472L13.5611 6.97895C12.886 6.45754 11.9175 6.45754 11.2424 6.97895L7.78952 9.6472C7.3616 9.97822 7.11328 10.4739 7.11328 10.9976V15.213C7.11328 16.2906 8.03422 17.1648 9.17093 17.1648Z" stroke="black" stroke-width="1.20192" stroke-linecap="round" stroke-linejoin="round"/>
<path fill-rule="evenodd" clip-rule="evenodd" d="M10.8203 11.8412C10.8203 11.56 11.0483 11.332 11.3295 11.332H13.9263C14.2076 11.332 14.4355 11.56 14.4355 11.8412C14.4355 12.1225 14.2076 12.3504 13.9263 12.3504H11.3295C11.0483 12.3504 10.8203 12.1225 10.8203 11.8412ZM10.8203 14.4875C10.8203 14.2063 11.0483 13.9783 11.3295 13.9783H13.9263C14.2076 13.9783 14.4355 14.2063 14.4355 14.4875C14.4355 14.7687 14.2076 14.9967 13.9263 14.9967H11.3295C11.0483 14.9967 10.8203 14.7687 10.8203 14.4875Z" fill="black"/>
<path d="M11.1233 6.8881L8.75639 5.05903C8.08131 4.53762 7.1128 4.53762 6.43773 5.05903L2.98483 7.72727C2.55691 8.0583 2.30859 8.55399 2.30859 9.07766V13.293C2.30859 14.3707 3.22953 15.2449 4.36624 15.2449H7.11629" stroke="black" stroke-width="1.20192" stroke-linecap="round" stroke-linejoin="round"/>
</svg>
