<svg width="18" height="18" viewBox="0 0 18 18" fill="none" xmlns="http://www.w3.org/2000/svg">
<path d="M5.08899 15.75H12.9126C14.2888 15.75 15.4038 14.6342 15.4038 13.258V7.8783C15.4038 7.20985 15.1032 6.57717 14.5851 6.15466L10.4044 2.74969C9.58714 2.08344 8.41444 2.08344 7.59709 2.74969L3.41642 6.15466C2.89831 6.57717 2.59766 7.20985 2.59766 7.8783V13.258C2.59766 14.6342 3.7127 15.75 5.08899 15.75Z" stroke="white" stroke-width="1.125" stroke-linecap="round" stroke-linejoin="round"/>
<path d="M7.5405 11.536L7.46473 11.3309C7.17909 10.5578 6.57045 9.94829 5.79845 9.66224L5.59375 9.58634L5.79845 9.51044C6.57045 9.22439 7.17909 8.61487 7.46473 7.84177L7.5405 7.63672L7.61625 7.84177C7.90193 8.61487 8.51055 9.22439 9.28253 9.51044L9.48728 9.58634L9.28253 9.66224C8.51055 9.94829 7.90193 10.5578 7.61625 11.3309L7.5405 11.536Z" stroke="white" stroke-width="1.125" stroke-linecap="round" stroke-linejoin="round"/>
<path d="M11.5231 12.4669C11.3944 12.0434 11.0635 11.712 10.6406 11.5831C11.0635 11.4542 11.3944 11.1227 11.5231 10.6992C11.6518 11.1227 11.9828 11.4542 12.4057 11.5831C11.9828 11.712 11.6518 12.0434 11.5231 12.4669Z" stroke="white" stroke-width="1.125" stroke-linecap="round" stroke-linejoin="round"/>
</svg>
