<svg xmlns="http://www.w3.org/2000/svg" width="16" height="16" viewBox="0 0 16 16" fill="none">
  <path fill-rule="evenodd" clip-rule="evenodd" d="M10.8687 1.33203C11.9407 1.33203 12.8653 1.69003 13.542 2.36803C14.2493 3.07603 14.6373 4.10603 14.636 5.2687L14.637 9.93296C14.6381 9.95091 14.6383 9.9689 14.6376 9.98686L14.636 10.6987C14.636 13.0527 13.1207 14.6347 10.8653 14.6347H5.10132C2.84798 14.6347 1.33398 13.0527 1.33398 10.6987V5.26803C1.33398 2.91403 2.84798 1.33203 5.10132 1.33203H10.8687ZM11.0531 8.55356C10.6611 8.55356 10.2011 9.20223 9.79372 9.7749C9.23505 10.5616 8.65705 11.3756 7.78638 11.3756C7.19772 11.3756 6.65838 11.1489 6.18305 10.9482C5.42705 10.6296 5.08438 10.5276 4.74905 10.8036C4.07778 11.3567 3.41451 12.364 3.10974 12.8597C3.59077 13.3556 4.27409 13.6347 5.10132 13.6347H10.8653C12.5487 13.6347 13.636 12.4827 13.636 10.6987L13.636 10.166L13.6206 10.1498C13.037 9.54855 12.0292 8.55356 11.0531 8.55356ZM10.8687 2.33203H5.10132C3.42065 2.33203 2.33398 3.4847 2.33398 5.26803V10.6987C2.33398 11.1444 2.40182 11.5507 2.5298 11.9094C2.91559 11.3269 3.49825 10.5383 4.11372 10.0316C4.94838 9.3449 5.84705 9.72223 6.57105 10.0269C6.99705 10.2062 7.39972 10.3756 7.78638 10.3756C8.14105 10.3756 8.58572 9.7489 8.97905 9.19623C9.52505 8.42556 10.1451 7.55356 11.0531 7.55356C12.0495 7.55356 12.9521 8.16594 13.6367 8.77366L13.636 5.26803C13.6373 4.35936 13.36 3.6007 12.8347 3.0747C12.3493 2.5887 11.67 2.33203 10.8687 2.33203ZM5.90532 4.12503C6.85932 4.1257 7.63532 4.9017 7.63598 5.85503C7.63598 6.80903 6.85998 7.5857 5.90532 7.5857C4.95065 7.5857 4.17465 6.8097 4.17465 5.8557C4.17465 4.90103 4.95065 4.12503 5.90532 4.12503ZM5.90465 5.12503C5.50198 5.12503 5.17465 5.45236 5.17465 5.8557C5.17465 6.25836 5.50198 6.5857 5.90532 6.5857C6.30798 6.5857 6.63598 6.25836 6.63598 5.85636C6.63532 5.45303 6.30732 5.1257 5.90465 5.12503Z" fill="white"/>
</svg>