<svg xmlns="http://www.w3.org/2000/svg" width="20" height="20" viewBox="0 0 20 20" fill="none">
  <path d="M2.5 7.05756V5.74324C2.5 3.95216 3.95216 2.5 5.74405 2.5H6.81837" stroke="#1F1F1F" stroke-width="1.25" stroke-linecap="round" stroke-linejoin="round"/>
  <path d="M2.5 12.9434V14.2577C2.5 16.0488 3.95216 17.5009 5.74405 17.5009H6.79162" stroke="#1F1F1F" stroke-width="1.25" stroke-linecap="round" stroke-linejoin="round"/>
  <path d="M17.4995 12.9434V14.2577C17.4995 16.0488 16.0473 17.5009 14.2554 17.5009H13.1812" stroke="#1F1F1F" stroke-width="1.25" stroke-linecap="round" stroke-linejoin="round"/>
  <path d="M17.4988 7.05756V5.74324C17.4988 3.95216 16.0467 2.5 14.2548 2.5H13.2072" stroke="#1F1F1F" stroke-width="1.25" stroke-linecap="round" stroke-linejoin="round"/>
  <path d="M9.99917 13.5425C11.8415 13.5425 13.5267 12.2178 14.4755 10.0105C13.5267 7.8032 11.8415 6.47852 9.99917 6.47852C8.15885 6.47852 6.47366 7.8032 5.5249 10.0105C6.47366 12.2188 8.15885 13.5425 10.0012 13.5425H9.99917Z" stroke="#1F1F1F" stroke-width="1.25" stroke-linecap="round" stroke-linejoin="round"/>
  <path fill-rule="evenodd" clip-rule="evenodd" d="M11.257 10.0116C11.257 10.7045 10.6947 11.2669 10.0017 11.2669C9.30836 11.2669 8.74594 10.7045 8.74594 10.0116C8.74594 9.31819 9.30836 8.75586 10.0017 8.75586C10.6947 8.75586 11.257 9.31819 11.257 10.0116Z" stroke="#1F1F1F" stroke-width="1.25" stroke-linecap="round" stroke-linejoin="round"/>
</svg>