<svg xmlns="http://www.w3.org/2000/svg" width="18" height="18" viewBox="0 0 18 18" fill="none">
  <path d="M2.25 6.3518V5.16892C2.25 3.55694 3.55694 2.25 5.16964 2.25H6.13654" stroke="#1A5CEB" stroke-width="1.35" stroke-linecap="round" stroke-linejoin="round"/>
  <path d="M2.25 11.649V12.8319C2.25 14.4439 3.55694 15.7508 5.16964 15.7508H6.11245" stroke="#1A5CEB" stroke-width="1.35" stroke-linecap="round" stroke-linejoin="round"/>
  <path d="M15.7503 11.649V12.8319C15.7503 14.4439 14.4433 15.7508 12.8306 15.7508H11.8638" stroke="#1A5CEB" stroke-width="1.35" stroke-linecap="round" stroke-linejoin="round"/>
  <path d="M15.7489 6.3518V5.16892C15.7489 3.55694 14.442 2.25 12.8293 2.25H11.8865" stroke="#1A5CEB" stroke-width="1.35" stroke-linecap="round" stroke-linejoin="round"/>
  <path d="M8.99998 12.1865C10.6581 12.1865 12.1747 10.9942 13.0287 9.0077C12.1747 7.0211 10.6581 5.82889 8.99998 5.82889C7.3437 5.82889 5.82703 7.0211 4.97314 9.0077C5.82703 10.9951 7.3437 12.1865 9.00178 12.1865H8.99998Z" stroke="#1A5CEB" stroke-width="1.35" stroke-linecap="round" stroke-linejoin="round"/>
  <path fill-rule="evenodd" clip-rule="evenodd" d="M10.1313 9.00865C10.1313 9.63228 9.62521 10.1385 9.00151 10.1385C8.37751 10.1385 7.87134 9.63228 7.87134 9.00865C7.87134 8.38458 8.37751 7.87848 9.00151 7.87848C9.62521 7.87848 10.1313 8.38458 10.1313 9.00865Z" stroke="#1A5CEB" stroke-width="1.35" stroke-linecap="round" stroke-linejoin="round"/>
</svg>