<svg width="16" height="16" viewBox="0 0 16 16" fill="none" xmlns="http://www.w3.org/2000/svg">
<path fill-rule="evenodd" clip-rule="evenodd" d="M10.8706 1.33203C11.9426 1.33203 12.8673 1.69003 13.5439 2.36803C14.2513 3.07603 14.6393 4.10603 14.6379 5.2687L14.6389 9.93296C14.6401 9.95091 14.6403 9.9689 14.6395 9.98686L14.6379 10.6987C14.6379 13.0527 13.1226 14.6347 10.8673 14.6347H5.10327C2.84994 14.6347 1.33594 13.0527 1.33594 10.6987V5.26803C1.33594 2.91403 2.84994 1.33203 5.10327 1.33203H10.8706ZM11.055 8.55356C10.663 8.55356 10.203 9.20223 9.79567 9.7749C9.237 10.5616 8.659 11.3756 7.78834 11.3756C7.19967 11.3756 6.66034 11.1489 6.185 10.9482C5.429 10.6296 5.08634 10.5276 4.751 10.8036C4.07974 11.3567 3.41646 12.364 3.11169 12.8597C3.59272 13.3556 4.27604 13.6347 5.10327 13.6347H10.8673C12.5506 13.6347 13.6379 12.4827 13.6379 10.6987L13.6379 10.166L13.6226 10.1498C13.039 9.54855 12.0312 8.55356 11.055 8.55356ZM10.8706 2.33203H5.10327C3.4226 2.33203 2.33594 3.4847 2.33594 5.26803V10.6987C2.33594 11.1444 2.40377 11.5507 2.53175 11.9094C2.91754 11.3269 3.5002 10.5383 4.11567 10.0316C4.95034 9.3449 5.849 9.72223 6.573 10.0269C6.999 10.2062 7.40167 10.3756 7.78834 10.3756C8.143 10.3756 8.58767 9.7489 8.981 9.19623C9.52701 8.42556 10.147 7.55356 11.055 7.55356C12.0515 7.55356 12.954 8.16594 13.6387 8.77366L13.6379 5.26803C13.6393 4.35936 13.3619 3.6007 12.8366 3.0747C12.3513 2.5887 11.6719 2.33203 10.8706 2.33203ZM5.90727 4.12503C6.86127 4.1257 7.63727 4.9017 7.63794 5.85503C7.63794 6.80903 6.86194 7.5857 5.90727 7.5857C4.9526 7.5857 4.1766 6.8097 4.1766 5.8557C4.1766 4.90103 4.9526 4.12503 5.90727 4.12503ZM5.9066 5.12503C5.50394 5.12503 5.1766 5.45236 5.1766 5.8557C5.1766 6.25836 5.50394 6.5857 5.90727 6.5857C6.30994 6.5857 6.63794 6.25836 6.63794 5.85636C6.63727 5.45303 6.30927 5.1257 5.9066 5.12503Z" fill="white"/>
</svg>
