<svg width="18" height="18" viewBox="0 0 18 18" fill="none" xmlns="http://www.w3.org/2000/svg">
<path fill-rule="evenodd" clip-rule="evenodd" d="M9.18716 8.21826C7.67291 8.21826 6.44141 9.40122 6.44141 10.8549C6.44141 12.3086 7.67291 13.4908 9.18716 13.4908C10.7014 13.4908 11.9337 12.3086 11.9337 10.8549C11.9337 9.40122 10.7014 8.21826 9.18716 8.21826Z" fill="#1f1f1f"/>
<path fill-rule="evenodd" clip-rule="evenodd" d="M16.802 10.5451C15.2015 7.31163 12.3553 5.38059 9.18876 5.37915H9.18576C6.0185 5.38059 3.17225 7.31163 1.57175 10.5451L1.25 11.1953L2.60525 11.8138L2.927 11.1629C4.2725 8.44343 6.6125 6.81987 9.18726 6.81915C11.7613 6.81987 14.1013 8.44343 15.4468 11.1629L15.7693 11.8138L17.1238 11.1953L16.802 10.5451Z" fill="#1f1f1f"/>
</svg>
