<svg xmlns="http://www.w3.org/2000/svg" width="17" height="17" viewBox="0 0 17 17" fill="none">
  <path d="M2.25977 10.9006C2.25977 10.3573 2.25977 10.0856 2.31435 9.86165C2.48418 9.16475 3.02829 8.62062 3.72517 8.45083C3.94919 8.39624 4.22083 8.39624 4.76411 8.39624H11.2754C11.8187 8.39624 12.0903 8.39624 12.3144 8.45083C13.0112 8.62062 13.5553 9.16475 13.7252 9.86165C13.7798 10.0856 13.7798 10.3573 13.7798 10.9006C13.7798 11.1904 13.7798 11.3352 13.7507 11.4547C13.6601 11.8263 13.3699 12.1166 12.9982 12.2071C12.8787 12.2362 12.7339 12.2362 12.4441 12.2362H3.59541C3.30567 12.2362 3.16079 12.2362 3.04131 12.2071C2.66965 12.1166 2.37945 11.8263 2.28888 11.4547C2.25977 11.3352 2.25977 11.1904 2.25977 10.9006Z" stroke="#C7C7C7" stroke-width="0.888889" stroke-linecap="round" stroke-linejoin="round"/>
  <path d="M12.3634 13.2359V12.5319M3.67773 12.5319V13.2359" stroke="#C7C7C7" stroke-width="0.888889" stroke-linecap="round" stroke-linejoin="round"/>
  <path d="M12.3634 8.39642V5.14644C12.3634 4.75314 12.3634 4.55649 12.3067 4.39885C12.2098 4.12965 11.9978 3.91771 11.7287 3.82079C11.571 3.76404 11.3744 3.76404 10.981 3.76404H5.06013C4.66684 3.76404 4.47019 3.76404 4.31254 3.82079C4.04335 3.91771 3.8314 4.12965 3.73449 4.39885C3.67773 4.55649 3.67773 4.75314 3.67773 5.14644V8.39642" stroke="#C7C7C7" stroke-width="0.888889" stroke-linecap="round" stroke-linejoin="round"/>
</svg>