<svg xmlns="http://www.w3.org/2000/svg" width="16" height="7" viewBox="0 0 16 7" fill="none">
    <g clip-path="url(#clip0_13046_46215)">
        <path d="M3.70883 6.1473C3.70997 6.16223 3.70817 6.17723 3.70353 6.19145C3.6989 6.20567 3.69153 6.21883 3.68183 6.23018C3.67213 6.24153 3.6603 6.25084 3.64702 6.25759C3.63374 6.26433 3.61927 6.26837 3.60444 6.26948L3.73353 6.45256L3.69386 6.48372L3.54946 6.27368H3.45098V6.47497H3.39844V6.01953H3.53763C3.62914 6.01953 3.70883 6.04299 3.70883 6.1473ZM3.45202 6.22992H3.53937C3.60374 6.22992 3.65593 6.21137 3.65593 6.1473C3.65593 6.08324 3.60374 6.06504 3.53937 6.06504H3.45202V6.22992Z" fill="white"/>
        <path d="M4.64923 6.43401L4.63357 6.47952H4.35938V6.01953H4.64923L4.63357 6.06504H4.41087V6.22817H4.60783L4.59182 6.27298H4.41087V6.43401H4.64923Z" fill="white"/>
        <path d="M5.53165 6.37704H5.3187L5.27416 6.47856H5.22266L5.42517 6.01367L5.62769 6.47786H5.57619L5.53165 6.37704ZM5.42517 6.13199L5.33853 6.33153H5.51251L5.42517 6.13199Z" fill="white"/>
        <path d="M6.53986 6.435L6.5242 6.47981H6.25V6.03103L6.3015 6.01562V6.4357L6.53986 6.435Z" fill="white"/>
        <path d="M8.15739 6.43401L8.14139 6.47952H7.86719V6.01953H8.15739L8.14139 6.06504H7.92043V6.22817H8.11703L8.10102 6.27298H7.92043V6.43401H8.15739Z" fill="white"/>
        <path d="M8.91625 6.21736C8.9768 6.23767 9.07145 6.26707 9.07145 6.35144C9.07145 6.4358 9.01438 6.48516 8.89746 6.48516C8.84251 6.48638 8.7889 6.46803 8.74609 6.43335V6.37699C8.78989 6.41068 8.84222 6.4313 8.89711 6.4365C8.98341 6.4365 9.01647 6.4015 9.01647 6.35004C9.01647 6.29858 8.94896 6.28002 8.8905 6.26112C8.83204 6.24222 8.74749 6.21071 8.74749 6.13265C8.74749 6.04128 8.82439 6.00802 8.8992 6.00802C8.94795 6.00575 8.99577 6.02199 9.03317 6.05353V6.10779C8.99648 6.07382 8.94799 6.05571 8.89816 6.05738C8.83657 6.05738 8.80142 6.07979 8.80142 6.13405C8.80246 6.17885 8.86266 6.19881 8.91625 6.21736Z" fill="white"/>
        <path d="M9.88978 6.06504V6.47672H9.83793V6.06504H9.67578L9.69179 6.01953H10.0519L10.0359 6.06504H9.88978Z" fill="white"/>
        <path d="M10.95 6.37704H10.7367L10.6925 6.47856H10.6406L10.8435 6.01367L11.046 6.47786H10.9945L10.95 6.37704ZM10.8435 6.13199L10.7565 6.33153H10.9305L10.8435 6.13199Z" fill="white"/>
        <path d="M11.8507 6.06504V6.47672H11.7992V6.06504H11.6367L11.6527 6.01953H12.0129L11.9972 6.06504H11.8507Z" fill="white"/>
        <path d="M12.9305 6.43401L12.9148 6.47952H12.6406V6.01953H12.9305L12.9148 6.06504H12.6921V6.22817H12.8887L12.8731 6.27298H12.6921V6.43401H12.9305Z" fill="white"/>
        <path d="M9.13119 4.89062H7.21875V4.98864H9.13119V4.89062Z" fill="white"/>
        <path d="M4.16976 4.15572C4.02477 4.10734 3.87255 4.0846 3.71984 4.08851C3.28662 4.10286 2.8955 4.21419 2.51691 4.32201C2.16128 4.42282 1.79383 4.52749 1.39018 4.5527C1.18941 4.56495 1.05892 4.52329 0.990714 4.42457C0.951742 4.36821 0.937127 4.29295 0.945479 4.18793C0.962877 3.96634 1.05439 3.70134 1.13373 3.52701C1.36478 3.02117 1.67691 2.48417 2.08821 1.88556C2.14145 1.80784 2.19538 1.73048 2.24932 1.65346C2.32135 1.55089 2.39373 1.45007 2.46402 1.35381C2.52874 1.26524 2.59903 1.17142 2.68463 1.058C2.73822 0.98799 2.79424 0.915876 2.84852 0.847964C2.88332 0.804556 2.91812 0.761498 2.95082 0.71774C2.97963 0.685319 2.99943 0.645837 3.00824 0.603269C3.01105 0.586343 3.00803 0.568958 2.99968 0.553996C2.99133 0.539034 2.97814 0.527393 2.96231 0.521003C2.94659 0.516735 2.93007 0.516451 2.91423 0.520178C2.89838 0.523904 2.88369 0.531525 2.87149 0.542357C2.847 0.561618 2.82375 0.58243 2.80189 0.604669C2.76573 0.642402 2.73224 0.682641 2.70168 0.725091C2.39755 1.13502 2.099 1.55754 1.81401 1.98147C1.4382 2.54158 1.01855 3.1983 0.796896 3.92153C0.756358 4.04203 0.738078 4.16898 0.74296 4.2961C0.74818 4.38362 0.777757 4.54465 0.903722 4.63881C1.01472 4.72108 1.16226 4.73263 1.27849 4.73333H1.2938C1.72876 4.73333 2.15293 4.59961 2.56284 4.47078C2.63243 4.44838 2.70203 4.42632 2.77371 4.40497C3.30506 4.24289 3.76403 4.15782 4.27694 4.26985C4.29573 4.2744 4.30164 4.26705 4.30338 4.26074C4.31173 4.23239 4.21047 4.17043 4.16976 4.15572Z" fill="white"/>
        <path d="M3.2817 2.70086C3.29243 2.7065 3.30439 2.70939 3.3165 2.70926H3.32102C3.33353 2.70882 3.34563 2.70468 3.35582 2.69736C3.36138 2.69297 3.36673 2.68829 3.37182 2.68336C3.37845 2.67666 3.38594 2.67089 3.39409 2.6662L3.40871 2.65885C3.41855 2.65474 3.42799 2.6497 3.43689 2.6438C3.44349 2.63987 3.44907 2.63443 3.45318 2.62792C3.45729 2.62141 3.45982 2.61402 3.46055 2.60634C3.46055 2.57134 3.41288 2.54998 3.39096 2.54298C3.37623 2.53692 3.36002 2.53551 3.34448 2.53895C3.32894 2.54239 3.31481 2.55051 3.30397 2.56223C3.29163 2.57763 3.28177 2.59487 3.27474 2.61334C3.26778 2.6319 3.24586 2.68091 3.2817 2.70086Z" fill="white"/>
        <path d="M13.5103 1.12324C13.5206 1.12714 13.5317 1.12869 13.5427 1.12779C13.6029 1.12779 13.6982 1.08648 13.812 0.891498L13.8207 0.878896C13.8291 0.865011 13.8335 0.849092 13.8335 0.832863C13.8335 0.816634 13.8291 0.800714 13.8207 0.786829C13.8116 0.771051 13.7988 0.757702 13.7835 0.747898C13.7682 0.738093 13.7508 0.732117 13.7327 0.730469C13.6867 0.730469 13.6405 0.768276 13.5956 0.842839C13.586 0.853015 13.5795 0.865715 13.5768 0.879469C13.574 0.893223 13.5753 0.907468 13.5803 0.920554C13.5846 0.92841 13.5907 0.93515 13.5981 0.94025C13.6054 0.945351 13.6139 0.948673 13.6227 0.949959C13.5995 0.975461 13.5705 0.99492 13.5382 1.00667C13.523 1.00655 13.5081 1.01076 13.4952 1.01881C13.4824 1.02687 13.472 1.03844 13.4654 1.05218C13.4631 1.06986 13.4676 1.08777 13.478 1.10224C13.4857 1.11308 13.4973 1.12058 13.5103 1.12324Z" fill="white"/>
        <path d="M13.5608 2.75745C13.5752 2.74602 13.5891 2.73435 13.6026 2.72245L13.6057 2.72C13.6128 2.71382 13.6195 2.70728 13.6259 2.70039L13.6308 2.69479C13.6365 2.68906 13.6417 2.68272 13.6461 2.67589C13.661 2.64963 13.651 2.63668 13.6461 2.63248C13.6427 2.62951 13.6384 2.62767 13.6339 2.62723C13.6217 2.62665 13.6096 2.62969 13.5991 2.63598C13.5927 2.6394 13.5865 2.64326 13.5807 2.64753L13.5556 2.66574L13.5163 2.69689L13.4979 2.7116C13.4808 2.72525 13.4631 2.73925 13.4446 2.75185C13.2706 2.86877 13.0385 2.97589 12.7487 3.07076C12.4856 3.15688 11.9198 3.23214 11.7281 3.07566C11.5959 2.96784 11.5652 2.85232 11.56 2.7116C11.561 2.6985 11.5571 2.6855 11.5492 2.67509C11.5412 2.66469 11.5297 2.65762 11.5169 2.65524L11.5103 2.65243C11.4856 2.65122 11.4614 2.6599 11.4431 2.67659L11.3004 2.81416L11.2555 2.85302C11.1337 2.97026 10.9924 3.06505 10.838 3.13307C10.7868 3.15478 10.688 3.17333 10.6497 3.15338C10.6463 3.15193 10.6432 3.14969 10.6408 3.14683C10.6384 3.14397 10.6367 3.14058 10.6358 3.13692V3.13097C10.6257 3.06096 10.6974 3.01335 10.7548 2.97554L10.7597 2.97274C10.8237 2.93224 10.8944 2.90355 10.9685 2.88803C10.9994 2.88138 11.0638 2.86702 11.0683 2.81802C11.0679 2.80293 11.0627 2.78837 11.0534 2.77651C11.0442 2.76465 11.0313 2.75612 11.0168 2.7522C10.99 2.74593 10.962 2.74653 10.9354 2.75395C10.7778 2.78896 10.657 2.87263 10.5526 2.95839C10.2079 3.16675 9.8104 3.26977 9.40852 3.2549C9.1966 3.24509 9.05568 3.19048 8.97738 3.08791C8.89909 2.98535 8.90187 2.85162 8.91336 2.78266C8.94471 2.63381 8.99051 2.48842 9.05011 2.34858C9.17225 2.08603 9.28986 1.85184 9.40364 1.62499C9.51743 1.39815 9.63504 1.16326 9.75753 0.902111C9.79233 0.825447 9.7878 0.765236 9.74291 0.741082C9.73443 0.736389 9.72506 0.733529 9.71542 0.732685C9.70577 0.731841 9.69605 0.733032 9.68689 0.736181C9.64435 0.75654 9.61059 0.791742 9.5919 0.835249C9.38311 1.26898 8.87438 2.09828 8.86916 2.10668C8.86394 2.11509 8.2717 3.10752 7.86771 3.32771C7.82178 3.35291 7.74557 3.36482 7.70277 3.34066C7.69377 3.33589 7.68622 3.32874 7.68095 3.31999C7.67568 3.31123 7.67288 3.30119 7.67285 3.29095C7.66345 3.09737 7.8524 2.92969 8.02812 2.89958L8.04378 2.89713C8.10816 2.88663 8.20559 2.87087 8.19828 2.80751C8.19202 2.75465 8.1259 2.7375 8.06709 2.7403C7.96728 2.74897 7.87138 2.78346 7.78872 2.84042C7.78315 2.84427 7.77793 2.84882 7.77271 2.85302L7.76471 2.85932C7.69129 2.88908 7.61648 2.92128 7.53714 2.95489C7.19404 3.10157 6.8064 3.2675 6.49323 3.25665C6.32516 3.25034 6.21312 3.20519 6.15988 3.12257C6.13249 3.07214 6.11556 3.01665 6.11012 2.95944C6.09829 2.88943 6.08611 2.81732 6.03635 2.76376C5.96675 2.69094 5.84288 2.67239 5.70056 2.71475C5.47368 2.78196 5.28856 2.93424 5.12502 3.08546C5.15288 3.04152 5.17742 2.99553 5.19844 2.94789C5.21529 2.91487 5.21842 2.87646 5.20714 2.84112C5.204 2.83346 5.19928 2.82655 5.19328 2.82088C5.18727 2.8152 5.18014 2.81089 5.17234 2.80821C5.13754 2.79596 5.09787 2.81732 5.06273 2.86807C5.05194 2.88348 5.0415 2.89888 5.03141 2.91393C4.68762 3.10507 4.09642 3.31336 3.74393 3.39667C3.61622 3.42713 3.42693 3.46108 3.25886 3.40647C3.22007 3.39555 3.18625 3.37142 3.16317 3.33821C3.10053 3.23669 3.17917 3.10367 3.23693 3.0067L3.25607 2.97379C3.26443 2.96077 3.26908 2.9457 3.26951 2.9302C3.26993 2.91471 3.26613 2.8994 3.25851 2.88593C3.24981 2.87151 3.23761 2.85956 3.22307 2.85117C3.20853 2.84278 3.19211 2.83824 3.17534 2.83797C3.16107 2.83787 3.14704 2.8417 3.13478 2.84904C3.12251 2.85638 3.11247 2.86696 3.10575 2.87963C3.05616 2.97103 3.01806 3.06827 2.99231 3.16913C2.97664 3.21887 2.9726 3.27158 2.98048 3.32316C2.98453 3.34525 2.99155 3.36669 3.00136 3.38687L3.00554 3.39527C3.03407 3.45095 3.07823 3.49696 3.13254 3.5276C3.19492 3.5581 3.26327 3.57425 3.33263 3.57486C3.3462 3.57486 3.36081 3.57486 3.37577 3.57486C3.54256 3.57019 3.70831 3.5467 3.86989 3.50484C3.99586 3.46984 4.15905 3.42503 4.3052 3.37217C4.43847 3.32421 4.60654 3.24404 4.75478 3.17333C4.81324 3.14533 4.86926 3.11872 4.91937 3.09562C4.91345 3.10612 4.90753 3.11697 4.90197 3.12782C4.88979 3.15093 4.87761 3.17438 4.86717 3.19784C4.85673 3.22129 4.84455 3.24509 4.83237 3.26785C4.82019 3.2906 4.8115 3.31581 4.8014 3.33996C4.79792 3.34801 4.7941 3.35641 4.78992 3.36482C4.77618 3.38957 4.76743 3.41682 4.76417 3.44498C4.76442 3.46137 4.76943 3.47732 4.77858 3.49088C4.78773 3.50444 4.80062 3.51501 4.81567 3.5213C4.83753 3.53109 4.86197 3.53343 4.88526 3.52795C4.93004 3.51239 4.96943 3.4842 4.9987 3.44673C5.20748 3.21254 5.394 3.05011 5.58468 2.93249C5.65102 2.88729 5.7253 2.85522 5.80356 2.83797C5.83858 2.82918 5.87556 2.83315 5.90795 2.84917C5.95109 2.87543 5.96327 2.93039 5.97197 2.9843C5.98415 3.05851 5.99772 3.14218 6.04609 3.21009C6.09829 3.28395 6.18841 3.33506 6.31403 3.36237C6.49671 3.40157 6.75108 3.34486 6.95185 3.29235C7.1357 3.24092 7.31458 3.17297 7.48633 3.08932C7.5267 3.07111 7.56532 3.05431 7.6043 3.03646C7.56776 3.09282 7.49991 3.21149 7.51661 3.32316C7.52049 3.34996 7.52974 3.3757 7.5438 3.3988C7.55785 3.42191 7.57642 3.44191 7.59838 3.45758C7.72609 3.5542 7.99785 3.47159 8.18018 3.28255C8.49545 2.95279 8.71432 2.63563 8.94467 2.27156L8.94119 2.27892C8.88496 2.38776 8.83748 2.50096 8.79922 2.61743C8.73659 2.82747 8.75677 3.0221 8.8549 3.15408C9.00244 3.35256 9.28499 3.38547 9.49586 3.37847C9.83883 3.36573 10.1742 3.27298 10.4754 3.10752C10.4717 3.1361 10.4738 3.16513 10.4813 3.19293C10.4924 3.22794 10.529 3.25735 10.5857 3.2717C10.7531 3.31476 11.0753 3.23879 11.4386 2.88663C11.457 2.96253 11.4904 3.03394 11.5367 3.09667C11.5561 3.12281 11.5788 3.14634 11.6042 3.16668C11.7368 3.2717 11.9243 3.28675 12.1074 3.28745C12.1771 3.28766 12.2468 3.28368 12.3161 3.27555C12.5021 3.25101 12.6848 3.20569 12.8607 3.14042C12.916 3.12047 12.9609 3.10332 13.0023 3.08686C13.1052 3.04628 13.2049 2.99832 13.3009 2.94334L13.3131 2.93634C13.3284 2.92724 13.343 2.91778 13.358 2.90833L13.4081 2.87333C13.4258 2.86107 13.4429 2.84847 13.4606 2.83552C13.4784 2.82257 13.4954 2.80996 13.5128 2.79666C13.5302 2.78336 13.5448 2.77111 13.5608 2.75745Z" fill="white"/>
        <path d="M15.5868 2.77514C15.5792 2.77199 15.5639 2.77199 15.5148 2.80595L15.5124 2.8077C15.4365 2.85406 15.3545 2.88942 15.2688 2.91272C15.1804 2.93733 15.0909 2.95742 15.0005 2.97293C14.8028 3.00794 14.6052 3.03909 14.4034 3.0692C14.2934 3.08488 14.1844 3.10697 14.077 3.13536C14.0738 3.12101 14.0641 3.07725 14.061 3.0608C14.0526 3.01984 13.9914 2.65682 14.386 2.5357C14.4079 2.52905 14.4208 2.51539 14.4187 2.50069C14.4187 2.49439 14.4093 2.47374 14.3512 2.47689C14.1668 2.48634 13.8957 2.64002 13.9058 3.02474C13.908 3.07215 13.9157 3.11914 13.9287 3.16476L13.8828 3.17807C13.6893 3.23618 13.5536 3.34015 13.49 3.47877C13.4776 3.50175 13.4705 3.52719 13.469 3.55327C13.4676 3.57935 13.4719 3.60543 13.4816 3.62965C13.4981 3.65835 13.5211 3.68278 13.5486 3.70101C13.5762 3.71924 13.6075 3.73076 13.6403 3.73467C13.6599 3.73822 13.6798 3.73997 13.6998 3.73992C13.7507 3.73893 13.8012 3.73056 13.8498 3.71507C13.9298 3.69056 14.0707 3.63175 14.1146 3.50748C14.1333 3.44078 14.1345 3.37034 14.118 3.30304L14.1086 3.25053C14.4062 3.17177 14.7489 3.10595 15.0513 3.04819L15.0763 3.04329C15.2341 3.01728 15.3853 2.96082 15.5217 2.87701C15.5565 2.85356 15.5997 2.8042 15.5955 2.78599C15.5951 2.78359 15.5941 2.78133 15.5926 2.77943C15.591 2.77754 15.5891 2.77606 15.5868 2.77514ZM13.9726 3.38671C13.9744 3.41905 13.9677 3.45131 13.9531 3.48017C13.9256 3.52485 13.8832 3.55813 13.8334 3.57399C13.7753 3.59968 13.71 3.60402 13.649 3.58624C13.6425 3.58478 13.6365 3.5817 13.6315 3.5773C13.6265 3.57289 13.6227 3.5673 13.6204 3.56104C13.62 3.54571 13.6228 3.53047 13.6289 3.51637C13.6349 3.50228 13.6439 3.48969 13.6552 3.47947C13.697 3.4277 13.7481 3.38434 13.8059 3.3517C13.8536 3.32502 13.9052 3.30589 13.9587 3.29499C13.9661 3.32506 13.9708 3.35577 13.9726 3.38671Z" fill="white"/>
    </g>
    <defs>
        <clipPath id="clip0_13046_46215">
            <rect width="14.8548" height="5.97035" fill="white" transform="translate(0.742188 0.515625)"/>
        </clipPath>
    </defs>
</svg>
