<svg xmlns="http://www.w3.org/2000/svg" width="24" height="24" viewBox="0 0 24 24" fill="none">
  <path fill-rule="evenodd" clip-rule="evenodd" d="M17.3781 13.3165C17.3781 13.7197 17.0517 14.0365 16.6581 14.0365C16.2549 14.0365 15.9381 13.7197 15.9381 13.3165C15.9381 12.9229 16.2549 12.5965 16.6581 12.5965C17.0517 12.5965 17.3781 12.9133 17.3781 13.3069V13.3165ZM17.3781 16.1485C17.3781 16.5517 17.0517 16.8685 16.6581 16.8685C16.2549 16.8685 15.9381 16.5517 15.9381 16.1485C15.9381 15.7549 16.2549 15.4285 16.6581 15.4285C17.0517 15.4285 17.3781 15.7453 17.3781 16.1389V16.1485ZM9.11248 9.05413C9.11248 9.45733 8.78608 9.77413 8.39248 9.77413C7.98928 9.77413 7.67248 9.45733 7.67248 9.05413C7.67248 8.66053 7.98928 8.33413 8.39248 8.33413C8.78608 8.33413 9.11248 8.65094 9.11248 9.04454V9.05413ZM9.11248 12.2509C9.11248 12.6541 8.78608 12.9709 8.39248 12.9709C7.98928 12.9709 7.67248 12.6541 7.67248 12.2509C7.67248 11.8573 7.98928 11.5309 8.39248 11.5309C8.78608 11.5309 9.11248 11.8477 9.11248 12.2413V12.2509ZM9.11248 18.2893C9.11248 18.4484 8.98354 18.5773 8.82448 18.5773H7.96048C7.80143 18.5773 7.67248 18.4484 7.67248 18.2893V16.2253C7.67248 15.8317 7.98928 15.5053 8.39248 15.5053C8.78608 15.5053 9.11248 15.8317 9.11248 16.2253V18.2893ZM20.6133 18.5773H20.2581C20.099 18.5773 19.9701 18.4484 19.9701 18.2893V10.7341C19.9701 10.1965 19.7301 9.66853 19.3269 9.30373C18.9237 8.93893 18.3765 8.76613 17.8389 8.83333L13.9396 9.24757C13.7932 9.26313 13.6821 9.38668 13.6821 9.53396V18.2893C13.6821 18.4484 13.5532 18.5773 13.3941 18.5773H12.9909C12.8318 18.5773 12.7029 18.4484 12.7029 18.2893V6.96133C12.7029 5.97253 11.9637 5.14693 10.9749 5.05093L6.19408 4.57093C5.64688 4.51333 5.10928 4.68613 4.70608 5.05093C4.31248 5.41573 4.08208 5.93413 4.08208 6.47173V18.2893C4.08208 18.4484 3.95314 18.5773 3.79408 18.5773H3.33328C2.93968 18.5773 2.61328 18.9037 2.61328 19.2973C2.61328 19.7005 2.93968 20.0173 3.33328 20.0173H20.6133C21.0165 20.0173 21.3333 19.7005 21.3333 19.2973C21.3333 18.9037 21.0165 18.5773 20.6133 18.5773Z" fill="#1A5CEB"/>
</svg>