<svg xmlns="http://www.w3.org/2000/svg" width="18" height="18" viewBox="0 0 18 18" fill="none">
    <path d="M2.46484 11.7006C2.46484 11.0895 2.46484 10.7838 2.52625 10.5318C2.71731 9.74782 3.32943 9.13567 4.11343 8.94466C4.36545 8.88324 4.67104 8.88324 5.28223 8.88324H12.6074C13.2186 8.88324 13.5242 8.88324 13.7763 8.94466C14.5602 9.13567 15.1724 9.74782 15.3634 10.5318C15.4249 10.7838 15.4249 11.0895 15.4249 11.7006C15.4249 12.0266 15.4249 12.1896 15.3921 12.324C15.2902 12.7421 14.9637 13.0686 14.5456 13.1705C14.4112 13.2032 14.2482 13.2032 13.9222 13.2032H3.96745C3.64148 13.2032 3.4785 13.2032 3.34409 13.1705C2.92596 13.0686 2.59949 12.7421 2.4976 12.324C2.46484 12.1896 2.46484 12.0266 2.46484 11.7006Z" stroke="#C7C7C7" stroke-width="1.35" stroke-linecap="round" stroke-linejoin="round"/>
    <path d="M13.83 14.3278V13.5358M4.05859 13.5358V14.3278" stroke="#C7C7C7" stroke-width="1.35" stroke-linecap="round" stroke-linejoin="round"/>
    <path d="M13.83 8.88349V5.22726C13.83 4.7848 13.83 4.56357 13.7662 4.38622C13.6571 4.08337 13.4187 3.84494 13.1159 3.73591C12.9385 3.67206 12.7173 3.67206 12.2748 3.67206H5.61379C5.17133 3.67206 4.9501 3.67206 4.77275 3.73591C4.46991 3.84494 4.23147 4.08337 4.12244 4.38622C4.05859 4.56357 4.05859 4.7848 4.05859 5.22726V8.88349" stroke="#C7C7C7" stroke-width="1.35" stroke-linecap="round" stroke-linejoin="round"/>
</svg>
