<svg xmlns="http://www.w3.org/2000/svg" width="18" height="18" viewBox="0 0 18 18" fill="none">
    <path fill-rule="evenodd" clip-rule="evenodd" d="M12.421 14.1529H5.57976C3.74083 14.1529 2.25 12.6628 2.25 10.8239V10.2371C2.25 9.6979 2.68711 9.26147 3.22564 9.26147H14.7743C15.3136 9.26147 15.75 9.6979 15.75 10.2371V10.8239C15.75 12.6628 14.2599 14.1529 12.421 14.1529Z" stroke="#C7C7C7" stroke-width="1.35" stroke-linecap="round" stroke-linejoin="round"/>
    <path d="M14.2102 9.26078V3.97679C14.2102 3.0493 13.3856 2.33927 12.4683 2.47792L11.0628 2.68955C10.3215 2.80119 9.77344 3.43825 9.77344 4.18841V4.94222" stroke="#C7C7C7" stroke-width="1.35" stroke-linecap="round" stroke-linejoin="round"/>
    <path fill-rule="evenodd" clip-rule="evenodd" d="M8.25391 6.32204C8.25391 5.53831 8.97338 4.90637 9.84616 4.94358C10.6627 4.97861 11.291 5.61785 11.291 6.36071C11.291 6.50447 11.1626 6.62123 11.0042 6.62123H8.54063C8.38231 6.62123 8.25391 6.50447 8.25391 6.36071V6.32204Z" stroke="#C7C7C7" stroke-width="1.35" stroke-linecap="round" stroke-linejoin="round"/>
    <path d="M5.58123 14.1526L4.55469 15.5392" stroke="#C7C7C7" stroke-width="1.35" stroke-linecap="round" stroke-linejoin="round"/>
    <path d="M13.5502 15.5391L12.5234 14.1526" stroke="#C7C7C7" stroke-width="1.35" stroke-linecap="round" stroke-linejoin="round"/>
</svg>
