<svg xmlns="http://www.w3.org/2000/svg" width="18" height="18" viewBox="0 0 18 18" fill="none">
  <path fill-rule="evenodd" clip-rule="evenodd" d="M12.4594 1.97998H9.03941C7.41941 1.97998 6.10181 3.29758 6.10181 4.91758V8.27998H10.2706L9.14741 7.16398C8.93861 6.94798 8.93141 6.60958 9.14741 6.39358C9.35621 6.18478 9.69461 6.18478 9.91061 6.39358L11.9626 8.43838C12.0634 8.53918 12.121 8.67598 12.121 8.81998C12.121 8.96398 12.0634 9.10078 11.9626 9.20158L9.91061 11.2464C9.80261 11.3544 9.66581 11.4048 9.52901 11.4048C9.39221 11.4048 9.24821 11.3472 9.14741 11.2464C8.93141 11.0304 8.93861 10.692 9.14741 10.4832L10.2706 9.35998H6.10181V12.7224C6.10181 14.3424 7.41221 15.66 9.03221 15.66H12.4522C14.0794 15.66 15.397 14.3424 15.397 12.7224V4.91758C15.397 3.29758 14.0794 1.97998 12.4594 1.97998Z" fill="#E42B30"/>
  <path fill-rule="evenodd" clip-rule="evenodd" d="M3.14315 8.28027C2.84795 8.28027 2.60315 8.52507 2.60315 8.82027C2.60315 9.12267 2.84795 9.36027 3.14315 9.36027H6.10235V8.28027H3.14315Z" fill="#E42B30"/>
</svg>