<svg xmlns="http://www.w3.org/2000/svg" width="50" height="49" viewBox="0 0 50 49" fill="none">
  <path d="M25 13.25C25 19.4632 19.9632 24.5 13.75 24.5H2.5V13.25C2.5 7.03679 7.53679 2 13.75 2C19.9632 2 25 7.03679 25 13.25Z" fill="#1A5CEB"/>
  <path d="M25 35.75C25 29.5368 30.0368 24.5 36.25 24.5H47.5V35.75C47.5 41.9632 42.4632 47 36.25 47C30.0368 47 25 41.9632 25 35.75Z" fill="#1A5CEB"/>
  <path d="M2.5 35.75C2.5 41.9632 7.53679 47 13.75 47H25V35.75C25 29.5368 19.9632 24.5 13.75 24.5C7.53679 24.5 2.5 29.5368 2.5 35.75Z" fill="#1A5CEB"/>
  <path d="M47.5 13.25C47.5 7.03679 42.4632 2 36.25 2H25V13.25C25 19.4632 30.0368 24.5 36.25 24.5C42.4632 24.5 47.5 19.4632 47.5 13.25Z" fill="#1A5CEB"/>
</svg>