<svg xmlns="http://www.w3.org/2000/svg" width="62" height="14" viewBox="0 0 62 14" fill="none">
    <g clip-path="url(#clip0_11709_41063)">
        <mask id="mask0_11709_41063" style="mask-type:luminance" maskUnits="userSpaceOnUse" x="0" y="0" width="62" height="14">
            <path d="M62.0005 0.304688H0.310547V13.6986H62.0005V0.304688Z" fill="white"/>
        </mask>
        <g mask="url(#mask0_11709_41063)">
            <path d="M2.91291 0.304688L0.310547 0.740931V13.5091H2.91291V0.304688Z" fill="white"/>
            <mask id="mask1_11709_41063" style="mask-type:luminance" maskUnits="userSpaceOnUse" x="0" y="0" width="62" height="14">
                <path d="M62.0005 0.304688H0.310547V13.6986H62.0005V0.304688Z" fill="white"/>
            </mask>
            <g mask="url(#mask1_11709_41063)">
                <path d="M8.81978 13.698C7.88222 13.711 6.95767 13.4747 6.14088 13.014C5.3595 12.5741 4.70565 11.9395 4.24234 11.1716C3.77017 10.3866 3.52654 9.48548 3.53956 8.56926C3.52706 7.652 3.76653 6.7488 4.23245 5.95804C4.69055 5.18394 5.34544 4.54467 6.13151 4.10635C6.95194 3.64616 7.87909 3.41034 8.81978 3.42231C9.75942 3.41034 10.686 3.64616 11.506 4.10583C12.292 4.54415 12.9474 5.1829 13.4055 5.95752C13.8709 6.74828 14.1104 7.65148 14.0984 8.56874C14.1114 9.48339 13.8715 10.384 13.4055 11.1711C12.9474 11.9395 12.2957 12.5746 11.5164 13.0134C10.6933 13.4757 9.76306 13.7115 8.81925 13.6969M8.81925 11.4371C9.3112 11.4444 9.7943 11.3127 10.2149 11.0571C10.6277 10.8025 10.9677 10.4459 11.2025 10.0217C11.4513 9.57814 11.5788 9.07734 11.5726 8.56874C11.5809 8.05701 11.4539 7.55205 11.2035 7.10592C10.9651 6.68425 10.6257 6.32921 10.216 6.07101C9.36118 5.55199 8.28827 5.55199 7.43348 6.07101C7.02066 6.32505 6.6802 6.68112 6.44594 7.10592C6.20075 7.55361 6.07633 8.05753 6.08466 8.56822C6.07841 9.07526 6.20283 9.57606 6.44594 10.0211C6.67708 10.448 7.01754 10.8057 7.43348 11.0566C7.8515 11.3101 8.33199 11.4413 8.82082 11.4366" fill="white"/>
                <path d="M14.7437 13.5089V3.61325H17.3461V4.37278C18.0557 3.73975 18.9792 3.40034 19.9292 3.42324C20.5279 3.41283 21.1208 3.5461 21.657 3.81263C22.1583 4.06824 22.5889 4.44409 22.9106 4.90585C23.3005 4.43577 23.7909 4.05887 24.3448 3.80274C24.921 3.54454 25.5463 3.41491 26.1772 3.42272C26.8659 3.40815 27.5458 3.58202 28.1429 3.92612C28.7036 4.25877 29.1632 4.73822 29.4719 5.3119C29.8061 5.947 29.9732 6.65655 29.9561 7.3739V13.5073H27.373V7.75289C27.4042 7.19639 27.221 6.64978 26.8607 6.22447C26.5088 5.84653 26.009 5.64194 25.4932 5.66433C25.1209 5.65964 24.7529 5.74398 24.4202 5.91108C24.0871 6.08495 23.8028 6.33952 23.5936 6.65186L23.631 6.99388C23.6446 7.12038 23.6508 7.2474 23.6503 7.37443V13.5079H21.0485V7.75289C21.0792 7.19795 20.8996 6.65238 20.5451 6.22447C20.1978 5.84549 19.7002 5.64038 19.1869 5.66433C18.8225 5.65808 18.4617 5.73565 18.1322 5.89182C17.8157 6.04904 17.5445 6.28486 17.3446 6.57638V13.5084H14.7422L14.7437 13.5089Z" fill="white"/>
                <path d="M35.8085 13.6972C34.871 13.7102 33.947 13.4738 33.1307 13.0131C32.3493 12.5732 31.6949 11.9387 31.2316 11.1708C30.7589 10.3858 30.5153 9.48465 30.5278 8.56843C30.5158 7.65118 30.7553 6.74797 31.2207 5.95722C31.6788 5.1826 32.3342 4.54385 33.1203 4.10552C34.796 3.19399 36.8195 3.19399 38.4952 4.10552C39.2813 4.54333 39.9367 5.1826 40.3948 5.95722C40.8602 6.74797 41.0997 7.65118 41.0877 8.56843C41.1007 9.48309 40.8607 10.3837 40.3948 11.1708C39.9367 11.9397 39.2855 12.5748 38.5057 13.0131C37.6826 13.4754 36.7523 13.7112 35.8085 13.6966M35.8085 11.4368C36.3005 11.4441 36.7846 11.3124 37.2047 11.0568C37.6175 10.8022 37.9575 10.4456 38.1923 10.0214C38.4411 9.57783 38.5686 9.07704 38.5624 8.56843C38.5707 8.05671 38.4432 7.55175 38.1928 7.10561C37.9544 6.68394 37.6149 6.32891 37.2052 6.0707C36.3505 5.55169 35.2776 5.55169 34.4228 6.0707C34.0099 6.32475 33.6695 6.68082 33.4352 7.10561C33.19 7.55383 33.0656 8.05775 33.0739 8.56895C33.0677 9.076 33.1921 9.57679 33.4352 10.0219C33.6664 10.4488 34.0068 10.8064 34.4228 11.0573C34.8403 11.3103 35.3202 11.442 35.8085 11.4373" fill="white"/>
                <path d="M41.7344 13.5093V3.61364H44.3367V4.43043C45.0989 3.75368 46.0906 3.39344 47.1093 3.42363C47.8225 3.40905 48.5264 3.58241 49.151 3.92703C49.7299 4.25239 50.2063 4.73184 50.528 5.31281C50.8684 5.94531 51.0387 6.6559 51.0225 7.37429V13.5077H48.4202V7.75431C48.4509 7.19157 48.252 6.64028 47.8699 6.2259C47.4691 5.83911 46.9256 5.63608 46.3691 5.66576C45.962 5.65795 45.5591 5.74541 45.1921 5.92188C44.8516 6.09159 44.558 6.34251 44.3378 6.65277V13.5093H41.7344Z" fill="white"/>
                <path d="M59.3953 0.743014V4.25951C59.0023 4.00391 58.5733 3.80817 58.1225 3.67855C56.7716 3.29488 55.3229 3.46563 54.0985 4.15384C52.5253 5.056 51.5653 6.73955 51.5903 8.55272C51.5789 9.4554 51.8121 10.3445 52.2655 11.1249C52.7028 11.8802 53.3264 12.5112 54.0771 12.9568C54.846 13.4149 55.7268 13.6528 56.6222 13.6434H56.6514C58.0382 13.6205 59.3964 13.2457 60.5984 12.5539L61.9982 11.7714V0.304688L59.3948 0.743014H59.3953ZM59.3953 10.47C59.1101 10.7844 58.7561 11.0286 58.3604 11.1832C57.9393 11.3456 57.4916 11.4263 57.0402 11.4206C56.0121 11.4378 55.0537 10.9005 54.5316 10.0145C54.2765 9.56993 54.1469 9.06444 54.1568 8.5522C54.1479 8.0363 54.2775 7.5277 54.5316 7.07896C54.7789 6.65105 55.1365 6.29705 55.567 6.05447C56.0173 5.80407 56.5254 5.67653 57.0402 5.68486C57.4885 5.67965 57.933 5.76242 58.3495 5.92797C58.7399 6.08518 59.0955 6.3184 59.3948 6.61409V10.4695L59.3953 10.47Z" fill="white"/>
            </g>
        </g>
    </g>
    <defs>
        <clipPath id="clip0_11709_41063">
            <rect width="61.69" height="13.3939" fill="white" transform="translate(0.310547 0.304688)"/>
        </clipPath>
    </defs>
</svg>
