<svg width="16" height="16" viewBox="0 0 16 16" fill="none" xmlns="http://www.w3.org/2000/svg">
<path fill-rule="evenodd" clip-rule="evenodd" d="M5.84457 11.1738C5.38124 11.1738 5.00391 11.5505 5.00391 12.0145C5.00391 12.4778 5.38124 12.8545 5.84457 12.8545C6.30791 12.8545 6.68527 12.4778 6.68527 12.0145C6.68527 11.5505 6.30791 11.1738 5.84457 11.1738Z" fill="#181A1B"/>
<path fill-rule="evenodd" clip-rule="evenodd" d="M5.84457 7.16016C5.38124 7.16016 5.00391 7.53682 5.00391 8.00082C5.00391 8.46416 5.38124 8.84082 5.84457 8.84082C6.30791 8.84082 6.68527 8.46416 6.68527 8.00082C6.68527 7.53682 6.30791 7.16016 5.84457 7.16016Z" fill="#181A1B"/>
<path fill-rule="evenodd" clip-rule="evenodd" d="M5.84457 3.14648C5.38124 3.14648 5.00391 3.52315 5.00391 3.98715C5.00391 4.45048 5.38124 4.82715 5.84457 4.82715C6.30791 4.82715 6.68527 4.45048 6.68527 3.98715C6.68527 3.52315 6.30791 3.14648 5.84457 3.14648Z" fill="#181A1B"/>
<path fill-rule="evenodd" clip-rule="evenodd" d="M10.1571 11.1738C9.69374 11.1738 9.31641 11.5505 9.31641 12.0145C9.31641 12.4778 9.69374 12.8545 10.1571 12.8545C10.6204 12.8545 10.9977 12.4778 10.9977 12.0145C10.9977 11.5505 10.6204 11.1738 10.1571 11.1738Z" fill="#181A1B"/>
<path fill-rule="evenodd" clip-rule="evenodd" d="M10.1571 7.16016C9.69374 7.16016 9.31641 7.53682 9.31641 8.00082C9.31641 8.46416 9.69374 8.84082 10.1571 8.84082C10.6204 8.84082 10.9977 8.46416 10.9977 8.00082C10.9977 7.53682 10.6204 7.16016 10.1571 7.16016Z" fill="#181A1B"/>
<path fill-rule="evenodd" clip-rule="evenodd" d="M10.1571 4.82715C10.6204 4.82715 10.9977 4.45048 10.9977 3.98648C10.9977 3.52315 10.6204 3.14648 10.1571 3.14648C9.69374 3.14648 9.31641 3.52315 9.31641 3.98648C9.31641 4.45048 9.69374 4.82715 10.1571 4.82715Z" fill="#181A1B"/>
</svg>
