<svg xmlns="http://www.w3.org/2000/svg" width="17" height="17" viewBox="0 0 17 17" fill="none">
  <path d="M3.8593 3.59546H10.3828C11.4862 3.59546 12.1724 4.37385 12.1724 5.47591V9.62794C12.1724 10.73 11.4862 11.509 10.3822 11.509H3.8593C2.75659 11.509 2.07031 10.73 2.07031 9.62794V5.47591C2.07031 4.37385 2.75983 3.59546 3.8593 3.59546Z" stroke="#C7C7C7" stroke-linecap="round" stroke-linejoin="round"/>
  <path d="M12.171 5.48962H12.2845C13.3852 5.48962 14.0709 6.26995 14.0709 7.3707V11.5228C14.0709 12.6242 13.3852 13.4038 12.278 13.4038H5.76032C4.65307 13.4038 3.9668 12.6242 3.9668 11.5228" stroke="#C7C7C7" stroke-linecap="round" stroke-linejoin="round"/>
  <path d="M3.87305 9.54431H4.66051" stroke="#C7C7C7" stroke-linecap="round" stroke-linejoin="round"/>
  <path fill-rule="evenodd" clip-rule="evenodd" d="M8.40398 7.5519C8.40398 6.8429 7.82924 6.26819 7.12024 6.26819C6.41064 6.26819 5.83594 6.8429 5.83594 7.5519C5.83594 8.26083 6.41064 8.83556 7.12024 8.83556C7.82924 8.83556 8.40398 8.26083 8.40398 7.5519Z" stroke="#C7C7C7" stroke-linecap="round" stroke-linejoin="round"/>
  <path d="M10.3675 5.55994H9.58008" stroke="#C7C7C7" stroke-linecap="round" stroke-linejoin="round"/>
</svg>