<svg xmlns="http://www.w3.org/2000/svg" width="18" height="19" viewBox="0 0 18 19" fill="none">
  <path d="M4.26261 3.98193H11.6015C12.8429 3.98193 13.6149 4.85762 13.6149 6.09744V10.7685C13.6149 12.0083 12.8429 12.8847 11.6009 12.8847H4.26261C3.02206 12.8847 2.25 12.0083 2.25 10.7685V6.09744C2.25 4.85762 3.02571 3.98193 4.26261 3.98193Z" stroke="#CBD0DD" stroke-width="1.125" stroke-linecap="round" stroke-linejoin="round"/>
  <path d="M13.6125 6.11328H13.7402C14.9785 6.11328 15.7499 6.99115 15.7499 8.2295V12.9006C15.7499 14.1396 14.9786 15.0168 13.733 15.0168H6.40053C5.15487 15.0168 4.38281 14.1396 4.38281 12.9006" stroke="#CBD0DD" stroke-width="1.125" stroke-linecap="round" stroke-linejoin="round"/>
  <path d="M4.27734 10.6748H5.16324" stroke="#CBD0DD" stroke-width="1.125" stroke-linecap="round" stroke-linejoin="round"/>
  <path fill-rule="evenodd" clip-rule="evenodd" d="M9.37537 8.43343C9.37537 7.6358 8.7288 6.98926 7.93117 6.98926C7.13287 6.98926 6.48633 7.6358 6.48633 8.43343C6.48633 9.23098 7.13287 9.87755 7.93117 9.87755C8.7288 9.87755 9.37537 9.23098 9.37537 8.43343Z" stroke="#CBD0DD" stroke-width="1.125" stroke-linecap="round" stroke-linejoin="round"/>
  <path d="M11.5851 6.19238H10.6992" stroke="#CBD0DD" stroke-width="1.125" stroke-linecap="round" stroke-linejoin="round"/>
</svg>