<svg xmlns="http://www.w3.org/2000/svg" width="18" height="18" viewBox="0 0 18 18" fill="none">
    <path d="M4.82031 13.3151C4.82031 14.0777 5.43857 14.696 6.20123 14.696H8.50973C9.27245 14.696 9.89068 14.0777 9.89068 13.3151V12.2794C9.89068 11.5167 9.27245 10.8984 8.50973 10.8984H6.20123C5.43857 10.8984 4.82031 11.5167 4.82031 12.2794V13.3151Z" stroke="#1A5CEB" stroke-width="1.03846" stroke-linecap="round" stroke-linejoin="round"/>
    <path d="M13.1563 4.68439C13.1563 3.92173 12.5381 3.30347 11.7754 3.30347H8.52157C7.75886 3.30347 7.14062 3.92173 7.14062 4.68439V5.72008C7.14062 6.48274 7.75886 7.101 8.52157 7.101H11.7754C12.5381 7.101 13.1563 6.48274 13.1563 5.72008V4.68439Z" stroke="#1A5CEB" stroke-width="1.03846" stroke-linecap="round" stroke-linejoin="round"/>
    <path d="M2.75586 12.7915H4.75984M9.93207 12.7915H15.2173" stroke="#1A5CEB" stroke-width="1.03846" stroke-linecap="round" stroke-linejoin="round"/>
    <path d="M15.2169 5.20852H13.2129M7.05262 5.2085H2.75586" stroke="#1A5CEB" stroke-width="1.03846" stroke-linecap="round" stroke-linejoin="round"/>
</svg>
