<svg xmlns="http://www.w3.org/2000/svg" width="24" height="24" viewBox="0 0 24 24" fill="none">
    <path fill-rule="evenodd" clip-rule="evenodd" d="M11.033 13.0547C13.0893 13.0763 14.9143 13.3246 16.2472 13.986C16.9254 14.3226 17.5009 14.7782 17.9034 15.387C18.3089 16.0003 18.5075 16.7221 18.5032 17.5352V17.5513L18.5024 17.5673C18.4634 18.3788 18.1969 19.1385 17.6749 19.7049C17.1432 20.2816 16.3986 20.5997 15.533 20.5997H6.51717C5.65108 20.5997 4.90469 20.2822 4.37207 19.7053C3.84864 19.1383 3.58234 18.3771 3.54756 17.5633L3.54688 17.5473V17.5313C3.54688 16.7167 3.74789 15.9943 4.15405 15.3807C4.55743 14.7712 5.13263 14.3149 5.81083 13.9782C7.14364 13.3163 8.96577 13.071 11.0192 13.0548L11.033 13.0547ZM5.04692 17.5151C5.07245 18.0428 5.24125 18.4355 5.47421 18.6878C5.7003 18.9327 6.03523 19.0997 6.51717 19.0997H15.533C16.0129 19.0997 16.3461 18.9333 16.5719 18.6882C16.8051 18.4353 16.9749 18.0411 17.0033 17.5111C17.0036 16.9641 16.8716 16.5462 16.6521 16.2142C16.4275 15.8745 16.0797 15.5774 15.5804 15.3297C14.5597 14.8232 13.0157 14.5763 11.0241 14.5548C9.03665 14.571 7.49707 14.8156 6.47799 15.3216C5.97967 15.5691 5.63112 15.8667 5.40486 16.2086C5.18355 16.5429 5.04949 16.9641 5.04692 17.5151Z" fill="black"/>
    <path fill-rule="evenodd" clip-rule="evenodd" d="M18.0918 14.2327C18.2201 13.8388 18.6434 13.6236 19.0373 13.752C19.9092 14.0361 20.6731 14.4624 21.2196 15.0973C21.7782 15.7463 22.06 16.5561 22.055 17.5012V17.5172L22.0542 17.5333C22.0168 18.3107 21.7614 19.0412 21.2585 19.5867C20.7459 20.1428 20.0286 20.4486 19.1969 20.4486C18.7827 20.4486 18.4469 20.1128 18.4469 19.6986C18.4469 19.2844 18.7827 18.9486 19.1969 18.9486C19.6429 18.9486 19.9488 18.7944 20.1555 18.5701C20.3696 18.3378 20.5283 17.9729 20.5551 17.4771C20.5553 16.8631 20.3783 16.4192 20.0827 16.0758C19.7724 15.7153 19.2821 15.4094 18.5725 15.1781C18.1787 15.0498 17.9635 14.6265 18.0918 14.2327Z" fill="black"/>
    <path fill-rule="evenodd" clip-rule="evenodd" d="M10.7792 4.90234C9.25294 4.90234 8.01563 6.13965 8.01563 7.66594C8.01563 9.19223 9.25294 10.4295 10.7792 10.4295C12.3055 10.4295 13.5428 9.19223 13.5428 7.66594C13.5428 6.13965 12.3055 4.90234 10.7792 4.90234ZM6.51562 7.66594C6.51562 5.31122 8.42451 3.40234 10.7792 3.40234C13.1339 3.40234 15.0428 5.31122 15.0428 7.66594C15.0428 10.0207 13.1339 11.9295 10.7792 11.9295C8.42451 11.9295 6.51562 10.0207 6.51562 7.66594Z" fill="black"/>
    <path fill-rule="evenodd" clip-rule="evenodd" d="M15.8052 4.75791C15.9498 4.36976 16.3817 4.17232 16.7699 4.31692C18.2101 4.85346 19.238 6.24121 19.238 7.87091C19.238 9.50062 18.2101 10.8884 16.7699 11.4249C16.3817 11.5695 15.9498 11.3721 15.8052 10.9839C15.6606 10.5958 15.8581 10.1639 16.2462 10.0193C17.1186 9.6943 17.738 8.854 17.738 7.87091C17.738 6.88783 17.1186 6.04752 16.2462 5.72255C15.8581 5.57795 15.6606 5.14607 15.8052 4.75791Z" fill="black"/>
</svg>
