<svg width="99" height="64" viewBox="0 0 99 64" fill="none" xmlns="http://www.w3.org/2000/svg">
<g opacity="0.4">
<rect x="60.2609" y="13.0437" width="38.7391" height="38.7391" rx="2.70414" fill="url(#paint0_linear_7524_22989)"/>
<path d="M83.3512 31.025H80.871M80.8712 28.8457H83.3514" stroke="#A6ABBF" stroke-width="0.676666" stroke-linecap="round" stroke-linejoin="round"/>
<path fill-rule="evenodd" clip-rule="evenodd" d="M81.5241 33.3157H82.6988C83.2465 33.3157 83.6904 33.7596 83.6904 34.3072V35.4819C83.6904 36.0296 83.2465 36.4734 82.6988 36.4734H81.5241C80.9765 36.4734 80.5326 36.0296 80.5326 35.4819V34.3072C80.5326 33.7596 80.9765 33.3157 81.5241 33.3157Z" stroke="#A6ABBF" stroke-width="0.676666" stroke-linecap="round" stroke-linejoin="round"/>
<path fill-rule="evenodd" clip-rule="evenodd" d="M76.5619 33.3157H77.7365C78.2842 33.3157 78.7281 33.7596 78.7281 34.3072V35.4819C78.7281 36.0296 78.2842 36.4734 77.7365 36.4734H76.5619C76.0142 36.4734 75.5703 36.0296 75.5703 35.4819V34.3072C75.5703 33.7596 76.0142 33.3157 76.5619 33.3157Z" stroke="#A6ABBF" stroke-width="0.676666" stroke-linecap="round" stroke-linejoin="round"/>
<path fill-rule="evenodd" clip-rule="evenodd" d="M76.5619 28.3533H77.7365C78.2842 28.3533 78.7281 28.7972 78.7281 29.3448V30.5195C78.7281 31.0672 78.2842 31.511 77.7365 31.511H76.5619C76.0142 31.511 75.5703 31.0672 75.5703 30.5195V29.3448C75.5703 28.7972 76.0142 28.3533 76.5619 28.3533Z" stroke="#A6ABBF" stroke-width="0.676666" stroke-linecap="round" stroke-linejoin="round"/>
</g>
<g opacity="0.4">
<rect y="13.0437" width="38.7391" height="38.7391" rx="2.70414" fill="url(#paint1_linear_7524_22989)"/>
<path d="M23.0903 31.025H20.6101M20.6103 28.8457H23.0905" stroke="#A6ABBF" stroke-width="0.676666" stroke-linecap="round" stroke-linejoin="round"/>
<path fill-rule="evenodd" clip-rule="evenodd" d="M21.2633 33.3157H22.438C22.9856 33.3157 23.4295 33.7596 23.4295 34.3072V35.4819C23.4295 36.0296 22.9856 36.4734 22.438 36.4734H21.2633C20.7156 36.4734 20.2717 36.0296 20.2717 35.4819V34.3072C20.2717 33.7596 20.7156 33.3157 21.2633 33.3157Z" stroke="#A6ABBF" stroke-width="0.676666" stroke-linecap="round" stroke-linejoin="round"/>
<path fill-rule="evenodd" clip-rule="evenodd" d="M16.301 33.3157H17.4757C18.0233 33.3157 18.4672 33.7596 18.4672 34.3072V35.4819C18.4672 36.0296 18.0233 36.4734 17.4757 36.4734H16.301C15.7533 36.4734 15.3094 36.0296 15.3094 35.4819V34.3072C15.3094 33.7596 15.7533 33.3157 16.301 33.3157Z" stroke="#A6ABBF" stroke-width="0.676666" stroke-linecap="round" stroke-linejoin="round"/>
<path fill-rule="evenodd" clip-rule="evenodd" d="M16.301 28.3533H17.4757C18.0233 28.3533 18.4672 28.7972 18.4672 29.3448V30.5195C18.4672 31.0672 18.0233 31.511 17.4757 31.511H16.301C15.7533 31.511 15.3094 31.0672 15.3094 30.5195V29.3448C15.3094 28.7972 15.7533 28.3533 16.301 28.3533Z" stroke="#A6ABBF" stroke-width="0.676666" stroke-linecap="round" stroke-linejoin="round"/>
</g>
<g filter="url(#filter0_f_7524_22989)">
<rect x="73.1738" y="13.0437" width="5.73913" height="38.0217" fill="#A6ABBF" fill-opacity="0.8"/>
</g>
<g filter="url(#filter1_f_7524_22989)">
<rect x="24.3912" y="13.0437" width="5.73913" height="38.0217" fill="#A6ABBF" fill-opacity="0.8"/>
</g>
<rect x="21.5217" y="3" width="55.9565" height="55.9565" rx="3.90598" fill="url(#paint2_linear_7524_22989)"/>
<rect x="21.7011" y="3.17935" width="55.5978" height="55.5978" rx="3.72664" stroke="url(#paint3_linear_7524_22989)" stroke-opacity="0.3" stroke-width="0.358696"/>
<path d="M56.3585 28.4195H51.7867M51.7872 24.4023H56.3589" stroke="#A6ABBF" stroke-width="1.24728" stroke-linecap="round" stroke-linejoin="round"/>
<path fill-rule="evenodd" clip-rule="evenodd" d="M52.9908 32.6414H55.1561C56.1655 32.6414 56.9837 33.4596 56.9837 34.469V36.6343C56.9837 37.6438 56.1655 38.462 55.1561 38.462H52.9908C51.9813 38.462 51.1631 37.6438 51.1631 36.6343V34.469C51.1631 33.4596 51.9813 32.6414 52.9908 32.6414Z" stroke="#A6ABBF" stroke-width="1.24728" stroke-linecap="round" stroke-linejoin="round"/>
<path fill-rule="evenodd" clip-rule="evenodd" d="M43.844 32.6414H46.0093C47.0188 32.6414 47.837 33.4596 47.837 34.469V36.6343C47.837 37.6438 47.0188 38.462 46.0093 38.462H43.844C42.8346 38.462 42.0164 37.6438 42.0164 36.6343V34.469C42.0164 33.4596 42.8346 32.6414 43.844 32.6414Z" stroke="#A6ABBF" stroke-width="1.24728" stroke-linecap="round" stroke-linejoin="round"/>
<path fill-rule="evenodd" clip-rule="evenodd" d="M43.844 23.4946H46.0093C47.0188 23.4946 47.837 24.3128 47.837 25.3223V27.4876C47.837 28.4971 47.0188 29.3153 46.0093 29.3153H43.844C42.8346 29.3153 42.0164 28.4971 42.0164 27.4876V25.3223C42.0164 24.3128 42.8346 23.4946 43.844 23.4946Z" stroke="#A6ABBF" stroke-width="1.24728" stroke-linecap="round" stroke-linejoin="round"/>
<defs>
<filter id="filter0_f_7524_22989" x="60.2608" y="0.13066" width="31.5652" height="63.8478" filterUnits="userSpaceOnUse" color-interpolation-filters="sRGB">
<feFlood flood-opacity="0" result="BackgroundImageFix"/>
<feBlend mode="normal" in="SourceGraphic" in2="BackgroundImageFix" result="shape"/>
<feGaussianBlur stdDeviation="6.45652" result="effect1_foregroundBlur_7524_22989"/>
</filter>
<filter id="filter1_f_7524_22989" x="11.4782" y="0.13066" width="31.5652" height="63.8478" filterUnits="userSpaceOnUse" color-interpolation-filters="sRGB">
<feFlood flood-opacity="0" result="BackgroundImageFix"/>
<feBlend mode="normal" in="SourceGraphic" in2="BackgroundImageFix" result="shape"/>
<feGaussianBlur stdDeviation="6.45652" result="effect1_foregroundBlur_7524_22989"/>
</filter>
<linearGradient id="paint0_linear_7524_22989" x1="79.6304" y1="13.0437" x2="79.6304" y2="51.7828" gradientUnits="userSpaceOnUse">
<stop stop-color="#E8EAEE"/>
<stop offset="1" stop-color="#FAFAFB"/>
</linearGradient>
<linearGradient id="paint1_linear_7524_22989" x1="19.3696" y1="13.0437" x2="19.3696" y2="51.7828" gradientUnits="userSpaceOnUse">
<stop stop-color="#E8EAEE"/>
<stop offset="1" stop-color="#FAFAFB"/>
</linearGradient>
<linearGradient id="paint2_linear_7524_22989" x1="49.5" y1="3" x2="49.5" y2="58.9565" gradientUnits="userSpaceOnUse">
<stop stop-color="#E8EAEE"/>
<stop offset="1" stop-color="white"/>
</linearGradient>
<linearGradient id="paint3_linear_7524_22989" x1="49.5" y1="3" x2="49.5" y2="58.9565" gradientUnits="userSpaceOnUse">
<stop stop-color="#A6ABBF"/>
<stop offset="1" stop-color="#A6ABBF" stop-opacity="0"/>
</linearGradient>
</defs>
</svg>
