<svg xmlns="http://www.w3.org/2000/svg" width="24" height="24" viewBox="0 0 24 24" fill="none">
    <path d="M10.445 7.64549C8.50411 7.43506 6.48848 8.07517 5.00242 9.56585C2.96303 11.6129 2.52137 14.6447 3.6652 17.124C3.81169 17.4911 3.92571 17.7858 3.92571 18.0718C3.92571 18.8712 3.15715 19.861 3.66953 20.3752C4.1819 20.8893 5.1684 20.1181 5.96078 20.1138C6.24511 20.1138 6.5446 20.2325 6.90975 20.3802C9.3807 21.5272 12.403 21.0848 14.4424 19.0377C15.9356 17.5395 16.5741 15.5065 16.3556 13.551" stroke="black" stroke-width="1.5" stroke-linecap="round" stroke-linejoin="round"/>
    <path d="M17.9195 13.0207C15.9809 13.9203 13.6103 13.5733 12.0102 11.9677C9.96734 9.91801 9.96337 6.59098 12.0102 4.53729C14.053 2.48757 17.3722 2.48757 19.4156 4.53729C21.0152 6.14287 21.3616 8.52143 20.4644 10.4666C20.3495 10.754 20.2601 10.9857 20.2601 11.2101C20.2601 11.8371 20.8629 12.6135 20.461 13.0167C20.0591 13.42 19.2848 12.8151 18.6639 12.8117C18.4403 12.8117 18.206 12.9048 17.9195 13.0207Z" stroke="black" stroke-width="1.5" stroke-linecap="round" stroke-linejoin="round"/>
    <path d="M6.67199 16.3809H11.6215M6.63281 13.5077H9.12692" stroke="black" stroke-width="1.5" stroke-linecap="round" stroke-linejoin="round"/>
    <path d="M16.8591 6.47852H15.2089C14.7178 6.47852 14.3203 6.87667 14.3203 7.36717C14.3203 7.85766 14.7178 8.25581 15.2089 8.25581H16.2242C16.7154 8.25581 17.1129 8.65396 17.1129 9.14452C17.1129 9.63564 16.7154 10.0332 16.2242 10.0332H14.5741" stroke="black" stroke-width="1.5" stroke-linecap="round" stroke-linejoin="round"/>
    <path d="M15.7109 10.033V10.7792M15.7109 5.72852V6.4814" stroke="black" stroke-width="1.5" stroke-linecap="round" stroke-linejoin="round"/>
</svg>
