<svg width="21" height="11" viewBox="0 0 21 11" fill="none" xmlns="http://www.w3.org/2000/svg">
<path d="M6.016 10.598C5.092 10.598 4.24267 10.3833 3.468 9.954C2.70267 9.52467 2.09133 8.92733 1.634 8.162C1.186 7.38733 0.962 6.51933 0.962 5.558C0.962 4.59667 1.186 3.73333 1.634 2.968C2.09133 2.20267 2.70267 1.60533 3.468 1.176C4.24267 0.746667 5.092 0.532 6.016 0.532C6.94 0.532 7.78467 0.746667 8.55 1.176C9.32467 1.60533 9.93133 2.20267 10.37 2.968C10.818 3.73333 11.042 4.59667 11.042 5.558C11.042 6.51933 10.818 7.38733 10.37 8.162C9.922 8.92733 9.31533 9.52467 8.55 9.954C7.78467 10.3833 6.94 10.598 6.016 10.598ZM6.016 8.414C6.8 8.414 7.42533 8.15267 7.892 7.63C8.368 7.10733 8.606 6.41667 8.606 5.558C8.606 4.69 8.368 3.99933 7.892 3.486C7.42533 2.96333 6.8 2.702 6.016 2.702C5.22267 2.702 4.588 2.95867 4.112 3.472C3.64533 3.98533 3.412 4.68067 3.412 5.558C3.412 6.426 3.64533 7.12133 4.112 7.644C4.588 8.15733 5.22267 8.414 6.016 8.414ZM18.0719 10.5L14.7679 6.16V10.5H12.3739V0.672H14.7679V4.984L18.0439 0.672H20.8579L17.0499 5.488L20.9979 10.5H18.0719Z" fill="#1F1F1F"/>
</svg>
