<svg xmlns="http://www.w3.org/2000/svg" width="20" height="20" viewBox="0 0 20 20" fill="none">
  <path fill-rule="evenodd" clip-rule="evenodd" d="M16.6989 7.70974L12.2823 3.29307C11.6523 2.66224 10.5539 2.66224 9.92393 3.29307L9.43143 3.7864C8.95643 4.26057 8.8131 4.9714 9.07893 5.62557C9.20727 5.93724 9.13643 6.29224 8.89893 6.5314L7.78562 7.6439C7.68896 7.7389 7.57146 7.81057 7.44479 7.85057L4.80812 8.67558C4.55562 8.75558 4.32062 8.89808 4.12979 9.08725C3.81396 9.40308 3.64062 9.82141 3.64062 10.2672C3.64062 10.7131 3.81479 11.1306 4.12979 11.4447L5.89562 13.2106L2.99563 16.1106C2.75146 16.3547 2.75146 16.7506 2.99563 16.9947C3.11729 17.1164 3.27729 17.1772 3.43729 17.1772C3.59729 17.1772 3.75729 17.1164 3.87896 16.9947L6.77896 14.0939L8.54727 15.8622C8.87143 16.1864 9.2981 16.3481 9.72477 16.3481C10.1523 16.3481 10.5789 16.1856 10.9048 15.8614C11.0948 15.6697 11.2364 15.4347 11.3156 15.1822L12.1398 12.5489C12.1814 12.4189 12.2523 12.3014 12.3464 12.2072L13.4606 11.0922C13.6981 10.8539 14.0514 10.7831 14.3939 10.9222C15.0156 11.1781 15.7281 11.0372 16.2056 10.5606L16.6989 10.0664C17.3481 9.41641 17.3481 8.35891 16.6989 7.70974Z" fill="#C9CCD9"/>
</svg>