<svg width="201" height="134" viewBox="0 0 201 134" fill="none" xmlns="http://www.w3.org/2000/svg">
<rect width="201" height="134" rx="3.08152" fill="#F8F8F9"/>
<path fill-rule="evenodd" clip-rule="evenodd" d="M92.9893 58.8977C93.9731 57.8415 95.374 57.25 97.028 57.25H105.466C107.126 57.25 108.528 57.8409 109.511 58.8983C110.488 59.9494 110.993 61.4001 110.988 63.0273V70.9692C110.988 72.596 110.482 74.0464 109.505 75.0974C108.522 76.1546 107.121 76.7452 105.46 76.7452H97.028C95.3707 76.7452 93.9693 76.1543 92.9861 75.0976C92.0086 74.047 91.5 72.5967 91.5 70.9692V63.026C91.5 61.3981 92.011 59.948 92.9893 58.8977ZM94.0869 59.92C93.4101 60.6467 93 61.7095 93 63.026V70.9692C93 72.2871 93.4087 73.3498 94.0843 74.0758C94.7542 74.7958 95.7418 75.2452 97.028 75.2452H105.46C106.75 75.2452 107.738 74.7956 108.406 74.0761C109.081 73.3504 109.488 72.2878 109.488 70.9692V63.026V63.0235C109.493 61.7068 109.087 60.6449 108.412 59.9194C107.744 59.1999 106.755 58.75 105.466 58.75H97.028C95.7463 58.75 94.7582 59.1993 94.0869 59.92Z" fill="#DFE0E2"/>
<path fill-rule="evenodd" clip-rule="evenodd" d="M98.2058 62.8359C97.6264 62.8359 97.1563 63.306 97.1563 63.8864C97.1563 64.4669 97.6264 64.9369 98.2058 64.9369C98.7857 64.9369 99.2562 64.4663 99.2562 63.8864V63.8848C99.2555 63.3056 98.7857 62.8359 98.2058 62.8359ZM95.6562 63.8864C95.6562 62.4786 96.7969 61.3359 98.2058 61.3359C99.614 61.3359 100.755 62.4768 100.756 63.8837V63.8864C100.756 65.2948 99.6141 66.4369 98.2058 66.4369C96.7969 66.4369 95.6562 65.2942 95.6562 63.8864Z" fill="#DFE0E2"/>
<path fill-rule="evenodd" clip-rule="evenodd" d="M103.926 67.2111C104.375 66.7704 104.976 66.3516 105.737 66.3516C106.918 66.3516 107.982 66.9327 108.811 67.5524C109.579 68.1263 110.232 68.8016 110.673 69.2572C110.713 69.2989 110.751 69.3387 110.788 69.3764C111.077 69.6735 111.07 70.1483 110.773 70.437C110.476 70.7256 110.001 70.7188 109.712 70.4217C109.676 70.3842 109.638 70.3457 109.6 70.3061C109.153 69.8441 108.579 69.2519 107.913 68.7537C107.18 68.2062 106.437 67.8516 105.737 67.8516C105.557 67.8516 105.316 67.9488 104.976 68.2821C104.638 68.6136 104.308 69.0711 103.933 69.6C103.92 69.6179 103.907 69.6358 103.894 69.6539C103.549 70.1409 103.159 70.6894 102.736 71.1142C102.301 71.5504 101.711 71.9798 100.959 71.9798C100.381 71.9798 99.8445 71.8312 99.3773 71.662C99.1425 71.5769 98.9144 71.4825 98.7032 71.3937C98.6703 71.3799 98.6379 71.3663 98.606 71.3528C98.4276 71.2777 98.2631 71.2085 98.1002 71.1454C97.3264 70.8458 96.9263 70.824 96.5521 71.1223C95.4973 72.1333 94.5978 73.2941 93.8801 74.5677C93.6767 74.9285 93.2193 75.0562 92.8585 74.8528C92.4976 74.6495 92.3699 74.1921 92.5733 73.8312C93.3682 72.4209 94.366 71.1355 95.5374 70.0171C95.5503 70.0048 95.5636 69.993 95.5773 69.9817C96.644 69.0993 97.7907 69.417 98.6418 69.7466C98.8269 69.8183 99.0144 69.8972 99.192 69.972C99.223 69.9851 99.2537 69.998 99.2841 70.0108C99.4935 70.0987 99.6916 70.1804 99.8882 70.2516C100.284 70.395 100.632 70.4798 100.959 70.4798C101.112 70.4798 101.336 70.3931 101.673 70.0552C102.006 69.7218 102.332 69.2634 102.71 68.7314L102.714 68.7258C103.07 68.224 103.476 67.652 103.926 67.2111Z" fill="#DFE0E2"/>
</svg>
