<svg xmlns="http://www.w3.org/2000/svg" width="16" height="16" viewBox="0 0 16 16" fill="none">
    <path fill-rule="evenodd" clip-rule="evenodd" d="M8.0026 3.33398C8.3708 3.33398 8.66927 3.63246 8.66927 4.00065V7.33398H12.0026C12.3708 7.33398 12.6693 7.63245 12.6693 8.00065C12.6693 8.36885 12.3708 8.66732 12.0026 8.66732H8.66927V12.0007C8.66927 12.3689 8.3708 12.6673 8.0026 12.6673C7.6344 12.6673 7.33594 12.3689 7.33594 12.0007V8.66732H4.0026C3.63442 8.66732 3.33594 8.36885 3.33594 8.00065C3.33594 7.63245 3.63442 7.33398 4.0026 7.33398H7.33594V4.00065C7.33594 3.63246 7.6344 3.33398 8.0026 3.33398Z" fill="#1A5CEB"/>
</svg>
