<svg xmlns="http://www.w3.org/2000/svg" width="12" height="12" viewBox="0 0 12 12" fill="none">
  <path fill-rule="evenodd" clip-rule="evenodd" d="M10.5772 2.82048C9.97572 2.62548 9.50072 2.15148 9.30622 1.55098C9.23972 1.34498 8.89722 1.34498 8.83072 1.55098C8.63622 2.15148 8.16122 2.62548 7.55972 2.82048C7.45672 2.85398 7.38672 2.94998 7.38672 3.05848C7.38672 3.16648 7.45672 3.26248 7.55972 3.29598C8.16022 3.49048 8.63522 3.96698 8.83072 4.57048C8.86372 4.67348 8.96022 4.74348 9.06822 4.74348C9.17672 4.74348 9.27322 4.67348 9.30622 4.57048C9.50172 3.96698 9.97672 3.49048 10.5772 3.29598C10.6802 3.26248 10.7502 3.16648 10.7502 3.05848C10.7502 2.94998 10.6802 2.85398 10.5772 2.82048Z" fill="#181A1B"/>
  <path fill-rule="evenodd" clip-rule="evenodd" d="M8.787 6.20054L6.4205 5.43204L5.6525 3.06602C5.5865 2.86102 5.4035 2.72852 5.1875 2.72852C4.971 2.72852 4.7885 2.86102 4.722 3.06602L3.9605 5.43054L1.5895 6.20004C1.3865 6.26454 1.25 6.45154 1.25 6.66604C1.25 6.88004 1.3865 7.06704 1.5885 7.13104L3.953 7.89554L4.722 10.2655C4.7885 10.4705 4.971 10.6035 5.1875 10.6035C5.4035 10.6035 5.5865 10.4705 5.6525 10.2655L6.415 7.90104L8.7855 7.13154C8.9885 7.06704 9.1255 6.88004 9.1255 6.66604C9.1255 6.45154 8.9885 6.26454 8.787 6.20054Z" fill="#181A1B"/>
</svg>