<svg width="90" height="90" viewBox="0 0 90 90" fill="none" xmlns="http://www.w3.org/2000/svg">
<rect width="90" height="90" rx="6" fill="#F5F5F5"/>
<path fill-rule="evenodd" clip-rule="evenodd" d="M50.0862 46.1421C50.0862 46.4921 49.8029 46.7671 49.4612 46.7671C49.1112 46.7671 48.8362 46.4921 48.8362 46.1421C48.8362 45.8004 49.1112 45.5171 49.4612 45.5171C49.8029 45.5171 50.0862 45.7921 50.0862 46.1338V46.1421ZM50.0862 48.6004C50.0862 48.9504 49.8029 49.2254 49.4612 49.2254C49.1112 49.2254 48.8362 48.9504 48.8362 48.6004C48.8362 48.2588 49.1112 47.9754 49.4612 47.9754C49.8029 47.9754 50.0862 48.2504 50.0862 48.5921V48.6004ZM42.9112 42.4421C42.9112 42.7921 42.6279 43.0671 42.2862 43.0671C41.9362 43.0671 41.6612 42.7921 41.6612 42.4421C41.6612 42.1005 41.9362 41.8171 42.2862 41.8171C42.6279 41.8171 42.9112 42.0921 42.9112 42.4338V42.4421ZM42.9112 45.2171C42.9112 45.5671 42.6279 45.8421 42.2862 45.8421C41.9362 45.8421 41.6612 45.5671 41.6612 45.2171C41.6612 44.8754 41.9362 44.5921 42.2862 44.5921C42.6279 44.5921 42.9112 44.8671 42.9112 45.2088V45.2171ZM42.9112 50.4588C42.9112 50.5968 42.7993 50.7088 42.6612 50.7088H41.9112C41.7731 50.7088 41.6612 50.5968 41.6612 50.4588V48.6671C41.6612 48.3254 41.9362 48.0421 42.2862 48.0421C42.6279 48.0421 42.9112 48.3254 42.9112 48.6671V50.4588ZM52.8945 50.7088H52.5862C52.4481 50.7088 52.3362 50.5968 52.3362 50.4588V43.9004C52.3362 43.4338 52.1279 42.9755 51.7779 42.6588C51.4279 42.3421 50.9529 42.1921 50.4862 42.2505L47.1014 42.61C46.9744 42.6235 46.8779 42.7308 46.8779 42.8586V50.4588C46.8779 50.5968 46.7659 50.7088 46.6279 50.7088H46.2779C46.1398 50.7088 46.0279 50.5968 46.0279 50.4588V40.6255C46.0279 39.7671 45.3862 39.0505 44.5279 38.9671L40.3779 38.5505C39.9029 38.5005 39.4362 38.6505 39.0862 38.9671C38.7445 39.2838 38.5445 39.7338 38.5445 40.2005V50.4588C38.5445 50.5968 38.4326 50.7088 38.2945 50.7088H37.8945C37.5529 50.7088 37.2695 50.9921 37.2695 51.3338C37.2695 51.6838 37.5529 51.9588 37.8945 51.9588H52.8945C53.2445 51.9588 53.5195 51.6838 53.5195 51.3338C53.5195 50.9921 53.2445 50.7088 52.8945 50.7088Z" fill="#C7C7C7"/>
</svg>
