<svg xmlns="http://www.w3.org/2000/svg" width="24" height="24" viewBox="0 0 24 24" fill="none">
  <path d="M17.84 9.00745H19.0971C19.8852 9.00745 20.5323 9.64572 20.5323 10.4425V20.9108" stroke="#B6C0D6" stroke-width="1.5" stroke-linecap="round" stroke-linejoin="round"/>
  <path d="M4.58511 20.9108V10.4425C4.58511 9.64572 5.23214 9.00745 6.02025 9.00745H7.15473" stroke="#B6C0D6" stroke-width="1.5" stroke-linecap="round" stroke-linejoin="round"/>
  <path d="M3.49989 20.9099H21.4999" stroke="black" stroke-width="1.5" stroke-linecap="round" stroke-linejoin="round"/>
  <path d="M17.8405 20.912V5.12458C17.8405 4.0008 16.9298 3.09009 15.807 3.09009H9.19464C8.07086 3.09009 7.16016 4.0008 7.16016 5.12458V20.912" stroke="black" stroke-width="1.5" stroke-linecap="round" stroke-linejoin="round"/>
  <path d="M14.1734 13.7776L14.1753 13.7876M10.825 13.7776L10.8269 13.7876" stroke="#B6C0D6" stroke-width="1.5" stroke-linecap="round" stroke-linejoin="round"/>
  <path d="M14.1734 10.484L14.1753 10.494M10.825 10.484L10.8269 10.494" stroke="#B6C0D6" stroke-width="1.5" stroke-linecap="round" stroke-linejoin="round"/>
  <path d="M14.1734 7.11755L14.1753 7.12755M10.825 7.11755L10.8269 7.12755" stroke="#B6C0D6" stroke-width="1.5" stroke-linecap="round" stroke-linejoin="round"/>
  <path d="M10.4806 20.912V18.3045C10.4806 17.8822 10.8279 17.5349 11.2502 17.5349H13.7546C14.1759 17.5349 14.5233 17.8822 14.5233 18.3045V20.912" stroke="black" stroke-width="1.5" stroke-linecap="round" stroke-linejoin="round"/>
</svg>