<svg xmlns="http://www.w3.org/2000/svg" width="8" height="12" viewBox="0 0 8 12" fill="none">
    <path d="M3.99797 0.419922C6.03535 0.419922 7.68992 2.08477 7.68992 4.14013C7.68992 4.46128 7.64881 4.77216 7.57431 5.07018C7.48952 5.39904 7.36106 5.71249 7.19663 6.00024C7.03477 6.28285 6.83695 6.54234 6.60829 6.771C5.94029 7.44413 5.01795 7.86034 4.00054 7.86034V7.81152C3.96457 6.75044 3.50982 5.79727 2.80072 5.11386C2.14815 4.4844 1.27462 4.08361 0.313732 4.03736C0.339424 3.05079 0.747928 2.16184 1.3928 1.50926C2.05565 0.836133 2.978 0.419922 3.99797 0.419922ZM0.308594 11.5806C2.34597 11.5806 4.00054 9.9157 4.00054 7.86034H0.308594V11.5806Z" fill="white"/>
</svg>
