<svg xmlns="http://www.w3.org/2000/svg" width="18" height="18" viewBox="0 0 18 18" fill="none">
  <path d="M2.25 6.3518V5.16892C2.25 3.55694 3.55694 2.25 5.16964 2.25H6.13654" stroke="#1A5CEB" stroke-width="1.35" stroke-linecap="round" stroke-linejoin="round"/>
  <path d="M2.25 11.6489V12.8318C2.25 14.4438 3.55694 15.7508 5.16964 15.7508H6.11245" stroke="#1A5CEB" stroke-width="1.35" stroke-linecap="round" stroke-linejoin="round"/>
  <path d="M15.7503 11.6489V12.8318C15.7503 14.4438 14.4433 15.7508 12.8306 15.7508H11.8638" stroke="#1A5CEB" stroke-width="1.35" stroke-linecap="round" stroke-linejoin="round"/>
  <path d="M15.7491 6.3518V5.16892C15.7491 3.55694 14.4423 2.25 12.8295 2.25H11.8867" stroke="#1A5CEB" stroke-width="1.35" stroke-linecap="round" stroke-linejoin="round"/>
  <path d="M8.99998 12.1865C10.6581 12.1865 12.1747 10.9942 13.0287 9.00767C12.1747 7.02107 10.6581 5.82886 8.99998 5.82886C7.3437 5.82886 5.82703 7.02107 4.97314 9.00767C5.82703 10.9951 7.3437 12.1865 9.00178 12.1865H8.99998Z" stroke="#1A5CEB" stroke-width="1.35" stroke-linecap="round" stroke-linejoin="round"/>
  <path fill-rule="evenodd" clip-rule="evenodd" d="M10.1311 9.00859C10.1311 9.63222 9.62497 10.1384 9.00127 10.1384C8.37727 10.1384 7.87109 9.63222 7.87109 9.00859C7.87109 8.38452 8.37727 7.87842 9.00127 7.87842C9.62497 7.87842 10.1311 8.38452 10.1311 9.00859Z" stroke="#1A5CEB" stroke-width="1.35" stroke-linecap="round" stroke-linejoin="round"/>
</svg>