<svg width="16" height="16" viewBox="0 0 16 16" fill="none" xmlns="http://www.w3.org/2000/svg">
<path d="M10.8881 1.33594C13.1481 1.33594 14.6615 2.9226 14.6615 5.2826V10.7299C14.6615 13.0833 13.1481 14.6693 10.8881 14.6693H5.10812C2.84812 14.6693 1.32812 13.0833 1.32812 10.7299V5.2826C1.32812 2.9226 2.84812 1.33594 5.10812 1.33594H10.8881ZM10.0015 5.98327C9.77479 5.75594 9.40812 5.75594 9.17479 5.98327L7.99479 7.16927L6.80813 5.98327C6.57479 5.75594 6.20812 5.75594 5.98146 5.98327C5.75479 6.20994 5.75479 6.58327 5.98146 6.80927L7.16812 7.9966L5.98146 9.1766C5.75479 9.40994 5.75479 9.7766 5.98146 10.0026C6.09479 10.1159 6.24812 10.1766 6.39479 10.1766C6.54812 10.1766 6.69479 10.1159 6.80813 10.0026L7.99479 8.82327L9.18146 10.0026C9.29479 10.1233 9.44146 10.1766 9.58812 10.1766C9.74146 10.1766 9.88812 10.1159 10.0015 10.0026C10.2281 9.7766 10.2281 9.40994 10.0015 9.18327L8.81479 7.9966L10.0015 6.80927C10.2281 6.58327 10.2281 6.20994 10.0015 5.98327Z" fill="#ED7174"/>
</svg>
