<svg width="10" height="10" viewBox="0 0 10 10" fill="none" xmlns="http://www.w3.org/2000/svg">
<path opacity="0.2" d="M10 5C10 5.98891 9.70675 6.9556 9.15735 7.77785C8.60794 8.60009 7.82705 9.24096 6.91342 9.6194C5.99979 9.99783 4.99445 10.0969 4.02455 9.90392C3.05465 9.711 2.16373 9.23479 1.46447 8.53553C0.765205 7.83627 0.289002 6.94535 0.0960758 5.97545C-0.0968502 5.00555 0.00216643 4.00021 0.380605 3.08658C0.759043 2.17295 1.3999 1.39206 2.22215 0.842652C3.0444 0.293245 4.01109 0 5 0C6.32608 0 7.59785 0.526784 8.53553 1.46447C9.47322 2.40215 10 3.67392 10 5Z" fill="#E42B30"/>
<path d="M6.66732 4.99992C6.66732 5.32955 6.56957 5.65179 6.38643 5.92587C6.2033 6.19995 5.943 6.41357 5.63846 6.53972C5.33391 6.66586 4.9988 6.69887 4.6755 6.63456C4.3522 6.57025 4.05523 6.41152 3.82214 6.17843C3.58905 5.94534 3.43032 5.64837 3.36601 5.32507C3.3017 5.00177 3.33471 4.66666 3.46085 4.36211C3.587 4.05757 3.80062 3.79727 4.0747 3.61414C4.34878 3.431 4.67102 3.33325 5.00065 3.33325C5.44268 3.33325 5.8666 3.50885 6.17916 3.82141C6.49172 4.13397 6.66732 4.55789 6.66732 4.99992Z" fill="#E42B30"/>
</svg>
