<svg width="14" height="15" viewBox="0 0 14 15" fill="none" xmlns="http://www.w3.org/2000/svg">
<path d="M9.25301 1.51576L9.87525 2.8188H11.8825C12.4997 2.8188 13 3.29911 13 3.8916V4.68607C13 5.09117 12.6579 5.41956 12.236 5.41956H1.76405C1.34207 5.41956 1 5.09117 1 4.68607V3.8916C1 3.29911 1.50032 2.8188 2.1175 2.8188H4.12479L4.74703 1.51576C4.93373 1.12473 5.34076 0.874023 5.78884 0.874023H8.21119C8.65928 0.874023 9.06623 1.12473 9.25301 1.51576Z" stroke="#E42B30" stroke-width="1.09512" stroke-linecap="round" stroke-linejoin="round"/>
<path d="M11.8303 5.47363V11.8149C11.8303 13.0302 10.8167 14.0154 9.56655 14.0154H4.43556C3.18537 14.0154 2.17188 13.0302 2.17188 11.8149V5.47363" stroke="#E42B30" stroke-width="1.09512" stroke-linecap="round" stroke-linejoin="round"/>
<path d="M5.71875 8.04004V11.3315M8.28955 8.04004V11.3315" stroke="#E42B30" stroke-width="1.09512" stroke-linecap="round" stroke-linejoin="round"/>
</svg>
