<svg width="16" height="16" viewBox="0 0 16 16" fill="none" xmlns="http://www.w3.org/2000/svg">
<path fill-rule="evenodd" clip-rule="evenodd" d="M8.20369 5.63488C8.00889 5.8306 8.00962 6.14718 8.20536 6.34198L9.36756 7.4988H5.41797C5.14183 7.4988 4.91797 7.72266 4.91797 7.9988C4.91797 8.27493 5.14183 8.4988 5.41797 8.4988H9.36889L8.20509 9.659C8.00949 9.854 8.00902 10.1706 8.20396 10.3661C8.39896 10.5617 8.71556 10.5622 8.91109 10.3672L10.9316 8.35293C11.0258 8.25906 11.0787 8.13153 11.0786 7.9986C11.0786 7.86566 11.0256 7.7382 10.9314 7.64446L8.91082 5.63324C8.71509 5.43843 8.39849 5.43916 8.20369 5.63488Z" fill="#B3B3B3"/>
<path fill-rule="evenodd" clip-rule="evenodd" d="M14.5 8C14.5 4.40991 11.5901 1.5 8 1.5C4.40991 1.5 1.5 4.40991 1.5 8C1.5 11.5894 4.40987 14.5 8 14.5C11.5901 14.5 14.5 11.5894 14.5 8ZM8 2.5C11.0378 2.5 13.5 4.96219 13.5 8C13.5 11.0372 11.0378 13.5 8 13.5C4.96223 13.5 2.5 11.0372 2.5 8C2.5 4.96219 4.96219 2.5 8 2.5Z" fill="#B3B3B3"/>
</svg>
