<svg width="18" height="18" viewBox="0 0 18 18" fill="none" xmlns="http://www.w3.org/2000/svg">
<path d="M3.5 10.498C3.66346 12.458 5.35203 12.9462 9.00137 12.9462C12.65 12.9462 14.3385 12.4646 14.5027 10.498C14.5027 8.53943 13.3249 8.66498 13.3249 6.26199C13.3249 4.38515 11.6189 2.25 9.00137 2.25C6.38385 2.25 4.67776 4.38515 4.67776 6.26272C4.67776 8.66565 3.5 8.54093 3.5 10.498Z" stroke="black" stroke-width="1.125" stroke-linecap="round" stroke-linejoin="round"/>
<path d="M7.44922 14.981C7.82723 15.4531 8.39423 15.7501 9.02175 15.7501C9.65588 15.7501 10.2229 15.4531 10.6009 14.981" stroke="black" stroke-width="1.125" stroke-linecap="round" stroke-linejoin="round"/>
<path d="M8.99847 9.62048V6.68555M7.53125 8.15355H10.4661" stroke="black" stroke-width="1.125" stroke-linecap="round" stroke-linejoin="round"/>
</svg>
