<svg xmlns="http://www.w3.org/2000/svg" width="18" height="18" viewBox="0 0 18 18" fill="none">
  <path d="M13.1834 13.6748H5.19133C4.81583 13.6747 4.44645 13.5799 4.11741 13.399C3.78838 13.2181 3.51034 12.957 3.30911 12.64C3.1079 12.3229 2.99 11.9602 2.96634 11.5855C2.94269 11.2108 3.01406 10.8361 3.17382 10.4963L3.51509 9.77182C3.72189 9.33187 3.82916 8.85172 3.82932 8.36557V7.40257C3.82094 6.69376 3.95332 5.99033 4.21876 5.33305C4.48421 4.67578 4.87745 4.0777 5.37572 3.57351C5.87398 3.06931 6.46735 2.66902 7.12144 2.39581C7.77555 2.12261 8.47733 1.98193 9.18623 1.98193C9.89505 1.98193 10.5969 2.12261 11.251 2.39581C11.9051 2.66902 12.4985 3.06931 12.9967 3.57351C13.495 4.0777 13.8882 4.67578 14.1536 5.33305C14.4191 5.99033 14.5514 6.69376 14.5431 7.40257V8.36407C14.5442 8.8509 14.6517 9.33165 14.8581 9.77257L15.1986 10.4956C15.3586 10.8353 15.4301 11.2099 15.4066 11.5847C15.383 11.9594 15.2652 12.3222 15.0641 12.6392C14.8628 12.9563 14.5849 13.2174 14.2558 13.3983C13.9268 13.5792 13.5573 13.6741 13.1819 13.6741L13.1834 13.6748ZM9.18735 3.17107C8.0652 3.17226 6.98942 3.61854 6.19598 4.41198C5.40254 5.20543 4.95626 6.28122 4.95508 7.40332V8.36557C4.95439 9.01755 4.81076 9.66135 4.53432 10.2518L4.19308 10.9756C4.1139 11.1439 4.07851 11.3295 4.09018 11.5151C4.10185 11.7007 4.16021 11.8804 4.25984 12.0376C4.35948 12.1946 4.49714 12.324 4.66012 12.4137C4.82309 12.5034 5.00607 12.5504 5.19208 12.5506H13.1841C13.3702 12.5507 13.5533 12.5038 13.7164 12.4141C13.8795 12.3245 14.0173 12.1951 14.1169 12.0379C14.2165 11.8807 14.2748 11.7009 14.2862 11.5152C14.2976 11.3294 14.2619 11.1438 14.1824 10.9756L13.8426 10.2526C13.5659 9.66217 13.4217 9.01837 13.4204 8.36632V7.40332C13.4192 6.28109 12.9728 5.20518 12.1792 4.41172C11.3855 3.61825 10.3096 3.17206 9.18735 3.17107Z" fill="#1A5CEB"/>
  <path d="M9.18637 16.3143C8.43712 16.3135 7.71877 16.0155 7.18895 15.4857C6.65914 14.9559 6.36115 14.2375 6.36035 13.4883C6.36035 13.3391 6.41961 13.196 6.5251 13.0905C6.63059 12.985 6.77367 12.9258 6.92285 12.9258C7.07203 12.9258 7.21511 12.985 7.3206 13.0905C7.42609 13.196 7.48535 13.3391 7.48535 13.4883C7.48535 13.9394 7.66455 14.3721 7.98352 14.6911C8.30257 15.01 8.73525 15.1893 9.18637 15.1893C9.6375 15.1893 10.0702 15.01 10.3891 14.6911C10.7081 14.3721 10.8874 13.9394 10.8874 13.4883C10.8874 13.3391 10.9466 13.196 11.0521 13.0905C11.1576 12.985 11.3007 12.9258 11.4499 12.9258C11.5991 12.9258 11.7421 12.985 11.8476 13.0905C11.9531 13.196 12.0124 13.3391 12.0124 13.4883C12.0115 14.2375 11.7136 14.9559 11.1838 15.4857C10.654 16.0155 9.93562 16.3135 9.18637 16.3143Z" fill="#1A5CEB"/>
  <path d="M3.23852 4.89691C3.15743 4.897 3.07732 4.87933 3.00378 4.84516C2.93617 4.81432 2.87536 4.77037 2.82484 4.71589C2.77432 4.6614 2.7351 4.59743 2.70943 4.5277C2.68377 4.45796 2.67216 4.38384 2.67531 4.3096C2.67846 4.23536 2.69629 4.16248 2.72777 4.09516C3.14695 3.19743 3.77372 2.41231 4.55628 1.80466C4.67384 1.71277 4.82307 1.67134 4.97118 1.68948C5.11928 1.70762 5.25412 1.78385 5.34601 1.90141C5.43791 2.01897 5.47936 2.16822 5.46121 2.31633C5.44307 2.46444 5.36683 2.59927 5.24927 2.69116C4.60717 3.18787 4.09291 3.83069 3.74927 4.56616C3.70474 4.66441 3.63295 4.74781 3.54241 4.80644C3.45187 4.86508 3.34639 4.89648 3.23852 4.89691Z" fill="#1A5CEB"/>
  <path d="M15.1388 4.89685C15.0311 4.89682 14.9257 4.86592 14.835 4.80784C14.7443 4.74975 14.6723 4.6669 14.6273 4.5691C14.2836 3.83362 13.7693 3.19081 13.1273 2.6941C13.069 2.64859 13.0203 2.59207 12.9839 2.52775C12.9476 2.46344 12.9242 2.3926 12.9153 2.31926C12.8972 2.17115 12.9386 2.0219 13.0305 1.90435C13.1224 1.78679 13.2572 1.71055 13.4053 1.69241C13.5534 1.67426 13.7027 1.7157 13.8202 1.8076C14.6026 2.41525 15.2291 3.20038 15.6479 4.0981C15.6794 4.16541 15.6973 4.23829 15.7004 4.31253C15.7036 4.38677 15.692 4.46089 15.6663 4.53063C15.6407 4.60036 15.6014 4.66432 15.5509 4.71882C15.5004 4.77331 15.4396 4.81724 15.3719 4.8481C15.2987 4.88101 15.2191 4.89765 15.1388 4.89685Z" fill="#1A5CEB"/>
</svg>