<svg xmlns="http://www.w3.org/2000/svg" width="18" height="18" viewBox="0 0 18 18" fill="none">
    <path d="M5.05705 12.4624C4.13906 12.0975 3.66621 11.4838 3.58594 10.4987C3.58594 8.54092 4.76006 8.66205 4.76006 6.2598C4.76006 4.38296 6.4676 2.25 9.08657 2.25C10.916 2.25 12.2929 3.28912 12.9679 4.55153" stroke="#ED7174" stroke-width="1.25" stroke-linecap="round" stroke-linejoin="round"/>
    <path d="M13.4758 7.15625C13.7225 8.67409 14.585 8.82807 14.585 10.502C14.423 12.4664 12.7352 12.9524 9.08367 12.9524C8.55462 12.9524 8.06937 12.9436 7.625 12.9188" stroke="#ED7174" stroke-width="1.25" stroke-linecap="round" stroke-linejoin="round"/>
    <path d="M7.53125 14.9844C7.90925 15.4565 8.47625 15.7542 9.10377 15.7542C9.73865 15.7542 10.3056 15.4565 10.6836 14.9844" stroke="#ED7174" stroke-width="1.25" stroke-linecap="round" stroke-linejoin="round"/>
    <path d="M3.29688 14.2255L14.7177 2.80469" stroke="#ED7174" stroke-width="1.25" stroke-linecap="round" stroke-linejoin="round"/>
</svg>
