<svg width="16" height="16" viewBox="0 0 16 16" fill="none" xmlns="http://www.w3.org/2000/svg">
<path d="M14 6.45772L8.98273 2.48604C8.40673 2.03069 7.59327 2.03069 7.01727 2.48604L2 6.45772" stroke="#1F1F1F" stroke-width="1.2" stroke-linecap="round" stroke-linejoin="round"/>
<path d="M13 6.6831V5.66797" stroke="#1F1F1F" stroke-width="0.8" stroke-linecap="round" stroke-linejoin="round"/>
<path d="M3 5.66797V11.4513C3 12.5793 3.91459 13.4939 5.04259 13.4939H6.29383" stroke="#1F1F1F" stroke-width="1.2" stroke-linecap="round" stroke-linejoin="round"/>
<path d="M9.42627 9.20703H9.13803C8.50975 9.20703 8 9.71677 8 10.3451V11.8508C8.00032 12.4791 8.50975 12.9885 9.13803 12.9885H12.5753C13.2039 12.9885 13.7133 12.4791 13.7133 11.8508V10.3422C13.7133 9.7155 13.2055 9.20735 12.5788 9.20703H12.2877" stroke="#1F1F1F" stroke-width="1.2" stroke-linecap="round" stroke-linejoin="round"/>
<path d="M10.8531 7.10938V10.8279M10.8531 7.10938L9.95312 8.01351M10.8531 7.10938L11.7541 8.01351" stroke="#1F1F1F" stroke-width="0.8" stroke-linecap="round" stroke-linejoin="round"/>
</svg>
