<svg width="16" height="16" viewBox="0 0 16 16" fill="none" xmlns="http://www.w3.org/2000/svg">
<path d="M14 6.45638L8.98273 2.4847C8.40673 2.02935 7.59327 2.02935 7.01727 2.4847L2 6.45638" stroke="#C7C7C7" stroke-width="1.2" stroke-linecap="round" stroke-linejoin="round"/>
<path d="M13.0039 6.68444V5.66931" stroke="#C7C7C7" stroke-width="0.8" stroke-linecap="round" stroke-linejoin="round"/>
<path d="M2.99609 5.66931V11.4526C2.99609 12.5806 3.91069 13.4952 5.03869 13.4952H6.28993" stroke="#C7C7C7" stroke-width="1.2" stroke-linecap="round" stroke-linejoin="round"/>
<path d="M9.42627 9.20862H9.13803C8.50975 9.20862 8 9.71836 8 10.3467V11.8524C8.00032 12.4807 8.50975 12.9901 9.13803 12.9901H12.5753C13.2039 12.9901 13.7133 12.4807 13.7133 11.8524V10.3438C13.7133 9.71708 13.2055 9.20893 12.5788 9.20862H12.2877" stroke="#C7C7C7" stroke-width="1.2" stroke-linecap="round" stroke-linejoin="round"/>
<path d="M10.857 7.11108V10.8296M10.857 7.11108L9.95703 8.01522M10.857 7.11108L11.758 8.01522" stroke="#C7C7C7" stroke-width="0.8" stroke-linecap="round" stroke-linejoin="round"/>
</svg>