<svg width="13" height="11" viewBox="0 0 13 11" fill="none" xmlns="http://www.w3.org/2000/svg">
<path fill-rule="evenodd" clip-rule="evenodd" d="M1.97136 6.09326C1.27543 6.09326 0.712891 6.6558 0.712891 7.35173V9.74157C0.712891 10.4375 1.27543 11 1.97136 11C2.6673 11 3.22984 10.4375 3.22984 9.74157V7.35173C3.22984 6.6558 2.6673 6.09326 1.97136 6.09326Z" fill="#00AE8E"/>
<path fill-rule="evenodd" clip-rule="evenodd" d="M6.48894 3.89087C5.79301 3.89087 5.23047 4.45341 5.23047 5.14932V9.74148C5.23047 10.4374 5.79301 11 6.48894 11C7.18488 11 7.74741 10.4374 7.74741 9.74148V5.14932C7.74741 4.45341 7.18488 3.89087 6.48894 3.89087Z" fill="#00AE8E"/>
<path fill-rule="evenodd" clip-rule="evenodd" d="M11.0046 0.969971C10.3086 0.969971 9.74609 1.53251 9.74609 2.22844V9.74151C9.74609 10.4362 10.3086 11 11.0046 11C11.7005 11 12.263 10.4362 12.263 9.74151V2.22844C12.263 1.53251 11.7005 0.969971 11.0046 0.969971Z" fill="#00AE8E"/>
</svg>
