<svg xmlns="http://www.w3.org/2000/svg" width="18" height="18" viewBox="0 0 18 18" fill="none">
  <path fill-rule="evenodd" clip-rule="evenodd" d="M9.39253 15.5769H8.58322C7.70815 15.5769 6.99645 14.8659 6.99645 13.9916C6.99507 13.8462 6.95422 13.7015 6.87943 13.5755C6.75343 13.3588 6.56236 13.2134 6.33459 13.1532C6.10751 13.0922 5.87005 13.1255 5.66651 13.2439C4.88489 13.6745 3.91774 13.3955 3.49612 12.6298L3.09805 11.9437C3.09043 11.9319 3.08282 11.9202 3.07728 11.9077C2.87651 11.5588 2.82182 11.1337 2.93259 10.7273C3.04266 10.3202 3.30505 9.98102 3.67059 9.77125C3.94543 9.61271 4.11712 9.3164 4.11712 8.99863C4.11712 8.68017 3.94543 8.38248 3.66989 8.22325C2.91459 7.7871 2.65428 6.81648 3.08974 6.06048L3.52659 5.34117C3.95928 4.59279 4.92989 4.33179 5.68589 4.76656C5.81674 4.8441 5.96212 4.88494 6.10889 4.88633H6.11166C6.59559 4.88633 6.99576 4.49102 7.00199 4.00502C7.00199 3.13133 7.71022 2.4231 8.58045 2.4231H9.39253C10.3168 2.45286 11.0049 3.18671 10.9786 4.0604C10.98 4.19333 11.0208 4.33871 11.0963 4.46679C11.2202 4.67586 11.4127 4.81986 11.6411 4.87871C11.871 4.93825 12.1091 4.90294 12.3127 4.78248C13.0735 4.34702 14.0435 4.60663 14.4796 5.36125L14.4802 5.36189L14.8832 6.06186C14.8908 6.07571 14.8978 6.08956 14.9033 6.1041C15.3041 6.8511 15.0404 7.79402 14.3031 8.22256C14.1667 8.30148 14.0538 8.41433 13.9756 8.55002C13.8531 8.76671 13.8233 9.00486 13.8849 9.23263C13.9472 9.4604 14.0947 9.65079 14.3003 9.76779C14.3058 9.77056 14.3114 9.77402 14.3169 9.77748C14.6804 9.99002 14.9386 10.3313 15.0452 10.7377C15.1518 11.1455 15.0937 11.5699 14.8818 11.9333L14.4533 12.6499C14.0192 13.4003 13.0479 13.6606 12.2926 13.2252C12.1625 13.1525 12.0129 13.1102 11.8634 13.1068C11.6211 13.1082 11.4002 13.2016 11.2334 13.3699C11.0672 13.5388 10.9772 13.761 10.9786 13.9971C10.9724 14.8708 10.2614 15.5769 9.39253 15.5769ZM8.9894 7.2909C9.93301 7.2909 10.698 8.05592 10.698 8.99953C10.698 9.94315 9.93301 10.7075 8.9894 10.7075C8.04578 10.7075 7.28148 9.94315 7.28148 8.99953C7.28148 8.05592 8.04578 7.2909 8.9894 7.2909Z" fill="black"/>
</svg>