<svg xmlns="http://www.w3.org/2000/svg" width="16" height="16" viewBox="0 0 16 16" fill="none">
  <path fill-rule="evenodd" clip-rule="evenodd" d="M12.6137 7.0858C12.2782 7.08506 12.1104 7.08473 11.9742 7.12386C11.6432 7.21886 11.3851 7.47633 11.2894 7.80713C11.25 7.94326 11.25 8.11013 11.25 8.44386V9.05146C11.25 9.44 10.9354 9.7546 10.5469 9.7546H5.45572C5.06783 9.7546 4.75259 9.44 4.75259 9.05146V8.4558C4.75259 8.10913 4.75259 7.9358 4.71072 7.79566C4.61403 7.47213 4.36335 7.2212 4.03991 7.1242C3.89984 7.0822 3.72556 7.082 3.37699 7.0816C3.03404 7.08126 2.86256 7.08113 2.72115 7.12366C2.39793 7.22086 2.14143 7.48053 2.04815 7.80493C2.00734 7.9468 2.00958 8.11606 2.01406 8.45466C2.02302 9.13213 2.03846 9.86253 2.06462 10.1405C2.16775 11.323 3.11412 12.2557 4.29789 12.342C4.85183 12.4283 7.07017 12.4283 7.99517 12.4283C8.9201 12.4283 11.3791 12.4095 11.7002 12.3407C12.8814 12.2512 13.8238 11.3204 13.9263 10.1405C13.9527 9.86546 13.9702 9.13973 13.9814 8.464C13.9869 8.12806 13.9896 7.96013 13.9519 7.8224C13.86 7.487 13.603 7.2252 13.2694 7.12713C13.1324 7.08686 12.9595 7.08653 12.6137 7.0858Z" stroke="#C7C7C7" stroke-width="1.33333" stroke-linecap="round" stroke-linejoin="round"/>
  <path d="M5.38672 12.4668V13.6509" stroke="#C7C7C7" stroke-width="1.33333" stroke-linecap="round" stroke-linejoin="round"/>
  <path d="M10.7949 12.4668V13.6509" stroke="#C7C7C7" stroke-width="1.33333" stroke-linecap="round" stroke-linejoin="round"/>
  <path d="M12.6413 7.06373V5.44926C12.6413 4.55491 12.6413 4.10774 12.5009 3.753C12.2976 3.23954 11.8911 2.833 11.3776 2.6297C11.0229 2.48926 10.5757 2.48926 9.68133 2.48926H6.36234C5.468 2.48926 5.02082 2.48926 4.66609 2.6297C4.15263 2.833 3.74608 3.23954 3.54279 3.753C3.40234 4.10774 3.40234 4.55491 3.40234 5.44926V7.06373" stroke="#C7C7C7" stroke-width="1.33333" stroke-linecap="round" stroke-linejoin="round"/>
</svg>