<svg xmlns="http://www.w3.org/2000/svg" width="28" height="26" viewBox="0 0 28 26" fill="none">
  <path d="M21.3756 15.5493L21.3756 15.5493L26.3623 10.8293L26.3647 10.827C26.5618 10.6421 26.6344 10.3625 26.5537 10.1068C26.4588 9.84148 26.2244 9.64967 25.9451 9.60978L25.9435 9.60955L19.3168 8.64821L19.3109 8.64736L19.3109 8.64734C18.592 8.53718 17.9677 8.08292 17.6453 7.42584C17.6449 7.4251 17.6445 7.42436 17.6442 7.42361L14.6903 1.47326C14.5805 1.26333 14.3764 1.11869 14.1404 1.08398H13.7729L13.6834 1.12083L13.6699 1.12638L13.6562 1.13141L13.5982 1.15269C13.5968 1.1541 13.5955 1.1555 13.5943 1.15689L13.5502 1.20565L13.4983 1.246L13.4163 1.30978C13.3813 1.34759 13.3486 1.39327 13.3203 1.44629L10.4053 7.42277L10.402 7.42941L10.402 7.4294C10.0634 8.10654 9.40445 8.56676 8.65176 8.65021L2.04407 9.60879C1.77151 9.65309 1.54537 9.84442 1.45628 10.1077L1.45429 10.1136L1.45427 10.1136C1.3664 10.3664 1.43261 10.6471 1.6265 10.8354C1.62659 10.8355 1.62668 10.8356 1.62677 10.8357L6.44117 15.5021L6.44539 15.5062L6.44537 15.5062C6.96443 16.0173 7.20275 16.7486 7.08459 17.4676L7.08263 17.4795L7.08254 17.4795L5.89723 24.032C5.83704 24.4187 6.09182 24.784 6.47379 24.8617C6.63611 24.8856 6.80176 24.8593 6.94976 24.7862L12.8444 21.6978C13.0359 21.594 13.2413 21.5282 13.4474 21.4975L13.5023 21.4893H13.5578H13.9192H13.9299L13.9406 21.4896C14.2845 21.4994 14.6251 21.5859 14.9352 21.7503C14.9362 21.7509 14.9373 21.7514 14.9383 21.752L20.838 24.829L20.8456 24.833L20.8456 24.833C21.0907 24.9644 21.3873 24.9436 21.6086 24.7818L21.6167 24.7759L21.625 24.7702C21.8487 24.6157 21.9607 24.3462 21.9131 24.0807L21.3756 15.5493ZM21.3756 15.5493L21.3692 15.5554C20.8464 16.0621 20.6072 16.7935 20.7259 17.5099L20.7259 17.51L20.7278 17.5207L21.913 24.0801L21.3756 15.5493Z" stroke="#B2C8F8" stroke-width="1.5"/>
</svg>