<svg width="14" height="15" viewBox="0 0 14 15" fill="none" xmlns="http://www.w3.org/2000/svg">
<path d="M10.4501 8.57798C10.299 8.7244 10.2296 8.93615 10.264 9.14382L10.7826 12.0138C10.8263 12.2571 10.7237 12.5032 10.5201 12.6438C10.3206 12.7896 10.0552 12.8071 9.83757 12.6905L7.25399 11.343C7.16416 11.2951 7.06441 11.2695 6.96232 11.2666H6.80424C6.74941 11.2747 6.69574 11.2922 6.64674 11.3191L4.06257 12.673C3.93482 12.7372 3.79016 12.7599 3.64841 12.7372C3.30307 12.6718 3.07266 12.3428 3.12924 11.9957L3.64841 9.12573C3.68282 8.91632 3.61341 8.7034 3.46232 8.55465L1.35591 6.51298C1.17974 6.34207 1.11849 6.0854 1.19899 5.85382C1.27716 5.62282 1.47666 5.45423 1.71757 5.41632L4.61674 4.99573C4.83724 4.97298 5.03091 4.83882 5.13007 4.64048L6.40757 2.02132C6.43791 1.96298 6.47699 1.90932 6.52424 1.86382L6.57674 1.82298C6.60416 1.79265 6.63566 1.76757 6.67066 1.74715L6.73424 1.72382L6.83341 1.68298H7.07899C7.29832 1.70573 7.49141 1.83698 7.59232 2.03298L8.88674 4.64048C8.98007 4.83123 9.16149 4.96365 9.37091 4.99573L12.2701 5.41632C12.5151 5.45132 12.7198 5.62048 12.8009 5.85382C12.8773 6.08773 12.8114 6.3444 12.6317 6.51298L10.4501 8.57798Z" fill="#1A5CEB"/>
</svg>
