<svg width="16" height="16" viewBox="0 0 16 16" fill="none" xmlns="http://www.w3.org/2000/svg">
<path fill-rule="evenodd" clip-rule="evenodd" d="M14.1017 3.76073C13.2997 3.50073 12.6663 2.86873 12.407 2.06806C12.3183 1.79339 11.8617 1.79339 11.773 2.06806C11.5137 2.86873 10.8803 3.50073 10.0783 3.76073C9.94099 3.80539 9.84766 3.93339 9.84766 4.07806C9.84766 4.22206 9.94099 4.35006 10.0783 4.39473C10.879 4.65406 11.5123 5.28939 11.773 6.09406C11.817 6.23139 11.9457 6.32473 12.0897 6.32473C12.2343 6.32473 12.363 6.23139 12.407 6.09406C12.6677 5.28939 13.301 4.65406 14.1017 4.39473C14.239 4.35006 14.3323 4.22206 14.3323 4.07806C14.3323 3.93339 14.239 3.80539 14.1017 3.76073Z" fill="#1A5CEB"/>
<path fill-rule="evenodd" clip-rule="evenodd" d="M11.7173 8.26731L8.56197 7.24264L7.53797 4.08794C7.44997 3.81461 7.20597 3.63794 6.91797 3.63794C6.6293 3.63794 6.38597 3.81461 6.2973 4.08794L5.28197 7.24064L2.12064 8.26664C1.84997 8.35264 1.66797 8.60197 1.66797 8.88797C1.66797 9.17331 1.84997 9.42264 2.1193 9.50797L5.27197 10.5273L6.2973 13.6873C6.38597 13.9606 6.6293 14.138 6.91797 14.138C7.20597 14.138 7.44997 13.9606 7.53797 13.6873L8.55464 10.5346L11.7153 9.50864C11.986 9.42264 12.1686 9.17331 12.1686 8.88797C12.1686 8.60197 11.986 8.35264 11.7173 8.26731Z" fill="#1A5CEB"/>
</svg>
