<svg width="16" height="17" viewBox="0 0 16 17" fill="none" xmlns="http://www.w3.org/2000/svg">
<path fill-rule="evenodd" clip-rule="evenodd" d="M13.3436 6.77533L10.6103 6.38133C10.4556 6.362 10.3209 6.26533 10.2496 6.12267L9.03093 3.68267C9.02893 3.68 9.0276 3.67733 9.02626 3.674C8.91426 3.46667 8.74026 3.29267 8.53026 3.18133C7.9656 2.894 7.26493 3.11533 6.96693 3.68267L5.74696 6.122C5.67496 6.26467 5.53896 6.362 5.37829 6.382L2.65096 6.77533C2.38696 6.81467 2.15562 6.932 1.98362 7.11332C1.77162 7.33265 1.65829 7.62199 1.66429 7.92732C1.67029 8.23265 1.79496 8.51599 2.01362 8.72532L3.99162 10.6293C4.10162 10.732 4.15296 10.8887 4.12629 11.0413L3.65896 13.72C3.61896 13.97 3.66162 14.228 3.77762 14.4413C3.92296 14.7147 4.16496 14.914 4.45962 15.0047C4.57096 15.0387 4.68496 15.0553 4.79762 15.0553C4.98296 15.0553 5.16629 15.01 5.33229 14.9213L7.77226 13.66C7.9136 13.5847 8.0836 13.5847 8.22826 13.6613L10.6563 14.9173C10.8743 15.0373 11.1229 15.0807 11.3849 15.0407C12.0109 14.938 12.4396 14.3447 12.3376 13.7147L11.8709 11.0413C11.8436 10.884 11.8943 10.73 12.0096 10.6193L13.9816 8.72532C14.1663 8.54732 14.2876 8.30932 14.3209 8.05532C14.4029 7.43399 13.9636 6.85933 13.3436 6.77533Z" fill="black"/>
</svg>
