<svg xmlns="http://www.w3.org/2000/svg" width="18" height="18" viewBox="0 0 18 18" fill="none">
  <path d="M15.1886 10.5228C15.1827 10.546 15.1762 10.5691 15.1691 10.5922C14.9247 11.3793 14.5135 12.2108 13.9471 13.0644C13.7111 13.4639 13.3351 13.7498 12.8858 13.8696C12.8351 13.8833 12.7841 13.8947 12.7328 13.9038C11.7625 15.5585 10.711 15.7501 9.60328 15.7501C9.43782 15.7501 9.27097 15.7459 9.10274 15.7411L9.04818 15.7397C8.88964 15.7359 8.72681 15.7321 8.55858 15.7321C8.27196 15.7321 8.03934 15.4994 8.03934 15.2128C8.03934 14.9262 8.27196 14.6936 8.55858 14.6936C8.7552 14.6936 8.94558 14.6984 9.12905 14.7033C10.2284 14.7326 10.9035 14.7495 11.6152 13.7295C11.5929 13.7179 11.5708 13.7057 11.549 13.6931C10.7099 13.2077 10.4212 12.1298 10.9051 11.2893L11.9484 9.48171C12.4324 8.64193 13.511 8.35185 14.3521 8.83578L14.4101 8.86943C14.4118 8.81252 14.4127 8.7554 14.4127 8.69822C14.4127 5.71503 11.9841 3.28847 8.99813 3.28847C6.01496 3.28847 3.5884 5.71503 3.5884 8.69822C3.5884 8.75609 3.58929 8.81383 3.59108 8.87136L3.64968 8.83765C4.49223 8.35303 5.56947 8.64311 6.05478 9.48289L7.09741 11.2898C7.58272 12.1303 7.29402 13.2089 6.45425 13.6942C6.18286 13.8514 5.88101 13.931 5.5757 13.931C5.4227 13.931 5.26901 13.9109 5.11739 13.8708C4.66877 13.7503 4.29284 13.4644 4.05676 13.0649C3.5646 12.3237 3.18951 11.6001 2.94007 10.9086C2.6812 10.2038 2.54993 9.46059 2.54993 8.69822C2.54993 5.14249 5.44242 2.25 8.99813 2.25C12.5566 2.25 15.4512 5.14249 15.4512 8.69822C15.4512 9.32185 15.3631 9.93275 15.1886 10.5228Z" fill="black"/>
</svg>