<svg xmlns="http://www.w3.org/2000/svg" width="18" height="18" viewBox="0 0 18 18" fill="none">
  <path d="M9.00074 9.0141C8.88832 9.0141 8.79712 9.10605 8.79712 9.2184C8.79712 9.33157 8.88907 9.42277 9.00149 9.42277C9.11384 9.42202 9.20579 9.33082 9.20579 9.2184C9.20579 9.1053 9.11384 9.0141 9.00149 9.0141" stroke="#1A5CEB" stroke-width="1.125" stroke-linecap="round" stroke-linejoin="round"/>
  <path fill-rule="evenodd" clip-rule="evenodd" d="M5.58105 9.2178C5.58105 11.1066 7.11223 12.6378 9.0018 12.6378C10.8906 12.6378 12.4217 11.1066 12.4217 9.2178C12.4217 7.32903 10.8906 5.79785 9.0018 5.79785C7.11223 5.79785 5.58105 7.32903 5.58105 9.2178Z" stroke="#1A5CEB" stroke-width="1.125" stroke-linecap="round" stroke-linejoin="round"/>
  <path d="M12.703 2.25L13.2635 4.09866L11.425 4.65625" stroke="#1A5CEB" stroke-width="1.125" stroke-linecap="round" stroke-linejoin="round"/>
  <path d="M13.0885 4.12479C11.9689 3.22496 10.5466 2.68652 8.9985 2.68652C5.39035 2.68652 2.46533 5.61154 2.46533 9.21975C2.46533 12.8279 5.39035 15.7529 8.9985 15.7529C12.6067 15.7529 15.5317 12.8279 15.5317 9.21975C15.5317 8.80448 15.493 8.3982 15.4189 8.00445" stroke="#1A5CEB" stroke-width="1.125" stroke-linecap="round" stroke-linejoin="round"/>
</svg>