<svg xmlns="http://www.w3.org/2000/svg" width="20" height="13" viewBox="0 0 20 13" fill="none">
  <path fill-rule="evenodd" clip-rule="evenodd" d="M6.33164 0.842008C7.00519 0.803298 7.67798 0.806394 8.35153 0.806394C8.35618 0.806394 11.7646 0.806394 11.7646 0.806394C12.4513 0.806394 13.1241 0.803298 13.7973 0.842008C14.4093 0.876847 15.0054 0.95117 15.5989 1.11724C16.848 1.4664 17.9389 2.1957 18.7274 3.22964C19.5113 4.257 19.9356 5.51469 19.9356 6.80606C19.9356 8.09897 19.5113 9.35589 18.7274 10.3833C17.9389 11.4168 16.848 12.1465 15.5989 12.4957C15.0054 12.6617 14.4093 12.7357 13.7973 12.7709C13.1241 12.8096 12.4513 12.8061 11.7778 12.8061C11.7731 12.8061 8.36392 12.8065 8.36392 12.8065C7.67798 12.8061 7.00519 12.8096 6.33164 12.7709C5.72001 12.7357 5.12388 12.6617 4.53045 12.4957C3.28127 12.1465 2.19042 11.4168 1.40189 10.3833C0.61801 9.35589 0.193359 8.09897 0.193359 6.80645C0.193359 5.51469 0.61801 4.257 1.40189 3.22964C2.19042 2.1957 3.28127 1.4664 4.53045 1.11724C5.12388 0.95117 5.72001 0.876847 6.33164 0.842008Z" fill="#C7C7C7"/>
  <path fill-rule="evenodd" clip-rule="evenodd" d="M6.19316 12.0323C9.07933 12.0323 11.419 9.69255 11.419 6.80638C11.419 3.92021 9.07933 1.58051 6.19316 1.58051C3.30699 1.58051 0.967285 3.92021 0.967285 6.80638C0.967285 9.69255 3.30699 12.0323 6.19316 12.0323Z" fill="white"/>
</svg>