<svg xmlns="http://www.w3.org/2000/svg" width="16" height="16" viewBox="0 0 16 16" fill="none">
    <path d="M6.21962 13.3334H3.84925C3.53492 13.3334 3.23346 13.2085 3.0112 12.9862C2.78893 12.764 2.66406 12.4625 2.66406 12.1482V3.85187C2.66406 3.53754 2.78893 3.23608 3.0112 3.01382C3.23346 2.79155 3.53492 2.66669 3.84925 2.66669H12.1455C12.4599 2.66669 12.7613 2.79155 12.9836 3.01382C13.2059 3.23608 13.3307 3.53754 13.3307 3.85187V12.1482C13.3307 12.4625 13.2059 12.764 12.9836 12.9862C12.7613 13.2085 12.4599 13.3334 12.1455 13.3334H9.18258M6.21962 2.66669V6.81484M13.3307 6.81484H9.18258M2.66406 9.7778H7.9974" stroke="#C7C7C7" stroke-width="1.18519" stroke-linecap="round" stroke-linejoin="round"/>
</svg>
