<svg width="24" height="24" viewBox="0 0 24 24" fill="none" xmlns="http://www.w3.org/2000/svg">
<path d="M12.0909 13.385C14.6825 13.385 16.7834 11.2841 16.7834 8.6925C16.7834 6.1009 14.6825 4 12.0909 4C9.49934 4 7.39844 6.1009 7.39844 8.6925C7.39844 11.2841 9.49934 13.385 12.0909 13.385Z" stroke="#181A1B" stroke-width="1.5" stroke-linecap="round" stroke-linejoin="round"/>
<path d="M14.2863 13.668H10.0104C7.58532 13.668 5.61936 15.6339 5.61936 18.0591C5.61936 18.1462 5.61852 18.2336 5.61735 18.3213C5.60432 19.2937 6.39436 19.9999 7.36688 19.9999H16.9298C17.9024 19.9999 18.6924 19.2937 18.6794 18.3213C18.6782 18.2336 18.6774 18.1462 18.6774 18.0591C18.6774 15.6339 16.7114 13.668 14.2863 13.668Z" stroke="#181A1B" stroke-width="1.5" stroke-linecap="round" stroke-linejoin="round"/>
</svg>
