<svg xmlns="http://www.w3.org/2000/svg" width="20" height="21" viewBox="0 0 20 21" fill="none">
  <path d="M15.98 9.88146C15.9984 10.0856 16.0079 10.2927 16.0079 10.5012C16.0079 14.2527 12.9672 17.2935 9.2157 17.2935C5.46418 17.2935 2.42346 14.2527 2.42346 10.5012C2.42346 6.75043 5.46418 3.70898 9.2157 3.70898C9.50209 3.70898 9.78478 3.72734 10.0623 3.76185" stroke="black" stroke-width="1.15385" stroke-linecap="round" stroke-linejoin="round"/>
  <path d="M12.0179 6.0289L13.4073 7.42039L16.2696 4.55664" stroke="black" stroke-width="1.15385" stroke-linecap="round" stroke-linejoin="round"/>
  <path d="M5.87732 16.4149C6.01023 15.3818 6.92957 14.2349 9.211 14.2349C11.5175 14.2349 12.4301 15.3884 12.5572 16.434" stroke="black" stroke-width="1.15385" stroke-linecap="round" stroke-linejoin="round"/>
  <path fill-rule="evenodd" clip-rule="evenodd" d="M11.1489 10.4737C11.1489 11.5413 10.2832 12.4071 9.21549 12.4071C8.1478 12.4071 7.2821 11.5413 7.2821 10.4737C7.2821 9.406 8.1478 8.54102 9.21549 8.54102C10.2832 8.54102 11.1489 9.406 11.1489 10.4737Z" stroke="black" stroke-width="1.15385" stroke-linecap="round" stroke-linejoin="round"/>
</svg>