<svg xmlns="http://www.w3.org/2000/svg" width="24" height="24" viewBox="0 0 24 24" fill="none">
  <path fill-rule="evenodd" clip-rule="evenodd" d="M16.0015 17.3358L8.28953 17.3468C8.17053 17.3468 8.05553 17.2998 7.97253 17.2158C7.88853 17.1318 7.84053 17.0178 7.84053 16.8988C7.84053 15.2688 9.17153 13.6248 12.1455 13.6248C15.1185 13.6248 16.4485 15.2638 16.4485 16.8878C16.4485 17.1348 16.2485 17.3358 16.0015 17.3358ZM12.1455 6.65578C13.6855 6.65578 14.9375 7.90878 14.9375 9.44878C14.9375 10.9888 13.6855 12.2418 12.1455 12.2418C10.6055 12.2418 9.35253 10.9888 9.35253 9.44878C9.35253 7.90878 10.6055 6.65578 12.1455 6.65578ZM16.3445 2.55078H7.94453C4.84453 2.55078 2.74453 4.75078 2.64453 8.05078V15.9508C2.64453 19.1508 4.84453 21.4508 7.94453 21.4508H16.3445C19.5445 21.4508 21.6445 19.2508 21.6445 15.9508V8.05078C21.6445 4.85078 19.4445 2.55078 16.3445 2.55078Z" fill="#1A5CEB"/>
</svg>