<svg xmlns="http://www.w3.org/2000/svg" width="22" height="22" viewBox="0 0 22 22" fill="none">
  <path d="M9.44636 12.4934C11.6924 12.4934 13.5131 10.6726 13.5131 8.42662C13.5131 6.18061 11.6924 4.35986 9.44636 4.35986C7.20036 4.35986 5.37961 6.18061 5.37961 8.42662C5.37961 10.6726 7.20036 12.4934 9.44636 12.4934Z" stroke="#1F1F1F" stroke-width="1.22667" stroke-linecap="round" stroke-linejoin="round"/>
  <path d="M11.3502 12.7399H7.64452C5.54278 12.7399 3.83898 14.4436 3.83898 16.5454C3.83898 16.6209 3.83825 16.6967 3.83723 16.7726C3.82595 17.6154 4.51063 18.2274 5.35346 18.2274H13.6412C14.4841 18.2274 15.1688 17.6154 15.1574 16.7726C15.1565 16.6967 15.1557 16.6209 15.1557 16.5454C15.1557 14.4436 13.452 12.7399 11.3502 12.7399Z" stroke="#1F1F1F" stroke-width="1.22667" stroke-linecap="round" stroke-linejoin="round"/>
  <path d="M14.5359 12.27C16.6375 12.27 18.3414 13.9738 18.3414 16.0755C18.3414 16.1511 18.3421 16.2268 18.3431 16.3028C18.3544 17.1455 17.6697 17.7576 16.8269 17.7576" stroke="#B6C0D6" stroke-width="1.22667" stroke-linecap="round" stroke-linejoin="round"/>
  <path d="M14.5305 12.2698C16.0008 11.6708 17.0371 10.2273 17.0371 8.54173C17.0371 6.54106 15.5771 4.88139 13.6643 4.57019" stroke="#B6C0D6" stroke-width="1.22667" stroke-linecap="round" stroke-linejoin="round"/>
</svg>