<svg xmlns="http://www.w3.org/2000/svg" width="20" height="20" viewBox="0 0 20 20" fill="none">
  <path d="M16.2415 9.36853C16.2602 9.57661 16.27 9.78769 16.27 10.0002C16.27 13.824 13.1707 16.9233 9.34691 16.9233C5.52312 16.9233 2.42383 13.824 2.42383 10.0002C2.42383 6.17719 5.52312 3.07715 9.34691 3.07715C9.63884 3.07715 9.92691 3.09586 10.2098 3.13103" stroke="#1F1F1F" stroke-width="1.15385" stroke-linecap="round" stroke-linejoin="round"/>
  <path fill-rule="evenodd" clip-rule="evenodd" d="M11.317 9.97185C11.317 11.0601 10.4346 11.9425 9.34637 11.9425C8.25814 11.9425 7.37573 11.0601 7.37573 9.97185C7.37573 8.88361 8.25814 8.00195 9.34637 8.00195C10.4346 8.00195 11.317 8.88361 11.317 9.97185Z" stroke="#1F1F1F" stroke-width="1.15385" stroke-linecap="round" stroke-linejoin="round"/>
  <path d="M5.94214 16.0293C6.07761 14.9762 7.01465 13.8071 9.34005 13.8071C11.6909 13.8071 12.6212 14.983 12.7507 16.0487" stroke="#1F1F1F" stroke-width="1.15385" stroke-linecap="round" stroke-linejoin="round"/>
  <path d="M15.6912 4.03242L13.2145 6.50975M15.715 6.53503L13.1882 4.0083" stroke="#1F1F1F" stroke-width="1.15385" stroke-linecap="round" stroke-linejoin="round"/>
</svg>