<svg width="20" height="21" viewBox="0 0 20 21" fill="none" xmlns="http://www.w3.org/2000/svg">
<path fill-rule="evenodd" clip-rule="evenodd" d="M2.20312 10.4984C2.20312 6.04612 5.81242 2.43683 10.2647 2.43683C11.2971 2.43683 12.2866 2.63093 13.1958 2.98656C13.5173 3.11229 13.676 3.4748 13.5502 3.79627C13.4246 4.11774 13.062 4.27642 12.7406 4.1507C11.9746 3.85113 11.1395 3.68683 10.2647 3.68683C6.50278 3.68683 3.45313 6.73648 3.45313 10.4984C3.45313 14.2603 6.50278 17.31 10.2647 17.31C14.0266 17.31 17.0763 14.2603 17.0763 10.4984C17.0763 8.67405 16.3595 7.0179 15.1913 5.79477C14.9529 5.54515 14.962 5.14952 15.2116 4.91112C15.4612 4.67272 15.8569 4.68181 16.0952 4.93144C17.4766 6.37773 18.3263 8.33972 18.3263 10.4984C18.3263 14.9507 14.717 18.56 10.2647 18.56C5.81242 18.56 2.20312 14.9507 2.20312 10.4984Z" fill="#1F1F1F"/>
<path fill-rule="evenodd" clip-rule="evenodd" d="M15.0664 5.03042C15.1443 4.69417 15.4798 4.48465 15.8161 4.56241L17.969 5.0603C18.3053 5.13807 18.5149 5.47375 18.4371 5.81005C18.3593 6.14635 18.0237 6.35592 17.6873 6.27816L16.1433 5.92107L15.7888 7.45299C15.7109 7.78928 15.3753 7.99881 15.0389 7.92097C14.7027 7.84314 14.4931 7.50743 14.5709 7.17114L15.0664 5.03042Z" fill="#1F1F1F"/>
<path fill-rule="evenodd" clip-rule="evenodd" d="M10.3308 8.13019C9.39366 8.13019 8.63283 8.89065 8.63283 9.82915C8.63283 10.7672 9.39333 11.5271 10.3308 11.5271C11.2694 11.5271 12.0297 10.7671 12.0297 9.82915C12.0297 8.89081 11.2691 8.13019 10.3308 8.13019ZM7.38281 9.82915C7.38281 8.20065 8.70291 6.88019 10.3308 6.88019C11.9594 6.88019 13.2797 8.20049 13.2797 9.82915C13.2797 11.4581 11.9591 12.7771 10.3308 12.7771C8.70325 12.7771 7.38281 11.4579 7.38281 9.82915Z" fill="#1F1F1F"/>
<path fill-rule="evenodd" clip-rule="evenodd" d="M7.92186 15.6116C7.49032 16.003 7.32031 16.4971 7.32031 16.9278C7.32031 17.2729 7.0405 17.5528 6.69531 17.5528C6.35014 17.5528 6.07031 17.2729 6.07031 16.9278C6.07031 16.1714 6.37001 15.3315 7.08211 14.6857C7.79598 14.0383 8.86831 13.6348 10.3305 13.6348C11.7946 13.6348 12.8682 14.0339 13.5835 14.6773C14.2978 15.3199 14.5981 16.1572 14.5981 16.9138C14.5981 17.259 14.3183 17.5388 13.9731 17.5388C13.6279 17.5388 13.3481 17.259 13.3481 16.9138C13.3481 16.4844 13.1787 15.9946 12.7475 15.6067C12.3172 15.2196 11.5696 14.8848 10.3305 14.8848C9.0969 14.8848 8.35165 15.2218 7.92186 15.6116Z" fill="#1F1F1F"/>
</svg>
