<svg width="20" height="21" viewBox="0 0 20 21" fill="none" xmlns="http://www.w3.org/2000/svg">
<path d="M13.9021 18.5003C13.7091 18.5008 13.5178 18.4633 13.3393 18.3898C13.1609 18.3163 12.9987 18.2083 12.8621 18.0719L12.5846 17.7953C12.542 17.7532 12.4845 17.7295 12.4245 17.7294H12.037C11.6452 17.7288 11.2697 17.5729 10.9927 17.2957C10.7157 17.0186 10.56 16.6429 10.5596 16.2511V15.8611C10.5599 15.8302 10.5541 15.7995 10.5423 15.7709C10.5306 15.7423 10.5132 15.7163 10.4912 15.6944L10.2229 15.4261C9.94649 15.1504 9.79049 14.7764 9.78907 14.386C9.78766 13.9956 9.94099 13.6205 10.2153 13.3428L10.2404 13.3186L10.4904 13.0686C10.5326 13.0261 10.5562 12.9686 10.5562 12.9086V12.5211C10.5568 12.1295 10.7126 11.7542 10.9893 11.4771C11.2661 11.2001 11.6413 11.0439 12.0329 11.0428H12.4221C12.4822 11.0428 12.5399 11.0191 12.5829 10.9769L12.852 10.7078C13.1285 10.4302 13.5037 10.2735 13.8955 10.2721C14.2872 10.2707 14.6636 10.4247 14.942 10.7003L15.2178 10.9761C15.2387 10.9973 15.2637 11.0141 15.2912 11.0255C15.3187 11.037 15.3481 11.0429 15.3779 11.0428H15.767C16.159 11.0433 16.5347 11.1991 16.8119 11.4763C17.0891 11.7534 17.2449 12.1292 17.2453 12.5211V12.9094C17.2457 12.9692 17.2689 13.0264 17.3103 13.0694L17.5821 13.3411C17.8588 13.6179 18.0147 13.9929 18.0157 14.3843C18.0166 14.7756 17.8625 15.1514 17.5871 15.4294L17.3095 15.7069C17.2684 15.749 17.2457 15.8057 17.2462 15.8644V16.2544C17.2457 16.6461 17.0899 17.0216 16.8129 17.2984C16.5359 17.5753 16.1603 17.7309 15.7687 17.7311H15.3771C15.3477 17.731 15.3186 17.7367 15.2914 17.7479C15.2642 17.759 15.2396 17.7754 15.2187 17.7961L14.9445 18.0686C14.8086 18.2063 14.6466 18.3156 14.4681 18.3903C14.2896 18.4649 14.0981 18.5035 13.9045 18.5036L13.9021 18.5003ZM11.092 14.2336C11.0544 14.2774 11.0348 14.3339 11.0372 14.3915C11.0395 14.4492 11.0636 14.5039 11.1046 14.5444L11.3779 14.8186C11.6541 15.0953 11.8093 15.4702 11.8096 15.8611V16.2511C11.8096 16.3115 11.8335 16.3695 11.8762 16.4123C11.9187 16.4551 11.9766 16.4793 12.037 16.4794H12.4245C12.8152 16.4802 13.1898 16.635 13.467 16.9103L13.7378 17.1803C13.7596 17.2024 13.7856 17.2199 13.8142 17.2318C13.8428 17.2437 13.8736 17.2497 13.9045 17.2494C13.9342 17.2497 13.9636 17.2439 13.9909 17.2324C14.0183 17.2209 14.043 17.2041 14.0637 17.1828L14.3395 16.9078C14.4761 16.7708 14.6385 16.6623 14.8173 16.5884C14.9962 16.5146 15.1877 16.477 15.3812 16.4778H15.7721C15.8021 16.4779 15.8318 16.4721 15.8596 16.4606C15.8873 16.4492 15.9125 16.4324 15.9337 16.4111C15.9762 16.3681 16.0002 16.31 16.0004 16.2494V15.8611C15.9995 15.4711 16.1536 15.0968 16.4287 14.8203L16.7029 14.5461C16.7242 14.5249 16.7411 14.4996 16.7526 14.4718C16.7641 14.4439 16.77 14.4142 16.77 14.384C16.77 14.3539 16.7641 14.3241 16.7526 14.2964C16.7411 14.2685 16.7242 14.2433 16.7029 14.2219L16.4304 13.9486C16.2932 13.8119 16.1846 13.6494 16.1107 13.4705C16.0367 13.2915 15.9989 13.0998 15.9995 12.9061V12.5178C15.9995 12.4573 15.9755 12.3992 15.9327 12.3564C15.8898 12.3135 15.8317 12.2894 15.7712 12.2894H15.3821C15.1883 12.29 14.9965 12.2522 14.8175 12.1781C14.6386 12.104 14.4761 11.9951 14.3395 11.8578L14.0687 11.5886L14.0562 11.5769C14.0144 11.5392 13.9601 11.5184 13.9037 11.5186C13.8738 11.5185 13.8442 11.5244 13.8166 11.5359C13.789 11.5473 13.764 11.5641 13.7429 11.5853L13.4712 11.8578C13.1934 12.1334 12.8183 12.2884 12.427 12.2894H12.0387C11.9782 12.2897 11.9204 12.3139 11.8777 12.3566C11.8352 12.3994 11.8112 12.4574 11.8112 12.5178V12.9061C11.8115 13.0996 11.7737 13.2912 11.6997 13.4699C11.6257 13.6487 11.5172 13.8111 11.3804 13.9478L11.1095 14.2194L11.092 14.2336ZM13.5071 15.8253C13.4248 15.8253 13.3433 15.8089 13.2674 15.7774C13.1915 15.7457 13.1226 15.6994 13.0646 15.6411L12.2979 14.8728C12.1842 14.7548 12.1214 14.5968 12.123 14.4329C12.1247 14.269 12.1907 14.1124 12.3067 13.9967C12.4227 13.8809 12.5796 13.8154 12.7435 13.8143C12.9074 13.813 13.0652 13.8763 13.1828 13.9903L13.5078 14.3153L14.6462 13.1769C14.7641 13.0631 14.9219 13 15.0857 13.0014C15.2497 13.0027 15.4064 13.0684 15.5223 13.1842C15.6382 13.3 15.7041 13.4567 15.7056 13.6206C15.7071 13.7844 15.6442 13.9424 15.5303 14.0603L13.9471 15.6436C13.8301 15.7598 13.6719 15.8251 13.5071 15.8253Z" fill="black"/>
<path d="M3.27344 16.9753C3.10768 16.9753 2.9487 16.9094 2.83149 16.7922C2.71428 16.675 2.64844 16.516 2.64844 16.3503C2.64844 14.0894 4.49345 11.8086 8.61595 11.8086C8.7817 11.8086 8.9407 11.8744 9.05786 11.9917C9.17511 12.1088 9.24095 12.2678 9.24095 12.4336C9.24095 12.5993 9.17511 12.7583 9.05786 12.8755C8.9407 12.9928 8.7817 13.0586 8.61595 13.0586C5.13345 13.0586 3.89844 14.8319 3.89844 16.3503C3.89844 16.516 3.83259 16.675 3.71538 16.7922C3.59817 16.9094 3.4392 16.9753 3.27344 16.9753Z" fill="black"/>
<path d="M8.62344 10.5672C7.82485 10.5672 7.04422 10.3303 6.38023 9.88667C5.71626 9.443 5.19878 8.81238 4.89322 8.07458C4.58765 7.33677 4.50772 6.52492 4.66358 5.7417C4.81943 4.95848 5.20403 4.23907 5.76877 3.67445C6.3335 3.10982 7.05303 2.72536 7.83628 2.56967C8.61952 2.41397 9.43136 2.49405 10.1691 2.79977C10.9069 3.10548 11.5374 3.62311 11.9809 4.28717C12.4244 4.95125 12.6611 5.73195 12.6609 6.53052C12.6596 7.60085 12.2338 8.62695 11.4769 9.38375C10.7199 10.1405 9.69377 10.5661 8.62344 10.5672ZM8.62344 3.74219C8.07215 3.74219 7.53325 3.90565 7.07487 4.21191C6.61648 4.51817 6.25921 4.95347 6.04821 5.46277C5.8372 5.97207 5.78197 6.5325 5.88946 7.0732C5.99695 7.6139 6.26234 8.11058 6.6521 8.50045C7.04185 8.89033 7.53843 9.15592 8.0791 9.2635C8.61978 9.37117 9.18027 9.31608 9.68961 9.10525C10.1989 8.89442 10.6344 8.53724 10.9407 8.07895C11.2471 7.62066 11.4108 7.08181 11.4109 6.53052C11.4099 5.79165 11.1158 5.08337 10.5933 4.56097C10.0707 4.03859 9.36227 3.74474 8.62344 3.74386V3.74219Z" fill="black"/>
</svg>
