<svg xmlns="http://www.w3.org/2000/svg" width="16" height="16" viewBox="0 0 16 16" fill="none">
  <path d="M11.2688 5.9668L8.84858 3.39934M7.54352 3.39934L5.11746 5.9668M11.2784 5.96744H4.72098C3.33994 5.96744 2.47461 6.94567 2.47461 8.32927V11.6382C2.47461 13.0225 3.33605 14 4.72098 14H11.2778C12.6634 14 13.5261 13.0225 13.5261 11.6382V8.32927C13.5261 6.94567 12.6634 5.96744 11.2784 5.96744ZM7.34158 2.85301C7.34158 3.32395 7.72365 3.70602 8.19458 3.70602C8.66618 3.70602 9.04825 3.32395 9.04825 2.85301C9.04825 2.38142 8.66618 2 8.19458 2C7.72365 2 7.34158 2.38142 7.34158 2.85301Z" stroke="#C7C7C7" stroke-width="1.25" stroke-linecap="round" stroke-linejoin="round"/>
  <path d="M7 9.91052L7.85904 10.771L9.6286 9" stroke="#C7C7C7" stroke-width="1.25" stroke-linecap="round" stroke-linejoin="round"/>
</svg>