<svg width="13" height="11" viewBox="0 0 13 11" fill="none" xmlns="http://www.w3.org/2000/svg">
<path fill-rule="evenodd" clip-rule="evenodd" d="M1.97039 6.09314C1.27445 6.09314 0.711914 6.65568 0.711914 7.35161V9.74145C0.711914 10.4374 1.27445 10.9999 1.97039 10.9999C2.66632 10.9999 3.22886 10.4374 3.22886 9.74145V7.35161C3.22886 6.65568 2.66632 6.09314 1.97039 6.09314Z" fill="#ED8B18"/>
<path fill-rule="evenodd" clip-rule="evenodd" d="M6.48699 3.89087C5.79105 3.89087 5.22852 4.45341 5.22852 5.14932V9.74148C5.22852 10.4374 5.79105 11 6.48699 11C7.18292 11 7.74546 10.4374 7.74546 9.74148V5.14932C7.74546 4.45341 7.18292 3.89087 6.48699 3.89087Z" fill="#ED8B18"/>
<path fill-rule="evenodd" clip-rule="evenodd" d="M11.0046 0.969971C10.3086 0.969971 9.74609 1.53251 9.74609 2.22844V9.74151C9.74609 10.4362 10.3086 11 11.0046 11C11.7005 11 12.263 10.4362 12.263 9.74151V2.22844C12.263 1.53251 11.7005 0.969971 11.0046 0.969971Z" fill="#ECECEC"/>
</svg>
