<svg width="14" height="14" viewBox="0 0 14 14" fill="none" xmlns="http://www.w3.org/2000/svg">
<path fill-rule="evenodd" clip-rule="evenodd" d="M7.4397 9.15392C7.4397 9.39542 7.2437 9.59143 7.0022 9.59143C6.7607 9.59143 6.5647 9.39542 6.5647 9.15392V6.64617C6.5647 6.40468 6.7607 6.20867 7.0022 6.20867C7.2437 6.20867 7.4397 6.40468 7.4397 6.64617V9.15392ZM6.5612 4.83609C6.5612 4.59459 6.7572 4.39859 6.9987 4.39859C7.2402 4.39859 7.4362 4.59459 7.4362 4.83609C7.4362 5.07759 7.2402 5.29226 6.9987 5.29226C6.7572 5.29226 6.5612 5.11434 6.5612 4.87284V4.83609ZM6.9987 1.45801C3.9432 1.45801 1.45703 3.94359 1.45703 6.99967C1.45703 10.0552 3.9432 12.5413 6.9987 12.5413C10.0542 12.5413 12.5404 10.0552 12.5404 6.99967C12.5404 3.94359 10.0542 1.45801 6.9987 1.45801Z" fill="#E42B30"/>
</svg>
