<svg xmlns="http://www.w3.org/2000/svg" width="18" height="18" viewBox="0 0 18 18" fill="none">
  <path d="M5.96204 15.0276C5.79786 14.9451 5.61762 14.9167 5.43884 14.959C4.83099 15.102 3.85026 15.3465 3.1366 15.526C2.73088 15.6281 2.36164 15.2669 2.45578 14.8597C2.6331 14.0906 2.87901 13.0209 2.99576 12.486C3.03225 12.3196 3.00963 12.1481 2.93739 11.9941C2.50978 11.0784 2.25 10.0648 2.25 9.00015C2.25 4.86634 6.01604 1.5695 10.2863 2.37073C12.9695 2.87422 15.1258 5.03125 15.6293 7.71367C16.4305 11.9839 13.1336 15.75 8.99985 15.75C7.9425 15.75 6.88586 15.4946 5.96204 15.0276Z" stroke="black" stroke-width="1.125" stroke-linecap="round" stroke-linejoin="round"/>
  <path d="M6.44917 6.34433C5.40934 7.38928 6.19742 9.04934 7.58389 10.4358C8.97034 11.8223 10.6041 12.5841 11.6491 11.5443L11.7454 11.4479C12.1643 11.0298 12.103 10.3344 11.6178 9.99584C11.4609 9.88709 11.2967 9.77182 11.1222 9.64994C10.745 9.38504 10.2291 9.42592 9.90289 9.75059L9.72634 9.92579C8.96666 9.47332 8.58139 9.03839 8.06839 8.26784L8.24351 8.09129C8.56751 7.76437 8.60838 7.24844 8.34423 6.87118C8.22161 6.69678 8.10708 6.5326 7.99766 6.37571C7.65978 5.89045 6.96435 5.82988 6.5455 6.24801L6.44917 6.34433Z" stroke="black" stroke-width="1.125" stroke-linecap="round" stroke-linejoin="round"/>
</svg>
