<svg width="17" height="17" viewBox="0 0 17 17" fill="none" xmlns="http://www.w3.org/2000/svg">
<path fill-rule="evenodd" clip-rule="evenodd" d="M4.12286 3.75898C3.74156 4.23763 3.5415 4.9893 3.5415 6.06116V10.9364C3.5415 11.9564 3.84076 12.7052 4.33533 13.1988C4.83003 13.6926 5.58102 13.9916 6.60452 13.9916H11.4688C12.4894 13.9916 13.2383 13.6928 13.7318 13.1992C14.2252 12.7056 14.524 11.9567 14.524 10.9364V10.9336L14.5415 7.83264C14.5415 7.83218 14.5415 7.83164 14.5415 7.83118C14.5413 6.73315 14.3384 6.02486 13.9671 5.59008C13.6111 5.17324 13.0133 4.90952 11.9714 4.90952H10.2025H10.201C9.5959 4.90777 9.02637 4.62308 8.66204 4.13993L8.66157 4.13933L8.09097 3.38022C7.91557 3.14669 7.64104 3.00916 7.35002 3.00916H6.09996C5.08272 3.00916 4.48523 3.30412 4.12286 3.75898ZM3.34072 3.13589C3.94829 2.37323 4.88002 2.00916 6.09996 2.00916H7.35002C7.95664 2.00916 8.52677 2.29534 8.8903 2.77935C8.89024 2.77928 8.89037 2.77942 8.8903 2.77935L9.4605 3.53786C9.46037 3.53773 9.46057 3.53798 9.4605 3.53786C9.63624 3.77066 9.91117 3.90848 10.2033 3.90952H11.9714C13.1718 3.90952 14.109 4.21643 14.7276 4.94068C15.3306 5.64679 15.5415 6.64963 15.5415 7.83264V7.83544L15.524 10.9364C15.524 10.9369 15.524 10.9374 15.524 10.9379C15.5237 12.1535 15.1634 13.1816 14.4389 13.9062C13.714 14.6312 12.6854 14.9916 11.4688 14.9916H6.60452C5.38566 14.9916 4.35516 14.6314 3.62893 13.9066C2.90258 13.1817 2.5415 12.1529 2.5415 10.9364V6.06116C2.5415 4.8991 2.7521 3.87476 3.34072 3.13589Z" fill="#1F1F1F"/>
<path fill-rule="evenodd" clip-rule="evenodd" d="M7.4941 7.74936C7.68933 7.55409 8.00593 7.55409 8.2012 7.74936L9.04167 8.58982L9.88153 7.74996C10.0768 7.55469 10.3933 7.55469 10.5886 7.74996C10.7839 7.94522 10.7839 8.26182 10.5886 8.45709L9.7488 9.29689L10.588 10.1361C10.7833 10.3314 10.7833 10.648 10.588 10.8432C10.3927 11.0385 10.0761 11.0385 9.88087 10.8432L9.04167 10.004L8.20187 10.8439C8.0066 11.0391 7.69 11.0391 7.49473 10.8439C7.29947 10.6486 7.29947 10.332 7.49473 10.1368L8.3346 9.29689L7.4941 8.45642C7.29884 8.26116 7.29884 7.94462 7.4941 7.74936Z" fill="#1F1F1F"/>
</svg>
