<svg xmlns="http://www.w3.org/2000/svg" width="20" height="20" viewBox="0 0 20 20" fill="none">
  <path fill-rule="evenodd" clip-rule="evenodd" d="M17.4787 14.4761C17.4787 16.1458 16.1244 17.5001 14.4547 17.5001C12.7849 17.5001 11.4307 16.1458 11.4307 14.4761C11.4307 12.8056 12.7849 11.4521 14.4547 11.4521C16.1244 11.4521 17.4787 12.8056 17.4787 14.4761Z" stroke="#B3B3B3" stroke-width="1.25" stroke-linecap="round" stroke-linejoin="round"/>
  <path d="M15.3929 15.2642L14.4368 14.6925V13.4639" stroke="#B3B3B3" stroke-width="1.25" stroke-linecap="round" stroke-linejoin="round"/>
  <path d="M9.16692 16.9502C5.44143 16.6493 2.52124 13.5337 2.52124 9.73275C2.52124 5.74376 5.7577 2.5 9.754 2.5C13.4495 2.5 16.4897 5.26936 16.926 8.84475" stroke="#B3B3B3" stroke-width="1.25" stroke-linecap="round" stroke-linejoin="round"/>
  <path d="M12.4321 8.99483C12.4094 8.37767 12.3567 7.78328 12.274 7.21886C11.8978 4.46409 10.9116 2.5 9.75275 2.5C8.60125 2.5 7.60785 4.46409 7.23157 7.21886C7.11885 8.00142 7.05884 8.844 7.05884 9.73275C7.05884 10.6208 7.11885 11.4706 7.23157 12.254C7.49513 14.1653 8.30769 16.0094 9.16567 16.9502" stroke="#B3B3B3" stroke-width="1.25" stroke-linecap="round" stroke-linejoin="round"/>
  <path d="M2.52124 9.74121H9.42717" stroke="#B3B3B3" stroke-width="1.25" stroke-linecap="round" stroke-linejoin="round"/>
</svg>