<svg xmlns="http://www.w3.org/2000/svg" width="20" height="20" viewBox="0 0 20 20" fill="none">
  <path fill-rule="evenodd" clip-rule="evenodd" d="M4.33167 11.666H6.50167C7.51333 11.666 8.33333 12.486 8.33333 13.4977V15.6677C8.33333 16.6793 7.51333 17.4993 6.50167 17.4993H4.33167C3.32 17.4993 2.5 16.6793 2.5 15.6677V13.4977C2.5 12.486 3.32 11.666 4.33167 11.666Z" stroke="white" stroke-width="1.25" stroke-linecap="round" stroke-linejoin="round"/>
  <path fill-rule="evenodd" clip-rule="evenodd" d="M13.4957 11.666H15.6657C16.6774 11.666 17.4974 12.486 17.4974 13.4977V15.6677C17.4974 16.6793 16.6774 17.4993 15.6657 17.4993H13.4957C12.4841 17.4993 11.6641 16.6793 11.6641 15.6677V13.4977C11.6641 12.486 12.4841 11.666 13.4957 11.666Z" stroke="white" stroke-width="1.25" stroke-linecap="round" stroke-linejoin="round"/>
  <path fill-rule="evenodd" clip-rule="evenodd" d="M4.33167 2.5H6.50167C7.51333 2.5 8.33333 3.32 8.33333 4.33167V6.50167C8.33333 7.51333 7.51333 8.33333 6.50167 8.33333H4.33167C3.32 8.33333 2.5 7.51333 2.5 6.50167V4.33167C2.5 3.32 3.32 2.5 4.33167 2.5Z" stroke="white" stroke-width="1.25" stroke-linecap="round" stroke-linejoin="round"/>
  <path d="M14.5921 8.33334L14.4788 8.02662C14.0514 6.87004 13.1409 5.95815 11.9859 5.53018L11.6797 5.41668L11.9859 5.30318C13.1409 4.87522 14.0514 3.96333 14.4788 2.80676L14.5921 2.5L14.7054 2.80676C15.1328 3.96333 16.0433 4.87522 17.1982 5.30318L17.5045 5.41668L17.1982 5.53018C16.0433 5.95815 15.1328 6.87004 14.7054 8.02662L14.5921 8.33334Z" stroke="white" stroke-width="1.25" stroke-linecap="round" stroke-linejoin="round"/>
</svg>