<svg xmlns="http://www.w3.org/2000/svg" width="20" height="20" viewBox="0 0 20 20" fill="none">
  <path d="M14.2807 18.043C12.3232 18.043 9.78069 16.4888 6.70984 13.423C3.62817 10.3447 2.07484 7.78965 2.0865 5.83132C2.07834 5.41461 2.15863 5.00091 2.3221 4.61752C2.48557 4.23413 2.7285 3.88976 3.03484 3.60715C3.05798 3.58065 3.08247 3.55534 3.10818 3.53132C4.23735 2.40215 4.98233 1.91465 5.76316 1.95549C6.65233 1.96632 7.27818 2.62215 8.07151 3.45965C8.26484 3.66382 8.47569 3.88549 8.70985 4.11965C9.11535 4.487 9.38277 4.98228 9.46735 5.52289C9.55202 6.0635 9.44877 6.61679 9.17485 7.09049C8.84152 7.95549 8.54402 8.703 9.98819 10.1472C11.4315 11.588 12.1774 11.2963 13.0432 10.958C13.5166 10.6836 14.0697 10.5798 14.6104 10.664C15.151 10.7482 15.6464 11.0152 16.014 11.4205C16.2449 11.6513 16.464 11.8597 16.6657 12.0522C17.504 12.8488 18.1657 13.478 18.1765 14.3697C18.1857 15.1272 17.7299 15.8955 16.6032 17.0222L16.5274 17.0963C16.2447 17.4028 15.9002 17.646 15.5167 17.8096C15.1331 17.9733 14.7193 18.0536 14.3024 18.0455L14.2807 18.043ZM3.99565 4.40882C3.99565 4.40882 3.95818 4.44965 3.91235 4.49882C3.72483 4.66532 3.57636 4.87114 3.47755 5.10162C3.37873 5.33209 3.332 5.58154 3.34067 5.83215C3.334 6.94215 4.06735 9.00634 7.59735 12.5355C11.1099 16.048 13.1715 16.7855 14.2849 16.7855H14.299C14.5504 16.7943 14.8007 16.7475 15.032 16.6485C15.2634 16.5496 15.47 16.4008 15.6374 16.213C15.6806 16.1673 15.7263 16.1239 15.774 16.083C16.5407 15.3113 16.9349 14.738 16.9315 14.3755C16.9282 14.013 16.4574 13.5647 15.809 12.948C15.5999 12.7488 15.3732 12.5313 15.134 12.2947C14.5424 11.7038 14.2174 11.8322 13.504 12.1113C12.504 12.5038 11.1307 13.0413 9.10902 11.0205C7.0865 8.99967 7.62318 7.62715 8.01485 6.62465C8.29401 5.91049 8.42152 5.58465 7.83067 4.99299C7.58817 4.75132 7.36984 4.52215 7.16985 4.31049C6.55568 3.66632 6.11316 3.20049 5.75316 3.19549H5.74734C5.384 3.19549 4.81234 3.59132 3.99734 4.40549L3.99565 4.40882ZM15.5032 7.95132C15.3374 7.95132 15.1784 7.88547 15.0613 7.76826C14.944 7.65105 14.8782 7.49208 14.8782 7.32632V2.61382C14.8782 2.44806 14.944 2.28909 15.0613 2.17188C15.1784 2.05467 15.3374 1.98882 15.5032 1.98882C15.6689 1.98882 15.8279 2.05467 15.9451 2.17188C16.0624 2.28909 16.1282 2.44806 16.1282 2.61382V7.32632C16.1282 7.49208 16.0624 7.65105 15.9451 7.76826C15.8279 7.88547 15.6689 7.95132 15.5032 7.95132ZM17.7115 6.45132C17.5458 6.45132 17.3868 6.38547 17.2695 6.26826C17.1524 6.15105 17.0865 5.99208 17.0865 5.82632V4.20215C17.0865 4.03639 17.1524 3.87742 17.2695 3.76021C17.3868 3.643 17.5458 3.57715 17.7115 3.57715C17.8773 3.57715 18.0363 3.643 18.1534 3.76021C18.2707 3.87742 18.3365 4.03639 18.3365 4.20215V5.82715C18.3365 5.99291 18.2707 6.15189 18.1534 6.26909C18.0363 6.3863 17.8773 6.45132 17.7115 6.45132ZM13.2949 6.45132C13.1291 6.45132 12.9701 6.38547 12.8529 6.26826C12.7357 6.15105 12.6699 5.99208 12.6699 5.82632V4.20215C12.6699 4.03639 12.7357 3.87742 12.8529 3.76021C12.9701 3.643 13.1291 3.57715 13.2949 3.57715C13.4606 3.57715 13.6195 3.643 13.7368 3.76021C13.8539 3.87742 13.9199 4.03639 13.9199 4.20215V5.82715C13.9199 5.99291 13.8539 6.15189 13.7368 6.26909C13.6195 6.3863 13.4606 6.45132 13.2949 6.45132Z" fill="#00AE8E"/>
</svg>