<svg xmlns="http://www.w3.org/2000/svg" width="24" height="25" viewBox="0 0 24 25" fill="none">
  <path d="M20.6394 12.2464C20.6394 7.47436 16.7714 3.60645 11.9994 3.60645C7.22729 3.60645 3.35938 7.47436 3.35938 12.2464C3.35938 17.0185 7.22729 20.8864 11.9994 20.8864C16.7714 20.8864 20.6394 17.0185 20.6394 12.2464Z" stroke="#1F1F1F" stroke-width="1.8" stroke-linecap="round" stroke-linejoin="round"/>
  <path d="M13.7444 9.53516H11.2243C10.4743 9.53516 9.86719 10.1432 9.86719 10.8923C9.86719 11.6414 10.4743 12.2495 11.2243 12.2495H12.7749C13.525 12.2495 14.1321 12.8575 14.1321 13.6067C14.1321 14.3568 13.525 14.9639 12.7749 14.9639H10.2548" stroke="#1F1F1F" stroke-width="1.8" stroke-linecap="round" stroke-linejoin="round"/>
  <path d="M12 14.9636V16.1031M12 8.38965V9.53947" stroke="#1F1F1F" stroke-width="1.8" stroke-linecap="round" stroke-linejoin="round"/>
</svg>