<svg xmlns="http://www.w3.org/2000/svg" width="20" height="20" viewBox="0 0 20 20" fill="none">
  <path fill-rule="evenodd" clip-rule="evenodd" d="M4.57784 14.5609C4.99054 15.2761 5.90514 15.5218 6.62028 15.1083C7.33379 14.6955 7.57866 13.7826 7.16676 13.0674L5.91082 10.892C5.49893 10.1777 4.58514 9.93283 3.87082 10.3439L3.69487 10.4453C3.24649 10.7039 3.01946 11.2366 3.17271 11.7312C3.44595 12.6126 3.91217 13.5612 4.57784 14.5609Z" stroke="white" stroke-width="1.25" stroke-linecap="round" stroke-linejoin="round"/>
  <path fill-rule="evenodd" clip-rule="evenodd" d="M15.4217 14.5609C15.009 15.2761 14.0944 15.5218 13.3793 15.1083C12.6657 14.6955 12.4209 13.7826 12.8328 13.0674L14.0887 10.892C14.5006 10.1777 15.4144 9.93283 16.1287 10.3439L16.3047 10.4453C16.7531 10.7039 16.9801 11.2366 16.8268 11.7312C16.5536 12.6126 16.0874 13.5612 15.4217 14.5609Z" stroke="white" stroke-width="1.25" stroke-linecap="round" stroke-linejoin="round"/>
  <path d="M9.46875 17.4792C11.3823 17.4792 12.7387 17.8716 14.1098 15.3086" stroke="white" stroke-width="1.25" stroke-linecap="round" stroke-linejoin="round"/>
  <path d="M16.5256 12.5306C16.918 11.6476 17.1385 10.6665 17.1385 9.63675C17.1385 5.6946 13.9383 2.5 9.99613 2.5C6.05965 2.5 2.85938 5.6946 2.85938 9.63675C2.85938 10.5319 3.02478 11.3898 3.32559 12.1754" stroke="white" stroke-width="1.25" stroke-linecap="round" stroke-linejoin="round"/>
</svg>