<svg xmlns="http://www.w3.org/2000/svg" width="21" height="21" viewBox="0 0 21 21" fill="none">
  <path d="M6.11894 14.1811C5.09896 13.7757 4.57357 13.0938 4.48438 11.9992C4.48438 9.8239 5.78895 9.95848 5.78895 7.28932C5.78895 5.20394 7.68622 2.83398 10.5962 2.83398C12.6289 2.83398 14.1588 3.98856 14.9088 5.39124" stroke="white" stroke-width="1.38889" stroke-linecap="round" stroke-linejoin="round"/>
  <path d="M15.4697 8.28516C15.7438 9.97165 16.7021 10.1427 16.7021 12.0026C16.5221 14.1853 14.6467 14.7253 10.5895 14.7253C10.0017 14.7253 9.4625 14.7156 8.96875 14.688" stroke="white" stroke-width="1.38889" stroke-linecap="round" stroke-linejoin="round"/>
  <path d="M8.86719 16.9824C9.28719 17.507 9.91719 17.8378 10.6144 17.8378C11.3199 17.8378 11.9499 17.507 12.3699 16.9824" stroke="white" stroke-width="1.38889" stroke-linecap="round" stroke-linejoin="round"/>
  <path d="M4.16406 16.1409L16.8539 3.45117" stroke="white" stroke-width="1.38889" stroke-linecap="round" stroke-linejoin="round"/>
</svg>