<svg xmlns="http://www.w3.org/2000/svg" width="20" height="20" viewBox="0 0 20 20" fill="none">
  <path fill-rule="evenodd" clip-rule="evenodd" d="M8.85618 10.9354C11.8355 13.914 12.7213 10.2578 14.6183 12.1534C16.4476 13.9827 17.4987 14.3483 15.1821 16.6657C14.8913 16.898 13.0472 19.7058 6.56608 13.2263C0.0849711 6.74595 2.88888 4.89955 3.12201 4.61027C5.44483 2.28668 5.80506 3.34399 7.63431 5.17245C9.5306 7.06876 5.87681 7.95687 8.85618 10.9354Z" stroke="black" stroke-width="1.25" stroke-linecap="round" stroke-linejoin="round"/>
  <path d="M15.5147 3.8457L15.5989 4.07351C15.9162 4.93251 16.5926 5.60978 17.4503 5.92764L17.6777 6.01194L17.4503 6.09623C16.5926 6.41409 15.9162 7.09136 15.5989 7.95035L15.5147 8.17819L15.4305 7.95035C15.1131 7.09136 14.4369 6.41409 13.5791 6.09623L13.3516 6.01194L13.5791 5.92764C14.4369 5.60978 15.1131 4.93251 15.4305 4.07351L15.5147 3.8457Z" stroke="black" stroke-width="1.25" stroke-linecap="round" stroke-linejoin="round"/>
  <path d="M11.2149 2.5293C11.3579 2.99986 11.7256 3.36811 12.1955 3.51134C11.7256 3.65456 11.3579 4.02282 11.2149 4.49338C11.0719 4.02282 10.7042 3.65456 10.2344 3.51134C10.7042 3.36811 11.0719 2.99986 11.2149 2.5293Z" stroke="black" stroke-width="1.25" stroke-linecap="round" stroke-linejoin="round"/>
</svg>