<svg xmlns="http://www.w3.org/2000/svg" width="18" height="19" viewBox="0 0 18 19" fill="none">
  <path fill-rule="evenodd" clip-rule="evenodd" d="M14.4881 1C14.845 1 15.1344 1.28938 15.1344 1.64635V3.45162H16.9401C17.297 3.45162 17.5864 3.74101 17.5864 4.09797C17.5864 4.45494 17.297 4.74433 16.9401 4.74433H15.1344V6.54997C15.1344 6.90694 14.845 7.19632 14.4881 7.19632C14.1311 7.19632 13.8417 6.90694 13.8417 6.54997V4.74433H12.0365C11.6794 4.74433 11.3901 4.45494 11.3901 4.09797C11.3901 3.74101 11.6794 3.45162 12.0365 3.45162H13.8417V1.64635C13.8417 1.28938 14.1311 1 14.4881 1ZM2.76236 3.64183C2.72729 3.68114 2.69053 3.71689 2.67088 3.73601C2.66856 3.73826 2.66648 3.74027 2.66468 3.74204L2.66208 3.74458C2.62791 3.77798 2.59522 3.80992 2.55928 3.84776C2.48735 3.9235 2.40698 4.01846 2.33245 4.1393C2.18878 4.37221 2.04477 4.73581 2.07909 5.29673C2.15011 6.45742 2.99332 8.54984 6.44732 12.0031C9.90137 15.4562 11.9935 16.2981 13.1536 16.3683C13.7143 16.4022 14.0778 16.258 14.3107 16.1141C14.4316 16.0394 14.5267 15.9589 14.6026 15.8869C14.6401 15.8513 14.6717 15.8189 14.7049 15.785L14.7087 15.7811C14.7104 15.7794 14.7124 15.7774 14.7146 15.7751C14.7337 15.7555 14.7694 15.7187 14.809 15.6836C15.4079 15.0827 15.7412 14.6538 15.9061 14.3312C16.0583 14.0331 16.0469 13.8692 16.0038 13.7389C15.9449 13.5613 15.7902 13.3397 15.455 12.9961C15.2933 12.8302 15.1069 12.6525 14.8908 12.4469L14.8788 12.4355C14.6685 12.2354 14.4344 12.0127 14.1869 11.7652C13.7852 11.3639 13.5203 11.3234 13.3145 11.3388C13.1838 11.3485 13.0363 11.3858 12.8474 11.4523C12.7534 11.4854 12.6566 11.523 12.5484 11.5654C12.5377 11.5696 12.5268 11.5738 12.5158 11.5781C12.4193 11.616 12.3139 11.6573 12.2063 11.6968C11.7195 11.8754 11.1017 12.0496 10.3569 11.9015C9.61835 11.7546 8.84937 11.311 7.99437 10.4562C7.13939 9.60141 6.69546 8.8326 6.54816 8.09403C6.39963 7.34929 6.57328 6.73131 6.75132 6.24432C6.79067 6.13667 6.83192 6.03122 6.86968 5.9347C6.87399 5.92366 6.87826 5.91274 6.88248 5.90194C6.92476 5.79374 6.96223 5.69681 6.9952 5.60285C7.06156 5.41371 7.09868 5.2661 7.10836 5.13518C7.12361 4.92904 7.08274 4.66375 6.68117 4.26202C6.43047 4.01152 6.20535 3.77471 6.00337 3.56224L5.99948 3.55814C5.79381 3.34179 5.6163 3.15524 5.4506 2.99331C5.1071 2.65763 4.88601 2.50264 4.70878 2.44373C4.57936 2.40071 4.41604 2.38894 4.11783 2.54147C3.7948 2.7067 3.365 3.04087 2.76236 3.64183ZM6.93639 2.66749C7.14051 2.88221 7.35612 3.10903 7.59518 3.34784C8.21258 3.96547 8.44535 4.58428 8.39752 5.2305C8.37572 5.52577 8.29721 5.79648 8.21499 6.03082C8.17371 6.14859 8.12864 6.26468 8.0865 6.37241C8.08228 6.38327 8.07805 6.39404 8.07392 6.40475C8.03539 6.5031 7.99954 6.59492 7.96541 6.68821C7.81675 7.09478 7.73652 7.44299 7.81589 7.84118C7.89656 8.24554 8.16242 8.79632 8.90831 9.54204C9.6542 10.2878 10.2049 10.5533 10.609 10.6336C11.0069 10.7127 11.3548 10.6322 11.7611 10.4832C11.8544 10.449 11.9462 10.413 12.0445 10.3744C12.0552 10.3702 12.0659 10.366 12.0767 10.3618C12.1844 10.3196 12.3004 10.2744 12.4181 10.2329C12.6522 10.1506 12.9229 10.0718 13.2181 10.0496C13.8643 10.0013 14.4829 10.2335 15.1005 10.8508C15.3367 11.0869 15.5612 11.3005 15.7736 11.5026L15.7818 11.5103C15.9939 11.7121 16.1988 11.9071 16.3806 12.0935C16.7324 12.4543 17.0729 12.8552 17.231 13.3327C17.4048 13.8577 17.3318 14.3818 17.0572 14.9193C16.7966 15.4293 16.3421 15.9785 15.7066 16.6141C15.6938 16.6269 15.6804 16.6392 15.6667 16.6509C15.6644 16.6532 15.6545 16.6629 15.6325 16.6853L15.6265 16.6916C15.5944 16.7244 15.5479 16.7718 15.4927 16.8243C15.3732 16.9378 15.2077 17.0795 14.9901 17.214C14.5459 17.4883 13.92 17.7098 13.0756 17.6587C11.4255 17.5588 9.0443 16.4273 5.53335 12.9172C2.02241 9.40716 0.889763 7.02584 0.788794 5.37568C0.73712 4.53115 0.958086 3.90504 1.23221 3.46064C1.36657 3.24282 1.5083 3.07722 1.6219 2.95759C1.67486 2.90183 1.72267 2.85512 1.75574 2.82282C1.75759 2.82101 1.7594 2.81923 1.76117 2.81751C1.78443 2.79477 1.79412 2.78486 1.79617 2.78292C1.80761 2.76942 1.8196 2.7564 1.83213 2.74388C2.4691 2.1069 3.01899 1.65152 3.52916 1.39058C4.06701 1.11547 4.5914 1.04248 5.11651 1.21701C5.59381 1.37565 5.9941 1.71698 6.35408 2.06876C6.53905 2.24951 6.73264 2.45315 6.93294 2.66385L6.93639 2.66749Z" fill="white"/>
</svg>