<svg xmlns="http://www.w3.org/2000/svg" width="20" height="21" viewBox="0 0 20 21" fill="none">
  <path d="M5.61894 14.1811C4.59896 13.7757 4.07357 13.0938 3.98438 11.9992C3.98438 9.8239 5.28895 9.95848 5.28895 7.28932C5.28895 5.20394 7.18622 2.83398 10.0962 2.83398C12.1289 2.83398 13.6588 3.98856 14.4088 5.39124" stroke="#ED7174" stroke-width="1.38889" stroke-linecap="round" stroke-linejoin="round"/>
  <path d="M14.9697 8.28516C15.2438 9.97165 16.2021 10.1427 16.2021 12.0026C16.0221 14.1853 14.1467 14.7253 10.0895 14.7253C9.50167 14.7253 8.9625 14.7156 8.46875 14.688" stroke="#ED7174" stroke-width="1.38889" stroke-linecap="round" stroke-linejoin="round"/>
  <path d="M8.36719 16.9824C8.78719 17.507 9.41719 17.8378 10.1144 17.8378C10.8199 17.8378 11.4499 17.507 11.8699 16.9824" stroke="#ED7174" stroke-width="1.38889" stroke-linecap="round" stroke-linejoin="round"/>
  <path d="M3.66406 16.1409L16.3539 3.45117" stroke="#ED7174" stroke-width="1.38889" stroke-linecap="round" stroke-linejoin="round"/>
</svg>