<svg xmlns="http://www.w3.org/2000/svg" width="20" height="21" viewBox="0 0 20 21" fill="none">
  <path d="M4.16406 6.80498C4.16406 5.50998 5.5774 4.70915 6.68823 5.37582L12.5682 8.90415C13.6474 9.55165 13.6474 11.115 12.5682 11.7625L6.68906 15.2908C5.57823 15.9575 4.1649 15.1575 4.1649 13.8617L4.16406 6.80498ZM11.7107 10.3333L5.83073 6.80498V13.8617L11.7107 10.3333ZM14.9974 5.33332C15.2184 5.33332 15.4304 5.42112 15.5867 5.5774C15.7429 5.73368 15.8307 5.94564 15.8307 6.16665V14.5C15.8307 14.721 15.7429 14.933 15.5867 15.0892C15.4304 15.2455 15.2184 15.3333 14.9974 15.3333C14.7764 15.3333 14.5644 15.2455 14.4081 15.0892C14.2519 14.933 14.1641 14.721 14.1641 14.5V6.16665C14.1641 5.94564 14.2519 5.73368 14.4081 5.5774C14.5644 5.42112 14.7764 5.33332 14.9974 5.33332Z" fill="#1F1F1F"/>
</svg>