<svg xmlns="http://www.w3.org/2000/svg" width="18" height="19" viewBox="0 0 18 19" fill="none">
  <path fill-rule="evenodd" clip-rule="evenodd" d="M1.98438 9.49857C1.98438 5.49153 5.23274 2.24316 9.23981 2.24316C10.169 2.24316 11.0595 2.41785 11.8778 2.73792C12.1671 2.85108 12.3099 3.17734 12.1968 3.46666C12.0837 3.75598 11.7573 3.8988 11.4681 3.78564C10.7787 3.51603 10.0271 3.36816 9.23981 3.36816C5.85406 3.36816 3.10938 6.11285 3.10938 9.49857C3.10938 12.8843 5.85406 15.629 9.23981 15.629C12.6255 15.629 15.3702 12.8843 15.3702 9.49857C15.3702 7.85667 14.7251 6.36612 13.6737 5.26531C13.4592 5.04065 13.4673 4.68459 13.692 4.47003C13.9167 4.25547 14.2728 4.26365 14.4873 4.48831C15.7305 5.78997 16.4952 7.55577 16.4952 9.49857C16.4952 13.5057 13.2468 16.754 9.23981 16.754C5.23274 16.754 1.98438 13.5057 1.98438 9.49857Z" fill="white"/>
  <path fill-rule="evenodd" clip-rule="evenodd" d="M13.5621 4.5774C13.6322 4.27477 13.9342 4.0862 14.2368 4.15619L16.1744 4.60429C16.4771 4.67428 16.6658 4.97639 16.5957 5.27906C16.5257 5.58173 16.2236 5.77035 15.9209 5.70036L14.5313 5.37898L14.2122 6.75771C14.1422 7.06037 13.8401 7.24894 13.5374 7.17889C13.2347 7.10884 13.0461 6.80671 13.1162 6.50404L13.5621 4.5774Z" fill="white"/>
  <path fill-rule="evenodd" clip-rule="evenodd" d="M9.29384 7.36719C8.45039 7.36719 7.76564 8.0516 7.76564 8.89625C7.76564 9.74052 8.45009 10.4244 9.29384 10.4244C10.1386 10.4244 10.8229 9.74037 10.8229 8.89625C10.8229 8.05175 10.1383 7.36719 9.29384 7.36719ZM6.64062 8.89625C6.64062 7.43061 7.82871 6.24219 9.29384 6.24219C10.7596 6.24219 11.9479 7.43046 11.9479 8.89625C11.9479 10.3623 10.7593 11.5494 9.29384 11.5494C7.82901 11.5494 6.64062 10.3621 6.64062 8.89625Z" fill="white"/>
  <path fill-rule="evenodd" clip-rule="evenodd" d="M7.12733 14.1004C6.73895 14.4527 6.58594 14.8974 6.58594 15.285C6.58594 15.5956 6.3341 15.8475 6.02344 15.8475C5.71278 15.8475 5.46094 15.5956 5.46094 15.285C5.46094 14.6042 5.73067 13.8484 6.37156 13.2671C7.01404 12.6844 7.97914 12.3213 9.29509 12.3213C10.6128 12.3213 11.5791 12.6805 12.2228 13.2596C12.8657 13.8379 13.1359 14.5915 13.1359 15.2725C13.1359 15.5831 12.8841 15.835 12.5734 15.835C12.2628 15.835 12.0109 15.5831 12.0109 15.2725C12.0109 14.886 11.8585 14.4451 11.4704 14.096C11.0832 13.7476 10.4103 13.4463 9.29509 13.4463C8.18486 13.4463 7.51414 13.7497 7.12733 14.1004Z" fill="white"/>
</svg>