<svg xmlns="http://www.w3.org/2000/svg" width="16" height="17" viewBox="0 0 16 17" fill="none">
  <path d="M6.21962 13.8307H3.84925C3.53492 13.8307 3.23346 13.7059 3.0112 13.4836C2.78893 13.2613 2.66406 12.9599 2.66406 12.6455V4.34925C2.66406 4.03492 2.78893 3.73346 3.0112 3.5112C3.23346 3.28893 3.53492 3.16406 3.84925 3.16406H12.1455C12.4599 3.16406 12.7613 3.28893 12.9836 3.5112C13.2059 3.73346 13.3307 4.03492 13.3307 4.34925V12.6455C13.3307 12.9599 13.2059 13.2613 12.9836 13.4836C12.7613 13.7059 12.4599 13.8307 12.1455 13.8307H9.18258M6.21962 3.16406V7.31221M13.3307 7.31221H9.18258M2.66406 10.2752H7.9974" stroke="#E0E0E0" stroke-width="1.18519" stroke-linecap="round" stroke-linejoin="round"/>
</svg>