<svg xmlns="http://www.w3.org/2000/svg" width="16" height="18" viewBox="0 0 16 18" fill="none">
    <path fill-rule="evenodd" clip-rule="evenodd" d="M12.0658 9.91436C12.0658 10.1944 11.8392 10.4144 11.5658 10.4144C11.2858 10.4144 11.0658 10.1944 11.0658 9.91436C11.0658 9.64103 11.2858 9.41436 11.5658 9.41436C11.8392 9.41436 12.0658 9.63436 12.0658 9.9077V9.91436ZM12.0658 11.881C12.0658 12.161 11.8392 12.381 11.5658 12.381C11.2858 12.381 11.0658 12.161 11.0658 11.881C11.0658 11.6077 11.2858 11.381 11.5658 11.381C11.8392 11.381 12.0658 11.601 12.0658 11.8744V11.881ZM6.32583 6.95438C6.32583 7.23438 6.09917 7.45438 5.82583 7.45438C5.54583 7.45438 5.32583 7.23438 5.32583 6.95438C5.32583 6.68105 5.54583 6.45438 5.82583 6.45438C6.09917 6.45438 6.32583 6.67438 6.32583 6.94772V6.95438ZM6.32583 9.17436C6.32583 9.45436 6.09917 9.67436 5.82583 9.67436C5.54583 9.67436 5.32583 9.45436 5.32583 9.17436C5.32583 8.90103 5.54583 8.67436 5.82583 8.67436C6.09917 8.67436 6.32583 8.89436 6.32583 9.1677V9.17436ZM6.32583 13.3677C6.32583 13.4782 6.23629 13.5677 6.12583 13.5677H5.52583C5.41538 13.5677 5.32583 13.4782 5.32583 13.3677V11.9344C5.32583 11.661 5.54583 11.4344 5.82583 11.4344C6.09917 11.4344 6.32583 11.661 6.32583 11.9344V13.3677ZM14.3125 13.5677H14.0658C13.9554 13.5677 13.8658 13.4782 13.8658 13.3677V8.12103C13.8658 7.7477 13.6992 7.38105 13.4192 7.12772C13.1392 6.87438 12.7592 6.75438 12.3858 6.80105L9.67803 7.08872C9.57637 7.09952 9.49917 7.18532 9.49917 7.2876V13.3677C9.49917 13.4782 9.40963 13.5677 9.29917 13.5677H9.01917C8.9087 13.5677 8.81917 13.4782 8.81917 13.3677V5.50105C8.81917 4.81438 8.30583 4.24105 7.61917 4.17438L4.29917 3.84105C3.91917 3.80105 3.54583 3.92105 3.26583 4.17438C2.9925 4.42772 2.8325 4.78772 2.8325 5.16105V13.3677C2.8325 13.4782 2.74296 13.5677 2.6325 13.5677H2.3125C2.03917 13.5677 1.8125 13.7944 1.8125 14.0677C1.8125 14.3477 2.03917 14.5677 2.3125 14.5677H14.3125C14.5925 14.5677 14.8125 14.3477 14.8125 14.0677C14.8125 13.7944 14.5925 13.5677 14.3125 13.5677Z" fill="#E5E5EF"/>
</svg>
