<svg xmlns="http://www.w3.org/2000/svg" width="24" height="25" viewBox="0 0 24 25" fill="none">
    <path fill-rule="evenodd" clip-rule="evenodd" d="M2.96875 20.0078C2.96875 19.5936 3.30454 19.2578 3.71875 19.2578H21.7188C22.1329 19.2578 22.4688 19.5936 22.4688 20.0078C22.4688 20.422 22.1329 20.7578 21.7188 20.7578H3.71875C3.30454 20.7578 2.96875 20.422 2.96875 20.0078Z" fill="#C9CCD9"/>
    <path fill-rule="evenodd" clip-rule="evenodd" d="M7.80469 9.42188C7.80469 9.00765 8.14048 8.67188 8.55469 8.67188H9.41869C9.8329 8.67188 10.1686 9.00765 10.1686 9.42188C10.1686 9.83608 9.8329 10.1719 9.41869 10.1719H8.55469C8.14048 10.1719 7.80469 9.83608 7.80469 9.42188ZM7.80469 12.7446C7.80469 12.3304 8.14048 11.9946 8.55469 11.9946H9.41869C9.8329 11.9946 10.1686 12.3304 10.1686 12.7446C10.1686 13.1588 9.8329 13.4946 9.41869 13.4946H8.55469C8.14048 13.4946 7.80469 13.1588 7.80469 12.7446ZM7.80469 16.0674C7.80469 15.6531 8.14048 15.3174 8.55469 15.3174H9.41869C9.8329 15.3174 10.1686 15.6531 10.1686 16.0674C10.1686 16.4816 9.8329 16.8174 9.41869 16.8174H8.55469C8.14048 16.8174 7.80469 16.4816 7.80469 16.0674Z" fill="#C9CCD9"/>
    <path fill-rule="evenodd" clip-rule="evenodd" d="M15.75 13.8516C15.75 13.4373 16.0858 13.1016 16.5 13.1016H17.364C17.7782 13.1016 18.114 13.4373 18.114 13.8516C18.114 14.2658 17.7782 14.6016 17.364 14.6016H16.5C16.0858 14.6016 15.75 14.2658 15.75 13.8516ZM15.75 17.1743C15.75 16.7601 16.0858 16.4243 16.5 16.4243H17.364C17.7782 16.4243 18.114 16.7601 18.114 17.1743C18.114 17.5885 17.7782 17.9243 17.364 17.9243H16.5C16.0858 17.9243 15.75 17.5885 15.75 17.1743Z" fill="#C9CCD9"/>
    <path fill-rule="evenodd" clip-rule="evenodd" d="M4.24219 6.87003C4.24219 5.41862 5.41863 4.24219 6.87003 4.24219H11.0986C12.55 4.24219 13.7264 5.41862 13.7264 6.87003V20.011C13.7264 20.4252 13.3906 20.761 12.9764 20.761C12.5622 20.761 12.2264 20.4252 12.2264 20.011V6.87003C12.2264 6.24705 11.7215 5.74219 11.0986 5.74219H6.87003C6.24706 5.74219 5.74219 6.24705 5.74219 6.87003V20.011C5.74219 20.4252 5.40641 20.761 4.99219 20.761C4.57798 20.761 4.24219 20.4252 4.24219 20.011V6.87003Z" fill="#C9CCD9"/>
    <path fill-rule="evenodd" clip-rule="evenodd" d="M12.2344 10.8047C12.2344 10.3905 12.5702 10.0547 12.9844 10.0547H18.6617C20.1131 10.0547 21.2895 11.2311 21.2895 12.6825V20.009C21.2895 20.4232 20.9537 20.759 20.5395 20.759C20.1253 20.759 19.7895 20.4232 19.7895 20.009V12.6825C19.7895 12.0595 19.2846 11.5547 18.6617 11.5547H13.7344V20.009C13.7344 20.4232 13.3986 20.759 12.9844 20.759C12.5702 20.759 12.2344 20.4232 12.2344 20.009V10.8047Z" fill="#C9CCD9"/>
</svg>
