<svg xmlns="http://www.w3.org/2000/svg" width="25" height="26" viewBox="0 0 25 26" fill="none">
    <path fill-rule="evenodd" clip-rule="evenodd" d="M8.89467 14.4597C9.2741 14.2935 9.71638 14.4664 9.88252 14.8458C10.3273 15.8616 11.3485 16.5745 12.5334 16.5745C13.7181 16.5745 14.7385 15.8618 15.1833 14.8458C15.3494 14.4664 15.7917 14.2935 16.1712 14.4597C16.5506 14.6258 16.7235 15.0681 16.5573 15.4475C15.8815 16.991 14.3335 18.0745 12.5334 18.0745C10.7336 18.0745 9.18445 16.9913 8.50848 15.4475C8.34233 15.0681 8.51523 14.6258 8.89467 14.4597Z" fill="black"/>
    <path d="M12.7281 23.3911C11.3231 23.3918 9.93474 23.0871 8.65914 22.4981C8.34957 22.3472 8.01818 22.246 7.67714 22.1981C7.31607 22.2376 6.96231 22.3275 6.62615 22.4651C5.86115 22.7291 4.81315 23.0901 4.05715 22.3301C3.30115 21.5701 3.64515 20.5701 3.92015 19.7651C4.05883 19.4229 4.14774 19.0625 4.18415 18.6951C4.13806 18.3479 4.03678 18.0103 3.88414 17.6951C3.05694 15.8785 2.80217 13.8532 3.1537 11.8884C3.50523 9.92352 4.44641 8.11218 5.85215 6.6951C6.75647 5.78761 7.83105 5.06757 9.01425 4.57626C10.1974 4.08495 11.466 3.83203 12.7471 3.83203C14.0283 3.83203 15.2968 4.08495 16.48 4.57626C17.6632 5.06757 18.7378 5.78761 19.6421 6.6951C21.01 8.06243 21.9415 9.80477 22.3189 11.7017C22.6962 13.5986 22.5025 15.5648 21.7621 17.3515C21.0217 19.1382 19.768 20.6652 18.1595 21.7392C16.5511 22.8132 14.6602 23.386 12.7261 23.3851L12.7281 23.3911ZM7.67414 20.7011C8.21685 20.737 8.74754 20.8772 9.23715 21.1141L9.27314 21.1291C10.3963 21.6464 11.6212 21.9055 12.8577 21.8872C14.0941 21.8689 15.3108 21.5737 16.4182 21.0233C17.5256 20.4729 18.4955 19.6813 19.2567 18.7067C20.0179 17.7321 20.5509 16.5993 20.8167 15.3915C21.0825 14.1838 21.0742 12.9319 20.7925 11.7278C20.5107 10.5237 19.9627 9.39805 19.1887 8.43362C18.4146 7.4692 17.4343 6.69051 16.3198 6.15482C15.2052 5.61912 13.9847 5.34005 12.7481 5.3381C11.6641 5.33503 10.5903 5.54748 9.58908 5.9631C8.58789 6.37872 7.6793 6.9892 6.91615 7.75909C5.72341 8.96451 4.92622 10.5047 4.63073 12.1745C4.33525 13.8444 4.5555 15.5646 5.26215 17.1061C5.50409 17.6046 5.64706 18.1452 5.68315 18.6981C5.65295 19.2306 5.53678 19.7547 5.33915 20.2501C5.23915 20.5281 5.02314 21.1791 5.11914 21.2751C5.21514 21.3711 5.85915 21.1451 6.13615 21.0501C6.62699 20.8535 7.14632 20.7373 7.67414 20.7061V20.7011Z" fill="black"/>
</svg>
