<svg xmlns="http://www.w3.org/2000/svg" width="24" height="24" viewBox="0 0 24 24" fill="none">
    <path fill-rule="evenodd" clip-rule="evenodd" d="M8.3808 14.3745C8.5568 14.7235 8.9088 14.9245 9.2748 14.9245C9.4258 14.9245 9.5798 14.8905 9.7238 14.8175L12.4048 13.4675C12.7418 13.2975 12.9548 12.9525 12.9548 12.5745V8.56445C12.9548 8.01245 12.5068 7.56445 11.9548 7.56445C11.4028 7.56445 10.9548 8.01245 10.9548 8.56445V11.9585L8.8238 13.0315C8.3308 13.2805 8.1318 13.8815 8.3808 14.3745Z" fill="black"/>
    <path fill-rule="evenodd" clip-rule="evenodd" d="M4.10061 8.23079C4.26261 8.32879 4.44061 8.37479 4.61661 8.37479C4.95561 8.37479 5.28561 8.20279 5.47361 7.89179C5.72461 7.47779 6.01561 7.08379 6.33861 6.72179C6.70661 6.30979 6.67161 5.67779 6.25961 5.30979C5.84761 4.94079 5.21561 4.97779 4.84761 5.38879C4.44161 5.84279 4.07661 6.33679 3.76161 6.85779C3.47561 7.33079 3.62761 7.94479 4.10061 8.23079Z" fill="black"/>
    <path fill-rule="evenodd" clip-rule="evenodd" d="M5.39281 15.849C5.10881 15.351 4.88681 14.855 4.73481 14.373C4.56881 13.846 4.0038 13.555 3.4798 13.721C2.9538 13.888 2.66181 14.45 2.82781 14.976C3.02281 15.593 3.30181 16.22 3.65581 16.84C3.83981 17.163 4.17781 17.345 4.52481 17.345C4.69281 17.345 4.86381 17.302 5.0198 17.213C5.4998 16.939 5.66581 16.328 5.39281 15.849Z" fill="black"/>
    <path fill-rule="evenodd" clip-rule="evenodd" d="M12.1457 19.7547C11.5387 19.7547 10.9557 19.6897 10.4137 19.5617C10.3377 19.5437 10.2607 19.5347 10.1837 19.5347H10.1747C9.62269 19.5347 9.17969 19.9827 9.17969 20.5347C9.17969 21.0167 9.52269 21.4187 9.97769 21.5137C10.6627 21.6737 11.3927 21.7547 12.1457 21.7547C12.6977 21.7547 13.1457 21.3067 13.1457 20.7547C13.1457 20.2027 12.6977 19.7547 12.1457 19.7547Z" fill="black"/>
    <path fill-rule="evenodd" clip-rule="evenodd" d="M7.75115 5.30453C7.92415 5.30453 8.09915 5.26053 8.25815 5.16553C8.71315 4.89753 9.20815 4.67553 9.72815 4.50553C10.2532 4.33353 10.5402 3.76953 10.3692 3.24453C10.1982 2.72053 9.63615 2.43253 9.10815 2.60353C8.44915 2.81853 7.82215 3.10053 7.24215 3.44353C6.76615 3.72353 6.60815 4.33753 6.88915 4.81253C7.07515 5.12853 7.40915 5.30453 7.75115 5.30453Z" fill="black"/>
    <path fill-rule="evenodd" clip-rule="evenodd" d="M21.8539 10.4085C21.7719 9.89251 21.6529 9.39851 21.4909 8.89951C21.2809 8.24251 20.9999 7.61151 20.6619 7.02851C20.1469 6.12851 19.4889 5.32051 18.7169 4.63651C18.2599 4.21951 17.7569 3.84751 17.2339 3.53951C16.3379 2.99551 15.3699 2.60251 14.3639 2.37151C13.6679 2.20751 12.9309 2.12451 12.1719 2.12451C11.6199 2.12451 11.1719 2.57251 11.1719 3.12451C11.1719 3.67751 11.6199 4.12451 12.1719 4.12451C12.7769 4.12451 13.3599 4.18951 13.9109 4.31951C14.7139 4.50451 15.4829 4.81751 16.2079 5.25651C16.6229 5.50151 17.0139 5.78951 17.3799 6.12351C17.9999 6.67251 18.5199 7.31051 18.9289 8.02751C19.1989 8.49151 19.4199 8.99051 19.5879 9.51351C19.7189 9.91551 19.8129 10.3105 19.8789 10.7225C19.9429 11.1245 19.9749 11.5375 19.9729 11.9605C19.9769 12.5435 19.9119 13.1035 19.7749 13.6705C19.7679 13.6995 19.7629 13.7285 19.7579 13.7575C19.5829 14.5205 19.2759 15.2625 18.8299 15.9915C18.5999 16.3965 18.3159 16.7825 17.9789 17.1495C17.5329 17.6485 17.0179 18.0645 16.4689 18.4295C16.5809 17.9165 16.2859 17.3975 15.7739 17.2525C15.2439 17.1035 14.6899 17.4115 14.5399 17.9435L13.9489 20.0335C13.9459 20.0435 13.9489 20.0545 13.9459 20.0655C13.8959 20.2485 13.8789 20.4415 13.9419 20.6355C14.0699 21.0255 14.4149 21.2735 14.7989 21.3105L16.7449 21.8395C16.8329 21.8635 16.9209 21.8755 17.0079 21.8755C17.4479 21.8755 17.8509 21.5825 17.9719 21.1375C18.0839 20.7265 17.9189 20.3105 17.5959 20.0735C18.2779 19.6175 18.9169 19.1015 19.4609 18.4915C19.8909 18.0255 20.2629 17.5165 20.5509 17.0085C21.1089 16.1005 21.5029 15.1325 21.7249 14.1305C21.7289 14.1105 21.7319 14.0905 21.7359 14.0695C21.8989 13.3665 21.9769 12.6725 21.9729 11.9595C21.9759 11.4375 21.9349 10.9145 21.8539 10.4085Z" fill="black"/>
    <path fill-rule="evenodd" clip-rule="evenodd" d="M8.11331 18.6166C7.67831 18.3556 7.28831 18.0696 6.95531 17.7656C6.54731 17.3936 5.91431 17.4236 5.54231 17.8306C5.17031 18.2386 5.19931 18.8706 5.60731 19.2426C6.03931 19.6366 6.53631 20.0036 7.08531 20.3326C7.24631 20.4286 7.42331 20.4746 7.59831 20.4746C7.93831 20.4746 8.26931 20.3016 8.45731 19.9886C8.74031 19.5146 8.58731 18.9006 8.11331 18.6166Z" fill="black"/>
    <path fill-rule="evenodd" clip-rule="evenodd" d="M3.34888 12.9248C3.90088 12.9218 4.34688 12.4718 4.34388 11.9198C4.34088 11.3248 4.40689 10.7418 4.53989 10.1878C4.66888 9.65185 4.33788 9.11185 3.80088 8.98284C3.26888 8.85284 2.72388 9.18385 2.59588 9.72085C2.42488 10.4308 2.33988 11.1748 2.34388 11.9298C2.34688 12.4808 2.79388 12.9248 3.34388 12.9248H3.34888Z" fill="black"/>
</svg>
