<svg xmlns="http://www.w3.org/2000/svg" width="25" height="25" viewBox="0 0 25 25" fill="none">
    <path fill-rule="evenodd" clip-rule="evenodd" d="M13.5203 4.57259C12.9523 4.00917 12.0348 4.012 11.4702 4.57974L11.4691 4.58087L10.767 5.28399C10.2151 5.8306 9.46955 6.14011 8.68988 6.14011H7.68973C7.68965 6.14011 7.68982 6.14011 7.68973 6.14011C6.88878 6.14089 6.24021 6.78971 6.24021 7.59C6.24021 7.60831 6.23956 7.62646 6.23827 7.64444V8.58686C6.23827 9.36691 5.92912 10.1144 5.37992 10.6661L4.68584 11.3612C4.67462 11.3732 4.66437 11.3834 4.65558 11.3918C4.10668 11.9614 4.11538 12.867 4.67894 13.4255L4.68172 13.4282L5.38186 14.1294C5.93069 14.6808 6.24021 15.4271 6.24021 16.2067V17.2123C6.24021 18.0128 6.88864 18.6613 7.68913 18.6613H8.68919C9.46668 18.6626 10.214 18.9699 10.7663 19.5196L10.7675 19.5209L11.4553 20.2086C11.4624 20.2152 11.4695 20.2219 11.4764 20.2287C12.0438 20.7917 12.9614 20.788 13.5246 20.2196L13.5274 20.2168L14.2285 19.5167C14.7802 18.9676 15.5276 18.6583 16.3068 18.6583H17.3115C18.1111 18.659 18.7608 18.0121 18.7624 17.2117C18.7624 17.2115 18.7624 17.2118 18.7624 17.2117V16.2087C18.7624 15.4311 19.0702 14.6835 19.6197 14.1313L19.621 14.13L20.3291 13.4219C20.3294 13.4216 20.3296 13.4214 20.3299 13.4211C20.8929 12.8535 20.8899 11.936 20.3217 11.3711L20.3202 11.3696L19.62 10.6693L19.6181 10.6675C19.0693 10.1147 18.7614 9.36851 18.7614 8.5888V7.58903C18.7614 6.78853 18.112 6.13913 17.3115 6.13913H16.3088C15.5304 6.13913 14.7827 5.83144 14.2305 5.28176L14.2292 5.2805L13.5434 4.59471C13.5356 4.5875 13.5279 4.58013 13.5203 4.57259ZM13.5203 4.57259C13.5203 4.57257 13.5203 4.57261 13.5203 4.57259L13.5193 4.57157L14.0496 4.04119L13.521 4.57332C13.5208 4.57307 13.5206 4.57283 13.5203 4.57259ZM4.74087 7.52707C4.77434 5.92711 6.08122 4.64139 7.68853 4.64011H8.68988C9.07081 4.64011 9.43725 4.48912 9.71001 4.21962L10.4066 3.52209C10.4068 3.52185 10.407 3.52161 10.4073 3.52137C11.5516 2.37132 13.4081 2.36183 14.5642 3.49538C14.5729 3.50326 14.5814 3.51134 14.5896 3.51961L15.2886 4.21859C15.2884 4.21842 15.2888 4.21876 15.2886 4.21859C15.559 4.48747 15.9262 4.63913 16.3088 4.63913H17.3115C18.9404 4.63913 20.2614 5.96011 20.2614 7.58903V8.5888C20.2614 8.97189 20.4122 9.33793 20.6818 9.6098C20.682 9.61007 20.6823 9.61033 20.6825 9.61059L21.3794 10.3074C21.3792 10.3072 21.3796 10.3077 21.3794 10.3074C22.5337 11.4559 22.5411 13.3234 21.3934 14.4789L21.3916 14.4807L20.6829 15.1894C20.6827 15.1896 20.6831 15.1893 20.6829 15.1894C20.4139 15.46 20.2624 15.8273 20.2624 16.2087V17.2123V17.2135C20.2597 18.8422 18.9386 20.1596 17.3109 20.1583H16.3068C15.9251 20.1583 15.5581 20.3099 15.2871 20.5794L14.5901 21.2754L14.0574 20.7475L14.5873 21.2782L14.5885 21.277C13.4495 22.4247 11.5999 22.4397 10.4428 21.3161C10.4698 21.3404 10.4986 21.3628 10.5289 21.383L10.5318 21.385L10.9481 20.7611L10.4199 21.2936C10.4275 21.3011 10.4352 21.3086 10.4428 21.3161C10.4333 21.3075 10.424 21.2986 10.4149 21.2895L9.70813 20.5828L10.2372 20.0512L9.70687 20.5815L9.70813 20.5828C9.43794 20.3141 9.0708 20.1621 8.68763 20.1613H7.68913C6.06021 20.1613 4.74021 18.8412 4.74021 17.2123V16.2067C4.74021 15.8253 4.58892 15.4593 4.31915 15.188L3.6231 14.4909L4.15102 13.9582L3.62032 14.4882L3.62161 14.4895C2.46607 13.3427 2.45899 11.4785 3.6034 10.3224C3.54931 10.3778 3.50416 10.4413 3.4695 10.5106C3.51046 10.4287 3.55743 10.3729 3.58186 10.3458C3.58937 10.3374 3.59643 10.3295 3.6034 10.3224C3.6055 10.3202 3.60781 10.3184 3.60985 10.3163C3.62583 10.3004 3.63976 10.288 3.64998 10.2793C3.66675 10.2649 3.68141 10.2536 3.69208 10.2458L3.70751 10.2347L3.71426 10.2301L3.71742 10.2279C3.71817 10.2274 3.71898 10.2269 3.71973 10.2264M3.71742 10.2279C3.7174 10.2279 3.71744 10.2279 3.71742 10.2279C3.67883 10.2539 3.64296 10.2837 3.60985 10.3163L4.31675 9.60802L4.84833 10.1371L4.31764 9.60713C4.58705 9.33622 4.73827 8.96977 4.73827 8.58686V7.59C4.73827 7.56881 4.73915 7.54782 4.74087 7.52707M3.71973 10.2264C3.71955 10.2265 3.71991 10.2263 3.71973 10.2264V10.2264Z" fill="black"/>
    <path fill-rule="evenodd" clip-rule="evenodd" d="M16.0882 9.89691C16.3812 10.1897 16.3813 10.6646 16.0885 10.9575L12.0154 15.0325C11.8747 15.1733 11.6838 15.2524 11.4848 15.2523C11.2858 15.2523 11.0949 15.1731 10.9543 15.0322L8.97709 13.0521C8.68441 12.759 8.68476 12.2842 8.97787 11.9915C9.27098 11.6988 9.74585 11.6992 10.0385 11.9923L11.4853 13.4411L15.0275 9.89716C15.3204 9.6042 15.7952 9.60408 16.0882 9.89691Z" fill="black"/>
</svg>
