<svg xmlns="http://www.w3.org/2000/svg" width="25" height="24" viewBox="0 0 25 24" fill="none">
    <path fill-rule="evenodd" clip-rule="evenodd" d="M11.533 13.0547C13.5893 13.0763 15.4143 13.3246 16.7472 13.986C17.4254 14.3226 18.0009 14.7782 18.4034 15.387C18.8089 16.0003 19.0075 16.7221 19.0032 17.5352V17.5513L19.0024 17.5673C18.9634 18.3788 18.6969 19.1385 18.1749 19.7049C17.6432 20.2816 16.8986 20.5997 16.033 20.5997H7.01717C6.15108 20.5997 5.40469 20.2822 4.87207 19.7053C4.34864 19.1383 4.08234 18.3771 4.04756 17.5633L4.04688 17.5473V17.5313C4.04688 16.7167 4.24789 15.9943 4.65405 15.3807C5.05743 14.7712 5.63263 14.3149 6.31083 13.9782C7.64364 13.3163 9.46577 13.071 11.5192 13.0548L11.533 13.0547ZM5.54692 17.5151C5.57245 18.0428 5.74125 18.4355 5.97421 18.6878C6.2003 18.9327 6.53523 19.0997 7.01717 19.0997H16.033C16.5129 19.0997 16.8461 18.9333 17.0719 18.6882C17.3051 18.4353 17.4749 18.0411 17.5033 17.5111C17.5036 16.9641 17.3716 16.5462 17.1521 16.2142C16.9275 15.8745 16.5797 15.5774 16.0804 15.3297C15.0597 14.8232 13.5157 14.5763 11.5241 14.5548C9.53665 14.571 7.99707 14.8156 6.97799 15.3216C6.47967 15.5691 6.13112 15.8667 5.90486 16.2086C5.68355 16.5429 5.54949 16.9641 5.54692 17.5151Z" fill="black"/>
    <path fill-rule="evenodd" clip-rule="evenodd" d="M18.5918 14.2327C18.7201 13.8388 19.1434 13.6236 19.5373 13.752C20.4092 14.0361 21.1731 14.4624 21.7196 15.0973C22.2782 15.7463 22.56 16.5561 22.555 17.5012V17.5172L22.5542 17.5333C22.5168 18.3107 22.2614 19.0412 21.7585 19.5867C21.2459 20.1428 20.5286 20.4486 19.6969 20.4486C19.2827 20.4486 18.9469 20.1128 18.9469 19.6986C18.9469 19.2844 19.2827 18.9486 19.6969 18.9486C20.1429 18.9486 20.4488 18.7944 20.6555 18.5701C20.8696 18.3378 21.0283 17.9729 21.0551 17.4771C21.0553 16.8631 20.8783 16.4192 20.5827 16.0758C20.2724 15.7153 19.7821 15.4094 19.0725 15.1781C18.6787 15.0498 18.4635 14.6265 18.5918 14.2327Z" fill="black"/>
    <path fill-rule="evenodd" clip-rule="evenodd" d="M11.2792 4.90234C9.75294 4.90234 8.51563 6.13965 8.51563 7.66594C8.51563 9.19223 9.75294 10.4295 11.2792 10.4295C12.8055 10.4295 14.0428 9.19223 14.0428 7.66594C14.0428 6.13965 12.8055 4.90234 11.2792 4.90234ZM7.01562 7.66594C7.01562 5.31122 8.92451 3.40234 11.2792 3.40234C13.6339 3.40234 15.5428 5.31122 15.5428 7.66594C15.5428 10.0207 13.6339 11.9295 11.2792 11.9295C8.92451 11.9295 7.01562 10.0207 7.01562 7.66594Z" fill="black"/>
    <path fill-rule="evenodd" clip-rule="evenodd" d="M16.3052 4.75791C16.4498 4.36976 16.8817 4.17232 17.2699 4.31692C18.7101 4.85346 19.738 6.24121 19.738 7.87091C19.738 9.50062 18.7101 10.8884 17.2699 11.4249C16.8817 11.5695 16.4498 11.3721 16.3052 10.9839C16.1606 10.5958 16.3581 10.1639 16.7462 10.0193C17.6186 9.6943 18.238 8.854 18.238 7.87091C18.238 6.88783 17.6186 6.04752 16.7462 5.72255C16.3581 5.57795 16.1606 5.14607 16.3052 4.75791Z" fill="black"/>
</svg>
