<svg xmlns="http://www.w3.org/2000/svg" width="24" height="25" viewBox="0 0 24 25" fill="none">
    <path fill-rule="evenodd" clip-rule="evenodd" d="M11.033 13.5547C13.0893 13.5763 14.9143 13.8246 16.2472 14.486C16.9254 14.8226 17.5009 15.2782 17.9034 15.887C18.3089 16.5003 18.5075 17.2221 18.5032 18.0352V18.0513L18.5024 18.0673C18.4634 18.8788 18.1969 19.6385 17.6749 20.2049C17.1432 20.7816 16.3986 21.0997 15.533 21.0997H6.51717C5.65108 21.0997 4.90469 20.7822 4.37207 20.2053C3.84864 19.6383 3.58234 18.8771 3.54756 18.0633L3.54688 18.0473V18.0313C3.54688 17.2167 3.74789 16.4943 4.15405 15.8807C4.55743 15.2712 5.13263 14.8149 5.81083 14.4782C7.14364 13.8163 8.96577 13.571 11.0192 13.5548L11.033 13.5547ZM5.04692 18.0151C5.07245 18.5428 5.24125 18.9355 5.47421 19.1878C5.7003 19.4327 6.03523 19.5997 6.51717 19.5997H15.533C16.0129 19.5997 16.3461 19.4333 16.5719 19.1882C16.8051 18.9353 16.9749 18.5411 17.0033 18.0111C17.0036 17.4641 16.8716 17.0462 16.6521 16.7142C16.4275 16.3745 16.0797 16.0774 15.5804 15.8297C14.5597 15.3232 13.0157 15.0763 11.0241 15.0548C9.03665 15.071 7.49707 15.3156 6.47799 15.8216C5.97967 16.0691 5.63112 16.3667 5.40486 16.7086C5.18355 17.0429 5.04949 17.4641 5.04692 18.0151Z" fill="#C9CCD9"/>
    <path fill-rule="evenodd" clip-rule="evenodd" d="M18.0918 14.7327C18.2201 14.3388 18.6434 14.1236 19.0373 14.252C19.9092 14.5361 20.6731 14.9624 21.2196 15.5973C21.7782 16.2463 22.06 17.0561 22.055 18.0012V18.0172L22.0542 18.0333C22.0168 18.8107 21.7614 19.5412 21.2585 20.0867C20.7459 20.6428 20.0286 20.9486 19.1969 20.9486C18.7827 20.9486 18.4469 20.6128 18.4469 20.1986C18.4469 19.7844 18.7827 19.4486 19.1969 19.4486C19.6429 19.4486 19.9488 19.2944 20.1555 19.0701C20.3696 18.8378 20.5283 18.4729 20.5551 17.9771C20.5553 17.3631 20.3783 16.9192 20.0827 16.5758C19.7724 16.2153 19.2821 15.9094 18.5725 15.6781C18.1787 15.5498 17.9635 15.1265 18.0918 14.7327Z" fill="#C9CCD9"/>
    <path fill-rule="evenodd" clip-rule="evenodd" d="M10.7792 5.40234C9.25294 5.40234 8.01563 6.63965 8.01563 8.16594C8.01563 9.69223 9.25294 10.9295 10.7792 10.9295C12.3055 10.9295 13.5428 9.69223 13.5428 8.16594C13.5428 6.63965 12.3055 5.40234 10.7792 5.40234ZM6.51562 8.16594C6.51562 5.81122 8.42451 3.90234 10.7792 3.90234C13.1339 3.90234 15.0428 5.81122 15.0428 8.16594C15.0428 10.5207 13.1339 12.4295 10.7792 12.4295C8.42451 12.4295 6.51562 10.5207 6.51562 8.16594Z" fill="#C9CCD9"/>
    <path fill-rule="evenodd" clip-rule="evenodd" d="M15.8052 5.25791C15.9498 4.86976 16.3817 4.67232 16.7699 4.81692C18.2101 5.35346 19.238 6.74121 19.238 8.37091C19.238 10.0006 18.2101 11.3884 16.7699 11.9249C16.3817 12.0695 15.9498 11.8721 15.8052 11.4839C15.6606 11.0958 15.8581 10.6639 16.2462 10.5193C17.1186 10.1943 17.738 9.354 17.738 8.37091C17.738 7.38783 17.1186 6.54752 16.2462 6.22255C15.8581 6.07795 15.6606 5.64607 15.8052 5.25791Z" fill="#C9CCD9"/>
</svg>
