<svg xmlns="http://www.w3.org/2000/svg" class="lg:w-[208px] w-[158px]" height="29" viewBox="0 0 208 29"><g transform="translate(104 13.294)"><g data-name="Group 591" transform="translate(-104 -13.294)"><path data-name="Path 1145" d="M15.055,21.7a6.7,6.7,0,0,1,3.2,2.191,5.876,5.876,0,0,1,1.293,3.844,6.606,6.606,0,0,1-2.425,5.354A9.956,9.956,0,0,1,10.564,35.1H0V9.946H10.132a8.824,8.824,0,0,1,5.8,1.8,5.665,5.665,0,0,1,2.173,4.563,5.69,5.69,0,0,1-3.054,5.246ZM4.384,20.366H10.2q3.843,0,3.844-3.377T10.2,13.611H4.384Zm0,10.851h6.791q4.167,0,4.167-3.629t-4.167-3.629H4.384Z" transform="translate(0 -8.869)" fill="#001e60"/><path data-name="Path 1146" d="M215.845,83.419H202.12a4.949,4.949,0,0,0,1.527,3.467,5.016,5.016,0,0,0,3.539,1.275A4.474,4.474,0,0,0,211.893,85l3.557.215.144.181a8.64,8.64,0,0,1-3.073,4.635,8.813,8.813,0,0,1-5.407,1.616,8.613,8.613,0,0,1-6.521-2.569,9.382,9.382,0,0,1-2.461-6.773,9.064,9.064,0,0,1,2.641-6.718,8.68,8.68,0,0,1,6.341-2.623,8.466,8.466,0,0,1,6.306,2.461,9.183,9.183,0,0,1,2.424,6.737Zm-13.653-2.982H212a4.21,4.21,0,0,0-1.546-3.036,5.169,5.169,0,0,0-3.342-1.1,4.817,4.817,0,0,0-4.922,4.132" transform="translate(-176.668 -65.06)" fill="#001e60"/><path data-name="Path 1147" d="M371.967,28.856v3.953h4.024v3.233h-4.024v9.737q0,1.868,2.048,1.868a6.965,6.965,0,0,0,1.688-.215l.108.072v3.269a12.688,12.688,0,0,1-3.018.36,5.02,5.02,0,0,1-3.629-1.276,4.913,4.913,0,0,1-1.329-3.719v-10.1h-3.342V32.809h3.342V27.527h.323Z" transform="translate(-325.007 -24.545)" fill="#001e60"/><path data-name="Path 1148" d="M476.34,28.856v3.953h4.024v3.233H476.34v9.737q0,1.868,2.048,1.868a6.966,6.966,0,0,0,1.688-.215l.108.072v3.269a12.688,12.688,0,0,1-3.018.36,5.02,5.02,0,0,1-3.629-1.276,4.913,4.913,0,0,1-1.329-3.719v-10.1h-3.646V32.809h3.646V27.527h.323Z" transform="translate(-417.801 -24.545)" fill="#001e60"/><path data-name="Path 1149" d="M601.879,83.419H588.154a4.947,4.947,0,0,0,1.527,3.467,5.016,5.016,0,0,0,3.538,1.275A4.475,4.475,0,0,0,597.927,85l3.557.215.143.181a8.634,8.634,0,0,1-3.072,4.635,8.813,8.813,0,0,1-5.408,1.616,8.612,8.612,0,0,1-6.521-2.569,9.382,9.382,0,0,1-2.461-6.773,9.064,9.064,0,0,1,2.641-6.718,8.68,8.68,0,0,1,6.341-2.623,8.463,8.463,0,0,1,6.306,2.461,9.179,9.179,0,0,1,2.425,6.737Zm-13.653-2.982h9.809A4.213,4.213,0,0,0,596.49,77.4a5.169,5.169,0,0,0-3.342-1.1,4.817,4.817,0,0,0-4.922,4.132" transform="translate(-520.881 -65.06)" fill="#001e60"/><path data-name="Path 1150" d="M779.676,73.329v2.228a6.736,6.736,0,0,1,5.174-2.587,3.488,3.488,0,0,1,1.545.287l-.539,3.305-.144.108a5.122,5.122,0,0,0-1.185-.108q-3.162,0-4.851,3.342V91.293h-4.1V73.329Z" transform="translate(-691.559 -65.065)" fill="#001e60"/><path data-name="Path 1151" d="M1076.563,72.966a9.32,9.32,0,0,1,6.862,2.641,9.771,9.771,0,0,1,0,13.4,10.19,10.19,0,0,1-13.689,0,9.771,9.771,0,0,1,0-13.4,9.272,9.272,0,0,1,6.827-2.641m0,3.629a5.221,5.221,0,0,0-3.88,1.527,6.559,6.559,0,0,0,0,8.371,5.739,5.739,0,0,0,7.8,0,6.56,6.56,0,0,0,0-8.371,5.268,5.268,0,0,0-3.917-1.527" transform="translate(-951.477 -65.061)" fill="#001e60"/><path data-name="Path 1152" d="M1272.543,73.329v2.12a7.058,7.058,0,0,1,5.389-2.479,4.613,4.613,0,0,1,4.492,2.55,8.212,8.212,0,0,1,5.856-2.55,5.53,5.53,0,0,1,4.114,1.437,5.281,5.281,0,0,1,1.419,3.88V91.293h-4.1V79.329q0-2.765-2.622-2.767a4.608,4.608,0,0,0-3.916,2.407V91.293h-4.1V79.4q0-2.838-2.551-2.839-2.229,0-3.988,2.658V91.293h-4.1V73.329Z" transform="translate(-1131.032 -65.065)" fill="#001e60"/><path data-name="Path 1153" d="M1541.441,83.419h-13.725a4.948,4.948,0,0,0,1.527,3.467,5.016,5.016,0,0,0,3.538,1.275A4.475,4.475,0,0,0,1537.489,85l3.557.215.143.181a8.629,8.629,0,0,1-3.072,4.635,8.813,8.813,0,0,1-5.407,1.616,8.612,8.612,0,0,1-6.521-2.569,9.382,9.382,0,0,1-2.461-6.773,9.064,9.064,0,0,1,2.641-6.718,8.68,8.68,0,0,1,6.341-2.623,8.463,8.463,0,0,1,6.306,2.461,9.179,9.179,0,0,1,2.425,6.737Zm-13.653-2.982h9.81a4.214,4.214,0,0,0-1.546-3.036,5.169,5.169,0,0,0-3.342-1.1,4.817,4.817,0,0,0-4.922,4.132" transform="translate(-1358.657 -65.06)" fill="#001e60"/><path data-name="Path 1154" d="M1711.177,78.819a3.224,3.224,0,0,0-1.149-2.03,3.516,3.516,0,0,0-2.228-.7,3.565,3.565,0,0,0-1.8.432,1.369,1.369,0,0,0-.754,1.258,1.666,1.666,0,0,0,1.041,1.437,18.564,18.564,0,0,0,3.629,1.294,10.287,10.287,0,0,1,4.24,1.977,4.17,4.17,0,0,1,1.366,3.269,5.33,5.33,0,0,1-1.94,4.221,7.488,7.488,0,0,1-5.067,1.671,8.366,8.366,0,0,1-5.173-1.491,6.353,6.353,0,0,1-2.444-4.149l.072-.216,3.413-.575q.719,3.055,4.168,3.054a3.961,3.961,0,0,0,2.21-.575,1.814,1.814,0,0,0-.126-3.179,15.028,15.028,0,0,0-3.557-1.239,9.218,9.218,0,0,1-4.132-1.959,4.376,4.376,0,0,1-1.365-3.358,4.439,4.439,0,0,1,1.761-3.54,6.864,6.864,0,0,1,4.526-1.455,7.664,7.664,0,0,1,4.689,1.347,5.561,5.561,0,0,1,2.174,3.862l-.108.181Z" transform="translate(-1516.637 -65.059)" fill="#001e60"/><path data-name="Path 1155" d="M906.706,9.539a6.413,6.413,0,0,0-4.6-1.635,9.212,9.212,0,0,0-6.36,2.623V1.4l-3.8-1.4h-.294V26.228h4.1V14.336a7.211,7.211,0,0,1,2.282-2.067,5.521,5.521,0,0,1,2.784-.772,3.651,3.651,0,0,1,2.551.881,3.246,3.246,0,0,1,.97,2.533V26.228h4.1V13.977a5.824,5.824,0,0,0-1.725-4.438" transform="translate(-795.055)" fill="#001e60"/><path data-name="Path 1156" d="M1856.294,181.683a3.468,3.468,0,0,1,4.927,0,3.333,3.333,0,0,1,1.044,2.457,3.4,3.4,0,0,1-1.044,2.479,3.414,3.414,0,0,1-4.927,0,3.4,3.4,0,0,1-1.044-2.479,3.33,3.33,0,0,1,1.044-2.457" transform="translate(-1654.265 -161.085)" fill="#ec5f77"/></g></g></svg>