<?xml version="1.0" encoding="UTF-8"?><svg id="Layer_2" xmlns="http://www.w3.org/2000/svg" xmlns:xlink="http://www.w3.org/1999/xlink" viewBox="0 0 515.23 203.5"><defs><style>.cls-1{fill:none;}.cls-2{clip-path:url(#clippath);}.cls-3{fill:#d50037;}.cls-4{fill:#1e262a;}.cls-5{clip-path:url(#clippath-1);}</style><clipPath id="clippath"><rect class="cls-1" y="0" width="515.23" height="203.5"/></clipPath><clipPath id="clippath-1"><rect class="cls-1" y="0" width="515.23" height="203.5"/></clipPath></defs><g id="Layer_1-2"><g id="LRE-LOGO-02"><g class="cls-2"><g class="cls-5"><path class="cls-4" d="m148.69,195.34c0,1.88-1.07,2.67-2.52,2.96l3.15,4.44-.97.76-3.53-5.06h-2.41v4.89h-1.28v-11.09h3.41c2.2,0,4.14.57,4.14,3.1m-6.27,2h2.13c1.57,0,2.85-.45,2.85-2s-1.28-2-2.85-2h-2.13v4Z"/><polygon class="cls-4" points="171.59 202.23 171.2 203.33 164.51 203.33 164.51 192.19 171.59 192.19 171.2 193.29 165.77 193.29 165.77 197.25 170.57 197.25 170.19 198.34 165.77 198.34 165.77 202.23 171.59 202.23"/><path class="cls-4" d="m193.21,200.87h-5.21l-1.08,2.47h-1.26l4.95-11.27,4.95,11.27h-1.26l-1.08-2.47Zm-2.6-5.94l-2.12,4.84h4.25l-2.13-4.84Z"/><polygon class="cls-4" points="217.82 202.25 217.44 203.34 210.75 203.34 210.75 192.44 212 192.07 212 202.25 217.82 202.25"/><polygon class="cls-4" points="257.24 202.23 256.85 203.33 250.16 203.33 250.16 192.19 257.24 192.19 256.85 193.29 251.42 193.29 251.42 197.25 256.22 197.25 255.83 198.34 251.42 198.34 251.42 202.23 257.24 202.23"/><path class="cls-4" d="m275.78,197c1.47.5,3.78,1.21,3.78,3.26s-1.39,3.24-4.25,3.24c-1.7,0-2.96-.6-3.69-1.22v-1.37c.73.61,2.46,1.44,3.69,1.44,2.1,0,2.91-.87,2.91-2.09s-1.65-1.69-3.07-2.16c-1.31-.44-3.49-1.23-3.49-3.12,0-2.22,1.87-3.03,3.7-3.03,1.68,0,2.77.56,3.3,1.07v1.32c-.53-.57-1.71-1.23-3.3-1.23s-2.36.54-2.36,1.86c0,1.08,1.47,1.56,2.78,2.01"/><polygon class="cls-4" points="299.49 193.34 299.49 203.33 298.23 203.33 298.23 193.34 294.27 193.34 294.66 192.24 303.45 192.24 303.07 193.34 299.49 193.34"/><path class="cls-4" d="m325.39,200.87h-5.21l-1.08,2.47h-1.26l4.95-11.27,4.95,11.27h-1.26l-1.08-2.47Zm-2.6-5.94l-2.12,4.84h4.25l-2.13-4.84Z"/><polygon class="cls-4" points="347.34 193.34 347.34 203.33 346.08 203.33 346.08 193.34 342.12 193.34 342.51 192.24 351.3 192.24 350.91 193.34 347.34 193.34"/><polygon class="cls-4" points="373.74 202.23 373.35 203.33 366.66 203.33 366.66 192.19 373.74 192.19 373.35 193.29 367.92 193.29 367.92 197.25 372.72 197.25 372.33 198.34 367.92 198.34 367.92 202.23 373.74 202.23"/><rect class="cls-3" x="224.62" y="151.01" width="66.23" height="2.2"/><path class="cls-4" d="m119.24,125.34c-5.01-1.82-11.52-2.51-15.74-2.36-15.04.49-28.62,4.33-41.74,8.05-12.3,3.48-25.01,7.07-38.95,7.93-6.79.44-11.22-.96-13.49-4.24-1.3-1.87-1.77-4.38-1.5-7.91.61-7.58,3.74-16.65,6.49-22.61,8-17.41,18.8-35.88,33.02-56.45,1.84-2.68,3.7-5.34,5.58-8,2.44-3.46,4.92-6.89,7.43-10.3,2.51-3.42,5.07-6.81,7.63-10.19,1.87-2.46,3.79-4.88,5.71-7.29,1.17-1.47,2.34-2.95,3.51-4.43.95-1.23,1.87-2.57,2.07-4.12.16-1.23-.42-2.74-1.84-3.26-1.08-.39-2.36-.1-3.52.8-.79.6-1.65,1.37-2.44,2.17-1.33,1.34-2.47,2.81-3.5,4.19-10.57,14.16-20.91,28.71-30.75,43.26C24.18,69.87,9.63,92.53,1.94,117.48c-1.53,4.97-2.13,9.11-1.89,13.03.19,3.08,1.18,8.75,5.73,12.09,3.95,2.89,9.13,3.3,13.21,3.33.18,0,.35,0,.53,0,15.13,0,29.85-4.6,44.09-9.06,2.43-.76,4.86-1.52,7.29-2.25,18.34-5.56,34.17-8.48,51.87-4.64,1.04.22,1.31-.4,1.37-.59.42-1.46-4.1-3.76-4.88-4.05"/><path class="cls-4" d="m88.22,75.95c.4.22.9.34,1.42.34.06,0,.12,0,.18,0,.52-.03.98-.19,1.38-.49.21-.15.4-.33.58-.5.24-.22.45-.41.7-.54.16-.09.32-.16.49-.23.36-.17.71-.33,1.03-.56.62-.43.98-1,.99-1.6.03-1.49-1.83-2.28-2.64-2.56-1.31-.44-2.6-.16-3.43.78-.51.58-.81,1.25-1.08,1.85-.29.65-1.17,2.65.37,3.51"/><path class="cls-4" d="m442.8,79.25c.57-.44,1.13-.88,1.69-1.33.5-.4.98-.82,1.61-1.37.24-.22.48-.43.69-.67l.17-.19c.19-.2.41-.43.57-.72.69-1.19.1-1.82-.08-1.97-.17-.15-.38-.24-.65-.27-.44-.05-.91.06-1.42.34-.22.11-.43.25-.68.42-.3.21-.59.42-.88.64-.43.33-.85.66-1.28,1l-.69.54c-.61.49-1.22.97-1.87,1.41-5.94,4-14,7.68-23.95,10.92-9.03,2.94-28.45,5.54-34.99.24-4.46-3.62-5.5-7.51-5.67-12.24-.04-1.24-.61-1.97-1.79-2.3-.11-.03-.21-.05-.32-.06-.83-.11-1.77.22-2.63.93l-4.93,4.72c-.52.44-1.03.89-1.55,1.35-3.58,3.14-7.65,6.7-14.41,9.55-1.67.71-5.01,1.32-6.18.71-.24-.13-.27-.25-.32-.48-.31-2.2,1.95-3.67,3.95-4.97l.17-.11c1.96-1.28,4.37-2.24,7.16-2.85,1.16-.26,3.58-.79,3.76-2.77.12-1.31-.95-2.33-2.05-2.67-.98-.3-2.02-.15-3,.05-5.66,1.2-9.89,4.24-13.42,7.08-11.72,6.99-25.93,10.74-39.41,10.15-7.21-.33-12-2.15-14.65-5.59-2.69-3.5-2.45-7.9-2.06-10.21.58-3.53,3.05-11.31,4.71-14.85,4.23-9.02,8.3-17.09,12.23-24.9,3.94-7.81,8.01-15.9,12.26-24.95,1.33-2.85,1.09-5.11-.66-6.05-.7-.37-1.47-.44-2.24-.19-1.94.63-3.19,2.97-3.53,3.67-6.44,13.33-14.38,27.22-24.99,43.71-5.37,8.34-12.58,19.2-20.82,29.22-4.27,5.19-8.68,10.56-14.83,13.52-1.31.64-2.74.69-3.65.16-.66-.4-1.02-1.08-1.07-2.04-.32-6.42,5.87-11.98,11.62-12.95l.54-.09c2.38-.38,5.98-.96,5.67-3.5-.25-2.08-2.75-2.85-4.96-2.67-3.43.27-6.82,1.49-9.82,3.52-.28.19-.53.42-.8.62-2.52,1.02-5.14,2.13-7.85,3.28-11.85,5.04-25.29,10.79-36.02,10.36-5.68-.2-9.46-1.7-11.23-4.44-1.01-1.56-1.33-3.46-1.67-5.47-.41-2.46-.84-5.01-2.65-6.94-2.46-2.62-6.95-3.29-12.02-1.8-7.07,2.08-12.96,6.5-18.19,11.14.46-.84.88-1.71,1.27-2.58.5-1.13.83-2.77.3-3.99-.29-.65-.79-1.11-1.46-1.34-1.41-.48-2.91.31-4.24,2.21-.35.5-.69,1.01-1.03,1.51-12.53,6.91-33.16,13.88-44.39,16.53-4.38,1.03-10.88,2.2-16.6.35-1.41-.46-2.51-1.23-3.1-2.18-2.05-3.31.5-7.58,2.55-11.02l.67-1.13c.66-1.15.69-2.35.08-3.41-.64-1.1-1.93-1.84-3.22-1.84h-.02c-1.16,0-2.16.6-2.74,1.63-1.57,2.77-2.86,6.06-3.96,10.04-.59,2.14-.72,3.89-.42,5.48.15.78.4,1.54.76,2.29l.15.3c1,1.93,2.64,3.59,4.6,4.68,2.27,1.26,4.98,1.56,7.09,1.67.47.02.98.04,1.51.04,5.17,0,12.66-1.17,17.22-2.39,4.38-1.17,10.05-2.76,15.11-4.58,4.64-1.64,10.46-4.42,15.61-6.86,1.6-.76,3.17-1.5,4.63-2.18-.02.03-.03.06-.05.09-.43.81-.85,1.62-1.24,2.43-.4.82-.79,1.64-1.16,2.46-.38.83-.74,1.66-1.09,2.5-.11.27-.24.56-.38.84-.42.89-.9,1.89-.94,2.9-.04,1.22.76,2.42,2.01,2.99.54.24,1.13.37,1.71.37.33,0,.65-.04.95-.12,1.77-.46,3.05-1.87,4.07-2.99,7.23-7.99,13.67-13.6,20.26-17.67,2.12-1.31,4.65-2.71,7.43-3.2,1.44-.25,2.56-.14,3.36.34,1.35.81,1.75,2.61,2.03,4.38.42,2.59.9,5.52,2.63,7.94,1.87,2.63,5.08,4.44,9.51,5.39,6.39,1.38,15.27-.59,22.28-2.45,7.51-1.99,13.35-4.65,18.5-6.99,1.06-.48,2.11-.95,3.15-1.42-.16.3-.36.58-.5.89-.85,1.77-1.42,3.59-1.7,5.43-.29,1.92-.46,3.94.32,5.65,1.44,3.15,5.04,4.62,8.22,4.62.5,0,.98-.03,1.44-.11,4.21-.64,7.61-3.34,10.66-6.17,10.1-9.37,18.27-20.48,25.98-32.25-.98,2.19-1.87,4.39-2.56,6.72-2.2,7.3-1.48,14.15,1.99,18.8,5.2,6.96,15.08,8.11,22.51,7.88,11.67-.4,23.24-3.55,33.47-8.98-.02.82.06,1.63.28,2.36.43,1.41,1.83,2.47,3.96,3,5.87,1.45,16.94-1.15,29.33-12.91.8,2.67,1.89,4.88,3.29,6.7.7.9,1.5,1.71,2.4,2.42,4.68,3.69,11.26,4.22,17.67,4.24h.23c2.56,0,4.87-.13,7.07-.41,6.12-.77,12.49-2.34,18.94-4.67,1.65-.59,3.29-1.2,4.91-1.85,3.78-1.5,6.89-2.98,10.39-4.96l.43-.25c.53-.31,1.05-.64,1.57-.98.59-.38,1.17-.77,1.75-1.17.61-.42,1.22-.86,1.83-1.3.61-.44,1.21-.9,1.81-1.35"/><path class="cls-4" d="m442.38,21.73c.41.17.79.17,1.23.17,3.18,0,6.43-2.81,9.65-8.3l.32-.47c.68-1.17.7-2.43.05-3.55-.7-1.22-2.18-2.14-3.44-2.14-1.73,0-3.45,1.37-5.09,4.08l.03.02c-.72,1.09-.88,2.19-.45,3.04.15.28.43.68.98.95-.84.74-1.74,1.25-2.22,1.37-1.08-.07-2.42.75-2.88,1.89-.11.67.07,1.42.5,2.02.34.48.81.8,1.32.91"/><path class="cls-4" d="m515.05,78.04l-.37-.15c-.41-.17-1.04-.16-2.93,1.15-2.56,1.58-5.2,2.73-8.32,3.61-3.31.95-6.68,1.6-9.25,2.07-6.8,1.23-13.66,2.27-20.67,3.32-3.34.5-7.23,1.14-10.99,2.14-.15-.65-.38-1.71-.47-2.17-.27-1.37-2.31-13.55,10.99-17.68.97-.3,1.52-.92,1.4-1.59-.07-.39-.49-1.29-2.73-1.14-6.54.33-16.14,5.73-15.79,19.26.04,1.61.3,2.8.73,4.57-.48.13-1.11.31-1.24.35-6.81,2.04-11.6,5.69-13.85,10.56-.66,1.43-1.25,3.54-.28,5.53.92,1.89,3.08,3.31,5.78,3.79.68.12,1.38.19,2.12.19,1.61,0,3.36-.29,5.31-.88,2.84-.85,7.84-2.94,9.42-7.37.83-2.32.56-4.85.14-7.24l-.27-1.47c10.2-2.66,21.92-4.89,32.28-6.86l.87-.17c6.23-1.19,11.76-3.24,15.57-5.78,1.04-.69,2.94-2.57,2.72-3.55l-.15-.48Zm-56.83,21.32c.04,1.18-.18,2.2-.63,3.02-.68,1.25-2.01,2.25-3.94,3-2.24.86-4.42,1.02-6.13.42-.62-.21-.7-.52-.73-.61-.15-.53.27-1.47,1.08-2.46,1.39-1.7,3.18-3.18,5.18-4.28,1.52-.83,3.14-1.46,4.8-1.83.18.9.35,1.82.37,2.74"/></g></g></g></g></svg>