<svg width="16" height="16" viewBox="0 0 16 16" fill="none" xmlns="http://www.w3.org/2000/svg">
<path opacity="0.5" d="M2.83398 7.9987C2.83398 6.62841 3.37833 5.31425 4.34727 4.34531C5.3162 3.37637 6.63037 2.83203 8.00065 2.83203C9.37094 2.83203 10.6851 3.37637 11.654 4.34531C12.623 5.31425 13.1673 6.62841 13.1673 7.9987C13.1673 9.36898 12.623 10.6831 11.654 11.6521C10.6851 12.621 9.37094 13.1654 8.00065 13.1654C6.63037 13.1654 5.3162 12.621 4.34727 11.6521C3.37833 10.6831 2.83398 9.36898 2.83398 7.9987Z" fill="#00AE8E"/>
<path d="M5.5 8C5.5 8.66304 5.76339 9.29893 6.23223 9.76777C6.70107 10.2366 7.33696 10.5 8 10.5C8.66304 10.5 9.29893 10.2366 9.76777 9.76777C10.2366 9.29893 10.5 8.66304 10.5 8C10.5 7.33696 10.2366 6.70107 9.76777 6.23223C9.29893 5.76339 8.66304 5.5 8 5.5C7.33696 5.5 6.70107 5.76339 6.23223 6.23223C5.76339 6.70107 5.5 7.33696 5.5 8Z" fill="#00AE8E"/>
</svg>
