<svg xmlns="http://www.w3.org/2000/svg" width="16" height="16" viewBox="0 0 16 16" fill="none">
    <path fill-rule="evenodd" clip-rule="evenodd" d="M4.16536 8.66634C6.87803 8.66634 6.9987 9.58634 6.9987 11.4997C6.9987 12.4583 6.9987 13.1403 6.59603 13.6397C6.1327 14.215 5.28936 14.333 4.16536 14.333C3.04136 14.333 2.19803 14.215 1.7347 13.6397C1.33203 13.1403 1.33203 12.459 1.33203 11.5163L1.83203 11.4997H1.33203C1.33203 9.58634 1.4527 8.66634 4.16536 8.66634ZM11.4987 8.66634C14.2114 8.66634 14.332 9.58634 14.332 11.4997C14.332 12.4583 14.332 13.1403 13.9294 13.6397C13.466 14.215 12.6227 14.333 11.4987 14.333C10.3747 14.333 9.53136 14.215 9.06803 13.6397C8.66536 13.1403 8.66536 12.459 8.66536 11.5163L9.16536 11.4997H8.66536C8.66536 9.58634 8.78603 8.66634 11.4987 8.66634ZM4.3028 9.66664L4.16536 9.66634C2.42605 9.66634 2.33685 9.79115 2.33228 11.251L2.33256 11.8198C2.33572 12.4004 2.35784 12.8199 2.5127 13.013C2.68936 13.2317 3.21403 13.333 4.16536 13.333C5.1167 13.333 5.64136 13.231 5.81803 13.0123C5.9987 12.7877 5.9987 12.2543 5.9987 11.5157C5.9987 9.84887 5.9987 9.67449 4.3028 9.66664ZM11.6361 9.66664L11.4987 9.66634C9.75938 9.66634 9.67019 9.79115 9.66561 11.251L9.66589 11.8198C9.66905 12.4004 9.69117 12.8199 9.84603 13.013C10.0227 13.2317 10.5474 13.333 11.4987 13.333C12.45 13.333 12.9747 13.231 13.1514 13.0123C13.332 12.7877 13.332 12.2543 13.332 11.5157C13.332 9.84887 13.332 9.67449 11.6361 9.66664ZM4.16536 1.33301C6.87803 1.33301 6.9987 2.25301 6.9987 4.16634C6.9987 5.12501 6.9987 5.80701 6.59603 6.30634C6.1327 6.88167 5.28936 6.99967 4.16536 6.99967C3.04136 6.99967 2.19803 6.88167 1.7347 6.30634C1.33203 5.80701 1.33203 5.12567 1.33203 4.18301L1.83203 4.16634H1.33203C1.33203 2.25301 1.4527 1.33301 4.16536 1.33301ZM11.4987 1.33301C14.2114 1.33301 14.332 2.25301 14.332 4.16634C14.332 5.12501 14.332 5.80701 13.9294 6.30634C13.466 6.88167 12.6227 6.99967 11.4987 6.99967C10.3747 6.99967 9.53136 6.88167 9.06803 6.30634C8.66536 5.80701 8.66536 5.12567 8.66536 4.18301L9.16536 4.16634H8.66536C8.66536 2.25301 8.78603 1.33301 11.4987 1.33301ZM4.3028 2.33331L4.16536 2.33301C2.42605 2.33301 2.33685 2.45782 2.33228 3.91771L2.33256 4.48646C2.33572 5.0671 2.35784 5.48653 2.5127 5.67967C2.68936 5.89834 3.21403 5.99967 4.16536 5.99967C5.1167 5.99967 5.64136 5.89767 5.81803 5.67901C5.9987 5.45434 5.9987 4.92101 5.9987 4.18234C5.9987 2.51554 5.9987 2.34115 4.3028 2.33331ZM11.6361 2.33331L11.4987 2.33301C9.75938 2.33301 9.67019 2.45782 9.66561 3.91771L9.66589 4.48646C9.66905 5.0671 9.69117 5.48653 9.84603 5.67967C10.0227 5.89834 10.5474 5.99967 11.4987 5.99967C12.45 5.99967 12.9747 5.89767 13.1514 5.67901C13.332 5.45434 13.332 4.92101 13.332 4.18234C13.332 2.51554 13.332 2.34115 11.6361 2.33331Z" fill="#1F1F1F"/>
</svg>
