<svg xmlns="http://www.w3.org/2000/svg" width="14" height="14" viewBox="0 0 14 14" fill="none">
    <path fill-rule="evenodd" clip-rule="evenodd" d="M3.16536 7.66634C5.87803 7.66634 5.9987 8.58634 5.9987 10.4997C5.9987 11.4583 5.9987 12.1403 5.59603 12.6397C5.1327 13.215 4.28936 13.333 3.16536 13.333C2.04136 13.333 1.19803 13.215 0.734698 12.6397C0.332031 12.1403 0.332031 11.459 0.332031 10.5163L0.832031 10.4997H0.332031C0.332031 8.58634 0.452698 7.66634 3.16536 7.66634ZM10.4987 7.66634C13.2114 7.66634 13.332 8.58634 13.332 10.4997C13.332 11.4583 13.332 12.1403 12.9294 12.6397C12.466 13.215 11.6227 13.333 10.4987 13.333C9.3747 13.333 8.53136 13.215 8.06803 12.6397C7.66536 12.1403 7.66536 11.459 7.66536 10.5163L8.16536 10.4997H7.66536C7.66536 8.58634 7.78603 7.66634 10.4987 7.66634ZM3.3028 8.66664L3.16536 8.66634C1.42605 8.66634 1.33685 8.79115 1.33228 10.251L1.33256 10.8198C1.33572 11.4004 1.35784 11.8199 1.5127 12.013C1.68936 12.2317 2.21403 12.333 3.16536 12.333C4.1167 12.333 4.64136 12.231 4.81803 12.0123C4.9987 11.7877 4.9987 11.2543 4.9987 10.5157C4.9987 8.84887 4.9987 8.67449 3.3028 8.66664ZM10.6361 8.66664L10.4987 8.66634C8.75938 8.66634 8.67019 8.79115 8.66561 10.251L8.66589 10.8198C8.66905 11.4004 8.69117 11.8199 8.84603 12.013C9.0227 12.2317 9.54737 12.333 10.4987 12.333C11.45 12.333 11.9747 12.231 12.1514 12.0123C12.332 11.7877 12.332 11.2543 12.332 10.5157C12.332 8.84887 12.332 8.67449 10.6361 8.66664ZM3.16536 0.333008C5.87803 0.333008 5.9987 1.25301 5.9987 3.16634C5.9987 4.12501 5.9987 4.80701 5.59603 5.30634C5.1327 5.88167 4.28936 5.99967 3.16536 5.99967C2.04136 5.99967 1.19803 5.88167 0.734698 5.30634C0.332031 4.80701 0.332031 4.12567 0.332031 3.18301L0.832031 3.16634H0.332031C0.332031 1.25301 0.452698 0.333008 3.16536 0.333008ZM10.4987 0.333008C13.2114 0.333008 13.332 1.25301 13.332 3.16634C13.332 4.12501 13.332 4.80701 12.9294 5.30634C12.466 5.88167 11.6227 5.99967 10.4987 5.99967C9.3747 5.99967 8.53136 5.88167 8.06803 5.30634C7.66536 4.80701 7.66536 4.12567 7.66536 3.18301L8.16536 3.16634H7.66536C7.66536 1.25301 7.78603 0.333008 10.4987 0.333008ZM3.3028 1.33331L3.16536 1.33301C1.42605 1.33301 1.33685 1.45782 1.33228 2.91771L1.33256 3.48646C1.33572 4.0671 1.35784 4.48653 1.5127 4.67967C1.68936 4.89834 2.21403 4.99967 3.16536 4.99967C4.1167 4.99967 4.64136 4.89767 4.81803 4.67901C4.9987 4.45434 4.9987 3.92101 4.9987 3.18234C4.9987 1.51554 4.9987 1.34115 3.3028 1.33331ZM10.6361 1.33331L10.4987 1.33301C8.75938 1.33301 8.67019 1.45782 8.66561 2.91771L8.66589 3.48646C8.66905 4.0671 8.69117 4.48653 8.84603 4.67967C9.0227 4.89834 9.54737 4.99967 10.4987 4.99967C11.45 4.99967 11.9747 4.89767 12.1514 4.67901C12.332 4.45434 12.332 3.92101 12.332 3.18234C12.332 1.51554 12.332 1.34115 10.6361 1.33331Z" fill="#1A5CEB"/>
</svg>
