<svg width="74" height="74" viewBox="0 0 74 74" fill="none" xmlns="http://www.w3.org/2000/svg">
<rect x="2.5" y="2.5" width="69" height="69" rx="34.5" fill="black"/>
<rect x="2.5" y="2.5" width="69" height="69" rx="34.5" stroke="#F0F1F2" stroke-width="5"/>
<path d="M35.7583 46.9972H45.4508C47.1559 46.9972 48.5373 45.6859 48.5373 44.0694V37.7464C48.5373 36.9609 48.1648 36.2173 47.5229 35.7208L42.3436 31.7184C41.331 30.9363 39.8782 30.9363 38.8656 31.7184L33.6862 35.7208C33.0444 36.2173 32.6719 36.9609 32.6719 37.7464V44.0694C32.6719 45.6859 34.0533 46.9972 35.7583 46.9972Z" stroke="white" stroke-width="1.80288" stroke-linecap="round" stroke-linejoin="round"/>
<path fill-rule="evenodd" clip-rule="evenodd" d="M38.2305 39.0128C38.2305 38.591 38.5724 38.249 38.9943 38.249H42.8894C43.3114 38.249 43.6532 38.591 43.6532 39.0128C43.6532 39.4347 43.3114 39.7766 42.8894 39.7766H38.9943C38.5724 39.7766 38.2305 39.4347 38.2305 39.0128ZM38.2305 42.9822C38.2305 42.5604 38.5724 42.2184 38.9943 42.2184H42.8894C43.3114 42.2184 43.6532 42.5604 43.6532 42.9822C43.6532 43.404 43.3114 43.746 42.8894 43.746H38.9943C38.5724 43.746 38.2305 43.404 38.2305 42.9822Z" fill="white"/>
<path d="M38.683 31.5812L35.1326 28.8376C34.12 28.0554 32.6673 28.0554 31.6546 28.8376L26.4753 32.8399C25.8334 33.3365 25.4609 34.08 25.4609 34.8655V41.1886C25.4609 42.8051 26.8423 44.1164 28.5474 44.1164H32.6725" stroke="white" stroke-width="1.80288" stroke-linecap="round" stroke-linejoin="round"/>
</svg>
