<svg xmlns="http://www.w3.org/2000/svg" width="16" height="16" viewBox="0 0 16 16" fill="none">
    <path d="M7.13255 14.3153H5.43254C4.58311 14.3143 3.76877 13.9764 3.16813 13.3757C2.5675 12.7751 2.22958 11.9607 2.22852 11.1113V4.704C2.22958 3.85457 2.5675 3.04023 3.16813 2.43959C3.76877 1.83896 4.58311 1.50106 5.43254 1.5H10.0912C10.9406 1.50106 11.7549 1.83896 12.3556 2.43959C12.9562 3.04023 13.2941 3.85457 13.2951 4.704V6.91267C13.2951 7.04527 13.2425 7.17247 13.1487 7.2662C13.0549 7.36 12.9277 7.41267 12.7951 7.41267C12.6625 7.41267 12.5354 7.36 12.4417 7.2662C12.3479 7.17247 12.2951 7.04527 12.2951 6.91267V4.704C12.2945 4.11968 12.0621 3.5595 11.6489 3.14632C11.2357 2.73315 10.6755 2.50071 10.0912 2.5H5.43254C4.84822 2.50071 4.28802 2.73315 3.87484 3.14632C3.46166 3.5595 3.22922 4.11968 3.22852 4.704V11.1113C3.22922 11.6957 3.46166 12.2559 3.87484 12.669C4.28802 13.0822 4.84822 13.3146 5.43254 13.3153H7.13388C7.26648 13.3153 7.39362 13.368 7.48742 13.4618C7.58115 13.5555 7.63388 13.6827 7.63388 13.8153C7.63388 13.9479 7.58115 14.0751 7.48742 14.1689C7.39362 14.2627 7.26648 14.3153 7.13388 14.3153H7.13255Z" fill="#F1A246"/>
    <path d="M10.1007 14.4998C9.95461 14.4992 9.81027 14.468 9.67707 14.408C9.54381 14.3481 9.42474 14.2608 9.32741 14.1519C9.23007 14.043 9.15674 13.9148 9.11221 13.7756C9.06761 13.6366 9.05281 13.4896 9.06867 13.3444L9.12141 12.8471C9.15821 12.5029 9.30254 12.1791 9.53401 11.9218L11.6427 9.6191C11.8521 9.3925 12.1429 9.25824 12.4513 9.2457C12.7596 9.23324 13.0603 9.3435 13.2873 9.55244L13.732 9.96444C13.9578 10.1742 14.0911 10.4648 14.1029 10.7728C14.1147 11.0807 14.0038 11.3808 13.7947 11.6071L11.7154 13.8738C11.4652 14.153 11.1273 14.3386 10.7573 14.3998L10.2753 14.4818C10.2177 14.4923 10.1593 14.4984 10.1007 14.4998ZM12.5007 10.2438C12.4782 10.2438 12.456 10.2484 12.4353 10.2574C12.4147 10.2663 12.3961 10.2794 12.3807 10.2958L10.2781 12.5924C10.1882 12.6936 10.1325 12.8205 10.1187 12.9551L10.0653 13.4524L10.594 13.4178C10.7413 13.393 10.8757 13.319 10.9753 13.2078L13.0613 10.9304C13.0762 10.9148 13.0878 10.8963 13.0955 10.8761C13.1032 10.856 13.1067 10.8344 13.1061 10.8129C13.1054 10.7913 13.1005 10.7701 13.0915 10.7504C13.0826 10.7308 13.0699 10.7131 13.0541 10.6984L12.61 10.2871C12.5803 10.2595 12.5413 10.244 12.5007 10.2438Z" fill="#F1A246"/>
    <path d="M7.83312 9.77462H6.0918C5.95919 9.77462 5.83201 9.72189 5.73824 9.62816C5.64447 9.53436 5.5918 9.40722 5.5918 9.27462C5.5918 9.14196 5.64447 9.01482 5.73824 8.92109C5.83201 8.82729 5.95919 8.77463 6.0918 8.77463H7.83312C7.96572 8.77463 8.09292 8.82729 8.18672 8.92109C8.28045 9.01482 8.33312 9.14196 8.33312 9.27462C8.33312 9.40722 8.28045 9.53436 8.18672 9.62816C8.09292 9.72189 7.96572 9.77462 7.83312 9.77462ZM9.42778 6.86196H6.09448C5.96187 6.86196 5.83469 6.80929 5.74092 6.71549C5.64716 6.62173 5.59448 6.49455 5.59448 6.36194C5.59448 6.22933 5.64716 6.10215 5.74092 6.00838C5.83469 5.91461 5.96187 5.86194 6.09448 5.86194H9.42778C9.56045 5.86194 9.68758 5.91461 9.78132 6.00838C9.87512 6.10215 9.92778 6.22933 9.92778 6.36194C9.92778 6.49455 9.87512 6.62173 9.78132 6.71549C9.68758 6.80929 9.56045 6.86196 9.42778 6.86196Z" fill="#F1A246"/>
</svg>
