<svg xmlns="http://www.w3.org/2000/svg" width="16" height="16" viewBox="0 0 16 16" fill="none">
    <path fill-rule="evenodd" clip-rule="evenodd" d="M7.82969 0.666809C9.74502 0.666809 11.545 1.41148 12.897 2.76414C15.6917 5.55881 15.6917 10.1055 12.897 12.9001C11.527 14.2708 9.68235 14.9961 7.81369 14.9961C6.79502 14.9961 5.76969 14.7808 4.81035 14.3368C4.52769 14.2235 4.26302 14.1168 4.07302 14.1168C3.85435 14.1181 3.56035 14.2195 3.27635 14.3175C2.69369 14.5175 1.96835 14.7668 1.43169 14.2321C0.897021 13.6968 1.14369 12.9735 1.34235 12.3915C1.44035 12.1048 1.54102 11.8088 1.54102 11.5848C1.54102 11.4008 1.45235 11.1661 1.31635 10.8281C0.0676873 8.13147 0.645021 4.88148 2.76302 2.76481C4.11502 1.41214 5.91435 0.666809 7.82969 0.666809ZM7.83035 1.66681C6.18169 1.66681 4.63302 2.30814 3.46969 3.47214C1.64702 5.29348 1.15102 8.09014 2.23435 10.4321C2.39035 10.8181 2.54102 11.1941 2.54102 11.5848C2.54102 11.9748 2.40702 12.3675 2.28902 12.7141C2.19169 12.9995 2.04435 13.4301 2.13902 13.5248C2.23169 13.6208 2.66502 13.4695 2.95102 13.3715C3.29435 13.2541 3.68369 13.1195 4.06969 13.1168C4.45635 13.1168 4.82102 13.2635 5.20702 13.4188C7.57169 14.5121 10.3684 14.0148 12.1904 12.1935C14.5944 9.78814 14.5944 5.87548 12.1904 3.47148C11.0264 2.30748 9.47835 1.66681 7.83035 1.66681ZM10.4616 7.44194C10.8296 7.44194 11.1283 7.73994 11.1283 8.10861C11.1283 8.47727 10.8296 8.77528 10.4616 8.77528C10.0936 8.77528 9.79229 8.47727 9.79229 8.10861C9.79229 7.73994 10.0876 7.44194 10.4556 7.44194H10.4616ZM7.78909 7.44194C8.15709 7.44194 8.45575 7.73994 8.45575 8.10861C8.45575 8.47727 8.15709 8.77528 7.78909 8.77528C7.42109 8.77528 7.11975 8.47727 7.11975 8.10861C7.11975 7.73994 7.41442 7.44194 7.78309 7.44194H7.78909ZM5.11629 7.44194C5.48429 7.44194 5.78295 7.73994 5.78295 8.10861C5.78295 8.47727 5.48429 8.77528 5.11629 8.77528C4.74829 8.77528 4.44695 8.47727 4.44695 8.10861C4.44695 7.73994 4.74229 7.44194 5.11029 7.44194H5.11629Z" fill="#B3B3B3"/>
</svg>
