<svg width="20" height="20" viewBox="0 0 20 20" fill="none" xmlns="http://www.w3.org/2000/svg">
<path fill-rule="evenodd" clip-rule="evenodd" d="M14.3476 17.5H5.65483C4.12564 17.5 2.88672 16.2603 2.88672 14.7319V8.75375C2.88672 8.01109 3.22078 7.30811 3.79645 6.83865L8.44156 3.05459C9.34973 2.31514 10.6526 2.31514 11.5608 3.05459L16.2059 6.83865C16.7816 7.30811 17.1156 8.01109 17.1156 8.75375V14.7319C17.1156 16.2603 15.8767 17.5 14.3476 17.5Z" stroke="black" stroke-width="1.25" stroke-linecap="round" stroke-linejoin="round"/>
<path d="M12.6076 14.1498L12.6076 8.49193M14.0589 12.6919L12.6076 14.1514L11.1562 12.6919" stroke="black" stroke-width="1.25" stroke-linecap="round" stroke-linejoin="round"/>
<path d="M8.11974 8.33726L8.11974 13.9951M8.11974 8.33726L6.66797 9.79693M8.11974 8.33726L9.57063 9.79693" stroke="black" stroke-width="1.25" stroke-linecap="round" stroke-linejoin="round"/>
</svg>
