<svg xmlns="http://www.w3.org/2000/svg" width="16" height="16" viewBox="0 0 16 16" fill="none">
    <path d="M4.33449 14H11.6655C12.9552 14 14 13.0082 14 11.7855V7.003C14 6.40887 13.7183 5.84649 13.2328 5.47092L9.31532 2.44367C8.54941 1.85211 7.4506 1.85211 6.68469 2.44367L2.76723 5.47092C2.28173 5.84649 2 6.40887 2 7.003V11.7855C2 13.0082 3.04484 14 4.33449 14Z" stroke="#00AE8E" stroke-width="1.03088" stroke-linecap="round" stroke-linejoin="round"/>
    <path fill-rule="evenodd" clip-rule="evenodd" d="M6 7.80774C6 6.80886 6.89594 6 8.00005 6C9.10492 6 10 6.80905 10 7.80774C10 8.27661 9.80134 8.69976 9.48072 9.01807L9.82815 9.96263C10.0753 10.6371 9.5205 11.3333 8.73442 11.3333H7.26631C6.48015 11.3333 5.92522 10.6376 6.17237 9.96314L6.52001 9.01814C6.19928 8.70001 6 8.27693 6 7.80774ZM8.00005 6.95647C7.47999 6.95647 7.0582 7.33747 7.0582 7.80774C7.0582 8.0857 7.20782 8.33221 7.44408 8.48946C7.6287 8.61234 7.70474 8.82876 7.63244 9.02541L7.17685 10.2639C7.1564 10.3202 7.20267 10.3769 7.26631 10.3769H8.73442C8.79798 10.3769 8.84433 10.3203 8.82387 10.2641L8.36829 9.02541C8.29591 8.82876 8.37196 8.61234 8.55665 8.48946C8.79241 8.33247 8.94182 8.08621 8.94182 7.80774C8.94182 7.33728 8.52053 6.95647 8.00005 6.95647Z" fill="#00AE8E"/>
</svg>
