<svg xmlns="http://www.w3.org/2000/svg" width="16" height="17" viewBox="0 0 16 17" fill="none">
    <path fill-rule="evenodd" clip-rule="evenodd" d="M13.9895 4.73487C13.9875 3.7937 13.2759 2.94983 12.3523 2.79091C12.1629 2.75783 9.94133 2.76237 9.0222 2.76302C8.1128 2.76367 7.33767 3.09058 6.69553 3.73143C5.33209 5.09227 3.96995 6.45441 2.60911 7.81783C1.80479 8.6241 1.79377 9.8617 2.59549 10.6706C3.75201 11.8381 4.91437 12.9998 6.08127 14.1564C6.88947 14.9574 8.12707 14.947 8.934 14.1421C10.3097 12.7702 11.6855 11.3983 13.0554 10.0206C13.5853 9.48743 13.898 8.84337 13.9674 8.0903C14.0232 7.48837 13.9907 5.25054 13.9895 4.73487Z" stroke="#6692F1" stroke-linecap="round" stroke-linejoin="round"/>
    <path fill-rule="evenodd" clip-rule="evenodd" d="M9.39454 6.29777C9.39714 6.87765 9.88168 7.35443 10.4673 7.3531C11.0492 7.35183 11.5337 6.86662 11.5305 6.28868C11.5266 5.68545 11.0492 5.21519 10.4421 5.21778C9.86608 5.21973 9.39194 5.70816 9.39454 6.29777Z" stroke="#6692F1" stroke-linecap="round" stroke-linejoin="round"/>
    <path d="M5.36328 9.66406L7.08091 11.3817" stroke="#6692F1" stroke-linecap="round" stroke-linejoin="round"/>
</svg>
