<svg xmlns="http://www.w3.org/2000/svg" width="16" height="16" viewBox="0 0 16 16" fill="none">
    <path d="M3.32681 4.79336C3.32681 3.98355 3.98295 3.32741 4.79275 3.32677H5.45992C5.84699 3.32677 6.21786 3.1731 6.49276 2.90079L6.95893 2.43397C7.53013 1.85952 8.4586 1.85693 9.03307 2.42749L9.03367 2.42813L9.03953 2.43332L9.50633 2.90014C9.7806 3.1731 10.1521 3.32611 10.5392 3.32611H11.2077C12.0175 3.32611 12.6743 3.98291 12.6743 4.79271V5.45923C12.6743 5.84695 12.8273 6.21781 13.1002 6.49272L13.5671 6.95951C14.1415 7.53077 14.1447 8.45917 13.5742 9.03364L13.1009 9.50697C12.8279 9.78124 12.6749 10.1527 12.6749 10.5392V11.2082C12.6736 12.018 12.0168 12.6729 11.2077 12.6722H10.5379C10.1508 12.6722 9.77933 12.8259 9.50507 13.0989L9.03827 13.565C8.46833 14.1402 7.53987 14.144 6.9654 13.5741L6.96347 13.5728L6.49147 13.1008C6.21721 12.8278 5.8457 12.6748 5.45863 12.6742H4.79275C3.98295 12.6742 3.32681 12.018 3.32681 11.2082V10.5378C3.32681 10.1508 3.17315 9.77991 2.90019 9.50564L2.43401 9.03884C1.85891 8.46891 1.85503 7.54177 2.42429 6.96664C2.42429 6.96664 2.42623 6.96537 2.42688 6.96411L2.89889 6.49142C3.17185 6.21717 3.32551 5.84565 3.32551 5.45793V4.79336" stroke="#1A5CEB" stroke-linecap="round" stroke-linejoin="round"/>
    <path d="M6.00195 8.08154L7.32008 9.4016L10.0354 6.68494" stroke="#1A5CEB" stroke-linecap="round" stroke-linejoin="round"/>
</svg>
