<svg xmlns="http://www.w3.org/2000/svg" width="20" height="21" viewBox="0 0 20 21" fill="none">
    <path fill-rule="evenodd" clip-rule="evenodd" d="M17.4868 5.79365C17.4844 4.61719 16.5949 3.56235 15.4403 3.3637C15.2036 3.32235 12.4267 3.32802 11.2778 3.32884C10.141 3.32965 9.17208 3.73829 8.36942 4.53935C6.66511 6.2404 4.96243 7.94308 3.26138 9.64735C2.25599 10.6552 2.24221 12.2022 3.24436 13.2133C4.69001 14.6727 6.14296 16.1249 7.60158 17.5705C8.61183 18.5719 10.1588 18.5589 11.1675 17.5527C12.8872 15.8378 14.6068 14.1229 16.3193 12.4009C16.9817 11.7344 17.3725 10.9293 17.4593 9.98794C17.529 9.23552 17.4884 6.43824 17.4868 5.79365Z" stroke="black" stroke-width="1.25" stroke-linecap="round" stroke-linejoin="round"/>
    <path fill-rule="evenodd" clip-rule="evenodd" d="M11.7442 7.74843C11.7474 8.47328 12.3531 9.06926 13.0852 9.06759C13.8125 9.06601 14.4182 8.4595 14.4141 7.73708C14.4092 6.98303 13.8125 6.39521 13.0536 6.39845C12.3336 6.40088 11.7409 7.01142 11.7442 7.74843Z" stroke="black" stroke-width="1.25" stroke-linecap="round" stroke-linejoin="round"/>
    <path d="M6.70508 11.9609L8.85211 14.1079" stroke="black" stroke-width="1.25" stroke-linecap="round" stroke-linejoin="round"/>
</svg>
