<svg width="20" height="20" viewBox="0 0 20 20" fill="none" xmlns="http://www.w3.org/2000/svg">
<path d="M5.65483 17.5H14.3476C15.8767 17.5 17.1156 16.2603 17.1156 14.7319V8.75375C17.1156 8.01109 16.7816 7.30811 16.2059 6.83865L11.5608 3.05459C10.6526 2.31514 9.34973 2.31514 8.44156 3.05459L3.79645 6.83865C3.22078 7.30811 2.88672 8.01109 2.88672 8.75375V14.7319C2.88672 16.2603 4.12564 17.5 5.65483 17.5Z" stroke="black" stroke-width="1.25" stroke-linecap="round" stroke-linejoin="round"/>
<path fill-rule="evenodd" clip-rule="evenodd" d="M7.79902 12.0479C7.14389 12.0438 6.60956 12.5708 6.6055 13.2251C6.60064 13.8803 7.12848 14.4146 7.7828 14.4186C8.4379 14.4235 8.97224 13.8965 8.97632 13.2414V13.2332C8.97874 12.5805 8.45174 12.0503 7.79902 12.0479Z" stroke="black" stroke-width="1.25" stroke-linecap="round" stroke-linejoin="round"/>
<path fill-rule="evenodd" clip-rule="evenodd" d="M12.2046 10.8894C12.8589 10.8934 13.3941 10.3664 13.3982 9.71209C13.403 9.057 12.8752 8.52267 12.2209 8.51859C11.5657 8.51375 11.0314 9.04075 11.0274 9.69592V9.704C11.0249 10.3567 11.5519 10.887 12.2046 10.8894Z" stroke="black" stroke-width="1.25" stroke-linecap="round" stroke-linejoin="round"/>
<path d="M7.79297 12.0471V8.51855" stroke="black" stroke-width="1.25" stroke-linecap="round" stroke-linejoin="round"/>
<path d="M12.2148 10.8916V14.4202" stroke="black" stroke-width="1.25" stroke-linecap="round" stroke-linejoin="round"/>
</svg>
