<svg xmlns="http://www.w3.org/2000/svg" width="16" height="16" viewBox="0 0 16 16" fill="none">
    <path fill-rule="evenodd" clip-rule="evenodd" d="M3.24933 3.25898C2.86802 3.73763 2.66797 4.4893 2.66797 5.56116V10.4364C2.66797 11.4564 2.96723 12.2052 3.4618 12.6988C3.9565 13.1926 4.70749 13.4916 5.73098 13.4916H10.5952C11.6158 13.4916 12.3648 13.1928 12.8582 12.6992C13.3517 12.2056 13.6505 11.4567 13.6505 10.4364V10.4336L13.668 7.33264C13.668 7.33218 13.668 7.33164 13.668 7.33118C13.6678 6.23315 13.4649 5.52486 13.0936 5.09008C12.7376 4.67324 12.1398 4.40952 11.0978 4.40952H9.32897H9.3275C8.72237 4.40777 8.15284 4.12308 7.7885 3.63993L7.78804 3.63933L7.21744 2.88022C7.04204 2.64669 6.7675 2.50916 6.47649 2.50916H5.22642C4.20919 2.50916 3.6117 2.80412 3.24933 3.25898ZM2.46719 2.63589C3.07476 1.87323 4.00649 1.50916 5.22642 1.50916H6.47649C7.0831 1.50916 7.65324 1.79534 8.01677 2.27935C8.0167 2.27928 8.01684 2.27942 8.01677 2.27935L8.58697 3.03786C8.58684 3.03773 8.58704 3.03798 8.58697 3.03786C8.7627 3.27066 9.03764 3.40848 9.32977 3.40952H11.0978C12.2983 3.40952 13.2355 3.71643 13.854 4.44068C14.457 5.14679 14.668 6.14963 14.668 7.33264V7.33544L14.6505 10.4364C14.6505 10.4369 14.6505 10.4374 14.6505 10.4379C14.6502 11.6535 14.2899 12.6816 13.5654 13.4062C12.8405 14.1312 11.8118 14.4916 10.5952 14.4916H5.73098C4.51213 14.4916 3.48162 14.1314 2.7554 13.4066C2.02904 12.6817 1.66797 11.6529 1.66797 10.4364V5.56116C1.66797 4.3991 1.87856 3.37476 2.46719 2.63589Z" fill="#E95559"/>
    <path fill-rule="evenodd" clip-rule="evenodd" d="M6.6191 7.24936C6.81433 7.05409 7.13093 7.05409 7.3262 7.24936L8.16667 8.08982L9.00653 7.24996C9.2018 7.05469 9.51833 7.05469 9.7136 7.24996C9.90887 7.44522 9.90887 7.76182 9.7136 7.95709L8.8738 8.79689L9.713 9.63609C9.90827 9.83136 9.90827 10.148 9.713 10.3432C9.51773 10.5385 9.20113 10.5385 9.00587 10.3432L8.16667 9.50402L7.32687 10.3439C7.1316 10.5391 6.815 10.5391 6.61973 10.3439C6.42447 10.1486 6.42447 9.83202 6.61973 9.63676L7.4596 8.79689L6.6191 7.95642C6.42384 7.76116 6.42384 7.44462 6.6191 7.24936Z" fill="#E95559"/>
</svg>
