<svg width="40" height="55" viewBox="0 0 21 36" fill="none" xmlns="http://www.w3.org/2000/svg">
<g clip-path="url(#clip0_15687_49604)">
<path d="M10.3695 1.47754C15.6993 1.47754 20.0004 5.77641 20.0004 11.0967C20.0003 13.2576 19.19 15.055 18.0844 16.8086C15.3116 17.1076 13.1639 18.0687 11.682 19.9111C11.1296 20.5979 10.7021 21.3701 10.3695 22.208C10.0369 21.3701 9.60936 20.5978 9.05701 19.9111C7.57501 18.0687 5.42752 17.1075 2.65466 16.8086C1.54908 15.0551 0.739699 13.2575 0.739624 11.0967C0.739624 5.77651 5.0398 1.4777 10.3695 1.47754Z" fill="#1A5CEB" stroke="white"/>
<path d="M10.0387 10.5769C11.1185 10.5769 11.9939 9.70154 11.9939 8.62171C11.9939 7.54188 11.1185 6.6665 10.0387 6.6665C8.95887 6.6665 8.0835 7.54188 8.0835 8.62171C8.0835 9.70154 8.95887 10.5769 10.0387 10.5769Z" stroke="white" stroke-linecap="round" stroke-linejoin="round"/>
<path d="M7.36897 13.3331C7.32287 13.0677 7.34191 12.7926 7.34191 12.5244C7.34191 11.5139 8.16106 10.6948 9.17154 10.6948H10.9531C11.9636 10.6948 12.7828 11.5139 12.7828 12.5244C12.7828 12.7926 12.8018 13.0677 12.7557 13.3331" stroke="white" stroke-linecap="round" stroke-linejoin="round"/>
</g>
<defs>
<clipPath id="clip0_15687_49604">
<rect width="20.2603" height="22.8594" fill="white" transform="translate(0.239624 0.977539)"/>
</clipPath>
</defs>
</svg>

